M48
; DRILL file {KiCad 9.0.2} date 2026-08-22T16:17:20-0700
; FORMAT={-:-/ absolute / metric / decimal}
; #@! TF.CreationDate,2026-08-22T16:17:20-07:00
; #@! TF.GenerationSoftware,Kicad,Pcbnew,9.0.2
; #@! TF.FileFunction,Plated,1,4,PTH
FMAT,2
METRIC
; #@! TA.AperFunction,Plated,PTH,ViaDrill
T1C0.300
; #@! TA.AperFunction,Plated,PTH,ComponentDrill
T2C0.300
; #@! TA.AperFunction,Plated,PTH,ViaDrill
T3C0.600
; #@! TA.AperFunction,Plated,PTH,ComponentDrill
T4C0.600
; #@! TA.AperFunction,Plated,PTH,ComponentDrill
T5C0.650
; #@! TA.AperFunction,Plated,PTH,ComponentDrill
T6C1.000
; #@! TA.AperFunction,Plated,PTH,ComponentDrill
T7C2.700
%
G90
G05
T1
X98.1Y-68.15
X101.175Y-57.55
X101.425Y-90.825
X101.825Y-74.5
X102.275Y-70.5
X103.825Y-76.87
X105.1Y-76.375
X107.475Y-126.425
X108.725Y-126.4
X109.125Y-56.475
X109.55Y-105.375
X109.75Y-102.25
X110.5Y-123.325
X110.525Y-124.425
X110.95Y-68.75
X114.825Y-117.725
X115.0Y-105.85
X115.725Y-102.25
X116.325Y-103.075
X116.85Y-85.95
X116.95Y-104.975
X117.9Y-106.075
X118.025Y-98.55
X118.05Y-105.075
X118.85Y-98.55
X119.225Y-66.15
X119.4Y-101.15
X119.7Y-102.55
X120.15Y-112.225
X120.7Y-95.6
X121.05Y-115.875
X122.225Y-98.9
X122.75Y-139.7
X122.775Y-138.7
X123.05Y-87.5
X123.084Y-102.008
X123.175Y-106.775
X123.225Y-96.725
X123.325Y-127.975
X123.625Y-95.925
X123.725Y-89.05
X124.1Y-96.875
X124.121Y-113.19
X124.175Y-100.7
X124.25Y-92.575
X124.35Y-94.875
X124.6Y-90.0
X124.8Y-131.2
X124.825Y-101.85
X124.85Y-72.0
X124.92Y-113.368
X125.0Y-137.575
X125.05Y-76.05
X125.125Y-107.325
X125.225Y-89.15
X125.237Y-87.284
X125.775Y-80.825
X125.8Y-131.35
X125.85Y-107.975
X126.15Y-107.025
X126.6Y-101.2
X126.825Y-82.325
X126.95Y-79.25
X127.191Y-96.284
X127.2Y-128.25
X127.475Y-135.825
X127.5Y-137.325
X128.225Y-104.925
X128.75Y-126.45
X128.755Y-89.455
X129.15Y-67.45
X129.175Y-129.075
X129.301Y-105.951
X129.375Y-97.4
X129.6Y-113.225
X129.9Y-127.125
X130.075Y-137.325
X130.15Y-135.775
X130.2Y-126.05
X130.225Y-89.225
X130.425Y-116.275
X131.15Y-119.7
X131.175Y-127.0
X131.65Y-118.2
X131.95Y-125.025
X131.975Y-120.725
X132.575Y-112.4
X132.65Y-137.3
X132.7Y-135.725
X133.275Y-112.925
X133.319Y-109.913
X133.8Y-118.825
X133.803Y-116.43
X133.844Y-117.539
X133.97Y-99.32
X134.1Y-128.575
X134.45Y-104.675
X134.625Y-125.95
X134.725Y-126.9
X135.05Y-119.5
X135.075Y-103.825
X135.55Y-100.85
X135.825Y-97.25
X135.875Y-115.325
X135.875Y-119.575
X135.95Y-103.375
X136.275Y-64.775
X136.675Y-63.225
X136.7Y-61.15
X136.7Y-99.025
X137.35Y-120.625
X137.5Y-131.275
X138.4Y-104.6
X138.5Y-102.775
X138.612Y-114.537
X138.675Y-59.525
X138.95Y-94.0
X139.15Y-131.325
X139.175Y-115.175
X139.275Y-109.1
X139.3Y-110.85
X139.4Y-107.5
X139.475Y-105.975
X139.5Y-135.2
X139.775Y-115.75
X140.325Y-59.5
X140.4Y-99.825
X140.45Y-135.4
X140.825Y-98.725
X141.45Y-116.475
X141.6Y-125.025
X141.7Y-122.975
X141.725Y-113.45
X142.075Y-97.45
X142.55Y-120.075
X142.6Y-108.1
X142.825Y-124.375
X142.975Y-97.375
X143.425Y-111.35
X143.45Y-115.35
X143.875Y-116.075
X143.925Y-124.775
X143.95Y-65.55
X144.075Y-63.85
X145.075Y-100.0
X145.1Y-99.0
X145.1Y-122.175
X145.275Y-104.25
X145.625Y-103.475
X145.975Y-112.975
X146.275Y-125.9
X146.35Y-94.25
X146.475Y-105.15
X146.525Y-115.5
X146.85Y-124.825
X146.875Y-139.65
X146.9Y-136.925
X146.95Y-98.775
X147.5Y-110.55
X148.0Y-128.225
X148.25Y-116.075
X148.425Y-119.8
X148.45Y-114.05
X148.775Y-100.625
X148.9Y-125.95
X149.525Y-93.55
X150.075Y-111.125
X150.35Y-128.625
X150.375Y-130.175
X150.427Y-116.095
X150.5Y-112.85
X150.55Y-139.95
X150.6Y-124.8
X150.75Y-104.2
X151.075Y-133.975
X151.112Y-133.018
X151.175Y-123.75
X151.625Y-139.95
X152.25Y-128.65
X152.6Y-127.025
X152.925Y-119.6
X153.025Y-135.2
X153.1Y-141.85
X153.15Y-142.85
X153.975Y-135.95
X154.225Y-133.325
X154.375Y-99.8
X154.7Y-129.55
X154.775Y-124.5
X154.95Y-128.15
X154.95Y-136.025
X155.1Y-132.7
X155.425Y-125.975
X156.05Y-107.275
X156.225Y-135.375
X156.55Y-103.475
X157.0Y-99.8
X157.125Y-119.55
X157.625Y-104.475
X157.737Y-94.126
X157.775Y-94.925
X158.525Y-122.025
X158.575Y-96.55
X158.575Y-125.8
X158.925Y-106.2
X159.025Y-134.675
X159.575Y-99.65
X162.35Y-104.575
X163.425Y-95.9
X163.7Y-101.15
T2
X123.55Y-64.325
X123.55Y-65.525
X123.55Y-66.825
X123.55Y-67.925
X124.75Y-64.325
X124.75Y-65.525
X124.75Y-66.825
X124.75Y-67.925
T3
X122.85Y-58.4
X125.975Y-74.025
X132.025Y-68.0
T5
X159.705Y-113.37
X159.705Y-114.64
X159.705Y-115.91
X159.705Y-117.18
X159.705Y-118.45
X160.975Y-113.37
X160.975Y-114.64
X160.975Y-115.91
X160.975Y-117.18
X160.975Y-118.45
T6
X108.17Y-116.18
X108.17Y-118.72
X108.17Y-121.26
X108.17Y-123.8
X125.145Y-139.835
X125.145Y-142.375
X127.685Y-139.835
X127.685Y-142.375
X130.225Y-139.835
X130.225Y-142.375
X132.765Y-139.835
X132.765Y-142.375
X143.1Y-142.275
X145.64Y-142.275
X148.18Y-142.275
X150.72Y-142.275
T7
X140.425Y-64.95
X140.425Y-72.15
T4
G00X146.975Y-61.8
M15
G01X145.875Y-61.8
M16
G05
G00X146.975Y-75.3
M15
G01X145.875Y-75.3
M16
G05
M30
