G04 #@! TF.GenerationSoftware,KiCad,Pcbnew,9.0.2*
G04 #@! TF.CreationDate,2026-08-22T16:09:29-07:00*
G04 #@! TF.ProjectId,FlightControllerv1.0,466c6967-6874-4436-9f6e-74726f6c6c65,rev?*
G04 #@! TF.SameCoordinates,Original*
G04 #@! TF.FileFunction,Soldermask,Top*
G04 #@! TF.FilePolarity,Negative*
%FSLAX46Y46*%
G04 Gerber Fmt 4.6, Leading zero omitted, Abs format (unit mm)*
G04 Created by KiCad (PCBNEW 9.0.2) date 2026-08-22 16:09:29*
%MOMM*%
%LPD*%
G01*
G04 APERTURE LIST*
G04 Aperture macros list*
%AMRoundRect*
0 Rectangle with rounded corners*
0 $1 Rounding radius*
0 $2 $3 $4 $5 $6 $7 $8 $9 X,Y pos of 4 corners*
0 Add a 4 corners polygon primitive as box body*
4,1,4,$2,$3,$4,$5,$6,$7,$8,$9,$2,$3,0*
0 Add four circle primitives for the rounded corners*
1,1,$1+$1,$2,$3*
1,1,$1+$1,$4,$5*
1,1,$1+$1,$6,$7*
1,1,$1+$1,$8,$9*
0 Add four rect primitives between the rounded corners*
20,1,$1+$1,$2,$3,$4,$5,0*
20,1,$1+$1,$4,$5,$6,$7,0*
20,1,$1+$1,$6,$7,$8,$9,0*
20,1,$1+$1,$8,$9,$2,$3,0*%
G04 Aperture macros list end*
%ADD10R,1.000000X1.000000*%
%ADD11C,1.000000*%
%ADD12R,1.700000X1.700000*%
%ADD13C,1.700000*%
%ADD14RoundRect,0.100000X-0.130000X-0.100000X0.130000X-0.100000X0.130000X0.100000X-0.130000X0.100000X0*%
%ADD15RoundRect,0.140000X0.170000X-0.140000X0.170000X0.140000X-0.170000X0.140000X-0.170000X-0.140000X0*%
%ADD16RoundRect,0.225000X0.225000X0.250000X-0.225000X0.250000X-0.225000X-0.250000X0.225000X-0.250000X0*%
%ADD17RoundRect,0.225000X-0.225000X-0.250000X0.225000X-0.250000X0.225000X0.250000X-0.225000X0.250000X0*%
%ADD18RoundRect,0.140000X-0.170000X0.140000X-0.170000X-0.140000X0.170000X-0.140000X0.170000X0.140000X0*%
%ADD19C,3.200000*%
%ADD20RoundRect,0.243750X-0.243750X-0.456250X0.243750X-0.456250X0.243750X0.456250X-0.243750X0.456250X0*%
%ADD21RoundRect,0.140000X0.140000X0.170000X-0.140000X0.170000X-0.140000X-0.170000X0.140000X-0.170000X0*%
%ADD22RoundRect,0.100000X0.100000X-0.130000X0.100000X0.130000X-0.100000X0.130000X-0.100000X-0.130000X0*%
%ADD23R,1.550000X0.600000*%
%ADD24R,2.600000X3.100000*%
%ADD25RoundRect,0.218750X0.218750X0.256250X-0.218750X0.256250X-0.218750X-0.256250X0.218750X-0.256250X0*%
%ADD26RoundRect,0.250000X-0.250000X-0.475000X0.250000X-0.475000X0.250000X0.475000X-0.250000X0.475000X0*%
%ADD27RoundRect,0.135000X-0.135000X-0.185000X0.135000X-0.185000X0.135000X0.185000X-0.135000X0.185000X0*%
%ADD28RoundRect,0.075000X0.075000X-0.350000X0.075000X0.350000X-0.075000X0.350000X-0.075000X-0.350000X0*%
%ADD29RoundRect,0.075000X0.350000X-0.075000X0.350000X0.075000X-0.350000X0.075000X-0.350000X-0.075000X0*%
%ADD30R,2.650000X2.650000*%
%ADD31R,0.300000X0.450000*%
%ADD32R,0.450000X0.300000*%
%ADD33RoundRect,0.075000X-0.650000X-0.075000X0.650000X-0.075000X0.650000X0.075000X-0.650000X0.075000X0*%
%ADD34RoundRect,0.250000X0.475000X-0.250000X0.475000X0.250000X-0.475000X0.250000X-0.475000X-0.250000X0*%
%ADD35RoundRect,0.100000X-0.100000X0.130000X-0.100000X-0.130000X0.100000X-0.130000X0.100000X0.130000X0*%
%ADD36RoundRect,0.225000X-0.250000X0.225000X-0.250000X-0.225000X0.250000X-0.225000X0.250000X0.225000X0*%
%ADD37RoundRect,0.140000X0.219203X0.021213X0.021213X0.219203X-0.219203X-0.021213X-0.021213X-0.219203X0*%
%ADD38RoundRect,0.135000X-0.185000X0.135000X-0.185000X-0.135000X0.185000X-0.135000X0.185000X0.135000X0*%
%ADD39RoundRect,0.140000X-0.140000X-0.170000X0.140000X-0.170000X0.140000X0.170000X-0.140000X0.170000X0*%
%ADD40RoundRect,0.250000X1.000000X0.650000X-1.000000X0.650000X-1.000000X-0.650000X1.000000X-0.650000X0*%
%ADD41RoundRect,0.135000X0.135000X0.185000X-0.135000X0.185000X-0.135000X-0.185000X0.135000X-0.185000X0*%
%ADD42RoundRect,0.075000X-0.662500X-0.075000X0.662500X-0.075000X0.662500X0.075000X-0.662500X0.075000X0*%
%ADD43RoundRect,0.075000X-0.075000X-0.662500X0.075000X-0.662500X0.075000X0.662500X-0.075000X0.662500X0*%
%ADD44RoundRect,0.250000X-0.475000X0.250000X-0.475000X-0.250000X0.475000X-0.250000X0.475000X0.250000X0*%
%ADD45RoundRect,0.250000X0.070711X0.565685X-0.565685X-0.070711X-0.070711X-0.565685X0.565685X0.070711X0*%
%ADD46RoundRect,0.375000X0.375000X-0.625000X0.375000X0.625000X-0.375000X0.625000X-0.375000X-0.625000X0*%
%ADD47RoundRect,0.500000X1.400000X-0.500000X1.400000X0.500000X-1.400000X0.500000X-1.400000X-0.500000X0*%
%ADD48RoundRect,0.135000X0.185000X-0.135000X0.185000X0.135000X-0.185000X0.135000X-0.185000X-0.135000X0*%
%ADD49RoundRect,0.075000X-0.700000X-0.075000X0.700000X-0.075000X0.700000X0.075000X-0.700000X0.075000X0*%
%ADD50RoundRect,0.075000X-0.075000X-0.700000X0.075000X-0.700000X0.075000X0.700000X-0.075000X0.700000X0*%
%ADD51RoundRect,0.150000X0.587500X0.150000X-0.587500X0.150000X-0.587500X-0.150000X0.587500X-0.150000X0*%
%ADD52RoundRect,0.140000X-0.219203X-0.021213X-0.021213X-0.219203X0.219203X0.021213X0.021213X0.219203X0*%
%ADD53RoundRect,0.250000X-1.425000X0.425000X-1.425000X-0.425000X1.425000X-0.425000X1.425000X0.425000X0*%
%ADD54RoundRect,0.250000X1.950000X1.000000X-1.950000X1.000000X-1.950000X-1.000000X1.950000X-1.000000X0*%
%ADD55R,0.950000X0.550000*%
%ADD56R,2.000000X0.900000*%
%ADD57RoundRect,1.025000X-1.025000X1.025000X-1.025000X-1.025000X1.025000X-1.025000X1.025000X1.025000X0*%
%ADD58C,4.100000*%
%ADD59RoundRect,0.243600X-0.901400X-0.771400X0.901400X-0.771400X0.901400X0.771400X-0.901400X0.771400X0*%
%ADD60RoundRect,0.091200X-0.608800X-0.288800X0.608800X-0.288800X0.608800X0.288800X-0.608800X0.288800X0*%
%ADD61RoundRect,0.190000X-0.510000X-0.190000X0.510000X-0.190000X0.510000X0.190000X-0.510000X0.190000X0*%
G04 APERTURE END LIST*
D10*
G04 #@! TO.C,J5*
X160975000Y-118450000D03*
D11*
X159705000Y-118450000D03*
X160975000Y-117180000D03*
X159705000Y-117180000D03*
X160975000Y-115910000D03*
X159705000Y-115910000D03*
X160975000Y-114640000D03*
X159705000Y-114640000D03*
X160975000Y-113370000D03*
X159705000Y-113370000D03*
G04 #@! TD*
D12*
G04 #@! TO.C,J1*
X108170000Y-116180000D03*
D13*
X108170000Y-118720000D03*
X108170000Y-121260000D03*
X108170000Y-123800000D03*
G04 #@! TD*
D14*
G04 #@! TO.C,R15*
X151260000Y-112825000D03*
X151900000Y-112825000D03*
G04 #@! TD*
D15*
G04 #@! TO.C,C27*
X142400000Y-114410000D03*
X142400000Y-113450000D03*
G04 #@! TD*
D12*
G04 #@! TO.C,J4*
X143100000Y-142275000D03*
D13*
X145640000Y-142275000D03*
X148180000Y-142275000D03*
X150720000Y-142275000D03*
G04 #@! TD*
D16*
G04 #@! TO.C,C38*
X102947500Y-89575000D03*
X101397500Y-89575000D03*
G04 #@! TD*
D17*
G04 #@! TO.C,C10*
X133375000Y-120700000D03*
X134925000Y-120700000D03*
G04 #@! TD*
D16*
G04 #@! TO.C,C40*
X104900000Y-70475000D03*
X103350000Y-70475000D03*
G04 #@! TD*
G04 #@! TO.C,C32*
X146700000Y-101150000D03*
X145150000Y-101150000D03*
G04 #@! TD*
D12*
G04 #@! TO.C,J2*
X125145000Y-142375000D03*
D13*
X125145000Y-139835000D03*
X127685000Y-142375000D03*
X127685000Y-139835000D03*
X130225000Y-142375000D03*
X130225000Y-139835000D03*
X132765000Y-142375000D03*
X132765000Y-139835000D03*
G04 #@! TD*
D18*
G04 #@! TO.C,C36*
X158600000Y-93975000D03*
X158600000Y-94935000D03*
G04 #@! TD*
D19*
G04 #@! TO.C,H2*
X95050000Y-59512500D03*
G04 #@! TD*
D20*
G04 #@! TO.C,D1*
X101812500Y-72900000D03*
X103687500Y-72900000D03*
G04 #@! TD*
D21*
G04 #@! TO.C,C34*
X154910000Y-135075000D03*
X153950000Y-135075000D03*
G04 #@! TD*
D18*
G04 #@! TO.C,C33*
X147525000Y-115350000D03*
X147525000Y-116310000D03*
G04 #@! TD*
D22*
G04 #@! TO.C,R11*
X151119000Y-131085000D03*
X151119000Y-130445000D03*
G04 #@! TD*
D23*
G04 #@! TO.C,U10*
X121450000Y-64220000D03*
X121450000Y-65490000D03*
X121450000Y-66760000D03*
X121450000Y-68030000D03*
X126850000Y-68030000D03*
X126850000Y-66760000D03*
X126850000Y-65490000D03*
X126850000Y-64220000D03*
D24*
X124150000Y-66125000D03*
G04 #@! TD*
D21*
G04 #@! TO.C,C12*
X140450000Y-134525000D03*
X139490000Y-134525000D03*
G04 #@! TD*
D25*
G04 #@! TO.C,FB2*
X128575000Y-130325000D03*
X127000000Y-130325000D03*
G04 #@! TD*
D26*
G04 #@! TO.C,C39*
X102225000Y-78375000D03*
X104125000Y-78375000D03*
G04 #@! TD*
D22*
G04 #@! TO.C,R17*
X151950000Y-109240000D03*
X151950000Y-108600000D03*
G04 #@! TD*
D27*
G04 #@! TO.C,R5*
X135955000Y-102675000D03*
X136975000Y-102675000D03*
G04 #@! TD*
D28*
G04 #@! TO.C,U3*
X140290000Y-104615000D03*
X140790000Y-104615000D03*
X141290000Y-104615000D03*
X141790000Y-104615000D03*
X142290000Y-104615000D03*
X142790000Y-104615000D03*
D29*
X143490000Y-103915000D03*
X143490000Y-103415000D03*
X143490000Y-102915000D03*
X143490000Y-102415000D03*
X143490000Y-101915000D03*
X143490000Y-101415000D03*
D28*
X142790000Y-100715000D03*
X142290000Y-100715000D03*
X141790000Y-100715000D03*
X141290000Y-100715000D03*
X140790000Y-100715000D03*
X140290000Y-100715000D03*
D29*
X139590000Y-101415000D03*
X139590000Y-101915000D03*
X139590000Y-102415000D03*
X139590000Y-102915000D03*
X139590000Y-103415000D03*
X139590000Y-103915000D03*
D30*
X141540000Y-102665000D03*
G04 #@! TD*
D31*
G04 #@! TO.C,U4*
X145475000Y-114425000D03*
X145975000Y-114425000D03*
X146475000Y-114425000D03*
X146975000Y-114425000D03*
D32*
X147500000Y-113900000D03*
X147500000Y-113400000D03*
X147500000Y-112900000D03*
X147500000Y-112400000D03*
D31*
X146975000Y-111875000D03*
X146475000Y-111875000D03*
X145975000Y-111875000D03*
X145475000Y-111875000D03*
D32*
X144950000Y-112400000D03*
X144950000Y-112900000D03*
X144950000Y-113400000D03*
X144950000Y-113900000D03*
G04 #@! TD*
D33*
G04 #@! TO.C,U9*
X116845000Y-87310000D03*
X116845000Y-87810000D03*
X116845000Y-88310000D03*
X116845000Y-88810000D03*
X116845000Y-89310000D03*
X121245000Y-89310000D03*
X121245000Y-88810000D03*
X121245000Y-88310000D03*
X121245000Y-87810000D03*
X121245000Y-87310000D03*
G04 #@! TD*
D34*
G04 #@! TO.C,C43*
X135825000Y-96120000D03*
X135825000Y-94220000D03*
G04 #@! TD*
D35*
G04 #@! TO.C,R13*
X144425000Y-107410000D03*
X144425000Y-108050000D03*
G04 #@! TD*
D15*
G04 #@! TO.C,C3*
X133175000Y-100280000D03*
X133175000Y-99320000D03*
G04 #@! TD*
D36*
G04 #@! TO.C,C49*
X130475000Y-65425000D03*
X130475000Y-66975000D03*
G04 #@! TD*
D27*
G04 #@! TO.C,R23*
X115315000Y-68150000D03*
X116335000Y-68150000D03*
G04 #@! TD*
D37*
G04 #@! TO.C,C21*
X110939411Y-105489411D03*
X110260589Y-104810589D03*
G04 #@! TD*
D18*
G04 #@! TO.C,C31*
X144625000Y-115375000D03*
X144625000Y-116335000D03*
G04 #@! TD*
D38*
G04 #@! TO.C,R4*
X136325000Y-120680000D03*
X136325000Y-121700000D03*
G04 #@! TD*
D39*
G04 #@! TO.C,C4*
X123345000Y-97650000D03*
X124305000Y-97650000D03*
G04 #@! TD*
D40*
G04 #@! TO.C,D2*
X126850000Y-61025000D03*
X122850000Y-61025000D03*
G04 #@! TD*
D18*
G04 #@! TO.C,C42*
X122860000Y-89045000D03*
X122860000Y-90005000D03*
G04 #@! TD*
D19*
G04 #@! TO.C,H1*
X177050000Y-59512500D03*
G04 #@! TD*
D41*
G04 #@! TO.C,R1*
X119470000Y-109425000D03*
X118450000Y-109425000D03*
G04 #@! TD*
D34*
G04 #@! TO.C,C52*
X110935000Y-67375000D03*
X110935000Y-65475000D03*
G04 #@! TD*
D42*
G04 #@! TO.C,U2*
X132687500Y-126100000D03*
X132687500Y-126600000D03*
X132687500Y-127100000D03*
X132687500Y-127600000D03*
X132687500Y-128100000D03*
X132687500Y-128600000D03*
X132687500Y-129100000D03*
X132687500Y-129600000D03*
X132687500Y-130100000D03*
X132687500Y-130600000D03*
X132687500Y-131100000D03*
X132687500Y-131600000D03*
D43*
X134100000Y-133012500D03*
X134600000Y-133012500D03*
X135100000Y-133012500D03*
X135600000Y-133012500D03*
X136100000Y-133012500D03*
X136600000Y-133012500D03*
X137100000Y-133012500D03*
X137600000Y-133012500D03*
X138100000Y-133012500D03*
X138600000Y-133012500D03*
X139100000Y-133012500D03*
X139600000Y-133012500D03*
D42*
X141012500Y-131600000D03*
X141012500Y-131100000D03*
X141012500Y-130600000D03*
X141012500Y-130100000D03*
X141012500Y-129600000D03*
X141012500Y-129100000D03*
X141012500Y-128600000D03*
X141012500Y-128100000D03*
X141012500Y-127600000D03*
X141012500Y-127100000D03*
X141012500Y-126600000D03*
X141012500Y-126100000D03*
D43*
X139600000Y-124687500D03*
X139100000Y-124687500D03*
X138600000Y-124687500D03*
X138100000Y-124687500D03*
X137600000Y-124687500D03*
X137100000Y-124687500D03*
X136600000Y-124687500D03*
X136100000Y-124687500D03*
X135600000Y-124687500D03*
X135100000Y-124687500D03*
X134600000Y-124687500D03*
X134100000Y-124687500D03*
G04 #@! TD*
D27*
G04 #@! TO.C,R8*
X139590000Y-123000000D03*
X140610000Y-123000000D03*
G04 #@! TD*
D44*
G04 #@! TO.C,C45*
X107575000Y-56475000D03*
X107575000Y-58375000D03*
G04 #@! TD*
D15*
G04 #@! TO.C,C8*
X118900000Y-107280000D03*
X118900000Y-106320000D03*
G04 #@! TD*
D39*
G04 #@! TO.C,C51*
X127750000Y-82800000D03*
X128710000Y-82800000D03*
G04 #@! TD*
D41*
G04 #@! TO.C,R2*
X119460000Y-110550000D03*
X118440000Y-110550000D03*
G04 #@! TD*
D21*
G04 #@! TO.C,C29*
X142800000Y-99500000D03*
X141840000Y-99500000D03*
G04 #@! TD*
D26*
G04 #@! TO.C,C50*
X127110000Y-80825000D03*
X129010000Y-80825000D03*
G04 #@! TD*
D32*
G04 #@! TO.C,U6*
X153400000Y-132050000D03*
X153400000Y-132550000D03*
X153400000Y-133050000D03*
X153400000Y-133550000D03*
D31*
X153925000Y-134075000D03*
X154425000Y-134075000D03*
X154925000Y-134075000D03*
X155425000Y-134075000D03*
D32*
X155950000Y-133550000D03*
X155950000Y-133050000D03*
X155950000Y-132550000D03*
X155950000Y-132050000D03*
D31*
X155425000Y-131525000D03*
X154925000Y-131525000D03*
X154425000Y-131525000D03*
X153925000Y-131525000D03*
G04 #@! TD*
D38*
G04 #@! TO.C,R9*
X118525000Y-101180000D03*
X118525000Y-102200000D03*
G04 #@! TD*
D15*
G04 #@! TO.C,C15*
X131050000Y-130060000D03*
X131050000Y-129100000D03*
G04 #@! TD*
D36*
G04 #@! TO.C,C37*
X157400000Y-133115000D03*
X157400000Y-134665000D03*
G04 #@! TD*
D19*
G04 #@! TO.C,H3*
X177050000Y-141512500D03*
G04 #@! TD*
D21*
G04 #@! TO.C,C17*
X125725000Y-130350000D03*
X124765000Y-130350000D03*
G04 #@! TD*
D45*
G04 #@! TO.C,Y1*
X112776777Y-101846142D03*
X111221142Y-103401777D03*
X112423223Y-104603858D03*
X113978858Y-103048223D03*
G04 #@! TD*
D15*
G04 #@! TO.C,C53*
X112900000Y-66385000D03*
X112900000Y-65425000D03*
G04 #@! TD*
D10*
G04 #@! TO.C,3.3V_SENS*
X110950000Y-58375000D03*
G04 #@! TD*
D18*
G04 #@! TO.C,C35*
X152025000Y-133095000D03*
X152025000Y-134055000D03*
G04 #@! TD*
D46*
G04 #@! TO.C,U8*
X100310000Y-68100000D03*
X102610000Y-68100000D03*
D47*
X102610000Y-61800000D03*
D46*
X104910000Y-68100000D03*
G04 #@! TD*
D19*
G04 #@! TO.C,H4*
X95050000Y-141512500D03*
G04 #@! TD*
D22*
G04 #@! TO.C,R10*
X153750000Y-128785000D03*
X153750000Y-128145000D03*
G04 #@! TD*
D48*
G04 #@! TO.C,R24*
X119225000Y-68110000D03*
X119225000Y-67090000D03*
G04 #@! TD*
D37*
G04 #@! TO.C,C23*
X124539411Y-128114411D03*
X123860589Y-127435589D03*
G04 #@! TD*
D18*
G04 #@! TO.C,C11*
X142800000Y-125570000D03*
X142800000Y-126530000D03*
G04 #@! TD*
D15*
G04 #@! TO.C,C26*
X143975000Y-114435000D03*
X143975000Y-113475000D03*
G04 #@! TD*
D48*
G04 #@! TO.C,R18*
X103675000Y-75870000D03*
X103675000Y-74850000D03*
G04 #@! TD*
D25*
G04 #@! TO.C,FB1*
X117662500Y-107275000D03*
X116087500Y-107275000D03*
G04 #@! TD*
D34*
G04 #@! TO.C,C41*
X102625000Y-59425000D03*
X102625000Y-57525000D03*
G04 #@! TD*
D10*
G04 #@! TO.C,3.3VA*
X121675000Y-121500000D03*
G04 #@! TD*
G04 #@! TO.C,5V*
X112750000Y-70750000D03*
G04 #@! TD*
D35*
G04 #@! TO.C,R14*
X151975000Y-106060000D03*
X151975000Y-106700000D03*
G04 #@! TD*
D18*
G04 #@! TO.C,C28*
X144650000Y-103445000D03*
X144650000Y-104405000D03*
G04 #@! TD*
D10*
G04 #@! TO.C,3.3V*
X97950000Y-78300000D03*
G04 #@! TD*
D45*
G04 #@! TO.C,Y2*
X126303554Y-124392284D03*
X124747919Y-125947919D03*
X125950000Y-127150000D03*
X127505635Y-125594365D03*
G04 #@! TD*
D27*
G04 #@! TO.C,R21*
X124200000Y-88175000D03*
X125220000Y-88175000D03*
G04 #@! TD*
D49*
G04 #@! TO.C,U1*
X121600000Y-101275000D03*
X121600000Y-101775000D03*
X121600000Y-102275000D03*
X121600000Y-102775000D03*
X121600000Y-103275000D03*
X121600000Y-103775000D03*
X121600000Y-104275000D03*
X121600000Y-104775000D03*
X121600000Y-105275000D03*
X121600000Y-105775000D03*
X121600000Y-106275000D03*
X121600000Y-106775000D03*
X121600000Y-107275000D03*
X121600000Y-107775000D03*
X121600000Y-108275000D03*
X121600000Y-108775000D03*
D50*
X123525000Y-110700000D03*
X124025000Y-110700000D03*
X124525000Y-110700000D03*
X125025000Y-110700000D03*
X125525000Y-110700000D03*
X126025000Y-110700000D03*
X126525000Y-110700000D03*
X127025000Y-110700000D03*
X127525000Y-110700000D03*
X128025000Y-110700000D03*
X128525000Y-110700000D03*
X129025000Y-110700000D03*
X129525000Y-110700000D03*
X130025000Y-110700000D03*
X130525000Y-110700000D03*
X131025000Y-110700000D03*
D49*
X132950000Y-108775000D03*
X132950000Y-108275000D03*
X132950000Y-107775000D03*
X132950000Y-107275000D03*
X132950000Y-106775000D03*
X132950000Y-106275000D03*
X132950000Y-105775000D03*
X132950000Y-105275000D03*
X132950000Y-104775000D03*
X132950000Y-104275000D03*
X132950000Y-103775000D03*
X132950000Y-103275000D03*
X132950000Y-102775000D03*
X132950000Y-102275000D03*
X132950000Y-101775000D03*
X132950000Y-101275000D03*
D50*
X131025000Y-99350000D03*
X130525000Y-99350000D03*
X130025000Y-99350000D03*
X129525000Y-99350000D03*
X129025000Y-99350000D03*
X128525000Y-99350000D03*
X128025000Y-99350000D03*
X127525000Y-99350000D03*
X127025000Y-99350000D03*
X126525000Y-99350000D03*
X126025000Y-99350000D03*
X125525000Y-99350000D03*
X125025000Y-99350000D03*
X124525000Y-99350000D03*
X124025000Y-99350000D03*
X123525000Y-99350000D03*
G04 #@! TD*
D27*
G04 #@! TO.C,R3*
X124440000Y-95925000D03*
X125460000Y-95925000D03*
G04 #@! TD*
D10*
G04 #@! TO.C,TP5*
X100575000Y-130300000D03*
G04 #@! TD*
D15*
G04 #@! TO.C,C47*
X119675000Y-64155000D03*
X119675000Y-63195000D03*
G04 #@! TD*
D38*
G04 #@! TO.C,R19*
X124210000Y-86190000D03*
X124210000Y-87210000D03*
G04 #@! TD*
D51*
G04 #@! TO.C,Q1*
X149850000Y-107925000D03*
X149850000Y-106025000D03*
X147975000Y-106975000D03*
G04 #@! TD*
D52*
G04 #@! TO.C,C22*
X127660589Y-123485589D03*
X128339411Y-124164411D03*
G04 #@! TD*
D15*
G04 #@! TO.C,C9*
X116100000Y-105925000D03*
X116100000Y-104965000D03*
G04 #@! TD*
D53*
G04 #@! TO.C,L1*
X116500000Y-60025000D03*
X116500000Y-65825000D03*
G04 #@! TD*
D54*
G04 #@! TO.C,C48*
X122700000Y-74025000D03*
X115300000Y-74025000D03*
G04 #@! TD*
D48*
G04 #@! TO.C,R7*
X145200000Y-126970000D03*
X145200000Y-125950000D03*
G04 #@! TD*
D21*
G04 #@! TO.C,C19*
X129025000Y-128150000D03*
X128065000Y-128150000D03*
G04 #@! TD*
D27*
G04 #@! TO.C,R6*
X131030000Y-97150000D03*
X132050000Y-97150000D03*
G04 #@! TD*
D39*
G04 #@! TO.C,C25*
X134595000Y-101625000D03*
X135555000Y-101625000D03*
G04 #@! TD*
D52*
G04 #@! TO.C,C20*
X114260589Y-100885589D03*
X114939411Y-101564411D03*
G04 #@! TD*
D55*
G04 #@! TO.C,U5*
X160025000Y-93975000D03*
X160025000Y-95225000D03*
X160025000Y-96475000D03*
X160025000Y-97725000D03*
X162175000Y-97725000D03*
X162175000Y-96475000D03*
X162175000Y-95225000D03*
X162175000Y-93975000D03*
G04 #@! TD*
D18*
G04 #@! TO.C,C46*
X105550000Y-57550000D03*
X105550000Y-58510000D03*
G04 #@! TD*
D21*
G04 #@! TO.C,C30*
X142825000Y-98200000D03*
X141865000Y-98200000D03*
G04 #@! TD*
D35*
G04 #@! TO.C,R12*
X148025000Y-103655000D03*
X148025000Y-104295000D03*
G04 #@! TD*
D22*
G04 #@! TO.C,R16*
X151950000Y-111715000D03*
X151950000Y-111075000D03*
G04 #@! TD*
D56*
G04 #@! TO.C,J3*
X146425000Y-61800000D03*
X146425000Y-75300000D03*
D57*
X140425000Y-72150000D03*
D58*
X140425000Y-64950000D03*
G04 #@! TD*
D21*
G04 #@! TO.C,C18*
X119880000Y-105200000D03*
X118920000Y-105200000D03*
G04 #@! TD*
D39*
G04 #@! TO.C,C14*
X134090000Y-123025000D03*
X135050000Y-123025000D03*
G04 #@! TD*
D16*
G04 #@! TO.C,C1*
X119325000Y-99825000D03*
X117775000Y-99825000D03*
G04 #@! TD*
D27*
G04 #@! TO.C,R20*
X113815000Y-88475000D03*
X114835000Y-88475000D03*
G04 #@! TD*
D21*
G04 #@! TO.C,C5*
X124830000Y-112475000D03*
X123870000Y-112475000D03*
G04 #@! TD*
D15*
G04 #@! TO.C,C16*
X130075000Y-130040000D03*
X130075000Y-129080000D03*
G04 #@! TD*
G04 #@! TO.C,C13*
X131075000Y-126010000D03*
X131075000Y-125050000D03*
G04 #@! TD*
D46*
G04 #@! TO.C,U7*
X99872500Y-87250000D03*
X102172500Y-87250000D03*
D47*
X102172500Y-80950000D03*
D46*
X104472500Y-87250000D03*
G04 #@! TD*
D10*
G04 #@! TO.C,VBAT*
X130525000Y-62900000D03*
G04 #@! TD*
D15*
G04 #@! TO.C,C6*
X121450000Y-99875000D03*
X121450000Y-98915000D03*
G04 #@! TD*
G04 #@! TO.C,C7*
X119900000Y-107280000D03*
X119900000Y-106320000D03*
G04 #@! TD*
D59*
G04 #@! TO.C,R22*
X129200000Y-86140000D03*
D60*
X128755000Y-88045000D03*
D61*
X135615000Y-85505000D03*
D59*
X135170000Y-87410000D03*
G04 #@! TD*
D21*
G04 #@! TO.C,C24*
X130380000Y-112500000D03*
X129420000Y-112500000D03*
G04 #@! TD*
D15*
G04 #@! TO.C,C44*
X137525000Y-95625000D03*
X137525000Y-94665000D03*
G04 #@! TD*
D18*
G04 #@! TO.C,C2*
X131900000Y-111445000D03*
X131900000Y-112405000D03*
G04 #@! TD*
M02*
