G04 #@! TF.GenerationSoftware,KiCad,Pcbnew,9.0.2*
G04 #@! TF.CreationDate,2026-08-22T16:09:29-07:00*
G04 #@! TF.ProjectId,FlightControllerv1.0,466c6967-6874-4436-9f6e-74726f6c6c65,rev?*
G04 #@! TF.SameCoordinates,Original*
G04 #@! TF.FileFunction,Copper,L4,Bot*
G04 #@! TF.FilePolarity,Positive*
%FSLAX46Y46*%
G04 Gerber Fmt 4.6, Leading zero omitted, Abs format (unit mm)*
G04 Created by KiCad (PCBNEW 9.0.2) date 2026-08-22 16:09:29*
%MOMM*%
%LPD*%
G01*
G04 APERTURE LIST*
G04 Aperture macros list*
%AMRoundRect*
0 Rectangle with rounded corners*
0 $1 Rounding radius*
0 $2 $3 $4 $5 $6 $7 $8 $9 X,Y pos of 4 corners*
0 Add a 4 corners polygon primitive as box body*
4,1,4,$2,$3,$4,$5,$6,$7,$8,$9,$2,$3,0*
0 Add four circle primitives for the rounded corners*
1,1,$1+$1,$2,$3*
1,1,$1+$1,$4,$5*
1,1,$1+$1,$6,$7*
1,1,$1+$1,$8,$9*
0 Add four rect primitives between the rounded corners*
20,1,$1+$1,$2,$3,$4,$5,0*
20,1,$1+$1,$4,$5,$6,$7,0*
20,1,$1+$1,$6,$7,$8,$9,0*
20,1,$1+$1,$8,$9,$2,$3,0*%
G04 Aperture macros list end*
G04 #@! TA.AperFunction,ComponentPad*
%ADD10R,1.000000X1.000000*%
G04 #@! TD*
G04 #@! TA.AperFunction,ComponentPad*
%ADD11C,1.000000*%
G04 #@! TD*
G04 #@! TA.AperFunction,ComponentPad*
%ADD12R,1.700000X1.700000*%
G04 #@! TD*
G04 #@! TA.AperFunction,ComponentPad*
%ADD13C,1.700000*%
G04 #@! TD*
G04 #@! TA.AperFunction,ComponentPad*
%ADD14C,0.600000*%
G04 #@! TD*
G04 #@! TA.AperFunction,SMDPad,CuDef*
%ADD15R,2.950000X4.500000*%
G04 #@! TD*
G04 #@! TA.AperFunction,ComponentPad*
%ADD16R,2.000000X0.900000*%
G04 #@! TD*
G04 #@! TA.AperFunction,ComponentPad*
%ADD17RoundRect,1.025000X-1.025000X1.025000X-1.025000X-1.025000X1.025000X-1.025000X1.025000X1.025000X0*%
G04 #@! TD*
G04 #@! TA.AperFunction,ComponentPad*
%ADD18C,4.100000*%
G04 #@! TD*
G04 #@! TA.AperFunction,ViaPad*
%ADD19C,0.600000*%
G04 #@! TD*
G04 #@! TA.AperFunction,ViaPad*
%ADD20C,1.000000*%
G04 #@! TD*
G04 #@! TA.AperFunction,Conductor*
%ADD21C,0.500000*%
G04 #@! TD*
G04 #@! TA.AperFunction,Conductor*
%ADD22C,0.200000*%
G04 #@! TD*
G04 #@! TA.AperFunction,Conductor*
%ADD23C,0.300000*%
G04 #@! TD*
G04 APERTURE END LIST*
D10*
G04 #@! TO.P,J5,1,Pin_1*
G04 #@! TO.N,+3V3*
X160975000Y-118450000D03*
D11*
G04 #@! TO.P,J5,2,Pin_2*
G04 #@! TO.N,/SWDIO*
X159705000Y-118450000D03*
G04 #@! TO.P,J5,3,Pin_3*
G04 #@! TO.N,Net-(J5-Pin_10)*
X160975000Y-117180000D03*
G04 #@! TO.P,J5,4,Pin_4*
G04 #@! TO.N,/SWDCLK*
X159705000Y-117180000D03*
G04 #@! TO.P,J5,5,Pin_5*
G04 #@! TO.N,GND*
X160975000Y-115910000D03*
G04 #@! TO.P,J5,6,Pin_6*
G04 #@! TO.N,unconnected-(J5-Pin_6-Pad6)*
X159705000Y-115910000D03*
G04 #@! TO.P,J5,7,Pin_7*
G04 #@! TO.N,unconnected-(J5-Pin_7-Pad7)*
X160975000Y-114640000D03*
G04 #@! TO.P,J5,8,Pin_8*
G04 #@! TO.N,unconnected-(J5-Pin_8-Pad8)*
X159705000Y-114640000D03*
G04 #@! TO.P,J5,9,Pin_9*
G04 #@! TO.N,unconnected-(J5-Pin_9-Pad9)*
X160975000Y-113370000D03*
G04 #@! TO.P,J5,10,Pin_10*
G04 #@! TO.N,Net-(J5-Pin_10)*
X159705000Y-113370000D03*
G04 #@! TD*
D12*
G04 #@! TO.P,J1,1,Pin_1*
G04 #@! TO.N,+3V3*
X108170000Y-116180000D03*
D13*
G04 #@! TO.P,J1,2,Pin_2*
G04 #@! TO.N,/JETSON_TX*
X108170000Y-118720000D03*
G04 #@! TO.P,J1,3,Pin_3*
G04 #@! TO.N,/JETSON_RX*
X108170000Y-121260000D03*
G04 #@! TO.P,J1,4,Pin_4*
G04 #@! TO.N,GND*
X108170000Y-123800000D03*
G04 #@! TD*
D12*
G04 #@! TO.P,J4,1,Pin_1*
G04 #@! TO.N,+3V3*
X143100000Y-142275000D03*
D13*
G04 #@! TO.P,J4,2,Pin_2*
G04 #@! TO.N,/RC_TX*
X145640000Y-142275000D03*
G04 #@! TO.P,J4,3,Pin_3*
G04 #@! TO.N,/RC_RX*
X148180000Y-142275000D03*
G04 #@! TO.P,J4,4,Pin_4*
G04 #@! TO.N,GND*
X150720000Y-142275000D03*
G04 #@! TD*
D12*
G04 #@! TO.P,J2,1,Pin_1*
G04 #@! TO.N,/PWM1_MOTOR1*
X125145000Y-142375000D03*
D13*
G04 #@! TO.P,J2,2,Pin_2*
G04 #@! TO.N,GND*
X125145000Y-139835000D03*
G04 #@! TO.P,J2,3,Pin_3*
G04 #@! TO.N,/PWM2_MOTOR2*
X127685000Y-142375000D03*
G04 #@! TO.P,J2,4,Pin_4*
G04 #@! TO.N,GND*
X127685000Y-139835000D03*
G04 #@! TO.P,J2,5,Pin_5*
G04 #@! TO.N,/PWM3_MOTOR3*
X130225000Y-142375000D03*
G04 #@! TO.P,J2,6,Pin_6*
G04 #@! TO.N,GND*
X130225000Y-139835000D03*
G04 #@! TO.P,J2,7,Pin_7*
G04 #@! TO.N,/PWM4_MOTOR4*
X132765000Y-142375000D03*
G04 #@! TO.P,J2,8,Pin_8*
G04 #@! TO.N,GND*
X132765000Y-139835000D03*
G04 #@! TD*
D14*
G04 #@! TO.P,U10,9,GNDPAD*
G04 #@! TO.N,GND*
X123550000Y-64325000D03*
X123550000Y-65525000D03*
X123550000Y-66825000D03*
X123550000Y-67925000D03*
D15*
X124150000Y-66125000D03*
D14*
X124750000Y-64325000D03*
X124750000Y-65525000D03*
X124750000Y-66825000D03*
X124750000Y-67925000D03*
G04 #@! TD*
D16*
G04 #@! TO.P,J3,*
G04 #@! TO.N,*
X146425000Y-61800000D03*
X146425000Y-75300000D03*
D17*
G04 #@! TO.P,J3,1,Pin_1*
G04 #@! TO.N,VBAT*
X140425000Y-72150000D03*
D18*
G04 #@! TO.P,J3,2,Pin_2*
G04 #@! TO.N,GND*
X140425000Y-64950000D03*
G04 #@! TD*
D19*
G04 #@! TO.N,GND*
X139275000Y-109100000D03*
X139300000Y-110850000D03*
G04 #@! TO.N,+3V3*
X130200000Y-126050000D03*
X125800000Y-131350000D03*
X115000000Y-105850000D03*
X150375000Y-130175000D03*
X151112080Y-133018095D03*
D20*
X105100000Y-76375000D03*
D19*
X143450000Y-115350000D03*
X154950000Y-128150000D03*
X124600000Y-90000000D03*
X142975000Y-97375000D03*
X146275000Y-125900000D03*
X123225000Y-96725000D03*
X133275000Y-112925000D03*
X119400000Y-101150000D03*
X154950000Y-136025000D03*
X142825000Y-124375000D03*
X140450000Y-135400000D03*
X145625000Y-103475000D03*
X138950000Y-94000000D03*
X131975000Y-120725000D03*
X157736949Y-94125906D03*
X124919813Y-113367876D03*
X118850000Y-98550000D03*
X141700000Y-122975000D03*
G04 #@! TO.N,+3.3VA*
X123175000Y-106775000D03*
X121050000Y-115875000D03*
G04 #@! TO.N,/F103_OSC_OUT*
X129900000Y-127125000D03*
X134100000Y-128575000D03*
G04 #@! TO.N,/SWDIO*
X135950000Y-103375000D03*
X148900000Y-125950000D03*
G04 #@! TO.N,IMU1_INT*
X145100000Y-99000000D03*
X125125000Y-107325000D03*
G04 #@! TO.N,IMU2_INT*
X125850000Y-107975000D03*
X146525000Y-115500000D03*
G04 #@! TO.N,MAG_RST*
X124825000Y-101850000D03*
X154775000Y-124500000D03*
G04 #@! TO.N,MAG_SDA*
X152600000Y-127025000D03*
X127190682Y-96284388D03*
X126600000Y-101200000D03*
G04 #@! TO.N,MAG_SCL*
X141450000Y-116475000D03*
X129301373Y-105950959D03*
X133319387Y-109912823D03*
X148000000Y-128225000D03*
G04 #@! TO.N,BATT_ALERT*
X120700000Y-95600000D03*
X124175000Y-100700000D03*
G04 #@! TO.N,IMU_MOSI*
X157625000Y-104475000D03*
X133803168Y-116430238D03*
X163425000Y-95900000D03*
X138400000Y-104600000D03*
X139400000Y-107500000D03*
X138612500Y-114537500D03*
G04 #@! TO.N,IMU2_CS*
X139475000Y-105975000D03*
X148450000Y-114050000D03*
G04 #@! TO.N,/UART_RX*
X139150000Y-131325000D03*
X135075000Y-103825000D03*
G04 #@! TO.N,/UART_TX*
X137500000Y-131275000D03*
X135875000Y-115325000D03*
X135875000Y-119575000D03*
X134450000Y-104675000D03*
G04 #@! TO.N,IMU_MISO*
X133844190Y-117538846D03*
X145975000Y-112975000D03*
X150427258Y-116095483D03*
X139175000Y-115175000D03*
G04 #@! TO.N,IMU_SCLK*
X133800000Y-118825000D03*
X146350000Y-94250000D03*
X139775000Y-115750000D03*
X149525000Y-93550000D03*
G04 #@! TO.N,MAG_DRDY*
X155425000Y-125975000D03*
X123083766Y-102008258D03*
X151175000Y-123750000D03*
X134725000Y-126900000D03*
G04 #@! TO.N,IMU1_CS*
X138500000Y-102775000D03*
X128225000Y-104925000D03*
G04 #@! TO.N,GND*
X122775000Y-138700000D03*
X141600000Y-125025000D03*
X131175000Y-127000000D03*
X158575000Y-96550000D03*
X157125000Y-119550000D03*
X124120877Y-113190273D03*
X159025000Y-134675000D03*
X154700000Y-129550000D03*
X146875000Y-139650000D03*
X115725000Y-102250000D03*
X146850000Y-124825000D03*
X151625000Y-139950000D03*
X123625000Y-95925000D03*
X109125000Y-56475000D03*
X125000000Y-137575000D03*
X156050000Y-107275000D03*
X114825000Y-117725000D03*
X136700000Y-61150000D03*
X116325000Y-103075000D03*
X135825000Y-97250000D03*
X158575000Y-125800000D03*
X150550000Y-139950000D03*
X143925000Y-124775000D03*
X140825000Y-98725000D03*
X130425000Y-116275000D03*
X152925000Y-119600000D03*
X101825000Y-74500000D03*
X143950000Y-65550000D03*
X143875000Y-116075000D03*
X159575000Y-99650000D03*
X124100000Y-96875000D03*
X145075000Y-100000000D03*
X124850000Y-72000000D03*
X134625000Y-125950000D03*
X143425000Y-111350000D03*
X145100000Y-122175000D03*
X124250000Y-92575000D03*
X120150000Y-112225000D03*
X153100000Y-141850000D03*
X153150000Y-142850000D03*
X131150000Y-119700000D03*
X122225000Y-98900000D03*
X123725000Y-89050000D03*
X129150000Y-67450000D03*
X125225000Y-89150000D03*
X152250000Y-128650000D03*
X116950000Y-104975000D03*
X151075000Y-133975000D03*
X109550000Y-105375000D03*
X156550000Y-103475000D03*
X153025000Y-135200000D03*
X146950000Y-98775000D03*
X132700000Y-135725000D03*
X144075000Y-63850000D03*
X140400000Y-99825000D03*
X98100000Y-68150000D03*
X148775000Y-100625000D03*
X125237369Y-87283976D03*
X125775000Y-80825000D03*
X110525000Y-124425000D03*
X141725000Y-113450000D03*
X128750000Y-126450000D03*
X142600000Y-108100000D03*
X119225000Y-66150000D03*
X129600000Y-113225000D03*
X157775000Y-94925003D03*
D20*
X122850000Y-58400000D03*
D19*
X136700000Y-99025000D03*
X157000000Y-99800000D03*
X119700000Y-102550000D03*
X155100000Y-132700000D03*
X158525000Y-122025000D03*
X148250000Y-116075000D03*
X126825000Y-82325000D03*
X148425000Y-119800000D03*
D20*
X132025000Y-68000000D03*
D19*
X107475000Y-126425000D03*
X154375000Y-99800000D03*
X150750000Y-104200000D03*
X137350000Y-120625000D03*
X123050000Y-87500000D03*
X135050000Y-119500000D03*
X147500000Y-110550000D03*
X138675000Y-59525000D03*
X101175000Y-57550000D03*
X124350000Y-94875000D03*
X162350000Y-104575000D03*
X125050000Y-76050000D03*
X101425000Y-90825000D03*
X132575000Y-112400000D03*
X131650000Y-118200000D03*
X156225000Y-135375000D03*
X126150000Y-107025000D03*
X130150000Y-135775000D03*
X139500000Y-135200000D03*
X117900000Y-106075000D03*
X153975000Y-135950000D03*
D20*
X125975000Y-74025000D03*
D19*
X129175000Y-129075000D03*
X109750000Y-102250000D03*
X158925000Y-106200000D03*
X150600000Y-124800000D03*
X163700000Y-101150000D03*
X130075000Y-137325000D03*
X118050000Y-105075000D03*
X127475000Y-135825000D03*
X135550000Y-100850000D03*
X116850000Y-85950000D03*
X131950000Y-125025000D03*
X126950000Y-79250000D03*
X110950000Y-68750000D03*
X150075000Y-111125000D03*
X132650000Y-137300000D03*
X133970000Y-99320000D03*
X146475000Y-105150000D03*
X122750000Y-139700000D03*
X154225000Y-133325000D03*
X102275000Y-70500000D03*
X110500000Y-123325000D03*
X145275000Y-104250000D03*
X142075000Y-97450000D03*
X118025000Y-98550000D03*
X103825000Y-76870000D03*
X108725000Y-126400000D03*
X146900000Y-136925000D03*
X150350000Y-128625000D03*
X140325000Y-59500000D03*
X136675000Y-63225000D03*
X123325000Y-127975000D03*
X127200000Y-128250000D03*
X142550000Y-120075000D03*
X128755000Y-89455000D03*
X129375000Y-97400000D03*
D20*
X136275000Y-64775000D03*
D19*
X130225000Y-89225000D03*
X124800000Y-131200000D03*
X127500000Y-137325000D03*
X150500000Y-112850000D03*
G04 #@! TD*
D21*
G04 #@! TO.N,+3.3VA*
X123200000Y-113725000D02*
X123200000Y-106875000D01*
X123200000Y-106875000D02*
X123150000Y-106825000D01*
X121050000Y-115875000D02*
X123200000Y-113725000D01*
D22*
G04 #@! TO.N,/F103_OSC_OUT*
X130475000Y-127125000D02*
X131875000Y-128525000D01*
X131875000Y-128525000D02*
X131925000Y-128575000D01*
X131925000Y-128575000D02*
X134100000Y-128575000D01*
X129900000Y-127125000D02*
X130475000Y-127125000D01*
G04 #@! TO.N,/SWDIO*
X148900000Y-122800000D02*
X148900000Y-125950000D01*
X135950000Y-109850000D02*
X148900000Y-122800000D01*
X148900000Y-125950000D02*
X148900000Y-126000000D01*
X135950000Y-103375000D02*
X135950000Y-109850000D01*
G04 #@! TO.N,IMU1_INT*
X145100000Y-99000000D02*
X145131000Y-98969000D01*
X145131000Y-97334341D02*
X144590659Y-96794000D01*
X131911000Y-98739000D02*
X125125000Y-105525000D01*
X144590659Y-96794000D02*
X137102659Y-96794000D01*
X137102659Y-96794000D02*
X135157659Y-98739000D01*
X125125000Y-105525000D02*
X125125000Y-107325000D01*
X135157659Y-98739000D02*
X131911000Y-98739000D01*
X145131000Y-98969000D02*
X145131000Y-97334341D01*
G04 #@! TO.N,IMU2_INT*
X145850000Y-116725000D02*
X146525000Y-116050000D01*
X143675057Y-116725000D02*
X145850000Y-116725000D01*
X136198943Y-102774000D02*
X136875000Y-103450057D01*
X126325000Y-107975000D02*
X131526000Y-102774000D01*
X131526000Y-102774000D02*
X136198943Y-102774000D01*
X125850000Y-107975000D02*
X126325000Y-107975000D01*
X146525000Y-116050000D02*
X146525000Y-115500000D01*
X136875000Y-109924943D02*
X143675057Y-116725000D01*
X136875000Y-103450057D02*
X136875000Y-109924943D01*
G04 #@! TO.N,MAG_RST*
X154775000Y-124500000D02*
X154775000Y-105075000D01*
X145649000Y-95949000D02*
X133626000Y-95949000D01*
X127225000Y-102350000D02*
X125325000Y-102350000D01*
X154775000Y-105075000D02*
X145649000Y-95949000D01*
X133626000Y-95949000D02*
X127225000Y-102350000D01*
X125325000Y-102350000D02*
X124825000Y-101850000D01*
G04 #@! TO.N,MAG_SDA*
X152600000Y-127025000D02*
X152800000Y-126825000D01*
X157125000Y-126825000D02*
X157706000Y-126244000D01*
X126825000Y-101225000D02*
X126600000Y-101225000D01*
X152800000Y-126825000D02*
X157125000Y-126825000D01*
X141425000Y-90625000D02*
X132850070Y-90625000D01*
X132850070Y-90625000D02*
X127190682Y-96284388D01*
X157706000Y-106906000D02*
X141425000Y-90625000D01*
X127200000Y-100850000D02*
X126825000Y-101225000D01*
X127200000Y-96293706D02*
X127200000Y-100850000D01*
X157706000Y-126244000D02*
X157706000Y-106906000D01*
X127190682Y-96284388D02*
X127200000Y-96293706D01*
G04 #@! TO.N,MAG_SCL*
X148000000Y-122800000D02*
X141675000Y-116475000D01*
X133237823Y-109912823D02*
X129275000Y-105950000D01*
X133319387Y-109912823D02*
X133237823Y-109912823D01*
X148000000Y-128225000D02*
X148000000Y-122800000D01*
D23*
G04 #@! TO.N,BATT_ALERT*
X122875000Y-100125000D02*
X123450000Y-100700000D01*
X120700000Y-95600000D02*
X121200000Y-95600000D01*
X121200000Y-95600000D02*
X121250000Y-95650000D01*
X121250000Y-95650000D02*
X122875000Y-97275000D01*
X122875000Y-97275000D02*
X122875000Y-100125000D01*
X123450000Y-100700000D02*
X124175000Y-100700000D01*
D22*
G04 #@! TO.N,IMU_MOSI*
X136719762Y-116430238D02*
X133803168Y-116430238D01*
X163425000Y-98675000D02*
X163425000Y-95900000D01*
X157625000Y-104475000D02*
X163425000Y-98675000D01*
X138612500Y-114537500D02*
X136719762Y-116430238D01*
X138400000Y-104600000D02*
X138400000Y-106500000D01*
X138400000Y-106500000D02*
X139400000Y-107500000D01*
G04 #@! TO.N,IMU2_CS*
X147225000Y-109425000D02*
X148675000Y-110875000D01*
X148675000Y-113825000D02*
X148450000Y-114050000D01*
X142925000Y-109425000D02*
X147225000Y-109425000D01*
X148675000Y-110875000D02*
X148675000Y-113825000D01*
X139475000Y-105975000D02*
X142925000Y-109425000D01*
G04 #@! TO.N,/UART_RX*
X140650000Y-115514277D02*
X135075000Y-109939277D01*
X140650000Y-129825000D02*
X140650000Y-115514277D01*
X135075000Y-109939277D02*
X135075000Y-103825000D01*
X139150000Y-131325000D02*
X140650000Y-129825000D01*
G04 #@! TO.N,/UART_TX*
X135875000Y-129650000D02*
X135875000Y-119575000D01*
X137500000Y-131275000D02*
X135875000Y-129650000D01*
X135900000Y-115300000D02*
X135900000Y-112900000D01*
X134450000Y-111450000D02*
X134450000Y-104675000D01*
X135875000Y-115325000D02*
X135900000Y-115300000D01*
X135900000Y-112900000D02*
X134450000Y-111450000D01*
G04 #@! TO.N,IMU_MISO*
X147750000Y-114675000D02*
X146050000Y-112975000D01*
X146050000Y-112975000D02*
X145975000Y-112975000D01*
X133844190Y-117538846D02*
X136811154Y-117538846D01*
X136811154Y-117538846D02*
X139175000Y-115175000D01*
X150427258Y-116095483D02*
X149006775Y-114675000D01*
X149006775Y-114675000D02*
X147750000Y-114675000D01*
G04 #@! TO.N,IMU_SCLK*
X149525000Y-93550000D02*
X147050000Y-93550000D01*
X147050000Y-93550000D02*
X146350000Y-94250000D01*
X133800000Y-118825000D02*
X136725000Y-118825000D01*
X136725000Y-118825000D02*
X139750000Y-115800000D01*
G04 #@! TO.N,MAG_DRDY*
X124050000Y-108300000D02*
X124925000Y-109175000D01*
X132900000Y-125150000D02*
X134650000Y-126900000D01*
X134650000Y-126900000D02*
X134725000Y-126900000D01*
X124925000Y-109175000D02*
X127700000Y-109175000D01*
X123625000Y-102000000D02*
X124050000Y-102425000D01*
X123083766Y-102008258D02*
X123092024Y-102000000D01*
X134725000Y-126900000D02*
X134875000Y-127050000D01*
X128300000Y-117975000D02*
X132900000Y-122575000D01*
X153050000Y-123750000D02*
X155350000Y-126050000D01*
X128300000Y-109775000D02*
X128300000Y-117975000D01*
X123092024Y-102000000D02*
X123625000Y-102000000D01*
X132900000Y-122575000D02*
X132900000Y-125150000D01*
X127700000Y-109175000D02*
X128300000Y-109775000D01*
X124050000Y-102425000D02*
X124050000Y-108300000D01*
X151175000Y-123750000D02*
X153050000Y-123750000D01*
G04 #@! TO.N,IMU1_CS*
X129950000Y-103200000D02*
X128275000Y-104875000D01*
X137176000Y-101451000D02*
X131699000Y-101451000D01*
X131699000Y-101451000D02*
X129950000Y-103200000D01*
X138500000Y-102775000D02*
X137176000Y-101451000D01*
X128275000Y-104875000D02*
X128200000Y-104875000D01*
G04 #@! TD*
G04 #@! TA.AperFunction,Conductor*
G04 #@! TO.N,GND*
G36*
X155246619Y-104881237D02*
G01*
X155280123Y-104905094D01*
X157369181Y-106994152D01*
X157402666Y-107055475D01*
X157405500Y-107081833D01*
X157405500Y-126068167D01*
X157385815Y-126135206D01*
X157369181Y-126155848D01*
X157036848Y-126488181D01*
X156975525Y-126521666D01*
X156949167Y-126524500D01*
X155882676Y-126524500D01*
X155815637Y-126504815D01*
X155769882Y-126452011D01*
X155759938Y-126382853D01*
X155788963Y-126319297D01*
X155794995Y-126312819D01*
X155807317Y-126300497D01*
X155825500Y-126282314D01*
X155891392Y-126168186D01*
X155925500Y-126040892D01*
X155925500Y-125909108D01*
X155891392Y-125781814D01*
X155825500Y-125667686D01*
X155732314Y-125574500D01*
X155675250Y-125541554D01*
X155618187Y-125508608D01*
X155547642Y-125489706D01*
X155490892Y-125474500D01*
X155359108Y-125474500D01*
X155359106Y-125474500D01*
X155302356Y-125489706D01*
X155232506Y-125488043D01*
X155182583Y-125457612D01*
X154901730Y-125176759D01*
X154868245Y-125115436D01*
X154873229Y-125045744D01*
X154915101Y-124989811D01*
X154957317Y-124969304D01*
X154968186Y-124966392D01*
X155082314Y-124900500D01*
X155175500Y-124807314D01*
X155241392Y-124693186D01*
X155275500Y-124565892D01*
X155275500Y-124434108D01*
X155241392Y-124306814D01*
X155175500Y-124192686D01*
X155111818Y-124129004D01*
X155078334Y-124067680D01*
X155075500Y-124041323D01*
X155075500Y-105035439D01*
X155074664Y-105032318D01*
X155072668Y-105024869D01*
X155074329Y-104955023D01*
X155113489Y-104897159D01*
X155177717Y-104869652D01*
X155246619Y-104881237D01*
G37*
G04 #@! TD.AperFunction*
G04 #@! TA.AperFunction,Conductor*
G36*
X137044980Y-96253357D02*
G01*
X137058641Y-96252430D01*
X137077847Y-96263008D01*
X137098883Y-96269185D01*
X137107848Y-96279531D01*
X137119842Y-96286137D01*
X137130281Y-96305420D01*
X137144638Y-96321989D01*
X137146586Y-96335539D01*
X137153105Y-96347581D01*
X137151461Y-96369445D01*
X137154582Y-96391147D01*
X137148894Y-96403601D01*
X137147868Y-96417254D01*
X137134665Y-96434757D01*
X137125557Y-96454703D01*
X137114038Y-96462105D01*
X137105795Y-96473035D01*
X137074757Y-96489838D01*
X137064829Y-96493500D01*
X137063097Y-96493500D01*
X136986670Y-96513979D01*
X136955779Y-96531814D01*
X136946616Y-96537103D01*
X136946616Y-96537104D01*
X136918148Y-96553539D01*
X136918146Y-96553541D01*
X135069507Y-98402181D01*
X135008184Y-98435666D01*
X134981826Y-98438500D01*
X131863310Y-98438500D01*
X131863310Y-98435739D01*
X131807584Y-98427037D01*
X131755337Y-98380646D01*
X131736466Y-98313374D01*
X131756961Y-98246577D01*
X131772771Y-98227199D01*
X133714152Y-96285819D01*
X133775475Y-96252334D01*
X133801833Y-96249500D01*
X137031844Y-96249500D01*
X137044980Y-96253357D01*
G37*
G04 #@! TD.AperFunction*
G04 #@! TA.AperFunction,Conductor*
G36*
X177053032Y-55813148D02*
G01*
X177406532Y-55830515D01*
X177418640Y-55831708D01*
X177527576Y-55847867D01*
X177765717Y-55883192D01*
X177777635Y-55885562D01*
X178118008Y-55970821D01*
X178129646Y-55974352D01*
X178459996Y-56092554D01*
X178471237Y-56097210D01*
X178696857Y-56203919D01*
X178788433Y-56247231D01*
X178799150Y-56252959D01*
X179100102Y-56433343D01*
X179110220Y-56440103D01*
X179392049Y-56649122D01*
X179401455Y-56656842D01*
X179661436Y-56892474D01*
X179670025Y-56901063D01*
X179831782Y-57079535D01*
X179905657Y-57161044D01*
X179913377Y-57170450D01*
X180122396Y-57452279D01*
X180129156Y-57462397D01*
X180305402Y-57756446D01*
X180309533Y-57763337D01*
X180315270Y-57774070D01*
X180465289Y-58091262D01*
X180469945Y-58102503D01*
X180588147Y-58432853D01*
X180591680Y-58444498D01*
X180676934Y-58784851D01*
X180679308Y-58796787D01*
X180730791Y-59143859D01*
X180731984Y-59155968D01*
X180749351Y-59509466D01*
X180749500Y-59515551D01*
X180749500Y-141509448D01*
X180749351Y-141515533D01*
X180731984Y-141869031D01*
X180730791Y-141881140D01*
X180679308Y-142228212D01*
X180676934Y-142240148D01*
X180591680Y-142580501D01*
X180588147Y-142592146D01*
X180469945Y-142922496D01*
X180465289Y-142933737D01*
X180315270Y-143250929D01*
X180309533Y-143261662D01*
X180129156Y-143562602D01*
X180122396Y-143572720D01*
X179913377Y-143854549D01*
X179905657Y-143863955D01*
X179670033Y-144123928D01*
X179661428Y-144132533D01*
X179401455Y-144368157D01*
X179392049Y-144375877D01*
X179110220Y-144584896D01*
X179100102Y-144591656D01*
X178799162Y-144772033D01*
X178788429Y-144777770D01*
X178471237Y-144927789D01*
X178459996Y-144932445D01*
X178129646Y-145050647D01*
X178118001Y-145054180D01*
X177777648Y-145139434D01*
X177765712Y-145141808D01*
X177418640Y-145193291D01*
X177406531Y-145194484D01*
X177073016Y-145210869D01*
X177053031Y-145211851D01*
X177046949Y-145212000D01*
X95053051Y-145212000D01*
X95046968Y-145211851D01*
X95025811Y-145210811D01*
X94693468Y-145194484D01*
X94681359Y-145193291D01*
X94334287Y-145141808D01*
X94322351Y-145139434D01*
X93981998Y-145054180D01*
X93970353Y-145050647D01*
X93640003Y-144932445D01*
X93628762Y-144927789D01*
X93311570Y-144777770D01*
X93300842Y-144772035D01*
X92999897Y-144591656D01*
X92989779Y-144584896D01*
X92707950Y-144375877D01*
X92698544Y-144368157D01*
X92582295Y-144262796D01*
X92438563Y-144132525D01*
X92429974Y-144123936D01*
X92194342Y-143863955D01*
X92186622Y-143854549D01*
X91977603Y-143572720D01*
X91970843Y-143562602D01*
X91888667Y-143425500D01*
X91790459Y-143261650D01*
X91784729Y-143250929D01*
X91765981Y-143211290D01*
X91709077Y-143090974D01*
X91634710Y-142933737D01*
X91630054Y-142922496D01*
X91511852Y-142592146D01*
X91508319Y-142580501D01*
X91498873Y-142542789D01*
X91423062Y-142240135D01*
X91420691Y-142228212D01*
X91369208Y-141881140D01*
X91368015Y-141869030D01*
X91350649Y-141515532D01*
X91350500Y-141509448D01*
X91350500Y-141391211D01*
X93199500Y-141391211D01*
X93199500Y-141633788D01*
X93231161Y-141874285D01*
X93293947Y-142108604D01*
X93386773Y-142332705D01*
X93386777Y-142332714D01*
X93403438Y-142361571D01*
X93508064Y-142542789D01*
X93508066Y-142542792D01*
X93508067Y-142542793D01*
X93655733Y-142735236D01*
X93655739Y-142735243D01*
X93827256Y-142906760D01*
X93827263Y-142906766D01*
X93876641Y-142944655D01*
X94019711Y-143054436D01*
X94229788Y-143175724D01*
X94453900Y-143268554D01*
X94688211Y-143331338D01*
X94868586Y-143355084D01*
X94928711Y-143363000D01*
X94928712Y-143363000D01*
X95171289Y-143363000D01*
X95219388Y-143356667D01*
X95411789Y-143331338D01*
X95646100Y-143268554D01*
X95870212Y-143175724D01*
X96080289Y-143054436D01*
X96272738Y-142906765D01*
X96444265Y-142735238D01*
X96591936Y-142542789D01*
X96713224Y-142332712D01*
X96806054Y-142108600D01*
X96868838Y-141874289D01*
X96900500Y-141633788D01*
X96900500Y-141505247D01*
X124094500Y-141505247D01*
X124094500Y-143244752D01*
X124106131Y-143303229D01*
X124106132Y-143303230D01*
X124150447Y-143369552D01*
X124216769Y-143413867D01*
X124216770Y-143413868D01*
X124275247Y-143425499D01*
X124275250Y-143425500D01*
X124275252Y-143425500D01*
X126014750Y-143425500D01*
X126014751Y-143425499D01*
X126029568Y-143422552D01*
X126073229Y-143413868D01*
X126073229Y-143413867D01*
X126073231Y-143413867D01*
X126139552Y-143369552D01*
X126183867Y-143303231D01*
X126183867Y-143303229D01*
X126183868Y-143303229D01*
X126194173Y-143251418D01*
X126195500Y-143244748D01*
X126195500Y-142271530D01*
X126634500Y-142271530D01*
X126634500Y-142478469D01*
X126674868Y-142681412D01*
X126674870Y-142681420D01*
X126712636Y-142772596D01*
X126754059Y-142872598D01*
X126802206Y-142944655D01*
X126869024Y-143044657D01*
X127015342Y-143190975D01*
X127015345Y-143190977D01*
X127187402Y-143305941D01*
X127378580Y-143385130D01*
X127523052Y-143413867D01*
X127581530Y-143425499D01*
X127581534Y-143425500D01*
X127581535Y-143425500D01*
X127788466Y-143425500D01*
X127788467Y-143425499D01*
X127991420Y-143385130D01*
X128182598Y-143305941D01*
X128354655Y-143190977D01*
X128500977Y-143044655D01*
X128615941Y-142872598D01*
X128695130Y-142681420D01*
X128735500Y-142478465D01*
X128735500Y-142271535D01*
X128735499Y-142271530D01*
X129174500Y-142271530D01*
X129174500Y-142478469D01*
X129214868Y-142681412D01*
X129214870Y-142681420D01*
X129252636Y-142772596D01*
X129294059Y-142872598D01*
X129342206Y-142944655D01*
X129409024Y-143044657D01*
X129555342Y-143190975D01*
X129555345Y-143190977D01*
X129727402Y-143305941D01*
X129918580Y-143385130D01*
X130063052Y-143413867D01*
X130121530Y-143425499D01*
X130121534Y-143425500D01*
X130121535Y-143425500D01*
X130328466Y-143425500D01*
X130328467Y-143425499D01*
X130531420Y-143385130D01*
X130722598Y-143305941D01*
X130894655Y-143190977D01*
X131040977Y-143044655D01*
X131155941Y-142872598D01*
X131235130Y-142681420D01*
X131275500Y-142478465D01*
X131275500Y-142271535D01*
X131275499Y-142271530D01*
X131714500Y-142271530D01*
X131714500Y-142478469D01*
X131754868Y-142681412D01*
X131754870Y-142681420D01*
X131792636Y-142772596D01*
X131834059Y-142872598D01*
X131882206Y-142944655D01*
X131949024Y-143044657D01*
X132095342Y-143190975D01*
X132095345Y-143190977D01*
X132267402Y-143305941D01*
X132458580Y-143385130D01*
X132603052Y-143413867D01*
X132661530Y-143425499D01*
X132661534Y-143425500D01*
X132661535Y-143425500D01*
X132868466Y-143425500D01*
X132868467Y-143425499D01*
X133071420Y-143385130D01*
X133262598Y-143305941D01*
X133434655Y-143190977D01*
X133580977Y-143044655D01*
X133695941Y-142872598D01*
X133775130Y-142681420D01*
X133815500Y-142478465D01*
X133815500Y-142271535D01*
X133775130Y-142068580D01*
X133695941Y-141877402D01*
X133580977Y-141705345D01*
X133580975Y-141705342D01*
X133434658Y-141559025D01*
X133434650Y-141559019D01*
X133349781Y-141502311D01*
X133349707Y-141502263D01*
X133293796Y-141464905D01*
X133262598Y-141444059D01*
X133168898Y-141405247D01*
X142049500Y-141405247D01*
X142049500Y-143144752D01*
X142061131Y-143203229D01*
X142061132Y-143203230D01*
X142105447Y-143269552D01*
X142171769Y-143313867D01*
X142171770Y-143313868D01*
X142230247Y-143325499D01*
X142230250Y-143325500D01*
X142230252Y-143325500D01*
X143969750Y-143325500D01*
X143969751Y-143325499D01*
X143984568Y-143322552D01*
X144028229Y-143313868D01*
X144028229Y-143313867D01*
X144028231Y-143313867D01*
X144094552Y-143269552D01*
X144138867Y-143203231D01*
X144138867Y-143203229D01*
X144138868Y-143203229D01*
X144150499Y-143144752D01*
X144150500Y-143144750D01*
X144150500Y-142171530D01*
X144589500Y-142171530D01*
X144589500Y-142378469D01*
X144629868Y-142581412D01*
X144629870Y-142581420D01*
X144709058Y-142772596D01*
X144824024Y-142944657D01*
X144970342Y-143090975D01*
X144970345Y-143090977D01*
X145142402Y-143205941D01*
X145333580Y-143285130D01*
X145478052Y-143313867D01*
X145536530Y-143325499D01*
X145536534Y-143325500D01*
X145536535Y-143325500D01*
X145743466Y-143325500D01*
X145743467Y-143325499D01*
X145946420Y-143285130D01*
X146137598Y-143205941D01*
X146309655Y-143090977D01*
X146455977Y-142944655D01*
X146570941Y-142772598D01*
X146650130Y-142581420D01*
X146690500Y-142378465D01*
X146690500Y-142171535D01*
X146690499Y-142171530D01*
X147129500Y-142171530D01*
X147129500Y-142378469D01*
X147169868Y-142581412D01*
X147169870Y-142581420D01*
X147249058Y-142772596D01*
X147364024Y-142944657D01*
X147510342Y-143090975D01*
X147510345Y-143090977D01*
X147682402Y-143205941D01*
X147873580Y-143285130D01*
X148018052Y-143313867D01*
X148076530Y-143325499D01*
X148076534Y-143325500D01*
X148076535Y-143325500D01*
X148283466Y-143325500D01*
X148283467Y-143325499D01*
X148486420Y-143285130D01*
X148677598Y-143205941D01*
X148849655Y-143090977D01*
X148849658Y-143090974D01*
X148864284Y-143076349D01*
X148995974Y-142944658D01*
X148995975Y-142944657D01*
X148995977Y-142944655D01*
X149110941Y-142772598D01*
X149190130Y-142581420D01*
X149230500Y-142378465D01*
X149230500Y-142188428D01*
X149620000Y-142188428D01*
X149620000Y-142361571D01*
X149647085Y-142532584D01*
X149700592Y-142697259D01*
X149779196Y-142851525D01*
X149783709Y-142857736D01*
X149783709Y-142857737D01*
X150237037Y-142404409D01*
X150254075Y-142467993D01*
X150319901Y-142582007D01*
X150412993Y-142675099D01*
X150527007Y-142740925D01*
X150590589Y-142757962D01*
X150137261Y-143211289D01*
X150137262Y-143211290D01*
X150143471Y-143215801D01*
X150297742Y-143294408D01*
X150462415Y-143347914D01*
X150633429Y-143375000D01*
X150806571Y-143375000D01*
X150977584Y-143347914D01*
X151142257Y-143294408D01*
X151296525Y-143215803D01*
X151302736Y-143211289D01*
X151302737Y-143211289D01*
X150849410Y-142757962D01*
X150912993Y-142740925D01*
X151027007Y-142675099D01*
X151120099Y-142582007D01*
X151185925Y-142467993D01*
X151202962Y-142404409D01*
X151656289Y-142857736D01*
X151660803Y-142851525D01*
X151739408Y-142697257D01*
X151792914Y-142532584D01*
X151820000Y-142361571D01*
X151820000Y-142188428D01*
X151792914Y-142017415D01*
X151739408Y-141852742D01*
X151660801Y-141698471D01*
X151656290Y-141692262D01*
X151656289Y-141692261D01*
X151202962Y-142145589D01*
X151185925Y-142082007D01*
X151120099Y-141967993D01*
X151027007Y-141874901D01*
X150912993Y-141809075D01*
X150849409Y-141792037D01*
X151250235Y-141391211D01*
X175199500Y-141391211D01*
X175199500Y-141633788D01*
X175231161Y-141874285D01*
X175293947Y-142108604D01*
X175386773Y-142332705D01*
X175386777Y-142332714D01*
X175403438Y-142361571D01*
X175508064Y-142542789D01*
X175508066Y-142542792D01*
X175508067Y-142542793D01*
X175655733Y-142735236D01*
X175655739Y-142735243D01*
X175827256Y-142906760D01*
X175827263Y-142906766D01*
X175876641Y-142944655D01*
X176019711Y-143054436D01*
X176229788Y-143175724D01*
X176453900Y-143268554D01*
X176688211Y-143331338D01*
X176868586Y-143355084D01*
X176928711Y-143363000D01*
X176928712Y-143363000D01*
X177171289Y-143363000D01*
X177219388Y-143356667D01*
X177411789Y-143331338D01*
X177646100Y-143268554D01*
X177870212Y-143175724D01*
X178080289Y-143054436D01*
X178272738Y-142906765D01*
X178444265Y-142735238D01*
X178591936Y-142542789D01*
X178713224Y-142332712D01*
X178806054Y-142108600D01*
X178868838Y-141874289D01*
X178900500Y-141633788D01*
X178900500Y-141391212D01*
X178868838Y-141150711D01*
X178806054Y-140916400D01*
X178713224Y-140692288D01*
X178591936Y-140482211D01*
X178444265Y-140289762D01*
X178444260Y-140289756D01*
X178272743Y-140118239D01*
X178272736Y-140118233D01*
X178080293Y-139970567D01*
X178080292Y-139970566D01*
X178080289Y-139970564D01*
X177908661Y-139871474D01*
X177870214Y-139849277D01*
X177870205Y-139849273D01*
X177646104Y-139756447D01*
X177411785Y-139693661D01*
X177171289Y-139662000D01*
X177171288Y-139662000D01*
X176928712Y-139662000D01*
X176928711Y-139662000D01*
X176688214Y-139693661D01*
X176453895Y-139756447D01*
X176229794Y-139849273D01*
X176229785Y-139849277D01*
X176019706Y-139970567D01*
X175827263Y-140118233D01*
X175827256Y-140118239D01*
X175655739Y-140289756D01*
X175655733Y-140289763D01*
X175508067Y-140482206D01*
X175386777Y-140692285D01*
X175386773Y-140692294D01*
X175293947Y-140916395D01*
X175231161Y-141150714D01*
X175199500Y-141391211D01*
X151250235Y-141391211D01*
X151302737Y-141338709D01*
X151296525Y-141334196D01*
X151142259Y-141255592D01*
X150977584Y-141202085D01*
X150806571Y-141175000D01*
X150633429Y-141175000D01*
X150462415Y-141202085D01*
X150297740Y-141255592D01*
X150143480Y-141334193D01*
X150143463Y-141334203D01*
X150137261Y-141338708D01*
X150137261Y-141338709D01*
X150590590Y-141792037D01*
X150527007Y-141809075D01*
X150412993Y-141874901D01*
X150319901Y-141967993D01*
X150254075Y-142082007D01*
X150237037Y-142145590D01*
X149783709Y-141692261D01*
X149783708Y-141692261D01*
X149779203Y-141698463D01*
X149779193Y-141698480D01*
X149700592Y-141852740D01*
X149647085Y-142017415D01*
X149620000Y-142188428D01*
X149230500Y-142188428D01*
X149230500Y-142171535D01*
X149190130Y-141968580D01*
X149110941Y-141777402D01*
X148995977Y-141605345D01*
X148995975Y-141605342D01*
X148849657Y-141459024D01*
X148681655Y-141346770D01*
X148677598Y-141344059D01*
X148658458Y-141336131D01*
X148486420Y-141264870D01*
X148486412Y-141264868D01*
X148283469Y-141224500D01*
X148283465Y-141224500D01*
X148076535Y-141224500D01*
X148076530Y-141224500D01*
X147873587Y-141264868D01*
X147873579Y-141264870D01*
X147682403Y-141344058D01*
X147510342Y-141459024D01*
X147364024Y-141605342D01*
X147249058Y-141777403D01*
X147169870Y-141968579D01*
X147169868Y-141968587D01*
X147129500Y-142171530D01*
X146690499Y-142171530D01*
X146650130Y-141968580D01*
X146570941Y-141777402D01*
X146455977Y-141605345D01*
X146455975Y-141605342D01*
X146309657Y-141459024D01*
X146141655Y-141346770D01*
X146137598Y-141344059D01*
X146118458Y-141336131D01*
X145946420Y-141264870D01*
X145946412Y-141264868D01*
X145743469Y-141224500D01*
X145743465Y-141224500D01*
X145536535Y-141224500D01*
X145536530Y-141224500D01*
X145333587Y-141264868D01*
X145333579Y-141264870D01*
X145142403Y-141344058D01*
X144970342Y-141459024D01*
X144824024Y-141605342D01*
X144709058Y-141777403D01*
X144629870Y-141968579D01*
X144629868Y-141968587D01*
X144589500Y-142171530D01*
X144150500Y-142171530D01*
X144150500Y-141405249D01*
X144150499Y-141405247D01*
X144138868Y-141346770D01*
X144138867Y-141346769D01*
X144094552Y-141280447D01*
X144028230Y-141236132D01*
X144028229Y-141236131D01*
X143969752Y-141224500D01*
X143969748Y-141224500D01*
X142230252Y-141224500D01*
X142230247Y-141224500D01*
X142171770Y-141236131D01*
X142171769Y-141236132D01*
X142105447Y-141280447D01*
X142061132Y-141346769D01*
X142061131Y-141346770D01*
X142049500Y-141405247D01*
X133168898Y-141405247D01*
X133135012Y-141391211D01*
X133071420Y-141364870D01*
X133071412Y-141364868D01*
X132868469Y-141324500D01*
X132868465Y-141324500D01*
X132661535Y-141324500D01*
X132661530Y-141324500D01*
X132458587Y-141364868D01*
X132458579Y-141364870D01*
X132267403Y-141444058D01*
X132095342Y-141559024D01*
X131949024Y-141705342D01*
X131834058Y-141877403D01*
X131754870Y-142068579D01*
X131754868Y-142068587D01*
X131714500Y-142271530D01*
X131275499Y-142271530D01*
X131235130Y-142068580D01*
X131155941Y-141877402D01*
X131040977Y-141705345D01*
X131040975Y-141705342D01*
X130894657Y-141559024D01*
X130753796Y-141464905D01*
X130722598Y-141444059D01*
X130595012Y-141391211D01*
X130531420Y-141364870D01*
X130531412Y-141364868D01*
X130328469Y-141324500D01*
X130328465Y-141324500D01*
X130121535Y-141324500D01*
X130121530Y-141324500D01*
X129918587Y-141364868D01*
X129918579Y-141364870D01*
X129727403Y-141444058D01*
X129555342Y-141559024D01*
X129409024Y-141705342D01*
X129294058Y-141877403D01*
X129214870Y-142068579D01*
X129214868Y-142068587D01*
X129174500Y-142271530D01*
X128735499Y-142271530D01*
X128695130Y-142068580D01*
X128615941Y-141877402D01*
X128500977Y-141705345D01*
X128500975Y-141705342D01*
X128354657Y-141559024D01*
X128213796Y-141464905D01*
X128182598Y-141444059D01*
X128055012Y-141391211D01*
X127991420Y-141364870D01*
X127991412Y-141364868D01*
X127788469Y-141324500D01*
X127788465Y-141324500D01*
X127581535Y-141324500D01*
X127581530Y-141324500D01*
X127378587Y-141364868D01*
X127378579Y-141364870D01*
X127187403Y-141444058D01*
X127015342Y-141559024D01*
X126869024Y-141705342D01*
X126754058Y-141877403D01*
X126674870Y-142068579D01*
X126674868Y-142068587D01*
X126634500Y-142271530D01*
X126195500Y-142271530D01*
X126195500Y-141505252D01*
X126195500Y-141505249D01*
X126195499Y-141505247D01*
X126183868Y-141446770D01*
X126183867Y-141446769D01*
X126139552Y-141380447D01*
X126073230Y-141336132D01*
X126073229Y-141336131D01*
X126014752Y-141324500D01*
X126014748Y-141324500D01*
X124275252Y-141324500D01*
X124275247Y-141324500D01*
X124216770Y-141336131D01*
X124216769Y-141336132D01*
X124150447Y-141380447D01*
X124106132Y-141446769D01*
X124106131Y-141446770D01*
X124094500Y-141505247D01*
X96900500Y-141505247D01*
X96900500Y-141391212D01*
X96868838Y-141150711D01*
X96806054Y-140916400D01*
X96747817Y-140775803D01*
X96746028Y-140771483D01*
X96713227Y-140692294D01*
X96713222Y-140692285D01*
X96591936Y-140482211D01*
X96444265Y-140289762D01*
X96444260Y-140289756D01*
X96272743Y-140118239D01*
X96272736Y-140118233D01*
X96080293Y-139970567D01*
X96080292Y-139970566D01*
X96080289Y-139970564D01*
X95870212Y-139849276D01*
X95870211Y-139849275D01*
X95870205Y-139849272D01*
X95646104Y-139756447D01*
X95616177Y-139748428D01*
X124045000Y-139748428D01*
X124045000Y-139921571D01*
X124072085Y-140092584D01*
X124125592Y-140257259D01*
X124204196Y-140411525D01*
X124208709Y-140417736D01*
X124208709Y-140417737D01*
X124662037Y-139964409D01*
X124679075Y-140027993D01*
X124744901Y-140142007D01*
X124837993Y-140235099D01*
X124952007Y-140300925D01*
X125015589Y-140317962D01*
X124562261Y-140771289D01*
X124562262Y-140771290D01*
X124568471Y-140775801D01*
X124722742Y-140854408D01*
X124887415Y-140907914D01*
X125058429Y-140935000D01*
X125231571Y-140935000D01*
X125402584Y-140907914D01*
X125567257Y-140854408D01*
X125721525Y-140775803D01*
X125727737Y-140771289D01*
X125274410Y-140317962D01*
X125337993Y-140300925D01*
X125452007Y-140235099D01*
X125545099Y-140142007D01*
X125610925Y-140027993D01*
X125627962Y-139964409D01*
X126081289Y-140417736D01*
X126085803Y-140411525D01*
X126164408Y-140257257D01*
X126217914Y-140092584D01*
X126245000Y-139921571D01*
X126245000Y-139748428D01*
X126585000Y-139748428D01*
X126585000Y-139921571D01*
X126612085Y-140092584D01*
X126665592Y-140257259D01*
X126744196Y-140411525D01*
X126748709Y-140417736D01*
X126748709Y-140417737D01*
X127202037Y-139964409D01*
X127219075Y-140027993D01*
X127284901Y-140142007D01*
X127377993Y-140235099D01*
X127492007Y-140300925D01*
X127555589Y-140317962D01*
X127102261Y-140771289D01*
X127102262Y-140771290D01*
X127108471Y-140775801D01*
X127262742Y-140854408D01*
X127427415Y-140907914D01*
X127598429Y-140935000D01*
X127771571Y-140935000D01*
X127942584Y-140907914D01*
X128107257Y-140854408D01*
X128261525Y-140775803D01*
X128267737Y-140771289D01*
X127814410Y-140317962D01*
X127877993Y-140300925D01*
X127992007Y-140235099D01*
X128085099Y-140142007D01*
X128150925Y-140027993D01*
X128167962Y-139964410D01*
X128621289Y-140417737D01*
X128621289Y-140417736D01*
X128625803Y-140411525D01*
X128704408Y-140257257D01*
X128757914Y-140092584D01*
X128785000Y-139921571D01*
X128785000Y-139748428D01*
X129125000Y-139748428D01*
X129125000Y-139921571D01*
X129152085Y-140092584D01*
X129205592Y-140257259D01*
X129284196Y-140411525D01*
X129288709Y-140417736D01*
X129288709Y-140417737D01*
X129742037Y-139964409D01*
X129759075Y-140027993D01*
X129824901Y-140142007D01*
X129917993Y-140235099D01*
X130032007Y-140300925D01*
X130095589Y-140317962D01*
X129642261Y-140771289D01*
X129642262Y-140771290D01*
X129648471Y-140775801D01*
X129802742Y-140854408D01*
X129967415Y-140907914D01*
X130138429Y-140935000D01*
X130311571Y-140935000D01*
X130482584Y-140907914D01*
X130647257Y-140854408D01*
X130801525Y-140775803D01*
X130807737Y-140771289D01*
X130354410Y-140317962D01*
X130417993Y-140300925D01*
X130532007Y-140235099D01*
X130625099Y-140142007D01*
X130690925Y-140027993D01*
X130707962Y-139964409D01*
X131161289Y-140417736D01*
X131165803Y-140411525D01*
X131244408Y-140257257D01*
X131297914Y-140092584D01*
X131325000Y-139921571D01*
X131325000Y-139748428D01*
X131665000Y-139748428D01*
X131665000Y-139921571D01*
X131692085Y-140092584D01*
X131745592Y-140257259D01*
X131824196Y-140411525D01*
X131828709Y-140417736D01*
X131828709Y-140417737D01*
X132282037Y-139964409D01*
X132299075Y-140027993D01*
X132364901Y-140142007D01*
X132457993Y-140235099D01*
X132572007Y-140300925D01*
X132635589Y-140317962D01*
X132182261Y-140771289D01*
X132182262Y-140771290D01*
X132188471Y-140775801D01*
X132342742Y-140854408D01*
X132507415Y-140907914D01*
X132678429Y-140935000D01*
X132851571Y-140935000D01*
X133022584Y-140907914D01*
X133187257Y-140854408D01*
X133341525Y-140775803D01*
X133347736Y-140771289D01*
X133347737Y-140771289D01*
X132894410Y-140317962D01*
X132957993Y-140300925D01*
X133072007Y-140235099D01*
X133165099Y-140142007D01*
X133230925Y-140027993D01*
X133247962Y-139964409D01*
X133701289Y-140417736D01*
X133705803Y-140411525D01*
X133784408Y-140257257D01*
X133837914Y-140092584D01*
X133865000Y-139921571D01*
X133865000Y-139748428D01*
X133837914Y-139577415D01*
X133784408Y-139412742D01*
X133705801Y-139258471D01*
X133701290Y-139252262D01*
X133701289Y-139252261D01*
X133247962Y-139705589D01*
X133230925Y-139642007D01*
X133165099Y-139527993D01*
X133072007Y-139434901D01*
X132957993Y-139369075D01*
X132894409Y-139352037D01*
X133347737Y-138898709D01*
X133341525Y-138894196D01*
X133187259Y-138815592D01*
X133022584Y-138762085D01*
X132851571Y-138735000D01*
X132678429Y-138735000D01*
X132507415Y-138762085D01*
X132342740Y-138815592D01*
X132188480Y-138894193D01*
X132188463Y-138894203D01*
X132182261Y-138898708D01*
X132182261Y-138898709D01*
X132635590Y-139352037D01*
X132572007Y-139369075D01*
X132457993Y-139434901D01*
X132364901Y-139527993D01*
X132299075Y-139642007D01*
X132282037Y-139705590D01*
X131828709Y-139252261D01*
X131828708Y-139252261D01*
X131824203Y-139258463D01*
X131824193Y-139258480D01*
X131745592Y-139412740D01*
X131692085Y-139577415D01*
X131665000Y-139748428D01*
X131325000Y-139748428D01*
X131297914Y-139577415D01*
X131244408Y-139412742D01*
X131165801Y-139258471D01*
X131161290Y-139252262D01*
X131161289Y-139252261D01*
X130707962Y-139705589D01*
X130690925Y-139642007D01*
X130625099Y-139527993D01*
X130532007Y-139434901D01*
X130417993Y-139369075D01*
X130354409Y-139352037D01*
X130807737Y-138898709D01*
X130801525Y-138894196D01*
X130647259Y-138815592D01*
X130482584Y-138762085D01*
X130311571Y-138735000D01*
X130138429Y-138735000D01*
X129967415Y-138762085D01*
X129802740Y-138815592D01*
X129648480Y-138894193D01*
X129648463Y-138894203D01*
X129642261Y-138898708D01*
X129642261Y-138898709D01*
X130095590Y-139352037D01*
X130032007Y-139369075D01*
X129917993Y-139434901D01*
X129824901Y-139527993D01*
X129759075Y-139642007D01*
X129742037Y-139705590D01*
X129288709Y-139252261D01*
X129288708Y-139252261D01*
X129284203Y-139258463D01*
X129284193Y-139258480D01*
X129205592Y-139412740D01*
X129152085Y-139577415D01*
X129125000Y-139748428D01*
X128785000Y-139748428D01*
X128757914Y-139577415D01*
X128704408Y-139412742D01*
X128625801Y-139258471D01*
X128621290Y-139252262D01*
X128621289Y-139252261D01*
X128167962Y-139705589D01*
X128150925Y-139642007D01*
X128085099Y-139527993D01*
X127992007Y-139434901D01*
X127877993Y-139369075D01*
X127814409Y-139352037D01*
X128267737Y-138898709D01*
X128261525Y-138894196D01*
X128107259Y-138815592D01*
X127942584Y-138762085D01*
X127771571Y-138735000D01*
X127598429Y-138735000D01*
X127427415Y-138762085D01*
X127262740Y-138815592D01*
X127108480Y-138894193D01*
X127108463Y-138894203D01*
X127102261Y-138898708D01*
X127102261Y-138898709D01*
X127555590Y-139352037D01*
X127492007Y-139369075D01*
X127377993Y-139434901D01*
X127284901Y-139527993D01*
X127219075Y-139642007D01*
X127202037Y-139705590D01*
X126748709Y-139252261D01*
X126748708Y-139252261D01*
X126744203Y-139258463D01*
X126744193Y-139258480D01*
X126665592Y-139412740D01*
X126612085Y-139577415D01*
X126585000Y-139748428D01*
X126245000Y-139748428D01*
X126217914Y-139577415D01*
X126164408Y-139412742D01*
X126085801Y-139258471D01*
X126081290Y-139252262D01*
X126081289Y-139252261D01*
X125627962Y-139705589D01*
X125610925Y-139642007D01*
X125545099Y-139527993D01*
X125452007Y-139434901D01*
X125337993Y-139369075D01*
X125274409Y-139352037D01*
X125727737Y-138898709D01*
X125721525Y-138894196D01*
X125567259Y-138815592D01*
X125402584Y-138762085D01*
X125231571Y-138735000D01*
X125058429Y-138735000D01*
X124887415Y-138762085D01*
X124722740Y-138815592D01*
X124568480Y-138894193D01*
X124568463Y-138894203D01*
X124562261Y-138898708D01*
X124562261Y-138898709D01*
X125015590Y-139352037D01*
X124952007Y-139369075D01*
X124837993Y-139434901D01*
X124744901Y-139527993D01*
X124679075Y-139642007D01*
X124662037Y-139705590D01*
X124208709Y-139252261D01*
X124208708Y-139252261D01*
X124204203Y-139258463D01*
X124204193Y-139258480D01*
X124125592Y-139412740D01*
X124072085Y-139577415D01*
X124045000Y-139748428D01*
X95616177Y-139748428D01*
X95411785Y-139693661D01*
X95171289Y-139662000D01*
X95171288Y-139662000D01*
X94928712Y-139662000D01*
X94928711Y-139662000D01*
X94688214Y-139693661D01*
X94453895Y-139756447D01*
X94229794Y-139849273D01*
X94229785Y-139849277D01*
X94019706Y-139970567D01*
X93827263Y-140118233D01*
X93827256Y-140118239D01*
X93655739Y-140289756D01*
X93655733Y-140289763D01*
X93508067Y-140482206D01*
X93386777Y-140692285D01*
X93386773Y-140692294D01*
X93293947Y-140916395D01*
X93231161Y-141150714D01*
X93199500Y-141391211D01*
X91350500Y-141391211D01*
X91350500Y-135959108D01*
X154449500Y-135959108D01*
X154449500Y-136090891D01*
X154483608Y-136218187D01*
X154516554Y-136275250D01*
X154549500Y-136332314D01*
X154642686Y-136425500D01*
X154756814Y-136491392D01*
X154884108Y-136525500D01*
X154884110Y-136525500D01*
X155015890Y-136525500D01*
X155015892Y-136525500D01*
X155143186Y-136491392D01*
X155257314Y-136425500D01*
X155350500Y-136332314D01*
X155416392Y-136218186D01*
X155450500Y-136090892D01*
X155450500Y-135959108D01*
X155416392Y-135831814D01*
X155350500Y-135717686D01*
X155257314Y-135624500D01*
X155200250Y-135591554D01*
X155143187Y-135558608D01*
X155079539Y-135541554D01*
X155015892Y-135524500D01*
X154884108Y-135524500D01*
X154756812Y-135558608D01*
X154642686Y-135624500D01*
X154642683Y-135624502D01*
X154549502Y-135717683D01*
X154549500Y-135717686D01*
X154483608Y-135831812D01*
X154449500Y-135959108D01*
X91350500Y-135959108D01*
X91350500Y-135334108D01*
X139949500Y-135334108D01*
X139949500Y-135465891D01*
X139983608Y-135593187D01*
X140001687Y-135624500D01*
X140049500Y-135707314D01*
X140142686Y-135800500D01*
X140217327Y-135843594D01*
X140256810Y-135866390D01*
X140256814Y-135866392D01*
X140384108Y-135900500D01*
X140384110Y-135900500D01*
X140515890Y-135900500D01*
X140515892Y-135900500D01*
X140643186Y-135866392D01*
X140757314Y-135800500D01*
X140850500Y-135707314D01*
X140916392Y-135593186D01*
X140950500Y-135465892D01*
X140950500Y-135334108D01*
X140916392Y-135206814D01*
X140850500Y-135092686D01*
X140757314Y-134999500D01*
X140700250Y-134966554D01*
X140643187Y-134933608D01*
X140579539Y-134916554D01*
X140515892Y-134899500D01*
X140384108Y-134899500D01*
X140256812Y-134933608D01*
X140142686Y-134999500D01*
X140142683Y-134999502D01*
X140049502Y-135092683D01*
X140049500Y-135092686D01*
X139983608Y-135206812D01*
X139949500Y-135334108D01*
X91350500Y-135334108D01*
X91350500Y-132952203D01*
X150611580Y-132952203D01*
X150611580Y-133083986D01*
X150645688Y-133211282D01*
X150678634Y-133268345D01*
X150711580Y-133325409D01*
X150804766Y-133418595D01*
X150918894Y-133484487D01*
X151046188Y-133518595D01*
X151046190Y-133518595D01*
X151177970Y-133518595D01*
X151177972Y-133518595D01*
X151305266Y-133484487D01*
X151419394Y-133418595D01*
X151512580Y-133325409D01*
X151578472Y-133211281D01*
X151612580Y-133083987D01*
X151612580Y-132952203D01*
X151578472Y-132824909D01*
X151512580Y-132710781D01*
X151419394Y-132617595D01*
X151362330Y-132584649D01*
X151305267Y-132551703D01*
X151241619Y-132534649D01*
X151177972Y-132517595D01*
X151046188Y-132517595D01*
X150918892Y-132551703D01*
X150804766Y-132617595D01*
X150804763Y-132617597D01*
X150711582Y-132710778D01*
X150711580Y-132710781D01*
X150645688Y-132824907D01*
X150611580Y-132952203D01*
X91350500Y-132952203D01*
X91350500Y-131284108D01*
X125299500Y-131284108D01*
X125299500Y-131415891D01*
X125333608Y-131543187D01*
X125356200Y-131582316D01*
X125399500Y-131657314D01*
X125492686Y-131750500D01*
X125606814Y-131816392D01*
X125734108Y-131850500D01*
X125734110Y-131850500D01*
X125865890Y-131850500D01*
X125865892Y-131850500D01*
X125993186Y-131816392D01*
X126107314Y-131750500D01*
X126200500Y-131657314D01*
X126266392Y-131543186D01*
X126300500Y-131415892D01*
X126300500Y-131284108D01*
X126266392Y-131156814D01*
X126200500Y-131042686D01*
X126107314Y-130949500D01*
X126050250Y-130916554D01*
X125993187Y-130883608D01*
X125929539Y-130866554D01*
X125865892Y-130849500D01*
X125734108Y-130849500D01*
X125606812Y-130883608D01*
X125492686Y-130949500D01*
X125492683Y-130949502D01*
X125399502Y-131042683D01*
X125399500Y-131042686D01*
X125333608Y-131156812D01*
X125299500Y-131284108D01*
X91350500Y-131284108D01*
X91350500Y-127059108D01*
X129399500Y-127059108D01*
X129399500Y-127190892D01*
X129411188Y-127234511D01*
X129433608Y-127318187D01*
X129461439Y-127366391D01*
X129499500Y-127432314D01*
X129592686Y-127525500D01*
X129706814Y-127591392D01*
X129834108Y-127625500D01*
X129834110Y-127625500D01*
X129965890Y-127625500D01*
X129965892Y-127625500D01*
X130093186Y-127591392D01*
X130207314Y-127525500D01*
X130241241Y-127491572D01*
X130302561Y-127458088D01*
X130372253Y-127463072D01*
X130416602Y-127491573D01*
X131634540Y-128709511D01*
X131740489Y-128815460D01*
X131809012Y-128855022D01*
X131885438Y-128875500D01*
X133641324Y-128875500D01*
X133708363Y-128895185D01*
X133729005Y-128911819D01*
X133792686Y-128975500D01*
X133906814Y-129041392D01*
X134034108Y-129075500D01*
X134034110Y-129075500D01*
X134165890Y-129075500D01*
X134165892Y-129075500D01*
X134293186Y-129041392D01*
X134407314Y-128975500D01*
X134500500Y-128882314D01*
X134566392Y-128768186D01*
X134600500Y-128640892D01*
X134600500Y-128509108D01*
X134566392Y-128381814D01*
X134500500Y-128267686D01*
X134407314Y-128174500D01*
X134350250Y-128141554D01*
X134293187Y-128108608D01*
X134201757Y-128084110D01*
X134165892Y-128074500D01*
X134034108Y-128074500D01*
X133906812Y-128108608D01*
X133792686Y-128174500D01*
X133792683Y-128174502D01*
X133729005Y-128238181D01*
X133667682Y-128271666D01*
X133641324Y-128274500D01*
X132100833Y-128274500D01*
X132033794Y-128254815D01*
X132013152Y-128238181D01*
X130659510Y-126884539D01*
X130651354Y-126879831D01*
X130635042Y-126870413D01*
X130635041Y-126870412D01*
X130613015Y-126857696D01*
X130590990Y-126844979D01*
X130550426Y-126834110D01*
X130514562Y-126824500D01*
X130514560Y-126824500D01*
X130358676Y-126824500D01*
X130329235Y-126815855D01*
X130299249Y-126809332D01*
X130294233Y-126805577D01*
X130291637Y-126804815D01*
X130270995Y-126788181D01*
X130234331Y-126751517D01*
X130200846Y-126690194D01*
X130205830Y-126620502D01*
X130247702Y-126564569D01*
X130289914Y-126544063D01*
X130393186Y-126516392D01*
X130507314Y-126450500D01*
X130600500Y-126357314D01*
X130666392Y-126243186D01*
X130700500Y-126115892D01*
X130700500Y-125984108D01*
X130666392Y-125856814D01*
X130600500Y-125742686D01*
X130507314Y-125649500D01*
X130408910Y-125592686D01*
X130393187Y-125583608D01*
X130329539Y-125566554D01*
X130265892Y-125549500D01*
X130134108Y-125549500D01*
X130006812Y-125583608D01*
X129892686Y-125649500D01*
X129892683Y-125649502D01*
X129799502Y-125742683D01*
X129799500Y-125742686D01*
X129733608Y-125856812D01*
X129699500Y-125984108D01*
X129699500Y-126115891D01*
X129733608Y-126243187D01*
X129756200Y-126282316D01*
X129799500Y-126357314D01*
X129799502Y-126357316D01*
X129865668Y-126423482D01*
X129899153Y-126484805D01*
X129894169Y-126554497D01*
X129852297Y-126610430D01*
X129810081Y-126630937D01*
X129706814Y-126658608D01*
X129706812Y-126658608D01*
X129706812Y-126658609D01*
X129592686Y-126724500D01*
X129592683Y-126724502D01*
X129499502Y-126817683D01*
X129499500Y-126817686D01*
X129433608Y-126931812D01*
X129424477Y-126965890D01*
X129399500Y-127059108D01*
X91350500Y-127059108D01*
X91350500Y-123713428D01*
X107070000Y-123713428D01*
X107070000Y-123886571D01*
X107097085Y-124057584D01*
X107150592Y-124222259D01*
X107229196Y-124376525D01*
X107233709Y-124382736D01*
X107233709Y-124382737D01*
X107687037Y-123929408D01*
X107704075Y-123992993D01*
X107769901Y-124107007D01*
X107862993Y-124200099D01*
X107977007Y-124265925D01*
X108040589Y-124282962D01*
X107587261Y-124736289D01*
X107587262Y-124736290D01*
X107593471Y-124740801D01*
X107747742Y-124819408D01*
X107912415Y-124872914D01*
X108083429Y-124900000D01*
X108256571Y-124900000D01*
X108427584Y-124872914D01*
X108592257Y-124819408D01*
X108746525Y-124740803D01*
X108752736Y-124736289D01*
X108752737Y-124736289D01*
X108299410Y-124282962D01*
X108362993Y-124265925D01*
X108477007Y-124200099D01*
X108570099Y-124107007D01*
X108635925Y-123992993D01*
X108652962Y-123929410D01*
X109106289Y-124382737D01*
X109106289Y-124382736D01*
X109110803Y-124376525D01*
X109189408Y-124222257D01*
X109242914Y-124057584D01*
X109270000Y-123886571D01*
X109270000Y-123713428D01*
X109242914Y-123542415D01*
X109189408Y-123377742D01*
X109110801Y-123223471D01*
X109106290Y-123217262D01*
X109106289Y-123217261D01*
X108652962Y-123670589D01*
X108635925Y-123607007D01*
X108570099Y-123492993D01*
X108477007Y-123399901D01*
X108362993Y-123334075D01*
X108299409Y-123317037D01*
X108752737Y-122863709D01*
X108746525Y-122859196D01*
X108592259Y-122780592D01*
X108427584Y-122727085D01*
X108256571Y-122700000D01*
X108083429Y-122700000D01*
X107912415Y-122727085D01*
X107747740Y-122780592D01*
X107593480Y-122859193D01*
X107593463Y-122859203D01*
X107587261Y-122863708D01*
X107587261Y-122863709D01*
X108040590Y-123317037D01*
X107977007Y-123334075D01*
X107862993Y-123399901D01*
X107769901Y-123492993D01*
X107704075Y-123607007D01*
X107687037Y-123670590D01*
X107233709Y-123217261D01*
X107233708Y-123217261D01*
X107229203Y-123223463D01*
X107229193Y-123223480D01*
X107150592Y-123377740D01*
X107097085Y-123542415D01*
X107070000Y-123713428D01*
X91350500Y-123713428D01*
X91350500Y-121156530D01*
X107119500Y-121156530D01*
X107119500Y-121363469D01*
X107159868Y-121566412D01*
X107159870Y-121566420D01*
X107239058Y-121757596D01*
X107354024Y-121929657D01*
X107500342Y-122075975D01*
X107500345Y-122075977D01*
X107672402Y-122190941D01*
X107863580Y-122270130D01*
X108066530Y-122310499D01*
X108066534Y-122310500D01*
X108066535Y-122310500D01*
X108273466Y-122310500D01*
X108273467Y-122310499D01*
X108476420Y-122270130D01*
X108667598Y-122190941D01*
X108839655Y-122075977D01*
X108985977Y-121929655D01*
X109100941Y-121757598D01*
X109180130Y-121566420D01*
X109220500Y-121363465D01*
X109220500Y-121156535D01*
X109180130Y-120953580D01*
X109100941Y-120762402D01*
X108985977Y-120590345D01*
X108985975Y-120590342D01*
X108839657Y-120444024D01*
X108753626Y-120386541D01*
X108667598Y-120329059D01*
X108656596Y-120324502D01*
X108476420Y-120249870D01*
X108476412Y-120249868D01*
X108273469Y-120209500D01*
X108273465Y-120209500D01*
X108066535Y-120209500D01*
X108066530Y-120209500D01*
X107863587Y-120249868D01*
X107863579Y-120249870D01*
X107672403Y-120329058D01*
X107500342Y-120444024D01*
X107354024Y-120590342D01*
X107239058Y-120762403D01*
X107159870Y-120953579D01*
X107159868Y-120953587D01*
X107119500Y-121156530D01*
X91350500Y-121156530D01*
X91350500Y-118616530D01*
X107119500Y-118616530D01*
X107119500Y-118823469D01*
X107159868Y-119026412D01*
X107159870Y-119026420D01*
X107230936Y-119197989D01*
X107239059Y-119217598D01*
X107288366Y-119291391D01*
X107354024Y-119389657D01*
X107500342Y-119535975D01*
X107500345Y-119535977D01*
X107672402Y-119650941D01*
X107863580Y-119730130D01*
X108054902Y-119768186D01*
X108066530Y-119770499D01*
X108066534Y-119770500D01*
X108066535Y-119770500D01*
X108273466Y-119770500D01*
X108273467Y-119770499D01*
X108476420Y-119730130D01*
X108667598Y-119650941D01*
X108839655Y-119535977D01*
X108985977Y-119389655D01*
X109100941Y-119217598D01*
X109180130Y-119026420D01*
X109220500Y-118823465D01*
X109220500Y-118616535D01*
X109180130Y-118413580D01*
X109100941Y-118222402D01*
X108985977Y-118050345D01*
X108985975Y-118050342D01*
X108839657Y-117904024D01*
X108727711Y-117829225D01*
X108667598Y-117789059D01*
X108666591Y-117788642D01*
X108476420Y-117709870D01*
X108476412Y-117709868D01*
X108273469Y-117669500D01*
X108273465Y-117669500D01*
X108066535Y-117669500D01*
X108066530Y-117669500D01*
X107863587Y-117709868D01*
X107863579Y-117709870D01*
X107672403Y-117789058D01*
X107500342Y-117904024D01*
X107354024Y-118050342D01*
X107239058Y-118222403D01*
X107159870Y-118413579D01*
X107159868Y-118413587D01*
X107119500Y-118616530D01*
X91350500Y-118616530D01*
X91350500Y-115310247D01*
X107119500Y-115310247D01*
X107119500Y-117049752D01*
X107131131Y-117108229D01*
X107131132Y-117108230D01*
X107175447Y-117174552D01*
X107241769Y-117218867D01*
X107241770Y-117218868D01*
X107300247Y-117230499D01*
X107300250Y-117230500D01*
X107300252Y-117230500D01*
X109039750Y-117230500D01*
X109039751Y-117230499D01*
X109054568Y-117227552D01*
X109098229Y-117218868D01*
X109098229Y-117218867D01*
X109098231Y-117218867D01*
X109164552Y-117174552D01*
X109208867Y-117108231D01*
X109208867Y-117108229D01*
X109208868Y-117108229D01*
X109217552Y-117064568D01*
X109220500Y-117049748D01*
X109220500Y-115809108D01*
X120549500Y-115809108D01*
X120549500Y-115940892D01*
X120558505Y-115974500D01*
X120583608Y-116068187D01*
X120585415Y-116071316D01*
X120649500Y-116182314D01*
X120742686Y-116275500D01*
X120856814Y-116341392D01*
X120984108Y-116375500D01*
X120984110Y-116375500D01*
X121115890Y-116375500D01*
X121115892Y-116375500D01*
X121243186Y-116341392D01*
X121357314Y-116275500D01*
X121450500Y-116182314D01*
X121516392Y-116068186D01*
X121516393Y-116068180D01*
X121519504Y-116060674D01*
X121520842Y-116061228D01*
X121548111Y-116013990D01*
X123560489Y-114001614D01*
X123619799Y-113898887D01*
X123638119Y-113830515D01*
X123650500Y-113784309D01*
X123650500Y-113301984D01*
X124419313Y-113301984D01*
X124419313Y-113433768D01*
X124430211Y-113474439D01*
X124453421Y-113561063D01*
X124462449Y-113576699D01*
X124519313Y-113675190D01*
X124612499Y-113768376D01*
X124695923Y-113816541D01*
X124720126Y-113830515D01*
X124726627Y-113834268D01*
X124853921Y-113868376D01*
X124853923Y-113868376D01*
X124985703Y-113868376D01*
X124985705Y-113868376D01*
X125112999Y-113834268D01*
X125227127Y-113768376D01*
X125320313Y-113675190D01*
X125386205Y-113561062D01*
X125420313Y-113433768D01*
X125420313Y-113301984D01*
X125386205Y-113174690D01*
X125382450Y-113168187D01*
X125377376Y-113159397D01*
X125320313Y-113060562D01*
X125227127Y-112967376D01*
X125170063Y-112934430D01*
X125113000Y-112901484D01*
X125049352Y-112884430D01*
X124985705Y-112867376D01*
X124853921Y-112867376D01*
X124726625Y-112901484D01*
X124612499Y-112967376D01*
X124612496Y-112967378D01*
X124519315Y-113060559D01*
X124519313Y-113060562D01*
X124453421Y-113174688D01*
X124424583Y-113282316D01*
X124419313Y-113301984D01*
X123650500Y-113301984D01*
X123650500Y-108624833D01*
X123670185Y-108557794D01*
X123722989Y-108512039D01*
X123792147Y-108502095D01*
X123855703Y-108531120D01*
X123862181Y-108537152D01*
X124684540Y-109359511D01*
X124740489Y-109415460D01*
X124740491Y-109415461D01*
X124740495Y-109415464D01*
X124809004Y-109455017D01*
X124809011Y-109455021D01*
X124885438Y-109475500D01*
X127524167Y-109475500D01*
X127591206Y-109495185D01*
X127611848Y-109511819D01*
X127963181Y-109863152D01*
X127996666Y-109924475D01*
X127999500Y-109950833D01*
X127999500Y-118014562D01*
X128009088Y-118050345D01*
X128019978Y-118090986D01*
X128019980Y-118090991D01*
X128023235Y-118096628D01*
X128023237Y-118096635D01*
X128023238Y-118096635D01*
X128059535Y-118159504D01*
X128059541Y-118159512D01*
X132563181Y-122663152D01*
X132596666Y-122724475D01*
X132599500Y-122750833D01*
X132599500Y-125189562D01*
X132613152Y-125240513D01*
X132619979Y-125265990D01*
X132619982Y-125265995D01*
X132659535Y-125334504D01*
X132659541Y-125334512D01*
X134188181Y-126863152D01*
X134221666Y-126924475D01*
X134224500Y-126950833D01*
X134224500Y-126965891D01*
X134258608Y-127093187D01*
X134278256Y-127127218D01*
X134324500Y-127207314D01*
X134417686Y-127300500D01*
X134531814Y-127366392D01*
X134659108Y-127400500D01*
X134659110Y-127400500D01*
X134790890Y-127400500D01*
X134790892Y-127400500D01*
X134918186Y-127366392D01*
X134958552Y-127343086D01*
X134988465Y-127330696D01*
X134990988Y-127330021D01*
X135059511Y-127290460D01*
X135115460Y-127234511D01*
X135155021Y-127165988D01*
X135155696Y-127163465D01*
X135168087Y-127133550D01*
X135191391Y-127093187D01*
X135191392Y-127093186D01*
X135225500Y-126965892D01*
X135225500Y-126834108D01*
X135191392Y-126706814D01*
X135125500Y-126592686D01*
X135032314Y-126499500D01*
X134947439Y-126450497D01*
X134918187Y-126433608D01*
X134853931Y-126416391D01*
X134790892Y-126399500D01*
X134659108Y-126399500D01*
X134651047Y-126400561D01*
X134650789Y-126398604D01*
X134591640Y-126397188D01*
X134541733Y-126366762D01*
X133236819Y-125061848D01*
X133203334Y-125000525D01*
X133200500Y-124974167D01*
X133200500Y-122535439D01*
X133200500Y-122535438D01*
X133180021Y-122459011D01*
X133180017Y-122459004D01*
X133140464Y-122390495D01*
X133140458Y-122390487D01*
X132138654Y-121388683D01*
X132105169Y-121327360D01*
X132110153Y-121257668D01*
X132152025Y-121201735D01*
X132164335Y-121193615D01*
X132168184Y-121191392D01*
X132168186Y-121191392D01*
X132282314Y-121125500D01*
X132375500Y-121032314D01*
X132441392Y-120918186D01*
X132475500Y-120790892D01*
X132475500Y-120659108D01*
X132441392Y-120531814D01*
X132375500Y-120417686D01*
X132282314Y-120324500D01*
X132225250Y-120291554D01*
X132168187Y-120258608D01*
X132104539Y-120241554D01*
X132040892Y-120224500D01*
X131909108Y-120224500D01*
X131781812Y-120258608D01*
X131667686Y-120324500D01*
X131667683Y-120324502D01*
X131574502Y-120417683D01*
X131574500Y-120417686D01*
X131506384Y-120535665D01*
X131455816Y-120583880D01*
X131387209Y-120597102D01*
X131322344Y-120571134D01*
X131311316Y-120561345D01*
X128636819Y-117886848D01*
X128603334Y-117825525D01*
X128600500Y-117799167D01*
X128600500Y-112859108D01*
X132774500Y-112859108D01*
X132774500Y-112990892D01*
X132787171Y-113038182D01*
X132808608Y-113118187D01*
X132836021Y-113165667D01*
X132874500Y-113232314D01*
X132967686Y-113325500D01*
X133081814Y-113391392D01*
X133209108Y-113425500D01*
X133209110Y-113425500D01*
X133340890Y-113425500D01*
X133340892Y-113425500D01*
X133468186Y-113391392D01*
X133582314Y-113325500D01*
X133675500Y-113232314D01*
X133741392Y-113118186D01*
X133775500Y-112990892D01*
X133775500Y-112859108D01*
X133741392Y-112731814D01*
X133675500Y-112617686D01*
X133582314Y-112524500D01*
X133495712Y-112474500D01*
X133468187Y-112458608D01*
X133404539Y-112441554D01*
X133340892Y-112424500D01*
X133209108Y-112424500D01*
X133081812Y-112458608D01*
X132967686Y-112524500D01*
X132967683Y-112524502D01*
X132874502Y-112617683D01*
X132874500Y-112617686D01*
X132808608Y-112731812D01*
X132792889Y-112790478D01*
X132774500Y-112859108D01*
X128600500Y-112859108D01*
X128600500Y-109735439D01*
X128596266Y-109719637D01*
X128580021Y-109659011D01*
X128549130Y-109605506D01*
X128540464Y-109590495D01*
X128540458Y-109590487D01*
X127884512Y-108934541D01*
X127884504Y-108934535D01*
X127815995Y-108894982D01*
X127815990Y-108894979D01*
X127790513Y-108888152D01*
X127739562Y-108874500D01*
X127739560Y-108874500D01*
X125100833Y-108874500D01*
X125033794Y-108854815D01*
X125013152Y-108838181D01*
X124386819Y-108211848D01*
X124353334Y-108150525D01*
X124350500Y-108124167D01*
X124350500Y-102385440D01*
X124350341Y-102384233D01*
X124350500Y-102383213D01*
X124350500Y-102377310D01*
X124351420Y-102377310D01*
X124361105Y-102315198D01*
X124407484Y-102262941D01*
X124474752Y-102244054D01*
X124535279Y-102260657D01*
X124604288Y-102300500D01*
X124630393Y-102315572D01*
X124631814Y-102316392D01*
X124759108Y-102350500D01*
X124759110Y-102350500D01*
X124849167Y-102350500D01*
X124916206Y-102370185D01*
X124936848Y-102386819D01*
X125140489Y-102590460D01*
X125209012Y-102630022D01*
X125285438Y-102650500D01*
X125285440Y-102650500D01*
X127272690Y-102650500D01*
X127272690Y-102653268D01*
X127328372Y-102661941D01*
X127380636Y-102708312D01*
X127399533Y-102775577D01*
X127379065Y-102842381D01*
X127363223Y-102861805D01*
X124940489Y-105284540D01*
X124884541Y-105340487D01*
X124884535Y-105340495D01*
X124844982Y-105409004D01*
X124844979Y-105409009D01*
X124834130Y-105449500D01*
X124824734Y-105484567D01*
X124824500Y-105485439D01*
X124824500Y-106866323D01*
X124804815Y-106933362D01*
X124788182Y-106954004D01*
X124724500Y-107017686D01*
X124658608Y-107131812D01*
X124624500Y-107259108D01*
X124624500Y-107390891D01*
X124658608Y-107518187D01*
X124686151Y-107565892D01*
X124724500Y-107632314D01*
X124817686Y-107725500D01*
X124931814Y-107791392D01*
X125059108Y-107825500D01*
X125059110Y-107825500D01*
X125190888Y-107825500D01*
X125190892Y-107825500D01*
X125193403Y-107824827D01*
X125195603Y-107824879D01*
X125198948Y-107824439D01*
X125199016Y-107824960D01*
X125263249Y-107826486D01*
X125321114Y-107865644D01*
X125348622Y-107929871D01*
X125349500Y-107944600D01*
X125349500Y-108040891D01*
X125383608Y-108168187D01*
X125410902Y-108215460D01*
X125449500Y-108282314D01*
X125542686Y-108375500D01*
X125656814Y-108441392D01*
X125784108Y-108475500D01*
X125784110Y-108475500D01*
X125915890Y-108475500D01*
X125915892Y-108475500D01*
X126043186Y-108441392D01*
X126157314Y-108375500D01*
X126220995Y-108311819D01*
X126282318Y-108278334D01*
X126308676Y-108275500D01*
X126364560Y-108275500D01*
X126364562Y-108275500D01*
X126440989Y-108255021D01*
X126509511Y-108215460D01*
X126565460Y-108159511D01*
X128629405Y-106095565D01*
X128690726Y-106062082D01*
X128760418Y-106067066D01*
X128816351Y-106108938D01*
X128830164Y-106137348D01*
X128831873Y-106136641D01*
X128834980Y-106144144D01*
X128862829Y-106192380D01*
X128900873Y-106258273D01*
X128994059Y-106351459D01*
X129092894Y-106408522D01*
X129098655Y-106411848D01*
X129108187Y-106417351D01*
X129235481Y-106451459D01*
X129300126Y-106451459D01*
X129367165Y-106471144D01*
X129387807Y-106487778D01*
X132782568Y-109882539D01*
X132816053Y-109943862D01*
X132818887Y-109970220D01*
X132818887Y-109978714D01*
X132852995Y-110106010D01*
X132885941Y-110163073D01*
X132918887Y-110220137D01*
X133012073Y-110313323D01*
X133126201Y-110379215D01*
X133253495Y-110413323D01*
X133253497Y-110413323D01*
X133385277Y-110413323D01*
X133385279Y-110413323D01*
X133512573Y-110379215D01*
X133626701Y-110313323D01*
X133719887Y-110220137D01*
X133785779Y-110106009D01*
X133819887Y-109978715D01*
X133819887Y-109846931D01*
X133785779Y-109719637D01*
X133719887Y-109605509D01*
X133626701Y-109512323D01*
X133562922Y-109475500D01*
X133512574Y-109446431D01*
X133397001Y-109415464D01*
X133385279Y-109412323D01*
X133253495Y-109412323D01*
X133253489Y-109412323D01*
X133250707Y-109413069D01*
X133248269Y-109413010D01*
X133245434Y-109413384D01*
X133245375Y-109412941D01*
X133180857Y-109411400D01*
X133130943Y-109380972D01*
X129838192Y-106088221D01*
X129804707Y-106026898D01*
X129801873Y-106000540D01*
X129801873Y-105885069D01*
X129801873Y-105885067D01*
X129767765Y-105757773D01*
X129701873Y-105643645D01*
X129608687Y-105550459D01*
X129536199Y-105508608D01*
X129494558Y-105484566D01*
X129487055Y-105481459D01*
X129488326Y-105478389D01*
X129441847Y-105450013D01*
X129411364Y-105387144D01*
X129419709Y-105317775D01*
X129445978Y-105278992D01*
X131614152Y-103110819D01*
X131675475Y-103077334D01*
X131701833Y-103074500D01*
X135350763Y-103074500D01*
X135417802Y-103094185D01*
X135463557Y-103146989D01*
X135473501Y-103216147D01*
X135470537Y-103230595D01*
X135455546Y-103286540D01*
X135419181Y-103346200D01*
X135356334Y-103376728D01*
X135286958Y-103368433D01*
X135273775Y-103361834D01*
X135268189Y-103358609D01*
X135268186Y-103358608D01*
X135140892Y-103324500D01*
X135009108Y-103324500D01*
X134881812Y-103358608D01*
X134767686Y-103424500D01*
X134767683Y-103424502D01*
X134674502Y-103517683D01*
X134674500Y-103517686D01*
X134608608Y-103631812D01*
X134582094Y-103730767D01*
X134574500Y-103759108D01*
X134574500Y-103890892D01*
X134608608Y-104018186D01*
X134608609Y-104018189D01*
X134608668Y-104018406D01*
X134607005Y-104088256D01*
X134567843Y-104146119D01*
X134503614Y-104173623D01*
X134488893Y-104174500D01*
X134384108Y-104174500D01*
X134256812Y-104208608D01*
X134142686Y-104274500D01*
X134142683Y-104274502D01*
X134049502Y-104367683D01*
X134049500Y-104367686D01*
X133983608Y-104481812D01*
X133967778Y-104540892D01*
X133949500Y-104609108D01*
X133949500Y-104740892D01*
X133963512Y-104793186D01*
X133983608Y-104868187D01*
X134006200Y-104907316D01*
X134049500Y-104982314D01*
X134049502Y-104982316D01*
X134113181Y-105045995D01*
X134146666Y-105107318D01*
X134149500Y-105133676D01*
X134149500Y-111489562D01*
X134163152Y-111540513D01*
X134169979Y-111565990D01*
X134169982Y-111565995D01*
X134209535Y-111634504D01*
X134209541Y-111634512D01*
X135563181Y-112988152D01*
X135596666Y-113049475D01*
X135599500Y-113075833D01*
X135599500Y-114841324D01*
X135579815Y-114908363D01*
X135563181Y-114929005D01*
X135474502Y-115017683D01*
X135474500Y-115017686D01*
X135408608Y-115131812D01*
X135377304Y-115248642D01*
X135374500Y-115259108D01*
X135374500Y-115390892D01*
X135381199Y-115415892D01*
X135408608Y-115518187D01*
X135436151Y-115565892D01*
X135474500Y-115632314D01*
X135567686Y-115725500D01*
X135638771Y-115766541D01*
X135676231Y-115788169D01*
X135681814Y-115791392D01*
X135809108Y-115825500D01*
X135809110Y-115825500D01*
X135940890Y-115825500D01*
X135940892Y-115825500D01*
X136068186Y-115791392D01*
X136182314Y-115725500D01*
X136275500Y-115632314D01*
X136341392Y-115518186D01*
X136375500Y-115390892D01*
X136375500Y-115259108D01*
X136341392Y-115131814D01*
X136275500Y-115017686D01*
X136236819Y-114979005D01*
X136203334Y-114917682D01*
X136200500Y-114891324D01*
X136200500Y-112860440D01*
X136200500Y-112860438D01*
X136181757Y-112790489D01*
X136180022Y-112784012D01*
X136140460Y-112715489D01*
X134786819Y-111361848D01*
X134753334Y-111300525D01*
X134750500Y-111274167D01*
X134750500Y-110339110D01*
X134770185Y-110272071D01*
X134822989Y-110226316D01*
X134892147Y-110216372D01*
X134955703Y-110245397D01*
X134962181Y-110251429D01*
X138553377Y-113842625D01*
X138586862Y-113903948D01*
X138581878Y-113973640D01*
X138540006Y-114029573D01*
X138497791Y-114050080D01*
X138419314Y-114071108D01*
X138419312Y-114071108D01*
X138419312Y-114071109D01*
X138305186Y-114137000D01*
X138305183Y-114137002D01*
X138212002Y-114230183D01*
X138212000Y-114230186D01*
X138146108Y-114344312D01*
X138112000Y-114471608D01*
X138112000Y-114561666D01*
X138092315Y-114628705D01*
X138075681Y-114649347D01*
X136631610Y-116093419D01*
X136570287Y-116126904D01*
X136543929Y-116129738D01*
X134261844Y-116129738D01*
X134194805Y-116110053D01*
X134174163Y-116093419D01*
X134110484Y-116029740D01*
X134110482Y-116029738D01*
X134031042Y-115983873D01*
X133996355Y-115963846D01*
X133919249Y-115943186D01*
X133869060Y-115929738D01*
X133737276Y-115929738D01*
X133609980Y-115963846D01*
X133495854Y-116029738D01*
X133495851Y-116029740D01*
X133402670Y-116122921D01*
X133402668Y-116122924D01*
X133336776Y-116237050D01*
X133326474Y-116275499D01*
X133302668Y-116364346D01*
X133302668Y-116496130D01*
X133308700Y-116518642D01*
X133336776Y-116623425D01*
X133343970Y-116635885D01*
X133402668Y-116737552D01*
X133495854Y-116830738D01*
X133557832Y-116866521D01*
X133596761Y-116888997D01*
X133644976Y-116939565D01*
X133658198Y-117008172D01*
X133632230Y-117073036D01*
X133596761Y-117103770D01*
X133536882Y-117138342D01*
X133536873Y-117138348D01*
X133443692Y-117231529D01*
X133443690Y-117231532D01*
X133377798Y-117345658D01*
X133343690Y-117472954D01*
X133343690Y-117604737D01*
X133377798Y-117732033D01*
X133397060Y-117765395D01*
X133443690Y-117846160D01*
X133536876Y-117939346D01*
X133651004Y-118005238D01*
X133778298Y-118039346D01*
X133778300Y-118039346D01*
X133910080Y-118039346D01*
X133910082Y-118039346D01*
X134037376Y-118005238D01*
X134151504Y-117939346D01*
X134215185Y-117875665D01*
X134276508Y-117842180D01*
X134302866Y-117839346D01*
X136850714Y-117839346D01*
X136850716Y-117839346D01*
X136927143Y-117818867D01*
X136995665Y-117779306D01*
X136995673Y-117779297D01*
X136999241Y-117776561D01*
X137064409Y-117751362D01*
X137132855Y-117765395D01*
X137182848Y-117814205D01*
X137198516Y-117882296D01*
X137174885Y-117948048D01*
X137162416Y-117962612D01*
X136636848Y-118488181D01*
X136575525Y-118521666D01*
X136549167Y-118524500D01*
X134258676Y-118524500D01*
X134191637Y-118504815D01*
X134170995Y-118488181D01*
X134107316Y-118424502D01*
X134107314Y-118424500D01*
X134031977Y-118381004D01*
X133993187Y-118358608D01*
X133929539Y-118341554D01*
X133865892Y-118324500D01*
X133734108Y-118324500D01*
X133606812Y-118358608D01*
X133492686Y-118424500D01*
X133492683Y-118424502D01*
X133399502Y-118517683D01*
X133399500Y-118517686D01*
X133333608Y-118631812D01*
X133299500Y-118759108D01*
X133299500Y-118890891D01*
X133333608Y-119018187D01*
X133360902Y-119065460D01*
X133399500Y-119132314D01*
X133492686Y-119225500D01*
X133606814Y-119291392D01*
X133734108Y-119325500D01*
X133734110Y-119325500D01*
X133865890Y-119325500D01*
X133865892Y-119325500D01*
X133993186Y-119291392D01*
X134107314Y-119225500D01*
X134170995Y-119161819D01*
X134232318Y-119128334D01*
X134258676Y-119125500D01*
X135341817Y-119125500D01*
X135408856Y-119145185D01*
X135454611Y-119197989D01*
X135464555Y-119267147D01*
X135449204Y-119311498D01*
X135441122Y-119325499D01*
X135408608Y-119381812D01*
X135374500Y-119509108D01*
X135374500Y-119640891D01*
X135408608Y-119768187D01*
X135441554Y-119825250D01*
X135474500Y-119882314D01*
X135474502Y-119882316D01*
X135538181Y-119945995D01*
X135571666Y-120007318D01*
X135574500Y-120033676D01*
X135574500Y-129689562D01*
X135581639Y-129716205D01*
X135594979Y-129765990D01*
X135594982Y-129765995D01*
X135634535Y-129834504D01*
X135634541Y-129834512D01*
X136963181Y-131163152D01*
X136996666Y-131224475D01*
X136999500Y-131250833D01*
X136999500Y-131340891D01*
X137033608Y-131468187D01*
X137062476Y-131518186D01*
X137099500Y-131582314D01*
X137192686Y-131675500D01*
X137306814Y-131741392D01*
X137434108Y-131775500D01*
X137434110Y-131775500D01*
X137565890Y-131775500D01*
X137565892Y-131775500D01*
X137693186Y-131741392D01*
X137807314Y-131675500D01*
X137900500Y-131582314D01*
X137966392Y-131468186D01*
X138000500Y-131340892D01*
X138000500Y-131209108D01*
X137966392Y-131081814D01*
X137900500Y-130967686D01*
X137807314Y-130874500D01*
X137750250Y-130841554D01*
X137693187Y-130808608D01*
X137629539Y-130791554D01*
X137565892Y-130774500D01*
X137475833Y-130774500D01*
X137408794Y-130754815D01*
X137388152Y-130738181D01*
X136211819Y-129561848D01*
X136178334Y-129500525D01*
X136175500Y-129474167D01*
X136175500Y-120033676D01*
X136195185Y-119966637D01*
X136211819Y-119945995D01*
X136275500Y-119882314D01*
X136341392Y-119768186D01*
X136375500Y-119640892D01*
X136375500Y-119509108D01*
X136341392Y-119381814D01*
X136300795Y-119311499D01*
X136284323Y-119243601D01*
X136307175Y-119177574D01*
X136362096Y-119134383D01*
X136408183Y-119125500D01*
X136764560Y-119125500D01*
X136764562Y-119125500D01*
X136840989Y-119105021D01*
X136909511Y-119065460D01*
X136965460Y-119009511D01*
X139688152Y-116286819D01*
X139749475Y-116253334D01*
X139775833Y-116250500D01*
X139840890Y-116250500D01*
X139840892Y-116250500D01*
X139968186Y-116216392D01*
X140082314Y-116150500D01*
X140137819Y-116094995D01*
X140199142Y-116061510D01*
X140268834Y-116066494D01*
X140324767Y-116108366D01*
X140349184Y-116173830D01*
X140349500Y-116182676D01*
X140349500Y-129649166D01*
X140329815Y-129716205D01*
X140313181Y-129736847D01*
X139261847Y-130788181D01*
X139200524Y-130821666D01*
X139174166Y-130824500D01*
X139084108Y-130824500D01*
X138956812Y-130858608D01*
X138842686Y-130924500D01*
X138842683Y-130924502D01*
X138749502Y-131017683D01*
X138749500Y-131017686D01*
X138683608Y-131131812D01*
X138676909Y-131156814D01*
X138649500Y-131259108D01*
X138649500Y-131390892D01*
X138656199Y-131415892D01*
X138683608Y-131518187D01*
X138698042Y-131543187D01*
X138749500Y-131632314D01*
X138842686Y-131725500D01*
X138956814Y-131791392D01*
X139084108Y-131825500D01*
X139084110Y-131825500D01*
X139215890Y-131825500D01*
X139215892Y-131825500D01*
X139343186Y-131791392D01*
X139457314Y-131725500D01*
X139550500Y-131632314D01*
X139616392Y-131518186D01*
X139650500Y-131390892D01*
X139650500Y-131300832D01*
X139670185Y-131233793D01*
X139686819Y-131213151D01*
X140790863Y-130109108D01*
X149874500Y-130109108D01*
X149874500Y-130240891D01*
X149908608Y-130368187D01*
X149941554Y-130425250D01*
X149974500Y-130482314D01*
X150067686Y-130575500D01*
X150181814Y-130641392D01*
X150309108Y-130675500D01*
X150309110Y-130675500D01*
X150440890Y-130675500D01*
X150440892Y-130675500D01*
X150568186Y-130641392D01*
X150682314Y-130575500D01*
X150775500Y-130482314D01*
X150841392Y-130368186D01*
X150875500Y-130240892D01*
X150875500Y-130109108D01*
X150841392Y-129981814D01*
X150775500Y-129867686D01*
X150682314Y-129774500D01*
X150617097Y-129736847D01*
X150568187Y-129708608D01*
X150497097Y-129689560D01*
X150440892Y-129674500D01*
X150309108Y-129674500D01*
X150181812Y-129708608D01*
X150067686Y-129774500D01*
X150067683Y-129774502D01*
X149974502Y-129867683D01*
X149974500Y-129867686D01*
X149908608Y-129981812D01*
X149874500Y-130109108D01*
X140790863Y-130109108D01*
X140886671Y-130013300D01*
X140886682Y-130013288D01*
X140890460Y-130009511D01*
X140906451Y-129981814D01*
X140930021Y-129940989D01*
X140950500Y-129864562D01*
X140950500Y-125834108D01*
X145774500Y-125834108D01*
X145774500Y-125965892D01*
X145787897Y-126015890D01*
X145808608Y-126093187D01*
X145821717Y-126115892D01*
X145874500Y-126207314D01*
X145967686Y-126300500D01*
X146081814Y-126366392D01*
X146209108Y-126400500D01*
X146209110Y-126400500D01*
X146340890Y-126400500D01*
X146340892Y-126400500D01*
X146468186Y-126366392D01*
X146582314Y-126300500D01*
X146675500Y-126207314D01*
X146741392Y-126093186D01*
X146775500Y-125965892D01*
X146775500Y-125834108D01*
X146741392Y-125706814D01*
X146675500Y-125592686D01*
X146582314Y-125499500D01*
X146509762Y-125457612D01*
X146468187Y-125433608D01*
X146404539Y-125416554D01*
X146340892Y-125399500D01*
X146209108Y-125399500D01*
X146081812Y-125433608D01*
X145967686Y-125499500D01*
X145967683Y-125499502D01*
X145874502Y-125592683D01*
X145874500Y-125592686D01*
X145808608Y-125706812D01*
X145788512Y-125781814D01*
X145774500Y-125834108D01*
X140950500Y-125834108D01*
X140950500Y-124309108D01*
X142324500Y-124309108D01*
X142324500Y-124440891D01*
X142358608Y-124568187D01*
X142391554Y-124625250D01*
X142424500Y-124682314D01*
X142517686Y-124775500D01*
X142631814Y-124841392D01*
X142759108Y-124875500D01*
X142759110Y-124875500D01*
X142890890Y-124875500D01*
X142890892Y-124875500D01*
X143018186Y-124841392D01*
X143132314Y-124775500D01*
X143225500Y-124682314D01*
X143291392Y-124568186D01*
X143325500Y-124440892D01*
X143325500Y-124309108D01*
X143291392Y-124181814D01*
X143225500Y-124067686D01*
X143132314Y-123974500D01*
X143075250Y-123941554D01*
X143018187Y-123908608D01*
X142935942Y-123886571D01*
X142890892Y-123874500D01*
X142759108Y-123874500D01*
X142631812Y-123908608D01*
X142517686Y-123974500D01*
X142517683Y-123974502D01*
X142424502Y-124067683D01*
X142424500Y-124067686D01*
X142358608Y-124181812D01*
X142324500Y-124309108D01*
X140950500Y-124309108D01*
X140950500Y-122909108D01*
X141199500Y-122909108D01*
X141199500Y-123040891D01*
X141233608Y-123168187D01*
X141261942Y-123217262D01*
X141299500Y-123282314D01*
X141392686Y-123375500D01*
X141506814Y-123441392D01*
X141634108Y-123475500D01*
X141634110Y-123475500D01*
X141765890Y-123475500D01*
X141765892Y-123475500D01*
X141893186Y-123441392D01*
X142007314Y-123375500D01*
X142100500Y-123282314D01*
X142166392Y-123168186D01*
X142200500Y-123040892D01*
X142200500Y-122909108D01*
X142166392Y-122781814D01*
X142165686Y-122780592D01*
X142154051Y-122760439D01*
X142100500Y-122667686D01*
X142007314Y-122574500D01*
X141939657Y-122535438D01*
X141893187Y-122508608D01*
X141829539Y-122491554D01*
X141765892Y-122474500D01*
X141634108Y-122474500D01*
X141506812Y-122508608D01*
X141392686Y-122574500D01*
X141392683Y-122574502D01*
X141299502Y-122667683D01*
X141299500Y-122667686D01*
X141233608Y-122781812D01*
X141199500Y-122909108D01*
X140950500Y-122909108D01*
X140950500Y-116979315D01*
X140970185Y-116912276D01*
X141022989Y-116866521D01*
X141092147Y-116856577D01*
X141136501Y-116871928D01*
X141142683Y-116875497D01*
X141142686Y-116875500D01*
X141201595Y-116909511D01*
X141253649Y-116939565D01*
X141256814Y-116941392D01*
X141384108Y-116975500D01*
X141384110Y-116975500D01*
X141515889Y-116975500D01*
X141515892Y-116975500D01*
X141631795Y-116944444D01*
X141701642Y-116946107D01*
X141751567Y-116976538D01*
X147663181Y-122888152D01*
X147696666Y-122949475D01*
X147699500Y-122975833D01*
X147699500Y-127766323D01*
X147679815Y-127833362D01*
X147663182Y-127854004D01*
X147599500Y-127917686D01*
X147533608Y-128031812D01*
X147499500Y-128159108D01*
X147499500Y-128290891D01*
X147533608Y-128418187D01*
X147556200Y-128457316D01*
X147599500Y-128532314D01*
X147692686Y-128625500D01*
X147806814Y-128691392D01*
X147934108Y-128725500D01*
X147934110Y-128725500D01*
X148065890Y-128725500D01*
X148065892Y-128725500D01*
X148193186Y-128691392D01*
X148307314Y-128625500D01*
X148400500Y-128532314D01*
X148466392Y-128418186D01*
X148500500Y-128290892D01*
X148500500Y-128159108D01*
X148480404Y-128084108D01*
X154449500Y-128084108D01*
X154449500Y-128215891D01*
X154483608Y-128343187D01*
X154505909Y-128381812D01*
X154549500Y-128457314D01*
X154642686Y-128550500D01*
X154756814Y-128616392D01*
X154884108Y-128650500D01*
X154884110Y-128650500D01*
X155015890Y-128650500D01*
X155015892Y-128650500D01*
X155143186Y-128616392D01*
X155257314Y-128550500D01*
X155350500Y-128457314D01*
X155416392Y-128343186D01*
X155450500Y-128215892D01*
X155450500Y-128084108D01*
X155416392Y-127956814D01*
X155350500Y-127842686D01*
X155257314Y-127749500D01*
X155200250Y-127716554D01*
X155143187Y-127683608D01*
X155079539Y-127666554D01*
X155015892Y-127649500D01*
X154884108Y-127649500D01*
X154756812Y-127683608D01*
X154642686Y-127749500D01*
X154642683Y-127749502D01*
X154549502Y-127842683D01*
X154549500Y-127842686D01*
X154483608Y-127956812D01*
X154449500Y-128084108D01*
X148480404Y-128084108D01*
X148466392Y-128031814D01*
X148400500Y-127917686D01*
X148336818Y-127854004D01*
X148303334Y-127792680D01*
X148300500Y-127766323D01*
X148300500Y-126357676D01*
X148320185Y-126290637D01*
X148372989Y-126244882D01*
X148442147Y-126234938D01*
X148505703Y-126263963D01*
X148512181Y-126269995D01*
X148592686Y-126350500D01*
X148706814Y-126416392D01*
X148834108Y-126450500D01*
X148834110Y-126450500D01*
X148965890Y-126450500D01*
X148965892Y-126450500D01*
X149093186Y-126416392D01*
X149207314Y-126350500D01*
X149300500Y-126257314D01*
X149366392Y-126143186D01*
X149400500Y-126015892D01*
X149400500Y-125884108D01*
X149366392Y-125756814D01*
X149300500Y-125642686D01*
X149236818Y-125579004D01*
X149203334Y-125517680D01*
X149200500Y-125491323D01*
X149200500Y-122760439D01*
X149200500Y-122760438D01*
X149200252Y-122759511D01*
X149180022Y-122684012D01*
X149140460Y-122615489D01*
X143762152Y-117237181D01*
X143728667Y-117175858D01*
X143733651Y-117106166D01*
X143775523Y-117050233D01*
X143840987Y-117025816D01*
X143849833Y-117025500D01*
X145889560Y-117025500D01*
X145889562Y-117025500D01*
X145965989Y-117005021D01*
X146034511Y-116965460D01*
X146090460Y-116909511D01*
X146765460Y-116234511D01*
X146805021Y-116165989D01*
X146825500Y-116089562D01*
X146825500Y-115958676D01*
X146845185Y-115891637D01*
X146861819Y-115870995D01*
X146891810Y-115841004D01*
X146925500Y-115807314D01*
X146991392Y-115693186D01*
X147025500Y-115565892D01*
X147025500Y-115434108D01*
X146991392Y-115306814D01*
X146925500Y-115192686D01*
X146832314Y-115099500D01*
X146754956Y-115054837D01*
X146718187Y-115033608D01*
X146654539Y-115016554D01*
X146590892Y-114999500D01*
X146459108Y-114999500D01*
X146331812Y-115033608D01*
X146217686Y-115099500D01*
X146217683Y-115099502D01*
X146124502Y-115192683D01*
X146124500Y-115192686D01*
X146058608Y-115306812D01*
X146033537Y-115400381D01*
X146024500Y-115434108D01*
X146024500Y-115565892D01*
X146035555Y-115607149D01*
X146058608Y-115693187D01*
X146091554Y-115750250D01*
X146124500Y-115807314D01*
X146124502Y-115807316D01*
X146145926Y-115828740D01*
X146179411Y-115890063D01*
X146174427Y-115959755D01*
X146145926Y-116004102D01*
X145761848Y-116388181D01*
X145700525Y-116421666D01*
X145674167Y-116424500D01*
X143850890Y-116424500D01*
X143783851Y-116404815D01*
X143763209Y-116388181D01*
X143437107Y-116062079D01*
X143403622Y-116000756D01*
X143408606Y-115931064D01*
X143450478Y-115875131D01*
X143508606Y-115851458D01*
X143515881Y-115850500D01*
X143515892Y-115850500D01*
X143643186Y-115816392D01*
X143757314Y-115750500D01*
X143850500Y-115657314D01*
X143916392Y-115543186D01*
X143950500Y-115415892D01*
X143950500Y-115284108D01*
X143916392Y-115156814D01*
X143850500Y-115042686D01*
X143757314Y-114949500D01*
X143682199Y-114906132D01*
X143643187Y-114883608D01*
X143553254Y-114859511D01*
X143515892Y-114849500D01*
X143384108Y-114849500D01*
X143256812Y-114883608D01*
X143142686Y-114949500D01*
X143142683Y-114949502D01*
X143049502Y-115042683D01*
X143049500Y-115042686D01*
X142983608Y-115156812D01*
X142949498Y-115284114D01*
X142948539Y-115291401D01*
X142920270Y-115355297D01*
X142861944Y-115393766D01*
X142792079Y-115394594D01*
X142737920Y-115362892D01*
X137211819Y-109836791D01*
X137178334Y-109775468D01*
X137175500Y-109749110D01*
X137175500Y-104534108D01*
X137899500Y-104534108D01*
X137899500Y-104665891D01*
X137933608Y-104793187D01*
X137957484Y-104834540D01*
X137999500Y-104907314D01*
X137999502Y-104907316D01*
X138063181Y-104970995D01*
X138096666Y-105032318D01*
X138099500Y-105058676D01*
X138099500Y-106539562D01*
X138110821Y-106581812D01*
X138119979Y-106615990D01*
X138125744Y-106625974D01*
X138125745Y-106625979D01*
X138125746Y-106625979D01*
X138159535Y-106684504D01*
X138159541Y-106684512D01*
X138863181Y-107388152D01*
X138896666Y-107449475D01*
X138899500Y-107475833D01*
X138899500Y-107565892D01*
X138906836Y-107593270D01*
X138933608Y-107693187D01*
X138960361Y-107739523D01*
X138999500Y-107807314D01*
X139092686Y-107900500D01*
X139206814Y-107966392D01*
X139334108Y-108000500D01*
X139334110Y-108000500D01*
X139465890Y-108000500D01*
X139465892Y-108000500D01*
X139593186Y-107966392D01*
X139707314Y-107900500D01*
X139800500Y-107807314D01*
X139866392Y-107693186D01*
X139900500Y-107565892D01*
X139900500Y-107434108D01*
X139866392Y-107306814D01*
X139800500Y-107192686D01*
X139707314Y-107099500D01*
X139631061Y-107055475D01*
X139593187Y-107033608D01*
X139505963Y-107010237D01*
X139465892Y-106999500D01*
X139375833Y-106999500D01*
X139308794Y-106979815D01*
X139288152Y-106963181D01*
X138736819Y-106411848D01*
X138703334Y-106350525D01*
X138700500Y-106324167D01*
X138700500Y-105909108D01*
X138974500Y-105909108D01*
X138974500Y-106040892D01*
X138980178Y-106062082D01*
X139008608Y-106168187D01*
X139041554Y-106225250D01*
X139074500Y-106282314D01*
X139167686Y-106375500D01*
X139281814Y-106441392D01*
X139409108Y-106475500D01*
X139409110Y-106475500D01*
X139499167Y-106475500D01*
X139566206Y-106495185D01*
X139586848Y-106511819D01*
X142740489Y-109665460D01*
X142809012Y-109705022D01*
X142885438Y-109725500D01*
X142964562Y-109725500D01*
X147049167Y-109725500D01*
X147116206Y-109745185D01*
X147136848Y-109761819D01*
X148338181Y-110963152D01*
X148371666Y-111024475D01*
X148374500Y-111050833D01*
X148374500Y-113456925D01*
X148354815Y-113523964D01*
X148302011Y-113569719D01*
X148282596Y-113576699D01*
X148256814Y-113583607D01*
X148142686Y-113649500D01*
X148142683Y-113649502D01*
X148049502Y-113742683D01*
X148049500Y-113742686D01*
X147983608Y-113856812D01*
X147949500Y-113984108D01*
X147949500Y-114115891D01*
X147951846Y-114124647D01*
X147950181Y-114194497D01*
X147911017Y-114252358D01*
X147846788Y-114279860D01*
X147777886Y-114268272D01*
X147744389Y-114244418D01*
X146511819Y-113011848D01*
X146478334Y-112950525D01*
X146475500Y-112924167D01*
X146475500Y-112909110D01*
X146475500Y-112909108D01*
X146441392Y-112781814D01*
X146375500Y-112667686D01*
X146282314Y-112574500D01*
X146225250Y-112541554D01*
X146168187Y-112508608D01*
X146104539Y-112491554D01*
X146040892Y-112474500D01*
X145909108Y-112474500D01*
X145781812Y-112508608D01*
X145667686Y-112574500D01*
X145667683Y-112574502D01*
X145574502Y-112667683D01*
X145574500Y-112667686D01*
X145508608Y-112781812D01*
X145474500Y-112909108D01*
X145474500Y-113040891D01*
X145508608Y-113168187D01*
X145512363Y-113174690D01*
X145574500Y-113282314D01*
X145667686Y-113375500D01*
X145781814Y-113441392D01*
X145909108Y-113475500D01*
X145909110Y-113475500D01*
X146040890Y-113475500D01*
X146040892Y-113475500D01*
X146040893Y-113475499D01*
X146048948Y-113474439D01*
X146049206Y-113476400D01*
X146108321Y-113477799D01*
X146158265Y-113508236D01*
X147509540Y-114859511D01*
X147565489Y-114915460D01*
X147565491Y-114915461D01*
X147565495Y-114915464D01*
X147603608Y-114937468D01*
X147634011Y-114955021D01*
X147710438Y-114975500D01*
X148830942Y-114975500D01*
X148897981Y-114995185D01*
X148918623Y-115011819D01*
X149890439Y-115983635D01*
X149923924Y-116044958D01*
X149926758Y-116071316D01*
X149926758Y-116161375D01*
X149932368Y-116182313D01*
X149960866Y-116288670D01*
X149991305Y-116341391D01*
X150026758Y-116402797D01*
X150119944Y-116495983D01*
X150204844Y-116545000D01*
X150229478Y-116559223D01*
X150234072Y-116561875D01*
X150361366Y-116595983D01*
X150361368Y-116595983D01*
X150493148Y-116595983D01*
X150493150Y-116595983D01*
X150620444Y-116561875D01*
X150734572Y-116495983D01*
X150827758Y-116402797D01*
X150893650Y-116288669D01*
X150927758Y-116161375D01*
X150927758Y-116029591D01*
X150893650Y-115902297D01*
X150892612Y-115900500D01*
X150863745Y-115850500D01*
X150827758Y-115788169D01*
X150734572Y-115694983D01*
X150656549Y-115649936D01*
X150620445Y-115629091D01*
X150556797Y-115612037D01*
X150493150Y-115594983D01*
X150403091Y-115594983D01*
X150336052Y-115575298D01*
X150315410Y-115558664D01*
X149191287Y-114434541D01*
X149191279Y-114434535D01*
X149122770Y-114394982D01*
X149122765Y-114394979D01*
X149097288Y-114388152D01*
X149046337Y-114374500D01*
X149046335Y-114374500D01*
X149042806Y-114374500D01*
X149039936Y-114373657D01*
X149038278Y-114373439D01*
X149038312Y-114373180D01*
X148975767Y-114354815D01*
X148930012Y-114302011D01*
X148920068Y-114232853D01*
X148923031Y-114218407D01*
X148950500Y-114115892D01*
X148950500Y-113984108D01*
X148950500Y-113975980D01*
X148952395Y-113975980D01*
X148954567Y-113942683D01*
X148975499Y-113864564D01*
X148975500Y-113864561D01*
X148975500Y-110835440D01*
X148975500Y-110835438D01*
X148955022Y-110759012D01*
X148915460Y-110690489D01*
X147409511Y-109184540D01*
X147409509Y-109184539D01*
X147409504Y-109184535D01*
X147340995Y-109144982D01*
X147340990Y-109144979D01*
X147315513Y-109138152D01*
X147264562Y-109124500D01*
X147264560Y-109124500D01*
X143100833Y-109124500D01*
X143033794Y-109104815D01*
X143013152Y-109088181D01*
X140011819Y-106086848D01*
X139978334Y-106025525D01*
X139975500Y-105999167D01*
X139975500Y-105909110D01*
X139975500Y-105909108D01*
X139941392Y-105781814D01*
X139875500Y-105667686D01*
X139782314Y-105574500D01*
X139725250Y-105541554D01*
X139668187Y-105508608D01*
X139581717Y-105485439D01*
X139540892Y-105474500D01*
X139409108Y-105474500D01*
X139281812Y-105508608D01*
X139167686Y-105574500D01*
X139167683Y-105574502D01*
X139074502Y-105667683D01*
X139074500Y-105667686D01*
X139008608Y-105781812D01*
X138980942Y-105885067D01*
X138974500Y-105909108D01*
X138700500Y-105909108D01*
X138700500Y-105058676D01*
X138720185Y-104991637D01*
X138736819Y-104970995D01*
X138766423Y-104941391D01*
X138800500Y-104907314D01*
X138866392Y-104793186D01*
X138900500Y-104665892D01*
X138900500Y-104534108D01*
X138866392Y-104406814D01*
X138800500Y-104292686D01*
X138707314Y-104199500D01*
X138614856Y-104146119D01*
X138593187Y-104133608D01*
X138529539Y-104116554D01*
X138465892Y-104099500D01*
X138334108Y-104099500D01*
X138206812Y-104133608D01*
X138092686Y-104199500D01*
X138092683Y-104199502D01*
X137999502Y-104292683D01*
X137999500Y-104292686D01*
X137933608Y-104406812D01*
X137899500Y-104534108D01*
X137175500Y-104534108D01*
X137175500Y-103410496D01*
X137175128Y-103409108D01*
X145124500Y-103409108D01*
X145124500Y-103540891D01*
X145158608Y-103668187D01*
X145191554Y-103725250D01*
X145224500Y-103782314D01*
X145317686Y-103875500D01*
X145431814Y-103941392D01*
X145559108Y-103975500D01*
X145559110Y-103975500D01*
X145690890Y-103975500D01*
X145690892Y-103975500D01*
X145818186Y-103941392D01*
X145932314Y-103875500D01*
X146025500Y-103782314D01*
X146091392Y-103668186D01*
X146125500Y-103540892D01*
X146125500Y-103409108D01*
X146091392Y-103281814D01*
X146025500Y-103167686D01*
X145932314Y-103074500D01*
X145875250Y-103041554D01*
X145818187Y-103008608D01*
X145754539Y-102991554D01*
X145690892Y-102974500D01*
X145559108Y-102974500D01*
X145431812Y-103008608D01*
X145317686Y-103074500D01*
X145317683Y-103074502D01*
X145224502Y-103167683D01*
X145224500Y-103167686D01*
X145158608Y-103281812D01*
X145124500Y-103409108D01*
X137175128Y-103409108D01*
X137162461Y-103361834D01*
X137155021Y-103334068D01*
X137149497Y-103324500D01*
X137115464Y-103265552D01*
X137115458Y-103265544D01*
X136383455Y-102533541D01*
X136383450Y-102533537D01*
X136375741Y-102529086D01*
X136375739Y-102529086D01*
X136340528Y-102508757D01*
X136314933Y-102493979D01*
X136289456Y-102487152D01*
X136238505Y-102473500D01*
X131565562Y-102473500D01*
X131486438Y-102473500D01*
X131407567Y-102494633D01*
X131337717Y-102492970D01*
X131279854Y-102453807D01*
X131252351Y-102389578D01*
X131263938Y-102320676D01*
X131287790Y-102287180D01*
X131787152Y-101787819D01*
X131848475Y-101754334D01*
X131874833Y-101751500D01*
X137000167Y-101751500D01*
X137067206Y-101771185D01*
X137087848Y-101787819D01*
X137963181Y-102663152D01*
X137996666Y-102724475D01*
X137999500Y-102750833D01*
X137999500Y-102840891D01*
X138033608Y-102968187D01*
X138037253Y-102974500D01*
X138099500Y-103082314D01*
X138192686Y-103175500D01*
X138306814Y-103241392D01*
X138434108Y-103275500D01*
X138434110Y-103275500D01*
X138565890Y-103275500D01*
X138565892Y-103275500D01*
X138693186Y-103241392D01*
X138807314Y-103175500D01*
X138900500Y-103082314D01*
X138966392Y-102968186D01*
X139000500Y-102840892D01*
X139000500Y-102709108D01*
X138966392Y-102581814D01*
X138900500Y-102467686D01*
X138807314Y-102374500D01*
X138750250Y-102341554D01*
X138693187Y-102308608D01*
X138629539Y-102291554D01*
X138565892Y-102274500D01*
X138475833Y-102274500D01*
X138408794Y-102254815D01*
X138388152Y-102238181D01*
X137360512Y-101210541D01*
X137360507Y-101210537D01*
X137343124Y-101200502D01*
X137343120Y-101200498D01*
X137343120Y-101200499D01*
X137317555Y-101185739D01*
X137291990Y-101170979D01*
X137266513Y-101164152D01*
X137215562Y-101150500D01*
X131738562Y-101150500D01*
X131659438Y-101150500D01*
X131583010Y-101170978D01*
X131514489Y-101210540D01*
X131514486Y-101210542D01*
X129765489Y-102959540D01*
X128336847Y-104388181D01*
X128275524Y-104421666D01*
X128249166Y-104424500D01*
X128159108Y-104424500D01*
X128031812Y-104458608D01*
X127917686Y-104524500D01*
X127917683Y-104524502D01*
X127824502Y-104617683D01*
X127824500Y-104617686D01*
X127758608Y-104731812D01*
X127742163Y-104793187D01*
X127724500Y-104859108D01*
X127724500Y-104990892D01*
X127728129Y-105004434D01*
X127758608Y-105118187D01*
X127767551Y-105133676D01*
X127824500Y-105232314D01*
X127917686Y-105325500D01*
X128031814Y-105391392D01*
X128159108Y-105425500D01*
X128159117Y-105425500D01*
X128166447Y-105426466D01*
X128230343Y-105454733D01*
X128268814Y-105513057D01*
X128269645Y-105582922D01*
X128237942Y-105637086D01*
X126315242Y-107559785D01*
X126253919Y-107593270D01*
X126184227Y-107588286D01*
X126164914Y-107577590D01*
X126164352Y-107578564D01*
X126157315Y-107574501D01*
X126157314Y-107574500D01*
X126102684Y-107542959D01*
X126043187Y-107508608D01*
X125979539Y-107491554D01*
X125915892Y-107474500D01*
X125784108Y-107474500D01*
X125781588Y-107475174D01*
X125779383Y-107475122D01*
X125776052Y-107475561D01*
X125775983Y-107475041D01*
X125711741Y-107473510D01*
X125653879Y-107434346D01*
X125626377Y-107370117D01*
X125625500Y-107355399D01*
X125625500Y-107259110D01*
X125625500Y-107259108D01*
X125591392Y-107131814D01*
X125525500Y-107017686D01*
X125461818Y-106954004D01*
X125428334Y-106892680D01*
X125425500Y-106866323D01*
X125425500Y-105700833D01*
X125445185Y-105633794D01*
X125461819Y-105613152D01*
X131999152Y-99075819D01*
X132060475Y-99042334D01*
X132086833Y-99039500D01*
X135197219Y-99039500D01*
X135197221Y-99039500D01*
X135273648Y-99019021D01*
X135342170Y-98979460D01*
X135398119Y-98923511D01*
X137190811Y-97130819D01*
X137252134Y-97097334D01*
X137278492Y-97094500D01*
X142370404Y-97094500D01*
X142437443Y-97114185D01*
X142483198Y-97166989D01*
X142493142Y-97236147D01*
X142490179Y-97250593D01*
X142474500Y-97309108D01*
X142474500Y-97440891D01*
X142508608Y-97568187D01*
X142541554Y-97625250D01*
X142574500Y-97682314D01*
X142667686Y-97775500D01*
X142781814Y-97841392D01*
X142909108Y-97875500D01*
X142909110Y-97875500D01*
X143040890Y-97875500D01*
X143040892Y-97875500D01*
X143168186Y-97841392D01*
X143282314Y-97775500D01*
X143375500Y-97682314D01*
X143441392Y-97568186D01*
X143475500Y-97440892D01*
X143475500Y-97309108D01*
X143459821Y-97250592D01*
X143461484Y-97180743D01*
X143500647Y-97122881D01*
X143564876Y-97095377D01*
X143579596Y-97094500D01*
X144414826Y-97094500D01*
X144481865Y-97114185D01*
X144502507Y-97130819D01*
X144794181Y-97422493D01*
X144827666Y-97483816D01*
X144830500Y-97510174D01*
X144830500Y-98510324D01*
X144810815Y-98577363D01*
X144794181Y-98598005D01*
X144699502Y-98692683D01*
X144699500Y-98692686D01*
X144633608Y-98806812D01*
X144599500Y-98934108D01*
X144599500Y-99065891D01*
X144633608Y-99193187D01*
X144666554Y-99250250D01*
X144699500Y-99307314D01*
X144792686Y-99400500D01*
X144906814Y-99466392D01*
X145034108Y-99500500D01*
X145034110Y-99500500D01*
X145165890Y-99500500D01*
X145165892Y-99500500D01*
X145293186Y-99466392D01*
X145407314Y-99400500D01*
X145500500Y-99307314D01*
X145566392Y-99193186D01*
X145600500Y-99065892D01*
X145600500Y-98934108D01*
X145566392Y-98806814D01*
X145500500Y-98692686D01*
X145467819Y-98660005D01*
X145434334Y-98598682D01*
X145431500Y-98572324D01*
X145431500Y-97294781D01*
X145431500Y-97294779D01*
X145413836Y-97228856D01*
X145411022Y-97218353D01*
X145371460Y-97149830D01*
X144775170Y-96553540D01*
X144775169Y-96553539D01*
X144775166Y-96553537D01*
X144746703Y-96537105D01*
X144746704Y-96537105D01*
X144737539Y-96531814D01*
X144706648Y-96513979D01*
X144630221Y-96493500D01*
X144628489Y-96493500D01*
X144618561Y-96489838D01*
X144594890Y-96472252D01*
X144569720Y-96456909D01*
X144567167Y-96451654D01*
X144562476Y-96448169D01*
X144552071Y-96420577D01*
X144539191Y-96394062D01*
X144539884Y-96388260D01*
X144537823Y-96382793D01*
X144543985Y-96353963D01*
X144547486Y-96324687D01*
X144551206Y-96320180D01*
X144552428Y-96314467D01*
X144573199Y-96293545D01*
X144591972Y-96270809D01*
X144597538Y-96269029D01*
X144601654Y-96264884D01*
X144630435Y-96258513D01*
X144658524Y-96249535D01*
X144661474Y-96249500D01*
X145473167Y-96249500D01*
X145540206Y-96269185D01*
X145560848Y-96285819D01*
X154438181Y-105163152D01*
X154471666Y-105224475D01*
X154474500Y-105250833D01*
X154474500Y-124041323D01*
X154454815Y-124108362D01*
X154438182Y-124129004D01*
X154374500Y-124192686D01*
X154308608Y-124306813D01*
X154305695Y-124317685D01*
X154269328Y-124377344D01*
X154206481Y-124407872D01*
X154137105Y-124399575D01*
X154098240Y-124373269D01*
X153234512Y-123509541D01*
X153234507Y-123509537D01*
X153225065Y-123504086D01*
X153225064Y-123504086D01*
X153205850Y-123492993D01*
X153165991Y-123469980D01*
X153165990Y-123469979D01*
X153140513Y-123463152D01*
X153089562Y-123449500D01*
X153089560Y-123449500D01*
X151633676Y-123449500D01*
X151566637Y-123429815D01*
X151545995Y-123413181D01*
X151482316Y-123349502D01*
X151482314Y-123349500D01*
X151396578Y-123300000D01*
X151368187Y-123283608D01*
X151304539Y-123266554D01*
X151240892Y-123249500D01*
X151109108Y-123249500D01*
X150981812Y-123283608D01*
X150867686Y-123349500D01*
X150867683Y-123349502D01*
X150774502Y-123442683D01*
X150774500Y-123442686D01*
X150708608Y-123556812D01*
X150674500Y-123684108D01*
X150674500Y-123815891D01*
X150708608Y-123943187D01*
X150726687Y-123974500D01*
X150774500Y-124057314D01*
X150867686Y-124150500D01*
X150981814Y-124216392D01*
X151109108Y-124250500D01*
X151109110Y-124250500D01*
X151240890Y-124250500D01*
X151240892Y-124250500D01*
X151368186Y-124216392D01*
X151482314Y-124150500D01*
X151545995Y-124086819D01*
X151607318Y-124053334D01*
X151633676Y-124050500D01*
X152874167Y-124050500D01*
X152941206Y-124070185D01*
X152961848Y-124086819D01*
X154904145Y-126029116D01*
X154936238Y-126084702D01*
X154958608Y-126168186D01*
X155024500Y-126282314D01*
X155024502Y-126282316D01*
X155055005Y-126312819D01*
X155088490Y-126374142D01*
X155083506Y-126443834D01*
X155041634Y-126499767D01*
X154976170Y-126524184D01*
X154967324Y-126524500D01*
X152760432Y-126524500D01*
X152745252Y-126528568D01*
X152681075Y-126528568D01*
X152665892Y-126524500D01*
X152534108Y-126524500D01*
X152406812Y-126558608D01*
X152292686Y-126624500D01*
X152292683Y-126624502D01*
X152199502Y-126717683D01*
X152199500Y-126717686D01*
X152133608Y-126831812D01*
X152108780Y-126924475D01*
X152099500Y-126959108D01*
X152099500Y-127090892D01*
X152110930Y-127133550D01*
X152133608Y-127218187D01*
X152166554Y-127275250D01*
X152199500Y-127332314D01*
X152292686Y-127425500D01*
X152406814Y-127491392D01*
X152534108Y-127525500D01*
X152534110Y-127525500D01*
X152665890Y-127525500D01*
X152665892Y-127525500D01*
X152793186Y-127491392D01*
X152907314Y-127425500D01*
X153000500Y-127332314D01*
X153066392Y-127218186D01*
X153066599Y-127217410D01*
X153066953Y-127216830D01*
X153069500Y-127210682D01*
X153070458Y-127211079D01*
X153102961Y-127157750D01*
X153165807Y-127127218D01*
X153186375Y-127125500D01*
X157164560Y-127125500D01*
X157164562Y-127125500D01*
X157240989Y-127105021D01*
X157309511Y-127065460D01*
X157365460Y-127009511D01*
X157946460Y-126428511D01*
X157961229Y-126402928D01*
X157963208Y-126399502D01*
X157963209Y-126399500D01*
X157972820Y-126382853D01*
X157986021Y-126359989D01*
X158006500Y-126283562D01*
X158006500Y-113438995D01*
X159004499Y-113438995D01*
X159031418Y-113574322D01*
X159031421Y-113574332D01*
X159084221Y-113701804D01*
X159084228Y-113701817D01*
X159160885Y-113816541D01*
X159160888Y-113816545D01*
X159261662Y-113917319D01*
X159295147Y-113978642D01*
X159290163Y-114048334D01*
X159261662Y-114092681D01*
X159160888Y-114193454D01*
X159160885Y-114193458D01*
X159084228Y-114308182D01*
X159084221Y-114308195D01*
X159031421Y-114435667D01*
X159031418Y-114435677D01*
X159004500Y-114571004D01*
X159004500Y-114571007D01*
X159004500Y-114708993D01*
X159004500Y-114708995D01*
X159004499Y-114708995D01*
X159031418Y-114844322D01*
X159031421Y-114844332D01*
X159084221Y-114971804D01*
X159084228Y-114971817D01*
X159160885Y-115086541D01*
X159160888Y-115086545D01*
X159261662Y-115187319D01*
X159295147Y-115248642D01*
X159290163Y-115318334D01*
X159261662Y-115362681D01*
X159160888Y-115463454D01*
X159160885Y-115463458D01*
X159084228Y-115578182D01*
X159084221Y-115578195D01*
X159031421Y-115705667D01*
X159031418Y-115705677D01*
X159004500Y-115841004D01*
X159004500Y-115841007D01*
X159004500Y-115978993D01*
X159004500Y-115978995D01*
X159004499Y-115978995D01*
X159031418Y-116114322D01*
X159031421Y-116114332D01*
X159084221Y-116241804D01*
X159084228Y-116241817D01*
X159160885Y-116356541D01*
X159160888Y-116356545D01*
X159261662Y-116457319D01*
X159295147Y-116518642D01*
X159290163Y-116588334D01*
X159261662Y-116632681D01*
X159160888Y-116733454D01*
X159160885Y-116733458D01*
X159084228Y-116848182D01*
X159084221Y-116848195D01*
X159031421Y-116975667D01*
X159031418Y-116975677D01*
X159004500Y-117111004D01*
X159004500Y-117111007D01*
X159004500Y-117248993D01*
X159004500Y-117248995D01*
X159004499Y-117248995D01*
X159031418Y-117384322D01*
X159031421Y-117384332D01*
X159084221Y-117511804D01*
X159084228Y-117511817D01*
X159160885Y-117626541D01*
X159160888Y-117626545D01*
X159261662Y-117727319D01*
X159295147Y-117788642D01*
X159290163Y-117858334D01*
X159261662Y-117902681D01*
X159160888Y-118003454D01*
X159160885Y-118003458D01*
X159084228Y-118118182D01*
X159084221Y-118118195D01*
X159031421Y-118245667D01*
X159031418Y-118245677D01*
X159004500Y-118381004D01*
X159004500Y-118381007D01*
X159004500Y-118518993D01*
X159004500Y-118518995D01*
X159004499Y-118518995D01*
X159031418Y-118654322D01*
X159031421Y-118654332D01*
X159084221Y-118781804D01*
X159084228Y-118781817D01*
X159160885Y-118896541D01*
X159160888Y-118896545D01*
X159258454Y-118994111D01*
X159258458Y-118994114D01*
X159373182Y-119070771D01*
X159373195Y-119070778D01*
X159455866Y-119105021D01*
X159500672Y-119123580D01*
X159500676Y-119123580D01*
X159500677Y-119123581D01*
X159636004Y-119150500D01*
X159636007Y-119150500D01*
X159773995Y-119150500D01*
X159885428Y-119128334D01*
X159909328Y-119123580D01*
X160036811Y-119070775D01*
X160125730Y-119011361D01*
X160192405Y-118990484D01*
X160259785Y-119008968D01*
X160297721Y-119045573D01*
X160330447Y-119094552D01*
X160396769Y-119138867D01*
X160396770Y-119138868D01*
X160455247Y-119150499D01*
X160455250Y-119150500D01*
X160455252Y-119150500D01*
X161494750Y-119150500D01*
X161494751Y-119150499D01*
X161509568Y-119147552D01*
X161553229Y-119138868D01*
X161553229Y-119138867D01*
X161553231Y-119138867D01*
X161619552Y-119094552D01*
X161663867Y-119028231D01*
X161663867Y-119028229D01*
X161663868Y-119028229D01*
X161675499Y-118969752D01*
X161675500Y-118969750D01*
X161675500Y-117930249D01*
X161675499Y-117930247D01*
X161663868Y-117871770D01*
X161663867Y-117871769D01*
X161619552Y-117805447D01*
X161570573Y-117772721D01*
X161525768Y-117719109D01*
X161517061Y-117649784D01*
X161536360Y-117600730D01*
X161595775Y-117511811D01*
X161648580Y-117384328D01*
X161675500Y-117248993D01*
X161675500Y-117111007D01*
X161675500Y-117111004D01*
X161648581Y-116975677D01*
X161648580Y-116975676D01*
X161648580Y-116975672D01*
X161634381Y-116941392D01*
X161595778Y-116848195D01*
X161595771Y-116848182D01*
X161519114Y-116733458D01*
X161519111Y-116733454D01*
X161421545Y-116635888D01*
X161421541Y-116635885D01*
X161306817Y-116559228D01*
X161306807Y-116559223D01*
X161267902Y-116543108D01*
X161227674Y-116516228D01*
X160975001Y-116263554D01*
X160722324Y-116516229D01*
X160682098Y-116543107D01*
X160643192Y-116559223D01*
X160643186Y-116559226D01*
X160528462Y-116635882D01*
X160528454Y-116635888D01*
X160427681Y-116736662D01*
X160419735Y-116741000D01*
X160414310Y-116748248D01*
X160389550Y-116757482D01*
X160366358Y-116770147D01*
X160357328Y-116769501D01*
X160348846Y-116772665D01*
X160323025Y-116767048D01*
X160296666Y-116765163D01*
X160287612Y-116759344D01*
X160280573Y-116757813D01*
X160252319Y-116736662D01*
X160148338Y-116632681D01*
X160114853Y-116571358D01*
X160119837Y-116501666D01*
X160148338Y-116457319D01*
X160249111Y-116356545D01*
X160249114Y-116356542D01*
X160290277Y-116294937D01*
X160325775Y-116241811D01*
X160329001Y-116234024D01*
X160336304Y-116216391D01*
X160341891Y-116202902D01*
X160368771Y-116162673D01*
X160621445Y-115909999D01*
X160578659Y-115867213D01*
X160650000Y-115867213D01*
X160650000Y-115952787D01*
X160672149Y-116035445D01*
X160714936Y-116109554D01*
X160775446Y-116170064D01*
X160849555Y-116212851D01*
X160932213Y-116235000D01*
X161017787Y-116235000D01*
X161100445Y-116212851D01*
X161174554Y-116170064D01*
X161235064Y-116109554D01*
X161277851Y-116035445D01*
X161300000Y-115952787D01*
X161300000Y-115909999D01*
X161328554Y-115909999D01*
X161328554Y-115910001D01*
X161652577Y-116234024D01*
X161652578Y-116234024D01*
X161696175Y-116128775D01*
X161696179Y-116128760D01*
X161724999Y-115983873D01*
X161725000Y-115983871D01*
X161725000Y-115836128D01*
X161724999Y-115836126D01*
X161696179Y-115691240D01*
X161696178Y-115691236D01*
X161652577Y-115585975D01*
X161328554Y-115909999D01*
X161300000Y-115909999D01*
X161300000Y-115867213D01*
X161277851Y-115784555D01*
X161235064Y-115710446D01*
X161174554Y-115649936D01*
X161100445Y-115607149D01*
X161017787Y-115585000D01*
X160932213Y-115585000D01*
X160849555Y-115607149D01*
X160775446Y-115649936D01*
X160714936Y-115710446D01*
X160672149Y-115784555D01*
X160650000Y-115867213D01*
X160578659Y-115867213D01*
X160368770Y-115657324D01*
X160341891Y-115617097D01*
X160325775Y-115578189D01*
X160325770Y-115578182D01*
X160249114Y-115463458D01*
X160249111Y-115463454D01*
X160148338Y-115362681D01*
X160143999Y-115354735D01*
X160136752Y-115349310D01*
X160127517Y-115324550D01*
X160114853Y-115301358D01*
X160115498Y-115292328D01*
X160112335Y-115283846D01*
X160117951Y-115258025D01*
X160119837Y-115231666D01*
X160125655Y-115222612D01*
X160127187Y-115215573D01*
X160148338Y-115187319D01*
X160252319Y-115083338D01*
X160313642Y-115049853D01*
X160383334Y-115054837D01*
X160427681Y-115083338D01*
X160528454Y-115184111D01*
X160528458Y-115184114D01*
X160643184Y-115260772D01*
X160643185Y-115260772D01*
X160643189Y-115260775D01*
X160682097Y-115276891D01*
X160722324Y-115303770D01*
X160974999Y-115556445D01*
X161227673Y-115303771D01*
X161267903Y-115276891D01*
X161272469Y-115275000D01*
X161306811Y-115260775D01*
X161421542Y-115184114D01*
X161519114Y-115086542D01*
X161595775Y-114971811D01*
X161605017Y-114949500D01*
X161642291Y-114859511D01*
X161648580Y-114844328D01*
X161675500Y-114708993D01*
X161675500Y-114571007D01*
X161675500Y-114571004D01*
X161648581Y-114435677D01*
X161648580Y-114435676D01*
X161648580Y-114435672D01*
X161631726Y-114394982D01*
X161595778Y-114308195D01*
X161595771Y-114308182D01*
X161519114Y-114193458D01*
X161519111Y-114193454D01*
X161418338Y-114092681D01*
X161384853Y-114031358D01*
X161389837Y-113961666D01*
X161418338Y-113917319D01*
X161519111Y-113816545D01*
X161519114Y-113816542D01*
X161595775Y-113701811D01*
X161648580Y-113574328D01*
X161668238Y-113475500D01*
X161675500Y-113438995D01*
X161675500Y-113301004D01*
X161648581Y-113165677D01*
X161648580Y-113165676D01*
X161648580Y-113165672D01*
X161610000Y-113072531D01*
X161595778Y-113038195D01*
X161595771Y-113038182D01*
X161519114Y-112923458D01*
X161519111Y-112923454D01*
X161421545Y-112825888D01*
X161421541Y-112825885D01*
X161306817Y-112749228D01*
X161306804Y-112749221D01*
X161179332Y-112696421D01*
X161179322Y-112696418D01*
X161043995Y-112669500D01*
X161043993Y-112669500D01*
X160906007Y-112669500D01*
X160906005Y-112669500D01*
X160770677Y-112696418D01*
X160770667Y-112696421D01*
X160643195Y-112749221D01*
X160643182Y-112749228D01*
X160528458Y-112825885D01*
X160528454Y-112825888D01*
X160427681Y-112926662D01*
X160366358Y-112960147D01*
X160296666Y-112955163D01*
X160252319Y-112926662D01*
X160151545Y-112825888D01*
X160151541Y-112825885D01*
X160036817Y-112749228D01*
X160036804Y-112749221D01*
X159909332Y-112696421D01*
X159909322Y-112696418D01*
X159773995Y-112669500D01*
X159773993Y-112669500D01*
X159636007Y-112669500D01*
X159636005Y-112669500D01*
X159500677Y-112696418D01*
X159500667Y-112696421D01*
X159373195Y-112749221D01*
X159373182Y-112749228D01*
X159258458Y-112825885D01*
X159258454Y-112825888D01*
X159160888Y-112923454D01*
X159160885Y-112923458D01*
X159084228Y-113038182D01*
X159084221Y-113038195D01*
X159031421Y-113165667D01*
X159031418Y-113165677D01*
X159004500Y-113301004D01*
X159004500Y-113301007D01*
X159004500Y-113438993D01*
X159004500Y-113438995D01*
X159004499Y-113438995D01*
X158006500Y-113438995D01*
X158006500Y-106866438D01*
X157986021Y-106790011D01*
X157986017Y-106790004D01*
X157946464Y-106721495D01*
X157946458Y-106721487D01*
X155634079Y-104409108D01*
X157124500Y-104409108D01*
X157124500Y-104540891D01*
X157158608Y-104668187D01*
X157191554Y-104725250D01*
X157224500Y-104782314D01*
X157317686Y-104875500D01*
X157431814Y-104941392D01*
X157559108Y-104975500D01*
X157559110Y-104975500D01*
X157690890Y-104975500D01*
X157690892Y-104975500D01*
X157818186Y-104941392D01*
X157932314Y-104875500D01*
X158025500Y-104782314D01*
X158091392Y-104668186D01*
X158125500Y-104540892D01*
X158125500Y-104450832D01*
X158145185Y-104383793D01*
X158161819Y-104363151D01*
X160874471Y-101650499D01*
X163665460Y-98859511D01*
X163705022Y-98790988D01*
X163725500Y-98714562D01*
X163725500Y-98635438D01*
X163725500Y-96358676D01*
X163745185Y-96291637D01*
X163761819Y-96270995D01*
X163783314Y-96249500D01*
X163825500Y-96207314D01*
X163891392Y-96093186D01*
X163925500Y-95965892D01*
X163925500Y-95834108D01*
X163891392Y-95706814D01*
X163825500Y-95592686D01*
X163732314Y-95499500D01*
X163635971Y-95443876D01*
X163618187Y-95433608D01*
X163518188Y-95406814D01*
X163490892Y-95399500D01*
X163359108Y-95399500D01*
X163231812Y-95433608D01*
X163117686Y-95499500D01*
X163117683Y-95499502D01*
X163024502Y-95592683D01*
X163024500Y-95592686D01*
X162958608Y-95706812D01*
X162928817Y-95817996D01*
X162924500Y-95834108D01*
X162924500Y-95965892D01*
X162927496Y-95977074D01*
X162958608Y-96093187D01*
X162991554Y-96150250D01*
X163024500Y-96207314D01*
X163024502Y-96207316D01*
X163088181Y-96270995D01*
X163121666Y-96332318D01*
X163124500Y-96358676D01*
X163124500Y-98499166D01*
X163104815Y-98566205D01*
X163088181Y-98586847D01*
X157736847Y-103938181D01*
X157675524Y-103971666D01*
X157649166Y-103974500D01*
X157559108Y-103974500D01*
X157431812Y-104008608D01*
X157317686Y-104074500D01*
X157317683Y-104074502D01*
X157224502Y-104167683D01*
X157224500Y-104167686D01*
X157158608Y-104281812D01*
X157124500Y-104409108D01*
X155634079Y-104409108D01*
X146186977Y-94962006D01*
X146153492Y-94900683D01*
X146158476Y-94830991D01*
X146200348Y-94775058D01*
X146265812Y-94750641D01*
X146275981Y-94750946D01*
X146275981Y-94750500D01*
X146415890Y-94750500D01*
X146415892Y-94750500D01*
X146543186Y-94716392D01*
X146657314Y-94650500D01*
X146750500Y-94557314D01*
X146816392Y-94443186D01*
X146850500Y-94315892D01*
X146850500Y-94225832D01*
X146870185Y-94158793D01*
X146886819Y-94138151D01*
X146964956Y-94060014D01*
X157236449Y-94060014D01*
X157236449Y-94191797D01*
X157270557Y-94319093D01*
X157303503Y-94376156D01*
X157336449Y-94433220D01*
X157429635Y-94526406D01*
X157543763Y-94592298D01*
X157671057Y-94626406D01*
X157671059Y-94626406D01*
X157802839Y-94626406D01*
X157802841Y-94626406D01*
X157930135Y-94592298D01*
X158044263Y-94526406D01*
X158137449Y-94433220D01*
X158203341Y-94319092D01*
X158237449Y-94191798D01*
X158237449Y-94060014D01*
X158203341Y-93932720D01*
X158137449Y-93818592D01*
X158044263Y-93725406D01*
X157987199Y-93692460D01*
X157930136Y-93659514D01*
X157866488Y-93642460D01*
X157802841Y-93625406D01*
X157671057Y-93625406D01*
X157543761Y-93659514D01*
X157429635Y-93725406D01*
X157429632Y-93725408D01*
X157336451Y-93818589D01*
X157336449Y-93818592D01*
X157270557Y-93932718D01*
X157236449Y-94060014D01*
X146964956Y-94060014D01*
X147138152Y-93886819D01*
X147199475Y-93853334D01*
X147225833Y-93850500D01*
X149066324Y-93850500D01*
X149133363Y-93870185D01*
X149154005Y-93886819D01*
X149217686Y-93950500D01*
X149331814Y-94016392D01*
X149459108Y-94050500D01*
X149459110Y-94050500D01*
X149590890Y-94050500D01*
X149590892Y-94050500D01*
X149718186Y-94016392D01*
X149832314Y-93950500D01*
X149925500Y-93857314D01*
X149991392Y-93743186D01*
X150025500Y-93615892D01*
X150025500Y-93484108D01*
X149991392Y-93356814D01*
X149925500Y-93242686D01*
X149832314Y-93149500D01*
X149775250Y-93116554D01*
X149718187Y-93083608D01*
X149654539Y-93066554D01*
X149590892Y-93049500D01*
X149459108Y-93049500D01*
X149331812Y-93083608D01*
X149217686Y-93149500D01*
X149217683Y-93149502D01*
X149154005Y-93213181D01*
X149092682Y-93246666D01*
X149066324Y-93249500D01*
X147010438Y-93249500D01*
X146959486Y-93263152D01*
X146934010Y-93269979D01*
X146874934Y-93304087D01*
X146874933Y-93304086D01*
X146865492Y-93309537D01*
X146865487Y-93309541D01*
X146461847Y-93713181D01*
X146400524Y-93746666D01*
X146374166Y-93749500D01*
X146284108Y-93749500D01*
X146156812Y-93783608D01*
X146042686Y-93849500D01*
X146042683Y-93849502D01*
X145949502Y-93942683D01*
X145949500Y-93942686D01*
X145883608Y-94056812D01*
X145849500Y-94184108D01*
X145849500Y-94324019D01*
X145846296Y-94324019D01*
X145837846Y-94378195D01*
X145791464Y-94430449D01*
X145724194Y-94449332D01*
X145657395Y-94428849D01*
X145637993Y-94413022D01*
X141609512Y-90384541D01*
X141609504Y-90384535D01*
X141540995Y-90344982D01*
X141540990Y-90344979D01*
X141515513Y-90338152D01*
X141464562Y-90324500D01*
X132810508Y-90324500D01*
X132772294Y-90334739D01*
X132734079Y-90344979D01*
X132734074Y-90344982D01*
X132665565Y-90384535D01*
X132665557Y-90384541D01*
X127302529Y-95747569D01*
X127241206Y-95781054D01*
X127214848Y-95783888D01*
X127124790Y-95783888D01*
X126997494Y-95817996D01*
X126883368Y-95883888D01*
X126883365Y-95883890D01*
X126790184Y-95977071D01*
X126790182Y-95977074D01*
X126724290Y-96091200D01*
X126690182Y-96218496D01*
X126690182Y-96350279D01*
X126724290Y-96477575D01*
X126743274Y-96510456D01*
X126790182Y-96591702D01*
X126790184Y-96591704D01*
X126863181Y-96664701D01*
X126896666Y-96726024D01*
X126899500Y-96752382D01*
X126899500Y-100600495D01*
X126879815Y-100667534D01*
X126827011Y-100713289D01*
X126757853Y-100723233D01*
X126743407Y-100720270D01*
X126665892Y-100699500D01*
X126534108Y-100699500D01*
X126406812Y-100733608D01*
X126292686Y-100799500D01*
X126292683Y-100799502D01*
X126199502Y-100892683D01*
X126199500Y-100892686D01*
X126133608Y-101006812D01*
X126099500Y-101134108D01*
X126099500Y-101265891D01*
X126133608Y-101393187D01*
X126143031Y-101409507D01*
X126199500Y-101507314D01*
X126292686Y-101600500D01*
X126406814Y-101666392D01*
X126534108Y-101700500D01*
X126534110Y-101700500D01*
X126665890Y-101700500D01*
X126665892Y-101700500D01*
X126793186Y-101666392D01*
X126907314Y-101600500D01*
X127000500Y-101507314D01*
X127037203Y-101443741D01*
X127056911Y-101418059D01*
X127065460Y-101409511D01*
X127440460Y-101034511D01*
X127463033Y-100995413D01*
X127471661Y-100980470D01*
X127480018Y-100965994D01*
X127480020Y-100965991D01*
X127482480Y-100956812D01*
X127500500Y-100889562D01*
X127500500Y-96733746D01*
X127520185Y-96666707D01*
X127536819Y-96646065D01*
X127547666Y-96635218D01*
X127591182Y-96591702D01*
X127657074Y-96477574D01*
X127691182Y-96350280D01*
X127691182Y-96260220D01*
X127710867Y-96193181D01*
X127727501Y-96172539D01*
X129965932Y-93934108D01*
X138449500Y-93934108D01*
X138449500Y-94065891D01*
X138483608Y-94193187D01*
X138502456Y-94225832D01*
X138549500Y-94307314D01*
X138642686Y-94400500D01*
X138756814Y-94466392D01*
X138884108Y-94500500D01*
X138884110Y-94500500D01*
X139015890Y-94500500D01*
X139015892Y-94500500D01*
X139143186Y-94466392D01*
X139257314Y-94400500D01*
X139350500Y-94307314D01*
X139416392Y-94193186D01*
X139450500Y-94065892D01*
X139450500Y-93934108D01*
X139416392Y-93806814D01*
X139350500Y-93692686D01*
X139257314Y-93599500D01*
X139200250Y-93566554D01*
X139143187Y-93533608D01*
X139079539Y-93516554D01*
X139015892Y-93499500D01*
X138884108Y-93499500D01*
X138756812Y-93533608D01*
X138642686Y-93599500D01*
X138642683Y-93599502D01*
X138549502Y-93692683D01*
X138549500Y-93692686D01*
X138483608Y-93806812D01*
X138449500Y-93934108D01*
X129965932Y-93934108D01*
X130061740Y-93838300D01*
X130366433Y-93533608D01*
X132938222Y-90961819D01*
X132999545Y-90928334D01*
X133025903Y-90925500D01*
X141249167Y-90925500D01*
X141316206Y-90945185D01*
X141336848Y-90961819D01*
X145818905Y-95443876D01*
X145852390Y-95505199D01*
X145847406Y-95574891D01*
X145805534Y-95630824D01*
X145740070Y-95655241D01*
X145699131Y-95651332D01*
X145688562Y-95648500D01*
X133586438Y-95648500D01*
X133561281Y-95655241D01*
X133510008Y-95668979D01*
X133510007Y-95668980D01*
X133462961Y-95696143D01*
X133462960Y-95696144D01*
X133441490Y-95708539D01*
X133441487Y-95708541D01*
X127136848Y-102013181D01*
X127075525Y-102046666D01*
X127049167Y-102049500D01*
X125500833Y-102049500D01*
X125471392Y-102040855D01*
X125441406Y-102034332D01*
X125436390Y-102030577D01*
X125433794Y-102029815D01*
X125413152Y-102013181D01*
X125361819Y-101961848D01*
X125328334Y-101900525D01*
X125325500Y-101874167D01*
X125325500Y-101784110D01*
X125325500Y-101784108D01*
X125291392Y-101656814D01*
X125225500Y-101542686D01*
X125132314Y-101449500D01*
X125063044Y-101409507D01*
X125018187Y-101383608D01*
X124954539Y-101366554D01*
X124890892Y-101349500D01*
X124759108Y-101349500D01*
X124631812Y-101383608D01*
X124517686Y-101449500D01*
X124517683Y-101449502D01*
X124424502Y-101542683D01*
X124424500Y-101542686D01*
X124358608Y-101656812D01*
X124341683Y-101719979D01*
X124324500Y-101784108D01*
X124324500Y-101915892D01*
X124326536Y-101923492D01*
X124335996Y-101958795D01*
X124334333Y-102028645D01*
X124295170Y-102086507D01*
X124230942Y-102114011D01*
X124162039Y-102102424D01*
X124128540Y-102078569D01*
X123809512Y-101759541D01*
X123809504Y-101759535D01*
X123795587Y-101751500D01*
X123795583Y-101751499D01*
X123765061Y-101733877D01*
X123740990Y-101719979D01*
X123715513Y-101713152D01*
X123664562Y-101699500D01*
X123664560Y-101699500D01*
X123534184Y-101699500D01*
X123467145Y-101679815D01*
X123446503Y-101663181D01*
X123391082Y-101607760D01*
X123391080Y-101607758D01*
X123334016Y-101574812D01*
X123276953Y-101541866D01*
X123213305Y-101524812D01*
X123149658Y-101507758D01*
X123017874Y-101507758D01*
X122890578Y-101541866D01*
X122776452Y-101607758D01*
X122776449Y-101607760D01*
X122683268Y-101700941D01*
X122683266Y-101700944D01*
X122617374Y-101815070D01*
X122583266Y-101942366D01*
X122583266Y-102074149D01*
X122617374Y-102201445D01*
X122648188Y-102254815D01*
X122683266Y-102315572D01*
X122776452Y-102408758D01*
X122890580Y-102474650D01*
X123017874Y-102508758D01*
X123017876Y-102508758D01*
X123149656Y-102508758D01*
X123149658Y-102508758D01*
X123276952Y-102474650D01*
X123391080Y-102408758D01*
X123412254Y-102387583D01*
X123420197Y-102383246D01*
X123425623Y-102375999D01*
X123450378Y-102366765D01*
X123473573Y-102354100D01*
X123482604Y-102354745D01*
X123491087Y-102351582D01*
X123516904Y-102357198D01*
X123543264Y-102359083D01*
X123552319Y-102364902D01*
X123559360Y-102366434D01*
X123587614Y-102387585D01*
X123713181Y-102513152D01*
X123746666Y-102574475D01*
X123749500Y-102600833D01*
X123749500Y-106342324D01*
X123729815Y-106409363D01*
X123677011Y-106455118D01*
X123607853Y-106465062D01*
X123544297Y-106436037D01*
X123537819Y-106430005D01*
X123482316Y-106374502D01*
X123482314Y-106374500D01*
X123395135Y-106324167D01*
X123368187Y-106308608D01*
X123304539Y-106291554D01*
X123240892Y-106274500D01*
X123109108Y-106274500D01*
X122981812Y-106308608D01*
X122867686Y-106374500D01*
X122867683Y-106374502D01*
X122774502Y-106467683D01*
X122774500Y-106467686D01*
X122708608Y-106581812D01*
X122681091Y-106684511D01*
X122674500Y-106709108D01*
X122674500Y-106840892D01*
X122696902Y-106924500D01*
X122708609Y-106968188D01*
X122708610Y-106968191D01*
X122732886Y-107010237D01*
X122749500Y-107072238D01*
X122749500Y-113487034D01*
X122729815Y-113554073D01*
X122713181Y-113574715D01*
X120911009Y-115376886D01*
X120863775Y-115404161D01*
X120864328Y-115405495D01*
X120856816Y-115408606D01*
X120742689Y-115474498D01*
X120742683Y-115474502D01*
X120649502Y-115567683D01*
X120649500Y-115567686D01*
X120583608Y-115681812D01*
X120554247Y-115791391D01*
X120549500Y-115809108D01*
X109220500Y-115809108D01*
X109220500Y-115310252D01*
X109220500Y-115310249D01*
X109220499Y-115310247D01*
X109208868Y-115251770D01*
X109208867Y-115251769D01*
X109164552Y-115185447D01*
X109098230Y-115141132D01*
X109098229Y-115141131D01*
X109039752Y-115129500D01*
X109039748Y-115129500D01*
X107300252Y-115129500D01*
X107300247Y-115129500D01*
X107241770Y-115141131D01*
X107241769Y-115141132D01*
X107175447Y-115185447D01*
X107131132Y-115251769D01*
X107131131Y-115251770D01*
X107119500Y-115310247D01*
X91350500Y-115310247D01*
X91350500Y-105784108D01*
X114499500Y-105784108D01*
X114499500Y-105915891D01*
X114533608Y-106043187D01*
X114547395Y-106067066D01*
X114599500Y-106157314D01*
X114692686Y-106250500D01*
X114806814Y-106316392D01*
X114934108Y-106350500D01*
X114934110Y-106350500D01*
X115065890Y-106350500D01*
X115065892Y-106350500D01*
X115193186Y-106316392D01*
X115307314Y-106250500D01*
X115400500Y-106157314D01*
X115466392Y-106043186D01*
X115500500Y-105915892D01*
X115500500Y-105784108D01*
X115466392Y-105656814D01*
X115400500Y-105542686D01*
X115307314Y-105449500D01*
X115237173Y-105409004D01*
X115193187Y-105383608D01*
X115129539Y-105366554D01*
X115065892Y-105349500D01*
X114934108Y-105349500D01*
X114806812Y-105383608D01*
X114692686Y-105449500D01*
X114692683Y-105449502D01*
X114599502Y-105542683D01*
X114599500Y-105542686D01*
X114533608Y-105656812D01*
X114499500Y-105784108D01*
X91350500Y-105784108D01*
X91350500Y-101084108D01*
X118899500Y-101084108D01*
X118899500Y-101215891D01*
X118933608Y-101343187D01*
X118937253Y-101349500D01*
X118999500Y-101457314D01*
X119092686Y-101550500D01*
X119206814Y-101616392D01*
X119334108Y-101650500D01*
X119334110Y-101650500D01*
X119465890Y-101650500D01*
X119465892Y-101650500D01*
X119593186Y-101616392D01*
X119707314Y-101550500D01*
X119800500Y-101457314D01*
X119866392Y-101343186D01*
X119900500Y-101215892D01*
X119900500Y-101084108D01*
X119866392Y-100956814D01*
X119800500Y-100842686D01*
X119707314Y-100749500D01*
X119620712Y-100699500D01*
X119593187Y-100683608D01*
X119529539Y-100666554D01*
X119465892Y-100649500D01*
X119334108Y-100649500D01*
X119206812Y-100683608D01*
X119092686Y-100749500D01*
X119092683Y-100749502D01*
X118999502Y-100842683D01*
X118999500Y-100842686D01*
X118933608Y-100956812D01*
X118899500Y-101084108D01*
X91350500Y-101084108D01*
X91350500Y-98484108D01*
X118349500Y-98484108D01*
X118349500Y-98615892D01*
X118354737Y-98635438D01*
X118383608Y-98743187D01*
X118411207Y-98790989D01*
X118449500Y-98857314D01*
X118542686Y-98950500D01*
X118656814Y-99016392D01*
X118784108Y-99050500D01*
X118784110Y-99050500D01*
X118915890Y-99050500D01*
X118915892Y-99050500D01*
X119043186Y-99016392D01*
X119157314Y-98950500D01*
X119250500Y-98857314D01*
X119316392Y-98743186D01*
X119350500Y-98615892D01*
X119350500Y-98484108D01*
X119316392Y-98356814D01*
X119250500Y-98242686D01*
X119157314Y-98149500D01*
X119100250Y-98116554D01*
X119043187Y-98083608D01*
X118979539Y-98066554D01*
X118915892Y-98049500D01*
X118784108Y-98049500D01*
X118656812Y-98083608D01*
X118542686Y-98149500D01*
X118542683Y-98149502D01*
X118449502Y-98242683D01*
X118449500Y-98242686D01*
X118383608Y-98356812D01*
X118356233Y-98458979D01*
X118349500Y-98484108D01*
X91350500Y-98484108D01*
X91350500Y-95534108D01*
X120199500Y-95534108D01*
X120199500Y-95665892D01*
X120207606Y-95696143D01*
X120233608Y-95793187D01*
X120266554Y-95850250D01*
X120299500Y-95907314D01*
X120392686Y-96000500D01*
X120506814Y-96066392D01*
X120634108Y-96100500D01*
X120634110Y-96100500D01*
X120765890Y-96100500D01*
X120765892Y-96100500D01*
X120893186Y-96066392D01*
X120986729Y-96012384D01*
X121054627Y-95995912D01*
X121120654Y-96018764D01*
X121136409Y-96032091D01*
X122488181Y-97383863D01*
X122521666Y-97445186D01*
X122524500Y-97471544D01*
X122524500Y-100171145D01*
X122541236Y-100233606D01*
X122548385Y-100260285D01*
X122548387Y-100260290D01*
X122594527Y-100340208D01*
X122594529Y-100340211D01*
X122594530Y-100340212D01*
X123234788Y-100980470D01*
X123304085Y-101020478D01*
X123304087Y-101020480D01*
X123311342Y-101024668D01*
X123314712Y-101026614D01*
X123403856Y-101050500D01*
X123766324Y-101050500D01*
X123833363Y-101070185D01*
X123854005Y-101086819D01*
X123867686Y-101100500D01*
X123981814Y-101166392D01*
X124109108Y-101200500D01*
X124109110Y-101200500D01*
X124240890Y-101200500D01*
X124240892Y-101200500D01*
X124368186Y-101166392D01*
X124482314Y-101100500D01*
X124575500Y-101007314D01*
X124641392Y-100893186D01*
X124675500Y-100765892D01*
X124675500Y-100634108D01*
X124641392Y-100506814D01*
X124575500Y-100392686D01*
X124482314Y-100299500D01*
X124425250Y-100266554D01*
X124368187Y-100233608D01*
X124304539Y-100216554D01*
X124240892Y-100199500D01*
X124109108Y-100199500D01*
X123981812Y-100233608D01*
X123867686Y-100299500D01*
X123867683Y-100299502D01*
X123854005Y-100313181D01*
X123827077Y-100327884D01*
X123801259Y-100344477D01*
X123795058Y-100345368D01*
X123792682Y-100346666D01*
X123766324Y-100349500D01*
X123646544Y-100349500D01*
X123579505Y-100329815D01*
X123558863Y-100313181D01*
X123261819Y-100016137D01*
X123228334Y-99954814D01*
X123225500Y-99928456D01*
X123225500Y-97338170D01*
X123245185Y-97271131D01*
X123297989Y-97225376D01*
X123317402Y-97218396D01*
X123418186Y-97191392D01*
X123532314Y-97125500D01*
X123625500Y-97032314D01*
X123691392Y-96918186D01*
X123725500Y-96790892D01*
X123725500Y-96659108D01*
X123691392Y-96531814D01*
X123625500Y-96417686D01*
X123532314Y-96324500D01*
X123439319Y-96270809D01*
X123418187Y-96258608D01*
X123354539Y-96241554D01*
X123290892Y-96224500D01*
X123159108Y-96224500D01*
X123031812Y-96258608D01*
X122917686Y-96324500D01*
X122917683Y-96324502D01*
X122824502Y-96417683D01*
X122824500Y-96417686D01*
X122791417Y-96474987D01*
X122740849Y-96523202D01*
X122672242Y-96536424D01*
X122607377Y-96510456D01*
X122596349Y-96500667D01*
X121415213Y-95319531D01*
X121415208Y-95319527D01*
X121335290Y-95273387D01*
X121335289Y-95273386D01*
X121335288Y-95273386D01*
X121246144Y-95249500D01*
X121246143Y-95249500D01*
X121108676Y-95249500D01*
X121041637Y-95229815D01*
X121020995Y-95213181D01*
X121007316Y-95199502D01*
X121007314Y-95199500D01*
X120950250Y-95166554D01*
X120893187Y-95133608D01*
X120829539Y-95116554D01*
X120765892Y-95099500D01*
X120634108Y-95099500D01*
X120506812Y-95133608D01*
X120392686Y-95199500D01*
X120392683Y-95199502D01*
X120299502Y-95292683D01*
X120299500Y-95292686D01*
X120233608Y-95406812D01*
X120207246Y-95505199D01*
X120199500Y-95534108D01*
X91350500Y-95534108D01*
X91350500Y-89934108D01*
X124099500Y-89934108D01*
X124099500Y-90065891D01*
X124133608Y-90193187D01*
X124166554Y-90250250D01*
X124199500Y-90307314D01*
X124292686Y-90400500D01*
X124406814Y-90466392D01*
X124534108Y-90500500D01*
X124534110Y-90500500D01*
X124665890Y-90500500D01*
X124665892Y-90500500D01*
X124793186Y-90466392D01*
X124907314Y-90400500D01*
X125000500Y-90307314D01*
X125066392Y-90193186D01*
X125100500Y-90065892D01*
X125100500Y-89934108D01*
X125066392Y-89806814D01*
X125000500Y-89692686D01*
X124907314Y-89599500D01*
X124850250Y-89566554D01*
X124793187Y-89533608D01*
X124729539Y-89516554D01*
X124665892Y-89499500D01*
X124534108Y-89499500D01*
X124406812Y-89533608D01*
X124292686Y-89599500D01*
X124292683Y-89599502D01*
X124199502Y-89692683D01*
X124199500Y-89692686D01*
X124133608Y-89806812D01*
X124099500Y-89934108D01*
X91350500Y-89934108D01*
X91350500Y-76443995D01*
X104399499Y-76443995D01*
X104426418Y-76579322D01*
X104426421Y-76579332D01*
X104479221Y-76706804D01*
X104479228Y-76706817D01*
X104555885Y-76821541D01*
X104555888Y-76821545D01*
X104653454Y-76919111D01*
X104653458Y-76919114D01*
X104768182Y-76995771D01*
X104768195Y-76995778D01*
X104895667Y-77048578D01*
X104895672Y-77048580D01*
X104895676Y-77048580D01*
X104895677Y-77048581D01*
X105031004Y-77075500D01*
X105031007Y-77075500D01*
X105168995Y-77075500D01*
X105260041Y-77057389D01*
X105304328Y-77048580D01*
X105431811Y-76995775D01*
X105546542Y-76919114D01*
X105644114Y-76821542D01*
X105720775Y-76706811D01*
X105773580Y-76579328D01*
X105800500Y-76443993D01*
X105800500Y-76306007D01*
X105800500Y-76306004D01*
X105773581Y-76170677D01*
X105773580Y-76170676D01*
X105773580Y-76170672D01*
X105773578Y-76170667D01*
X105720778Y-76043195D01*
X105720771Y-76043182D01*
X105644114Y-75928458D01*
X105644111Y-75928454D01*
X105546545Y-75830888D01*
X105546541Y-75830885D01*
X105431817Y-75754228D01*
X105431804Y-75754221D01*
X105304332Y-75701421D01*
X105304322Y-75701418D01*
X105168995Y-75674500D01*
X105168993Y-75674500D01*
X105031007Y-75674500D01*
X105031005Y-75674500D01*
X104895677Y-75701418D01*
X104895667Y-75701421D01*
X104768195Y-75754221D01*
X104768182Y-75754228D01*
X104653458Y-75830885D01*
X104653454Y-75830888D01*
X104555888Y-75928454D01*
X104555885Y-75928458D01*
X104479228Y-76043182D01*
X104479221Y-76043195D01*
X104426421Y-76170667D01*
X104426418Y-76170677D01*
X104399500Y-76306004D01*
X104399500Y-76306007D01*
X104399500Y-76443993D01*
X104399500Y-76443995D01*
X104399499Y-76443995D01*
X91350500Y-76443995D01*
X91350500Y-74830247D01*
X145224500Y-74830247D01*
X145224500Y-75769752D01*
X145236131Y-75828229D01*
X145236132Y-75828230D01*
X145280447Y-75894552D01*
X145346769Y-75938867D01*
X145346770Y-75938868D01*
X145405247Y-75950499D01*
X145405250Y-75950500D01*
X145405252Y-75950500D01*
X147444750Y-75950500D01*
X147444751Y-75950499D01*
X147459568Y-75947552D01*
X147503229Y-75938868D01*
X147503229Y-75938867D01*
X147503231Y-75938867D01*
X147569552Y-75894552D01*
X147613867Y-75828231D01*
X147613867Y-75828229D01*
X147613868Y-75828229D01*
X147625499Y-75769752D01*
X147625500Y-75769750D01*
X147625500Y-74830249D01*
X147625499Y-74830247D01*
X147613868Y-74771770D01*
X147613867Y-74771769D01*
X147569552Y-74705447D01*
X147503230Y-74661132D01*
X147503229Y-74661131D01*
X147444752Y-74649500D01*
X147444748Y-74649500D01*
X145405252Y-74649500D01*
X145405247Y-74649500D01*
X145346770Y-74661131D01*
X145346769Y-74661132D01*
X145280447Y-74705447D01*
X145236132Y-74771769D01*
X145236131Y-74771770D01*
X145224500Y-74830247D01*
X91350500Y-74830247D01*
X91350500Y-71062061D01*
X138174500Y-71062061D01*
X138174500Y-73237924D01*
X138174501Y-73237939D01*
X138184696Y-73367484D01*
X138238596Y-73581395D01*
X138329826Y-73782243D01*
X138455449Y-73963568D01*
X138611431Y-74119550D01*
X138792756Y-74245173D01*
X138792757Y-74245173D01*
X138792761Y-74245176D01*
X138926875Y-74306093D01*
X138993604Y-74336403D01*
X138993605Y-74336403D01*
X138993607Y-74336404D01*
X139207515Y-74390304D01*
X139337067Y-74400500D01*
X141512932Y-74400499D01*
X141642485Y-74390304D01*
X141856393Y-74336404D01*
X142057239Y-74245176D01*
X142238567Y-74119551D01*
X142394551Y-73963567D01*
X142520176Y-73782239D01*
X142611404Y-73581393D01*
X142665304Y-73367485D01*
X142675500Y-73237933D01*
X142675499Y-71062068D01*
X142665304Y-70932515D01*
X142611404Y-70718607D01*
X142520176Y-70517761D01*
X142394551Y-70336433D01*
X142394550Y-70336431D01*
X142238568Y-70180449D01*
X142057243Y-70054826D01*
X141856395Y-69963596D01*
X141713787Y-69927662D01*
X141642485Y-69909696D01*
X141512933Y-69899500D01*
X141512931Y-69899500D01*
X139337075Y-69899500D01*
X139337060Y-69899501D01*
X139207515Y-69909696D01*
X138993604Y-69963596D01*
X138792756Y-70054826D01*
X138611431Y-70180449D01*
X138455449Y-70336431D01*
X138329826Y-70517756D01*
X138238596Y-70718604D01*
X138184696Y-70932515D01*
X138174500Y-71062061D01*
X91350500Y-71062061D01*
X91350500Y-68448786D01*
X123379765Y-68448786D01*
X123477593Y-68475000D01*
X123622407Y-68475000D01*
X123720234Y-68448786D01*
X124579765Y-68448786D01*
X124677593Y-68475000D01*
X124822407Y-68475000D01*
X124920234Y-68448786D01*
X124750001Y-68278553D01*
X124579765Y-68448786D01*
X123720234Y-68448786D01*
X123550001Y-68278553D01*
X123379765Y-68448786D01*
X91350500Y-68448786D01*
X91350500Y-67852591D01*
X123000000Y-67852591D01*
X123000000Y-67997408D01*
X123026211Y-68095234D01*
X123196446Y-67925000D01*
X123166609Y-67895163D01*
X123400000Y-67895163D01*
X123400000Y-67954837D01*
X123422836Y-68009968D01*
X123465032Y-68052164D01*
X123520163Y-68075000D01*
X123579837Y-68075000D01*
X123634968Y-68052164D01*
X123677164Y-68009968D01*
X123700000Y-67954837D01*
X123700000Y-67925000D01*
X123903553Y-67925000D01*
X123903553Y-67925001D01*
X124073785Y-68095233D01*
X124117905Y-68083412D01*
X124182093Y-68083412D01*
X124226212Y-68095233D01*
X124396446Y-67925000D01*
X124366609Y-67895163D01*
X124600000Y-67895163D01*
X124600000Y-67954837D01*
X124622836Y-68009968D01*
X124665032Y-68052164D01*
X124720163Y-68075000D01*
X124779837Y-68075000D01*
X124834968Y-68052164D01*
X124877164Y-68009968D01*
X124900000Y-67954837D01*
X124900000Y-67925000D01*
X125103553Y-67925000D01*
X125103553Y-67925001D01*
X125273786Y-68095234D01*
X125300000Y-67997407D01*
X125300000Y-67852592D01*
X125273786Y-67754765D01*
X125103553Y-67925000D01*
X124900000Y-67925000D01*
X124900000Y-67895163D01*
X124877164Y-67840032D01*
X124834968Y-67797836D01*
X124779837Y-67775000D01*
X124720163Y-67775000D01*
X124665032Y-67797836D01*
X124622836Y-67840032D01*
X124600000Y-67895163D01*
X124366609Y-67895163D01*
X124226211Y-67754764D01*
X124182093Y-67766586D01*
X124117908Y-67766586D01*
X124073787Y-67754764D01*
X123903553Y-67925000D01*
X123700000Y-67925000D01*
X123700000Y-67895163D01*
X123677164Y-67840032D01*
X123634968Y-67797836D01*
X123579837Y-67775000D01*
X123520163Y-67775000D01*
X123465032Y-67797836D01*
X123422836Y-67840032D01*
X123400000Y-67895163D01*
X123166609Y-67895163D01*
X123026212Y-67754765D01*
X123000000Y-67852591D01*
X91350500Y-67852591D01*
X91350500Y-67350363D01*
X123378189Y-67350363D01*
X123378189Y-67399635D01*
X123550000Y-67571446D01*
X123721809Y-67399637D01*
X123721809Y-67391056D01*
X123717619Y-67377949D01*
X123720916Y-67350363D01*
X124578189Y-67350363D01*
X124578189Y-67399635D01*
X124750000Y-67571446D01*
X124921809Y-67399637D01*
X124921809Y-67350361D01*
X124750001Y-67178553D01*
X124578189Y-67350363D01*
X123720916Y-67350363D01*
X123721012Y-67349564D01*
X123550001Y-67178553D01*
X123378189Y-67350363D01*
X91350500Y-67350363D01*
X91350500Y-66752591D01*
X123000000Y-66752591D01*
X123000000Y-66897408D01*
X123026211Y-66995234D01*
X123196446Y-66825000D01*
X123166609Y-66795163D01*
X123400000Y-66795163D01*
X123400000Y-66854837D01*
X123422836Y-66909968D01*
X123465032Y-66952164D01*
X123520163Y-66975000D01*
X123579837Y-66975000D01*
X123634968Y-66952164D01*
X123677164Y-66909968D01*
X123700000Y-66854837D01*
X123700000Y-66825000D01*
X123903553Y-66825000D01*
X123903553Y-66825001D01*
X124073785Y-66995233D01*
X124117905Y-66983412D01*
X124182093Y-66983412D01*
X124226212Y-66995233D01*
X124396446Y-66825000D01*
X124366609Y-66795163D01*
X124600000Y-66795163D01*
X124600000Y-66854837D01*
X124622836Y-66909968D01*
X124665032Y-66952164D01*
X124720163Y-66975000D01*
X124779837Y-66975000D01*
X124834968Y-66952164D01*
X124877164Y-66909968D01*
X124900000Y-66854837D01*
X124900000Y-66825000D01*
X125103553Y-66825000D01*
X125103553Y-66825001D01*
X125273786Y-66995234D01*
X125300000Y-66897407D01*
X125300000Y-66752592D01*
X125299999Y-66752590D01*
X125293417Y-66728025D01*
X125293416Y-66728023D01*
X125273786Y-66654765D01*
X125103553Y-66825000D01*
X124900000Y-66825000D01*
X124900000Y-66795163D01*
X124877164Y-66740032D01*
X124834968Y-66697836D01*
X124779837Y-66675000D01*
X124720163Y-66675000D01*
X124665032Y-66697836D01*
X124622836Y-66740032D01*
X124600000Y-66795163D01*
X124366609Y-66795163D01*
X124226211Y-66654764D01*
X124182093Y-66666586D01*
X124117908Y-66666586D01*
X124073787Y-66654764D01*
X123903553Y-66825000D01*
X123700000Y-66825000D01*
X123700000Y-66795163D01*
X123677164Y-66740032D01*
X123634968Y-66697836D01*
X123579837Y-66675000D01*
X123520163Y-66675000D01*
X123465032Y-66697836D01*
X123422836Y-66740032D01*
X123400000Y-66795163D01*
X123166609Y-66795163D01*
X123026212Y-66654765D01*
X123000000Y-66752591D01*
X91350500Y-66752591D01*
X91350500Y-66301211D01*
X123379765Y-66301211D01*
X123379765Y-66301212D01*
X123550000Y-66471446D01*
X123720234Y-66301211D01*
X124579765Y-66301211D01*
X124579765Y-66301212D01*
X124750000Y-66471446D01*
X124920234Y-66301211D01*
X124896208Y-66294774D01*
X124836548Y-66258409D01*
X124806019Y-66195562D01*
X124814314Y-66126186D01*
X124858799Y-66072308D01*
X124896208Y-66055224D01*
X124920234Y-66048786D01*
X124750001Y-65878553D01*
X124607508Y-66021043D01*
X124668635Y-66097675D01*
X124680392Y-66126464D01*
X124693980Y-66154436D01*
X124693489Y-66158535D01*
X124695051Y-66162358D01*
X124689376Y-66192935D01*
X124685685Y-66223812D01*
X124683056Y-66226995D01*
X124682303Y-66231055D01*
X124661003Y-66253705D01*
X124641200Y-66277690D01*
X124636377Y-66279892D01*
X124634438Y-66281955D01*
X124628745Y-66283377D01*
X124603791Y-66294774D01*
X124579765Y-66301211D01*
X123720234Y-66301211D01*
X123696208Y-66294774D01*
X123636548Y-66258409D01*
X123606019Y-66195562D01*
X123614314Y-66126186D01*
X123631364Y-66097675D01*
X123692490Y-66021042D01*
X123550001Y-65878553D01*
X123407508Y-66021043D01*
X123468635Y-66097675D01*
X123480392Y-66126464D01*
X123493980Y-66154436D01*
X123493489Y-66158535D01*
X123495051Y-66162358D01*
X123489376Y-66192935D01*
X123485685Y-66223812D01*
X123483056Y-66226995D01*
X123482303Y-66231055D01*
X123461003Y-66253705D01*
X123441200Y-66277690D01*
X123436377Y-66279892D01*
X123434438Y-66281955D01*
X123428745Y-66283377D01*
X123403791Y-66294774D01*
X123379765Y-66301211D01*
X91350500Y-66301211D01*
X91350500Y-65452591D01*
X123000000Y-65452591D01*
X123000000Y-65597408D01*
X123026211Y-65695234D01*
X123196446Y-65525000D01*
X123166609Y-65495163D01*
X123400000Y-65495163D01*
X123400000Y-65554837D01*
X123422836Y-65609968D01*
X123465032Y-65652164D01*
X123520163Y-65675000D01*
X123579837Y-65675000D01*
X123634968Y-65652164D01*
X123677164Y-65609968D01*
X123700000Y-65554837D01*
X123700000Y-65525000D01*
X123903553Y-65525000D01*
X123903553Y-65525001D01*
X124073785Y-65695233D01*
X124117905Y-65683412D01*
X124182093Y-65683412D01*
X124226212Y-65695233D01*
X124396446Y-65525000D01*
X124366609Y-65495163D01*
X124600000Y-65495163D01*
X124600000Y-65554837D01*
X124622836Y-65609968D01*
X124665032Y-65652164D01*
X124720163Y-65675000D01*
X124779837Y-65675000D01*
X124834968Y-65652164D01*
X124877164Y-65609968D01*
X124900000Y-65554837D01*
X124900000Y-65525000D01*
X125103553Y-65525000D01*
X125103553Y-65525001D01*
X125273786Y-65695234D01*
X125300000Y-65597407D01*
X125300000Y-65452592D01*
X125273786Y-65354765D01*
X125103553Y-65525000D01*
X124900000Y-65525000D01*
X124900000Y-65495163D01*
X124877164Y-65440032D01*
X124834968Y-65397836D01*
X124779837Y-65375000D01*
X124720163Y-65375000D01*
X124665032Y-65397836D01*
X124622836Y-65440032D01*
X124600000Y-65495163D01*
X124366609Y-65495163D01*
X124226211Y-65354764D01*
X124182093Y-65366586D01*
X124117908Y-65366586D01*
X124073787Y-65354764D01*
X123903553Y-65525000D01*
X123700000Y-65525000D01*
X123700000Y-65495163D01*
X123677164Y-65440032D01*
X123634968Y-65397836D01*
X123579837Y-65375000D01*
X123520163Y-65375000D01*
X123465032Y-65397836D01*
X123422836Y-65440032D01*
X123400000Y-65495163D01*
X123166609Y-65495163D01*
X123026212Y-65354765D01*
X123000000Y-65452591D01*
X91350500Y-65452591D01*
X91350500Y-64848787D01*
X123379764Y-64848787D01*
X123391586Y-64892908D01*
X123391586Y-64957093D01*
X123379764Y-65001211D01*
X123550000Y-65171446D01*
X123720233Y-65001212D01*
X123708412Y-64957093D01*
X123708412Y-64941057D01*
X123704222Y-64927950D01*
X123708412Y-64892905D01*
X123720232Y-64848787D01*
X124579764Y-64848787D01*
X124591586Y-64892908D01*
X124591586Y-64957093D01*
X124579764Y-65001211D01*
X124750000Y-65171446D01*
X124920233Y-65001212D01*
X124908412Y-64957093D01*
X124904883Y-64911877D01*
X124912427Y-64840979D01*
X124870704Y-64799256D01*
X138125000Y-64799256D01*
X138125000Y-65100743D01*
X138125001Y-65100759D01*
X138164353Y-65399667D01*
X138242389Y-65690901D01*
X138357765Y-65969443D01*
X138357770Y-65969454D01*
X138508512Y-66230545D01*
X138508523Y-66230561D01*
X138631115Y-66390328D01*
X138631117Y-66390328D01*
X139309728Y-65711716D01*
X139395278Y-65829466D01*
X139545534Y-65979722D01*
X139663281Y-66065270D01*
X138984670Y-66743881D01*
X138984670Y-66743882D01*
X139144438Y-66866476D01*
X139144454Y-66866487D01*
X139405545Y-67017229D01*
X139405556Y-67017234D01*
X139684098Y-67132610D01*
X139975332Y-67210646D01*
X140274240Y-67249998D01*
X140274257Y-67250000D01*
X140575743Y-67250000D01*
X140575759Y-67249998D01*
X140874667Y-67210646D01*
X141165901Y-67132610D01*
X141444443Y-67017234D01*
X141444454Y-67017229D01*
X141705545Y-66866487D01*
X141705553Y-66866481D01*
X141865328Y-66743881D01*
X141186717Y-66065270D01*
X141304466Y-65979722D01*
X141454722Y-65829466D01*
X141540270Y-65711717D01*
X142218881Y-66390328D01*
X142341481Y-66230553D01*
X142341487Y-66230545D01*
X142492229Y-65969454D01*
X142492234Y-65969443D01*
X142607610Y-65690901D01*
X142685646Y-65399667D01*
X142724998Y-65100759D01*
X142725000Y-65100743D01*
X142725000Y-64799256D01*
X142724998Y-64799240D01*
X142685646Y-64500332D01*
X142607610Y-64209098D01*
X142492234Y-63930556D01*
X142492229Y-63930545D01*
X142341487Y-63669454D01*
X142341476Y-63669438D01*
X142218881Y-63509670D01*
X141540270Y-64188281D01*
X141454722Y-64070534D01*
X141304466Y-63920278D01*
X141186716Y-63834728D01*
X141865328Y-63156117D01*
X141865328Y-63156115D01*
X141705561Y-63033523D01*
X141705545Y-63033512D01*
X141444454Y-62882770D01*
X141444443Y-62882765D01*
X141165901Y-62767389D01*
X140874667Y-62689353D01*
X140575759Y-62650001D01*
X140575743Y-62650000D01*
X140274257Y-62650000D01*
X140274240Y-62650001D01*
X139975332Y-62689353D01*
X139684098Y-62767389D01*
X139405556Y-62882765D01*
X139405545Y-62882770D01*
X139144442Y-63033520D01*
X138984670Y-63156116D01*
X138984670Y-63156117D01*
X139663282Y-63834729D01*
X139545534Y-63920278D01*
X139395278Y-64070534D01*
X139309729Y-64188282D01*
X138631117Y-63509670D01*
X138631116Y-63509670D01*
X138508520Y-63669442D01*
X138357770Y-63930545D01*
X138357765Y-63930556D01*
X138242389Y-64209098D01*
X138164353Y-64500332D01*
X138125001Y-64799240D01*
X138125000Y-64799256D01*
X124870704Y-64799256D01*
X124750001Y-64678553D01*
X124579764Y-64848787D01*
X123720232Y-64848787D01*
X123720233Y-64848785D01*
X123550001Y-64678553D01*
X123379764Y-64848787D01*
X91350500Y-64848787D01*
X91350500Y-64252591D01*
X123000000Y-64252591D01*
X123000000Y-64397408D01*
X123026211Y-64495234D01*
X123196446Y-64325000D01*
X123166609Y-64295163D01*
X123400000Y-64295163D01*
X123400000Y-64354837D01*
X123422836Y-64409968D01*
X123465032Y-64452164D01*
X123520163Y-64475000D01*
X123579837Y-64475000D01*
X123634968Y-64452164D01*
X123677164Y-64409968D01*
X123700000Y-64354837D01*
X123700000Y-64325000D01*
X123903553Y-64325000D01*
X123903553Y-64325001D01*
X124073785Y-64495233D01*
X124117905Y-64483412D01*
X124182093Y-64483412D01*
X124226212Y-64495233D01*
X124396446Y-64325000D01*
X124366609Y-64295163D01*
X124600000Y-64295163D01*
X124600000Y-64354837D01*
X124622836Y-64409968D01*
X124665032Y-64452164D01*
X124720163Y-64475000D01*
X124779837Y-64475000D01*
X124834968Y-64452164D01*
X124877164Y-64409968D01*
X124900000Y-64354837D01*
X124900000Y-64325000D01*
X125103553Y-64325000D01*
X125103553Y-64325001D01*
X125273786Y-64495234D01*
X125300000Y-64397407D01*
X125300000Y-64252592D01*
X125273786Y-64154765D01*
X125103553Y-64325000D01*
X124900000Y-64325000D01*
X124900000Y-64295163D01*
X124877164Y-64240032D01*
X124834968Y-64197836D01*
X124779837Y-64175000D01*
X124720163Y-64175000D01*
X124665032Y-64197836D01*
X124622836Y-64240032D01*
X124600000Y-64295163D01*
X124366609Y-64295163D01*
X124226211Y-64154764D01*
X124182093Y-64166586D01*
X124117908Y-64166586D01*
X124073787Y-64154764D01*
X123903553Y-64325000D01*
X123700000Y-64325000D01*
X123700000Y-64295163D01*
X123677164Y-64240032D01*
X123634968Y-64197836D01*
X123579837Y-64175000D01*
X123520163Y-64175000D01*
X123465032Y-64197836D01*
X123422836Y-64240032D01*
X123400000Y-64295163D01*
X123166609Y-64295163D01*
X123026212Y-64154765D01*
X123000000Y-64252591D01*
X91350500Y-64252591D01*
X91350500Y-63801212D01*
X123379765Y-63801212D01*
X123550000Y-63971446D01*
X123720233Y-63801212D01*
X124579765Y-63801212D01*
X124750000Y-63971446D01*
X124920234Y-63801211D01*
X124822408Y-63775000D01*
X124677591Y-63775000D01*
X124579765Y-63801212D01*
X123720233Y-63801212D01*
X123720234Y-63801211D01*
X123622408Y-63775000D01*
X123477591Y-63775000D01*
X123379765Y-63801212D01*
X91350500Y-63801212D01*
X91350500Y-59515551D01*
X91350649Y-59509466D01*
X91356459Y-59391211D01*
X93199500Y-59391211D01*
X93199500Y-59633788D01*
X93231161Y-59874285D01*
X93293947Y-60108604D01*
X93386773Y-60332705D01*
X93386776Y-60332712D01*
X93508064Y-60542789D01*
X93508066Y-60542792D01*
X93508067Y-60542793D01*
X93655733Y-60735236D01*
X93655739Y-60735243D01*
X93827256Y-60906760D01*
X93827262Y-60906765D01*
X94019711Y-61054436D01*
X94229788Y-61175724D01*
X94453900Y-61268554D01*
X94688211Y-61331338D01*
X94868586Y-61355084D01*
X94928711Y-61363000D01*
X94928712Y-61363000D01*
X95171289Y-61363000D01*
X95219388Y-61356667D01*
X95411789Y-61331338D01*
X95415861Y-61330247D01*
X145224500Y-61330247D01*
X145224500Y-62269752D01*
X145236131Y-62328229D01*
X145236132Y-62328230D01*
X145280447Y-62394552D01*
X145346769Y-62438867D01*
X145346770Y-62438868D01*
X145405247Y-62450499D01*
X145405250Y-62450500D01*
X145405252Y-62450500D01*
X147444750Y-62450500D01*
X147444751Y-62450499D01*
X147459568Y-62447552D01*
X147503229Y-62438868D01*
X147503229Y-62438867D01*
X147503231Y-62438867D01*
X147569552Y-62394552D01*
X147613867Y-62328231D01*
X147613867Y-62328229D01*
X147613868Y-62328229D01*
X147625499Y-62269752D01*
X147625500Y-62269750D01*
X147625500Y-61330249D01*
X147625499Y-61330247D01*
X147613868Y-61271770D01*
X147613867Y-61271769D01*
X147569552Y-61205447D01*
X147503230Y-61161132D01*
X147503229Y-61161131D01*
X147444752Y-61149500D01*
X147444748Y-61149500D01*
X145405252Y-61149500D01*
X145405247Y-61149500D01*
X145346770Y-61161131D01*
X145346769Y-61161132D01*
X145280447Y-61205447D01*
X145236132Y-61271769D01*
X145236131Y-61271770D01*
X145224500Y-61330247D01*
X95415861Y-61330247D01*
X95646100Y-61268554D01*
X95723911Y-61236323D01*
X95788431Y-61209599D01*
X95808082Y-61201458D01*
X95870212Y-61175724D01*
X96080289Y-61054436D01*
X96272738Y-60906765D01*
X96444265Y-60735238D01*
X96591936Y-60542789D01*
X96713224Y-60332712D01*
X96806054Y-60108600D01*
X96868838Y-59874289D01*
X96900500Y-59633788D01*
X96900500Y-59391212D01*
X96900500Y-59391211D01*
X175199500Y-59391211D01*
X175199500Y-59633788D01*
X175231161Y-59874285D01*
X175293947Y-60108604D01*
X175386773Y-60332705D01*
X175386776Y-60332712D01*
X175508064Y-60542789D01*
X175508066Y-60542792D01*
X175508067Y-60542793D01*
X175655733Y-60735236D01*
X175655739Y-60735243D01*
X175827256Y-60906760D01*
X175827262Y-60906765D01*
X176019711Y-61054436D01*
X176229788Y-61175724D01*
X176453900Y-61268554D01*
X176688211Y-61331338D01*
X176868586Y-61355084D01*
X176928711Y-61363000D01*
X176928712Y-61363000D01*
X177171289Y-61363000D01*
X177219388Y-61356667D01*
X177411789Y-61331338D01*
X177646100Y-61268554D01*
X177870212Y-61175724D01*
X178080289Y-61054436D01*
X178272738Y-60906765D01*
X178444265Y-60735238D01*
X178591936Y-60542789D01*
X178713224Y-60332712D01*
X178806054Y-60108600D01*
X178868838Y-59874289D01*
X178900500Y-59633788D01*
X178900500Y-59391212D01*
X178899164Y-59381067D01*
X178868838Y-59150714D01*
X178868838Y-59150711D01*
X178806054Y-58916400D01*
X178713224Y-58692288D01*
X178591936Y-58482211D01*
X178444265Y-58289762D01*
X178444260Y-58289756D01*
X178272743Y-58118239D01*
X178272736Y-58118233D01*
X178080293Y-57970567D01*
X178080292Y-57970566D01*
X178080289Y-57970564D01*
X177870212Y-57849276D01*
X177870205Y-57849273D01*
X177646104Y-57756447D01*
X177411785Y-57693661D01*
X177171289Y-57662000D01*
X177171288Y-57662000D01*
X176928712Y-57662000D01*
X176928711Y-57662000D01*
X176688214Y-57693661D01*
X176453895Y-57756447D01*
X176229794Y-57849273D01*
X176229785Y-57849277D01*
X176019706Y-57970567D01*
X175827263Y-58118233D01*
X175827256Y-58118239D01*
X175655739Y-58289756D01*
X175655733Y-58289763D01*
X175508067Y-58482206D01*
X175386777Y-58692285D01*
X175386773Y-58692294D01*
X175293947Y-58916395D01*
X175231161Y-59150714D01*
X175199500Y-59391211D01*
X96900500Y-59391211D01*
X96899164Y-59381067D01*
X96868838Y-59150714D01*
X96868838Y-59150711D01*
X96806054Y-58916400D01*
X96713224Y-58692288D01*
X96591936Y-58482211D01*
X96444265Y-58289762D01*
X96444260Y-58289756D01*
X96272743Y-58118239D01*
X96272736Y-58118233D01*
X96080293Y-57970567D01*
X96080292Y-57970566D01*
X96080289Y-57970564D01*
X95870212Y-57849276D01*
X95870205Y-57849273D01*
X95646104Y-57756447D01*
X95411785Y-57693661D01*
X95171289Y-57662000D01*
X95171288Y-57662000D01*
X94928712Y-57662000D01*
X94928711Y-57662000D01*
X94688214Y-57693661D01*
X94453895Y-57756447D01*
X94229794Y-57849273D01*
X94229785Y-57849277D01*
X94019706Y-57970567D01*
X93827263Y-58118233D01*
X93827256Y-58118239D01*
X93655739Y-58289756D01*
X93655733Y-58289763D01*
X93508067Y-58482206D01*
X93386777Y-58692285D01*
X93386773Y-58692294D01*
X93293947Y-58916395D01*
X93231161Y-59150714D01*
X93199500Y-59391211D01*
X91356459Y-59391211D01*
X91356957Y-59381068D01*
X91356957Y-59381067D01*
X91368015Y-59155969D01*
X91369208Y-59143859D01*
X91420691Y-58796787D01*
X91423061Y-58784867D01*
X91508322Y-58444486D01*
X91511852Y-58432853D01*
X91563054Y-58289756D01*
X91630055Y-58102499D01*
X91634710Y-58091262D01*
X91691795Y-57970564D01*
X91784735Y-57774057D01*
X91790454Y-57763357D01*
X91970851Y-57462384D01*
X91977594Y-57452291D01*
X92186630Y-57170439D01*
X92194333Y-57161054D01*
X92429983Y-56901053D01*
X92438553Y-56892483D01*
X92698554Y-56656833D01*
X92707939Y-56649130D01*
X92989791Y-56440094D01*
X92999884Y-56433351D01*
X93300857Y-56252954D01*
X93311557Y-56247235D01*
X93628762Y-56097210D01*
X93639999Y-56092555D01*
X93970361Y-55974349D01*
X93981986Y-55970822D01*
X94322367Y-55885561D01*
X94334278Y-55883192D01*
X94681359Y-55831707D01*
X94693465Y-55830515D01*
X95046967Y-55813148D01*
X95053051Y-55813000D01*
X95097595Y-55813000D01*
X177002405Y-55813000D01*
X177046949Y-55813000D01*
X177053032Y-55813148D01*
G37*
G04 #@! TD.AperFunction*
G04 #@! TD*
M02*
