G04 #@! TF.GenerationSoftware,KiCad,Pcbnew,9.0.2*
G04 #@! TF.CreationDate,2026-08-22T16:09:29-07:00*
G04 #@! TF.ProjectId,FlightControllerv1.0,466c6967-6874-4436-9f6e-74726f6c6c65,rev?*
G04 #@! TF.SameCoordinates,Original*
G04 #@! TF.FileFunction,Copper,L2,Inr*
G04 #@! TF.FilePolarity,Positive*
%FSLAX46Y46*%
G04 Gerber Fmt 4.6, Leading zero omitted, Abs format (unit mm)*
G04 Created by KiCad (PCBNEW 9.0.2) date 2026-08-22 16:09:29*
%MOMM*%
%LPD*%
G01*
G04 APERTURE LIST*
G04 Aperture macros list*
%AMRoundRect*
0 Rectangle with rounded corners*
0 $1 Rounding radius*
0 $2 $3 $4 $5 $6 $7 $8 $9 X,Y pos of 4 corners*
0 Add a 4 corners polygon primitive as box body*
4,1,4,$2,$3,$4,$5,$6,$7,$8,$9,$2,$3,0*
0 Add four circle primitives for the rounded corners*
1,1,$1+$1,$2,$3*
1,1,$1+$1,$4,$5*
1,1,$1+$1,$6,$7*
1,1,$1+$1,$8,$9*
0 Add four rect primitives between the rounded corners*
20,1,$1+$1,$2,$3,$4,$5,0*
20,1,$1+$1,$4,$5,$6,$7,0*
20,1,$1+$1,$6,$7,$8,$9,0*
20,1,$1+$1,$8,$9,$2,$3,0*%
G04 Aperture macros list end*
G04 #@! TA.AperFunction,ComponentPad*
%ADD10R,1.000000X1.000000*%
G04 #@! TD*
G04 #@! TA.AperFunction,ComponentPad*
%ADD11C,1.000000*%
G04 #@! TD*
G04 #@! TA.AperFunction,ComponentPad*
%ADD12R,1.700000X1.700000*%
G04 #@! TD*
G04 #@! TA.AperFunction,ComponentPad*
%ADD13C,1.700000*%
G04 #@! TD*
G04 #@! TA.AperFunction,ComponentPad*
%ADD14C,0.600000*%
G04 #@! TD*
G04 #@! TA.AperFunction,ComponentPad*
%ADD15R,2.000000X0.900000*%
G04 #@! TD*
G04 #@! TA.AperFunction,ComponentPad*
%ADD16RoundRect,1.025000X-1.025000X1.025000X-1.025000X-1.025000X1.025000X-1.025000X1.025000X1.025000X0*%
G04 #@! TD*
G04 #@! TA.AperFunction,ComponentPad*
%ADD17C,4.100000*%
G04 #@! TD*
G04 #@! TA.AperFunction,ViaPad*
%ADD18C,0.600000*%
G04 #@! TD*
G04 #@! TA.AperFunction,ViaPad*
%ADD19C,1.000000*%
G04 #@! TD*
G04 APERTURE END LIST*
D10*
G04 #@! TO.N,+3V3*
G04 #@! TO.C,J5*
X160975000Y-118450000D03*
D11*
G04 #@! TO.N,/SWDIO*
X159705000Y-118450000D03*
G04 #@! TO.N,Net-(J5-Pin_10)*
X160975000Y-117180000D03*
G04 #@! TO.N,/SWDCLK*
X159705000Y-117180000D03*
G04 #@! TO.N,GND*
X160975000Y-115910000D03*
G04 #@! TO.N,unconnected-(J5-Pin_6-Pad6)*
X159705000Y-115910000D03*
G04 #@! TO.N,unconnected-(J5-Pin_7-Pad7)*
X160975000Y-114640000D03*
G04 #@! TO.N,unconnected-(J5-Pin_8-Pad8)*
X159705000Y-114640000D03*
G04 #@! TO.N,unconnected-(J5-Pin_9-Pad9)*
X160975000Y-113370000D03*
G04 #@! TO.N,Net-(J5-Pin_10)*
X159705000Y-113370000D03*
G04 #@! TD*
D12*
G04 #@! TO.N,+3V3*
G04 #@! TO.C,J1*
X108170000Y-116180000D03*
D13*
G04 #@! TO.N,/JETSON_TX*
X108170000Y-118720000D03*
G04 #@! TO.N,/JETSON_RX*
X108170000Y-121260000D03*
G04 #@! TO.N,GND*
X108170000Y-123800000D03*
G04 #@! TD*
D12*
G04 #@! TO.N,+3V3*
G04 #@! TO.C,J4*
X143100000Y-142275000D03*
D13*
G04 #@! TO.N,/RC_TX*
X145640000Y-142275000D03*
G04 #@! TO.N,/RC_RX*
X148180000Y-142275000D03*
G04 #@! TO.N,GND*
X150720000Y-142275000D03*
G04 #@! TD*
D12*
G04 #@! TO.N,/PWM1_MOTOR1*
G04 #@! TO.C,J2*
X125145000Y-142375000D03*
D13*
G04 #@! TO.N,GND*
X125145000Y-139835000D03*
G04 #@! TO.N,/PWM2_MOTOR2*
X127685000Y-142375000D03*
G04 #@! TO.N,GND*
X127685000Y-139835000D03*
G04 #@! TO.N,/PWM3_MOTOR3*
X130225000Y-142375000D03*
G04 #@! TO.N,GND*
X130225000Y-139835000D03*
G04 #@! TO.N,/PWM4_MOTOR4*
X132765000Y-142375000D03*
G04 #@! TO.N,GND*
X132765000Y-139835000D03*
G04 #@! TD*
D14*
G04 #@! TO.N,GND*
G04 #@! TO.C,U10*
X123550000Y-64325000D03*
X123550000Y-65525000D03*
X123550000Y-66825000D03*
X123550000Y-67925000D03*
X124750000Y-64325000D03*
X124750000Y-65525000D03*
X124750000Y-66825000D03*
X124750000Y-67925000D03*
G04 #@! TD*
D15*
G04 #@! TO.N,*
G04 #@! TO.C,J3*
X146425000Y-61800000D03*
X146425000Y-75300000D03*
D16*
G04 #@! TO.N,VBAT*
X140425000Y-72150000D03*
D17*
G04 #@! TO.N,GND*
X140425000Y-64950000D03*
G04 #@! TD*
D18*
G04 #@! TO.N,GND*
X139275000Y-109100000D03*
X139300000Y-110850000D03*
G04 #@! TO.N,+3V3*
X130200000Y-126050000D03*
X125800000Y-131350000D03*
X115000000Y-105850000D03*
X150375000Y-130175000D03*
X151112080Y-133018095D03*
D19*
X105100000Y-76375000D03*
D18*
X143450000Y-115350000D03*
X154950000Y-128150000D03*
X124600000Y-90000000D03*
X142975000Y-97375000D03*
X146275000Y-125900000D03*
X123225000Y-96725000D03*
X133275000Y-112925000D03*
X119400000Y-101150000D03*
X154950000Y-136025000D03*
X142825000Y-124375000D03*
X140450000Y-135400000D03*
X145625000Y-103475000D03*
X138950000Y-94000000D03*
X131975000Y-120725000D03*
X157736949Y-94125906D03*
X124919813Y-113367876D03*
X118850000Y-98550000D03*
X141700000Y-122975000D03*
G04 #@! TO.N,+3.3VA*
X123175000Y-106775000D03*
X121050000Y-115875000D03*
G04 #@! TO.N,/F103_OSC_OUT*
X129900000Y-127125000D03*
X134100000Y-128575000D03*
G04 #@! TO.N,/SWDIO*
X135950000Y-103375000D03*
X148900000Y-125950000D03*
G04 #@! TO.N,IMU1_INT*
X145100000Y-99000000D03*
X125125000Y-107325000D03*
G04 #@! TO.N,IMU2_INT*
X125850000Y-107975000D03*
X146525000Y-115500000D03*
G04 #@! TO.N,MAG_RST*
X124825000Y-101850000D03*
X154775000Y-124500000D03*
G04 #@! TO.N,MAG_SDA*
X152600000Y-127025000D03*
X127190682Y-96284388D03*
X126600000Y-101200000D03*
G04 #@! TO.N,MAG_SCL*
X141450000Y-116475000D03*
X129301373Y-105950959D03*
X133319387Y-109912823D03*
X148000000Y-128225000D03*
G04 #@! TO.N,BATT_ALERT*
X120700000Y-95600000D03*
X124175000Y-100700000D03*
G04 #@! TO.N,IMU_MOSI*
X157625000Y-104475000D03*
X133803168Y-116430238D03*
X163425000Y-95900000D03*
X138400000Y-104600000D03*
X139400000Y-107500000D03*
X138612500Y-114537500D03*
G04 #@! TO.N,IMU2_CS*
X139475000Y-105975000D03*
X148450000Y-114050000D03*
G04 #@! TO.N,/UART_RX*
X139150000Y-131325000D03*
X135075000Y-103825000D03*
G04 #@! TO.N,/UART_TX*
X137500000Y-131275000D03*
X135875000Y-115325000D03*
X135875000Y-119575000D03*
X134450000Y-104675000D03*
G04 #@! TO.N,IMU_MISO*
X133844190Y-117538846D03*
X145975000Y-112975000D03*
X150427258Y-116095483D03*
X139175000Y-115175000D03*
G04 #@! TO.N,IMU_SCLK*
X133800000Y-118825000D03*
X146350000Y-94250000D03*
X139775000Y-115750000D03*
X149525000Y-93550000D03*
G04 #@! TO.N,MAG_DRDY*
X155425000Y-125975000D03*
X123083766Y-102008258D03*
X151175000Y-123750000D03*
X134725000Y-126900000D03*
G04 #@! TO.N,IMU1_CS*
X138500000Y-102775000D03*
X128225000Y-104925000D03*
G04 #@! TO.N,GND*
X122775000Y-138700000D03*
X141600000Y-125025000D03*
X131175000Y-127000000D03*
X158575000Y-96550000D03*
X157125000Y-119550000D03*
X124120877Y-113190273D03*
X159025000Y-134675000D03*
X154700000Y-129550000D03*
X146875000Y-139650000D03*
X115725000Y-102250000D03*
X146850000Y-124825000D03*
X151625000Y-139950000D03*
X123625000Y-95925000D03*
X109125000Y-56475000D03*
X125000000Y-137575000D03*
X156050000Y-107275000D03*
X114825000Y-117725000D03*
X136700000Y-61150000D03*
X116325000Y-103075000D03*
X135825000Y-97250000D03*
X158575000Y-125800000D03*
X150550000Y-139950000D03*
X143925000Y-124775000D03*
X140825000Y-98725000D03*
X130425000Y-116275000D03*
X152925000Y-119600000D03*
X101825000Y-74500000D03*
X143950000Y-65550000D03*
X143875000Y-116075000D03*
X159575000Y-99650000D03*
X124100000Y-96875000D03*
X145075000Y-100000000D03*
X124850000Y-72000000D03*
X134625000Y-125950000D03*
X143425000Y-111350000D03*
X145100000Y-122175000D03*
X124250000Y-92575000D03*
X120150000Y-112225000D03*
X153100000Y-141850000D03*
X153150000Y-142850000D03*
X131150000Y-119700000D03*
X122225000Y-98900000D03*
X123725000Y-89050000D03*
X129150000Y-67450000D03*
X125225000Y-89150000D03*
X152250000Y-128650000D03*
X116950000Y-104975000D03*
X151075000Y-133975000D03*
X109550000Y-105375000D03*
X156550000Y-103475000D03*
X153025000Y-135200000D03*
X146950000Y-98775000D03*
X132700000Y-135725000D03*
X144075000Y-63850000D03*
X140400000Y-99825000D03*
X98100000Y-68150000D03*
X148775000Y-100625000D03*
X125237369Y-87283976D03*
X125775000Y-80825000D03*
X110525000Y-124425000D03*
X141725000Y-113450000D03*
X128750000Y-126450000D03*
X142600000Y-108100000D03*
X119225000Y-66150000D03*
X129600000Y-113225000D03*
X157775000Y-94925003D03*
D19*
X122850000Y-58400000D03*
D18*
X136700000Y-99025000D03*
X157000000Y-99800000D03*
X119700000Y-102550000D03*
X155100000Y-132700000D03*
X158525000Y-122025000D03*
X148250000Y-116075000D03*
X126825000Y-82325000D03*
X148425000Y-119800000D03*
D19*
X132025000Y-68000000D03*
D18*
X107475000Y-126425000D03*
X154375000Y-99800000D03*
X150750000Y-104200000D03*
X137350000Y-120625000D03*
X123050000Y-87500000D03*
X135050000Y-119500000D03*
X147500000Y-110550000D03*
X138675000Y-59525000D03*
X101175000Y-57550000D03*
X124350000Y-94875000D03*
X162350000Y-104575000D03*
X125050000Y-76050000D03*
X101425000Y-90825000D03*
X132575000Y-112400000D03*
X131650000Y-118200000D03*
X156225000Y-135375000D03*
X126150000Y-107025000D03*
X130150000Y-135775000D03*
X139500000Y-135200000D03*
X117900000Y-106075000D03*
X153975000Y-135950000D03*
D19*
X125975000Y-74025000D03*
D18*
X129175000Y-129075000D03*
X109750000Y-102250000D03*
X158925000Y-106200000D03*
X150600000Y-124800000D03*
X163700000Y-101150000D03*
X130075000Y-137325000D03*
X118050000Y-105075000D03*
X127475000Y-135825000D03*
X135550000Y-100850000D03*
X116850000Y-85950000D03*
X131950000Y-125025000D03*
X126950000Y-79250000D03*
X110950000Y-68750000D03*
X150075000Y-111125000D03*
X132650000Y-137300000D03*
X133970000Y-99320000D03*
X146475000Y-105150000D03*
X122750000Y-139700000D03*
X154225000Y-133325000D03*
X102275000Y-70500000D03*
X110500000Y-123325000D03*
X145275000Y-104250000D03*
X142075000Y-97450000D03*
X118025000Y-98550000D03*
X103825000Y-76870000D03*
X108725000Y-126400000D03*
X146900000Y-136925000D03*
X150350000Y-128625000D03*
X140325000Y-59500000D03*
X136675000Y-63225000D03*
X123325000Y-127975000D03*
X127200000Y-128250000D03*
X142550000Y-120075000D03*
X128755000Y-89455000D03*
X129375000Y-97400000D03*
D19*
X136275000Y-64775000D03*
D18*
X130225000Y-89225000D03*
X124800000Y-131200000D03*
X127500000Y-137325000D03*
X150500000Y-112850000D03*
G04 #@! TD*
G04 #@! TA.AperFunction,Conductor*
G04 #@! TO.N,GND*
G36*
X177053032Y-55813148D02*
G01*
X177406532Y-55830515D01*
X177418640Y-55831708D01*
X177527576Y-55847867D01*
X177765717Y-55883192D01*
X177777635Y-55885562D01*
X178118008Y-55970821D01*
X178129646Y-55974352D01*
X178459996Y-56092554D01*
X178471237Y-56097210D01*
X178696857Y-56203919D01*
X178788433Y-56247231D01*
X178799150Y-56252959D01*
X179100102Y-56433343D01*
X179110220Y-56440103D01*
X179392049Y-56649122D01*
X179401455Y-56656842D01*
X179661436Y-56892474D01*
X179670025Y-56901063D01*
X179831782Y-57079535D01*
X179905657Y-57161044D01*
X179913377Y-57170450D01*
X180122396Y-57452279D01*
X180129156Y-57462397D01*
X180305402Y-57756446D01*
X180309533Y-57763337D01*
X180315270Y-57774070D01*
X180465289Y-58091262D01*
X180469945Y-58102503D01*
X180588147Y-58432853D01*
X180591680Y-58444498D01*
X180676934Y-58784851D01*
X180679308Y-58796787D01*
X180730791Y-59143859D01*
X180731984Y-59155968D01*
X180749351Y-59509466D01*
X180749500Y-59515551D01*
X180749500Y-141509448D01*
X180749351Y-141515533D01*
X180731984Y-141869031D01*
X180730791Y-141881140D01*
X180679308Y-142228212D01*
X180676934Y-142240148D01*
X180591680Y-142580501D01*
X180588147Y-142592146D01*
X180469945Y-142922496D01*
X180465289Y-142933737D01*
X180315270Y-143250929D01*
X180309533Y-143261662D01*
X180129156Y-143562602D01*
X180122396Y-143572720D01*
X179913377Y-143854549D01*
X179905657Y-143863955D01*
X179670033Y-144123928D01*
X179661428Y-144132533D01*
X179401455Y-144368157D01*
X179392049Y-144375877D01*
X179110220Y-144584896D01*
X179100102Y-144591656D01*
X178799162Y-144772033D01*
X178788429Y-144777770D01*
X178471237Y-144927789D01*
X178459996Y-144932445D01*
X178129646Y-145050647D01*
X178118001Y-145054180D01*
X177777648Y-145139434D01*
X177765712Y-145141808D01*
X177418640Y-145193291D01*
X177406531Y-145194484D01*
X177073016Y-145210869D01*
X177053031Y-145211851D01*
X177046949Y-145212000D01*
X95053051Y-145212000D01*
X95046968Y-145211851D01*
X95025811Y-145210811D01*
X94693468Y-145194484D01*
X94681359Y-145193291D01*
X94334287Y-145141808D01*
X94322351Y-145139434D01*
X93981998Y-145054180D01*
X93970353Y-145050647D01*
X93640003Y-144932445D01*
X93628762Y-144927789D01*
X93311570Y-144777770D01*
X93300842Y-144772035D01*
X92999897Y-144591656D01*
X92989779Y-144584896D01*
X92707950Y-144375877D01*
X92698544Y-144368157D01*
X92582295Y-144262796D01*
X92438563Y-144132525D01*
X92429974Y-144123936D01*
X92194342Y-143863955D01*
X92186622Y-143854549D01*
X91977603Y-143572720D01*
X91970843Y-143562602D01*
X91888667Y-143425500D01*
X91790459Y-143261650D01*
X91784729Y-143250929D01*
X91765981Y-143211290D01*
X91709077Y-143090974D01*
X91634710Y-142933737D01*
X91630054Y-142922496D01*
X91511852Y-142592146D01*
X91508319Y-142580501D01*
X91498873Y-142542789D01*
X91423062Y-142240135D01*
X91420691Y-142228212D01*
X91369208Y-141881140D01*
X91368015Y-141869030D01*
X91350649Y-141515532D01*
X91350500Y-141509448D01*
X91350500Y-141391211D01*
X93199500Y-141391211D01*
X93199500Y-141633788D01*
X93231161Y-141874285D01*
X93293947Y-142108604D01*
X93386773Y-142332705D01*
X93386777Y-142332714D01*
X93403438Y-142361571D01*
X93508064Y-142542789D01*
X93508066Y-142542792D01*
X93508067Y-142542793D01*
X93655733Y-142735236D01*
X93655739Y-142735243D01*
X93827256Y-142906760D01*
X93827263Y-142906766D01*
X93876641Y-142944655D01*
X94019711Y-143054436D01*
X94229788Y-143175724D01*
X94453900Y-143268554D01*
X94688211Y-143331338D01*
X94868586Y-143355084D01*
X94928711Y-143363000D01*
X94928712Y-143363000D01*
X95171289Y-143363000D01*
X95219388Y-143356667D01*
X95411789Y-143331338D01*
X95646100Y-143268554D01*
X95870212Y-143175724D01*
X96080289Y-143054436D01*
X96272738Y-142906765D01*
X96444265Y-142735238D01*
X96591936Y-142542789D01*
X96713224Y-142332712D01*
X96806054Y-142108600D01*
X96868838Y-141874289D01*
X96900500Y-141633788D01*
X96900500Y-141505247D01*
X124094500Y-141505247D01*
X124094500Y-143244752D01*
X124106131Y-143303229D01*
X124106132Y-143303230D01*
X124150447Y-143369552D01*
X124216769Y-143413867D01*
X124216770Y-143413868D01*
X124275247Y-143425499D01*
X124275250Y-143425500D01*
X124275252Y-143425500D01*
X126014750Y-143425500D01*
X126014751Y-143425499D01*
X126029568Y-143422552D01*
X126073229Y-143413868D01*
X126073229Y-143413867D01*
X126073231Y-143413867D01*
X126139552Y-143369552D01*
X126183867Y-143303231D01*
X126183867Y-143303229D01*
X126183868Y-143303229D01*
X126194173Y-143251418D01*
X126195500Y-143244748D01*
X126195500Y-142271530D01*
X126634500Y-142271530D01*
X126634500Y-142478469D01*
X126674868Y-142681412D01*
X126674870Y-142681420D01*
X126712636Y-142772596D01*
X126754059Y-142872598D01*
X126802206Y-142944655D01*
X126869024Y-143044657D01*
X127015342Y-143190975D01*
X127015345Y-143190977D01*
X127187402Y-143305941D01*
X127378580Y-143385130D01*
X127523052Y-143413867D01*
X127581530Y-143425499D01*
X127581534Y-143425500D01*
X127581535Y-143425500D01*
X127788466Y-143425500D01*
X127788467Y-143425499D01*
X127991420Y-143385130D01*
X128182598Y-143305941D01*
X128354655Y-143190977D01*
X128500977Y-143044655D01*
X128615941Y-142872598D01*
X128695130Y-142681420D01*
X128735500Y-142478465D01*
X128735500Y-142271535D01*
X128735499Y-142271530D01*
X129174500Y-142271530D01*
X129174500Y-142478469D01*
X129214868Y-142681412D01*
X129214870Y-142681420D01*
X129252636Y-142772596D01*
X129294059Y-142872598D01*
X129342206Y-142944655D01*
X129409024Y-143044657D01*
X129555342Y-143190975D01*
X129555345Y-143190977D01*
X129727402Y-143305941D01*
X129918580Y-143385130D01*
X130063052Y-143413867D01*
X130121530Y-143425499D01*
X130121534Y-143425500D01*
X130121535Y-143425500D01*
X130328466Y-143425500D01*
X130328467Y-143425499D01*
X130531420Y-143385130D01*
X130722598Y-143305941D01*
X130894655Y-143190977D01*
X131040977Y-143044655D01*
X131155941Y-142872598D01*
X131235130Y-142681420D01*
X131275500Y-142478465D01*
X131275500Y-142271535D01*
X131275499Y-142271530D01*
X131714500Y-142271530D01*
X131714500Y-142478469D01*
X131754868Y-142681412D01*
X131754870Y-142681420D01*
X131792636Y-142772596D01*
X131834059Y-142872598D01*
X131882206Y-142944655D01*
X131949024Y-143044657D01*
X132095342Y-143190975D01*
X132095345Y-143190977D01*
X132267402Y-143305941D01*
X132458580Y-143385130D01*
X132603052Y-143413867D01*
X132661530Y-143425499D01*
X132661534Y-143425500D01*
X132661535Y-143425500D01*
X132868466Y-143425500D01*
X132868467Y-143425499D01*
X133071420Y-143385130D01*
X133262598Y-143305941D01*
X133434655Y-143190977D01*
X133580977Y-143044655D01*
X133695941Y-142872598D01*
X133775130Y-142681420D01*
X133815500Y-142478465D01*
X133815500Y-142271535D01*
X133775130Y-142068580D01*
X133695941Y-141877402D01*
X133580977Y-141705345D01*
X133580975Y-141705342D01*
X133434658Y-141559025D01*
X133434650Y-141559019D01*
X133349781Y-141502311D01*
X133349707Y-141502263D01*
X133293796Y-141464905D01*
X133262598Y-141444059D01*
X133168898Y-141405247D01*
X142049500Y-141405247D01*
X142049500Y-143144752D01*
X142061131Y-143203229D01*
X142061132Y-143203230D01*
X142105447Y-143269552D01*
X142171769Y-143313867D01*
X142171770Y-143313868D01*
X142230247Y-143325499D01*
X142230250Y-143325500D01*
X142230252Y-143325500D01*
X143969750Y-143325500D01*
X143969751Y-143325499D01*
X143984568Y-143322552D01*
X144028229Y-143313868D01*
X144028229Y-143313867D01*
X144028231Y-143313867D01*
X144094552Y-143269552D01*
X144138867Y-143203231D01*
X144138867Y-143203229D01*
X144138868Y-143203229D01*
X144150499Y-143144752D01*
X144150500Y-143144750D01*
X144150500Y-142171530D01*
X144589500Y-142171530D01*
X144589500Y-142378469D01*
X144629868Y-142581412D01*
X144629870Y-142581420D01*
X144709058Y-142772596D01*
X144824024Y-142944657D01*
X144970342Y-143090975D01*
X144970345Y-143090977D01*
X145142402Y-143205941D01*
X145333580Y-143285130D01*
X145478052Y-143313867D01*
X145536530Y-143325499D01*
X145536534Y-143325500D01*
X145536535Y-143325500D01*
X145743466Y-143325500D01*
X145743467Y-143325499D01*
X145946420Y-143285130D01*
X146137598Y-143205941D01*
X146309655Y-143090977D01*
X146455977Y-142944655D01*
X146570941Y-142772598D01*
X146650130Y-142581420D01*
X146690500Y-142378465D01*
X146690500Y-142171535D01*
X146690499Y-142171530D01*
X147129500Y-142171530D01*
X147129500Y-142378469D01*
X147169868Y-142581412D01*
X147169870Y-142581420D01*
X147249058Y-142772596D01*
X147364024Y-142944657D01*
X147510342Y-143090975D01*
X147510345Y-143090977D01*
X147682402Y-143205941D01*
X147873580Y-143285130D01*
X148018052Y-143313867D01*
X148076530Y-143325499D01*
X148076534Y-143325500D01*
X148076535Y-143325500D01*
X148283466Y-143325500D01*
X148283467Y-143325499D01*
X148486420Y-143285130D01*
X148677598Y-143205941D01*
X148849655Y-143090977D01*
X148849658Y-143090974D01*
X148864284Y-143076349D01*
X148995974Y-142944658D01*
X148995975Y-142944657D01*
X148995977Y-142944655D01*
X149110941Y-142772598D01*
X149190130Y-142581420D01*
X149230500Y-142378465D01*
X149230500Y-142188428D01*
X149620000Y-142188428D01*
X149620000Y-142361571D01*
X149647085Y-142532584D01*
X149700592Y-142697259D01*
X149779196Y-142851525D01*
X149783709Y-142857736D01*
X149783709Y-142857737D01*
X150237037Y-142404409D01*
X150254075Y-142467993D01*
X150319901Y-142582007D01*
X150412993Y-142675099D01*
X150527007Y-142740925D01*
X150590589Y-142757962D01*
X150137261Y-143211289D01*
X150137262Y-143211290D01*
X150143471Y-143215801D01*
X150297742Y-143294408D01*
X150462415Y-143347914D01*
X150633429Y-143375000D01*
X150806571Y-143375000D01*
X150977584Y-143347914D01*
X151142257Y-143294408D01*
X151296525Y-143215803D01*
X151302736Y-143211289D01*
X151302737Y-143211289D01*
X150849410Y-142757962D01*
X150912993Y-142740925D01*
X151027007Y-142675099D01*
X151120099Y-142582007D01*
X151185925Y-142467993D01*
X151202962Y-142404409D01*
X151656289Y-142857736D01*
X151660803Y-142851525D01*
X151739408Y-142697257D01*
X151792914Y-142532584D01*
X151820000Y-142361571D01*
X151820000Y-142188428D01*
X151792914Y-142017415D01*
X151739408Y-141852742D01*
X151660801Y-141698471D01*
X151656290Y-141692262D01*
X151656289Y-141692261D01*
X151202962Y-142145589D01*
X151185925Y-142082007D01*
X151120099Y-141967993D01*
X151027007Y-141874901D01*
X150912993Y-141809075D01*
X150849409Y-141792037D01*
X151250235Y-141391211D01*
X175199500Y-141391211D01*
X175199500Y-141633788D01*
X175231161Y-141874285D01*
X175293947Y-142108604D01*
X175386773Y-142332705D01*
X175386777Y-142332714D01*
X175403438Y-142361571D01*
X175508064Y-142542789D01*
X175508066Y-142542792D01*
X175508067Y-142542793D01*
X175655733Y-142735236D01*
X175655739Y-142735243D01*
X175827256Y-142906760D01*
X175827263Y-142906766D01*
X175876641Y-142944655D01*
X176019711Y-143054436D01*
X176229788Y-143175724D01*
X176453900Y-143268554D01*
X176688211Y-143331338D01*
X176868586Y-143355084D01*
X176928711Y-143363000D01*
X176928712Y-143363000D01*
X177171289Y-143363000D01*
X177219388Y-143356667D01*
X177411789Y-143331338D01*
X177646100Y-143268554D01*
X177870212Y-143175724D01*
X178080289Y-143054436D01*
X178272738Y-142906765D01*
X178444265Y-142735238D01*
X178591936Y-142542789D01*
X178713224Y-142332712D01*
X178806054Y-142108600D01*
X178868838Y-141874289D01*
X178900500Y-141633788D01*
X178900500Y-141391212D01*
X178868838Y-141150711D01*
X178806054Y-140916400D01*
X178713224Y-140692288D01*
X178591936Y-140482211D01*
X178444265Y-140289762D01*
X178444260Y-140289756D01*
X178272743Y-140118239D01*
X178272736Y-140118233D01*
X178080293Y-139970567D01*
X178080292Y-139970566D01*
X178080289Y-139970564D01*
X177908661Y-139871474D01*
X177870214Y-139849277D01*
X177870205Y-139849273D01*
X177646104Y-139756447D01*
X177411785Y-139693661D01*
X177171289Y-139662000D01*
X177171288Y-139662000D01*
X176928712Y-139662000D01*
X176928711Y-139662000D01*
X176688214Y-139693661D01*
X176453895Y-139756447D01*
X176229794Y-139849273D01*
X176229785Y-139849277D01*
X176019706Y-139970567D01*
X175827263Y-140118233D01*
X175827256Y-140118239D01*
X175655739Y-140289756D01*
X175655733Y-140289763D01*
X175508067Y-140482206D01*
X175386777Y-140692285D01*
X175386773Y-140692294D01*
X175293947Y-140916395D01*
X175231161Y-141150714D01*
X175199500Y-141391211D01*
X151250235Y-141391211D01*
X151302737Y-141338709D01*
X151296525Y-141334196D01*
X151142259Y-141255592D01*
X150977584Y-141202085D01*
X150806571Y-141175000D01*
X150633429Y-141175000D01*
X150462415Y-141202085D01*
X150297740Y-141255592D01*
X150143480Y-141334193D01*
X150143463Y-141334203D01*
X150137261Y-141338708D01*
X150137261Y-141338709D01*
X150590590Y-141792037D01*
X150527007Y-141809075D01*
X150412993Y-141874901D01*
X150319901Y-141967993D01*
X150254075Y-142082007D01*
X150237037Y-142145590D01*
X149783709Y-141692261D01*
X149783708Y-141692261D01*
X149779203Y-141698463D01*
X149779193Y-141698480D01*
X149700592Y-141852740D01*
X149647085Y-142017415D01*
X149620000Y-142188428D01*
X149230500Y-142188428D01*
X149230500Y-142171535D01*
X149190130Y-141968580D01*
X149110941Y-141777402D01*
X148995977Y-141605345D01*
X148995975Y-141605342D01*
X148849657Y-141459024D01*
X148681655Y-141346770D01*
X148677598Y-141344059D01*
X148658458Y-141336131D01*
X148486420Y-141264870D01*
X148486412Y-141264868D01*
X148283469Y-141224500D01*
X148283465Y-141224500D01*
X148076535Y-141224500D01*
X148076530Y-141224500D01*
X147873587Y-141264868D01*
X147873579Y-141264870D01*
X147682403Y-141344058D01*
X147510342Y-141459024D01*
X147364024Y-141605342D01*
X147249058Y-141777403D01*
X147169870Y-141968579D01*
X147169868Y-141968587D01*
X147129500Y-142171530D01*
X146690499Y-142171530D01*
X146650130Y-141968580D01*
X146570941Y-141777402D01*
X146455977Y-141605345D01*
X146455975Y-141605342D01*
X146309657Y-141459024D01*
X146141655Y-141346770D01*
X146137598Y-141344059D01*
X146118458Y-141336131D01*
X145946420Y-141264870D01*
X145946412Y-141264868D01*
X145743469Y-141224500D01*
X145743465Y-141224500D01*
X145536535Y-141224500D01*
X145536530Y-141224500D01*
X145333587Y-141264868D01*
X145333579Y-141264870D01*
X145142403Y-141344058D01*
X144970342Y-141459024D01*
X144824024Y-141605342D01*
X144709058Y-141777403D01*
X144629870Y-141968579D01*
X144629868Y-141968587D01*
X144589500Y-142171530D01*
X144150500Y-142171530D01*
X144150500Y-141405249D01*
X144150499Y-141405247D01*
X144138868Y-141346770D01*
X144138867Y-141346769D01*
X144094552Y-141280447D01*
X144028230Y-141236132D01*
X144028229Y-141236131D01*
X143969752Y-141224500D01*
X143969748Y-141224500D01*
X142230252Y-141224500D01*
X142230247Y-141224500D01*
X142171770Y-141236131D01*
X142171769Y-141236132D01*
X142105447Y-141280447D01*
X142061132Y-141346769D01*
X142061131Y-141346770D01*
X142049500Y-141405247D01*
X133168898Y-141405247D01*
X133135012Y-141391211D01*
X133071420Y-141364870D01*
X133071412Y-141364868D01*
X132868469Y-141324500D01*
X132868465Y-141324500D01*
X132661535Y-141324500D01*
X132661530Y-141324500D01*
X132458587Y-141364868D01*
X132458579Y-141364870D01*
X132267403Y-141444058D01*
X132095342Y-141559024D01*
X131949024Y-141705342D01*
X131834058Y-141877403D01*
X131754870Y-142068579D01*
X131754868Y-142068587D01*
X131714500Y-142271530D01*
X131275499Y-142271530D01*
X131235130Y-142068580D01*
X131155941Y-141877402D01*
X131040977Y-141705345D01*
X131040975Y-141705342D01*
X130894657Y-141559024D01*
X130753796Y-141464905D01*
X130722598Y-141444059D01*
X130595012Y-141391211D01*
X130531420Y-141364870D01*
X130531412Y-141364868D01*
X130328469Y-141324500D01*
X130328465Y-141324500D01*
X130121535Y-141324500D01*
X130121530Y-141324500D01*
X129918587Y-141364868D01*
X129918579Y-141364870D01*
X129727403Y-141444058D01*
X129555342Y-141559024D01*
X129409024Y-141705342D01*
X129294058Y-141877403D01*
X129214870Y-142068579D01*
X129214868Y-142068587D01*
X129174500Y-142271530D01*
X128735499Y-142271530D01*
X128695130Y-142068580D01*
X128615941Y-141877402D01*
X128500977Y-141705345D01*
X128500975Y-141705342D01*
X128354657Y-141559024D01*
X128213796Y-141464905D01*
X128182598Y-141444059D01*
X128055012Y-141391211D01*
X127991420Y-141364870D01*
X127991412Y-141364868D01*
X127788469Y-141324500D01*
X127788465Y-141324500D01*
X127581535Y-141324500D01*
X127581530Y-141324500D01*
X127378587Y-141364868D01*
X127378579Y-141364870D01*
X127187403Y-141444058D01*
X127015342Y-141559024D01*
X126869024Y-141705342D01*
X126754058Y-141877403D01*
X126674870Y-142068579D01*
X126674868Y-142068587D01*
X126634500Y-142271530D01*
X126195500Y-142271530D01*
X126195500Y-141505252D01*
X126195500Y-141505249D01*
X126195499Y-141505247D01*
X126183868Y-141446770D01*
X126183867Y-141446769D01*
X126139552Y-141380447D01*
X126073230Y-141336132D01*
X126073229Y-141336131D01*
X126014752Y-141324500D01*
X126014748Y-141324500D01*
X124275252Y-141324500D01*
X124275247Y-141324500D01*
X124216770Y-141336131D01*
X124216769Y-141336132D01*
X124150447Y-141380447D01*
X124106132Y-141446769D01*
X124106131Y-141446770D01*
X124094500Y-141505247D01*
X96900500Y-141505247D01*
X96900500Y-141391212D01*
X96868838Y-141150711D01*
X96806054Y-140916400D01*
X96747817Y-140775803D01*
X96746028Y-140771483D01*
X96713227Y-140692294D01*
X96713222Y-140692285D01*
X96591936Y-140482211D01*
X96444265Y-140289762D01*
X96444260Y-140289756D01*
X96272743Y-140118239D01*
X96272736Y-140118233D01*
X96080293Y-139970567D01*
X96080292Y-139970566D01*
X96080289Y-139970564D01*
X95870212Y-139849276D01*
X95870211Y-139849275D01*
X95870205Y-139849272D01*
X95646104Y-139756447D01*
X95616177Y-139748428D01*
X124045000Y-139748428D01*
X124045000Y-139921571D01*
X124072085Y-140092584D01*
X124125592Y-140257259D01*
X124204196Y-140411525D01*
X124208709Y-140417736D01*
X124208709Y-140417737D01*
X124662037Y-139964409D01*
X124679075Y-140027993D01*
X124744901Y-140142007D01*
X124837993Y-140235099D01*
X124952007Y-140300925D01*
X125015589Y-140317962D01*
X124562261Y-140771289D01*
X124562262Y-140771290D01*
X124568471Y-140775801D01*
X124722742Y-140854408D01*
X124887415Y-140907914D01*
X125058429Y-140935000D01*
X125231571Y-140935000D01*
X125402584Y-140907914D01*
X125567257Y-140854408D01*
X125721525Y-140775803D01*
X125727737Y-140771289D01*
X125274410Y-140317962D01*
X125337993Y-140300925D01*
X125452007Y-140235099D01*
X125545099Y-140142007D01*
X125610925Y-140027993D01*
X125627962Y-139964409D01*
X126081289Y-140417736D01*
X126085803Y-140411525D01*
X126164408Y-140257257D01*
X126217914Y-140092584D01*
X126245000Y-139921571D01*
X126245000Y-139748428D01*
X126585000Y-139748428D01*
X126585000Y-139921571D01*
X126612085Y-140092584D01*
X126665592Y-140257259D01*
X126744196Y-140411525D01*
X126748709Y-140417736D01*
X126748709Y-140417737D01*
X127202037Y-139964409D01*
X127219075Y-140027993D01*
X127284901Y-140142007D01*
X127377993Y-140235099D01*
X127492007Y-140300925D01*
X127555589Y-140317962D01*
X127102261Y-140771289D01*
X127102262Y-140771290D01*
X127108471Y-140775801D01*
X127262742Y-140854408D01*
X127427415Y-140907914D01*
X127598429Y-140935000D01*
X127771571Y-140935000D01*
X127942584Y-140907914D01*
X128107257Y-140854408D01*
X128261525Y-140775803D01*
X128267737Y-140771289D01*
X127814410Y-140317962D01*
X127877993Y-140300925D01*
X127992007Y-140235099D01*
X128085099Y-140142007D01*
X128150925Y-140027993D01*
X128167962Y-139964410D01*
X128621289Y-140417737D01*
X128621289Y-140417736D01*
X128625803Y-140411525D01*
X128704408Y-140257257D01*
X128757914Y-140092584D01*
X128785000Y-139921571D01*
X128785000Y-139748428D01*
X129125000Y-139748428D01*
X129125000Y-139921571D01*
X129152085Y-140092584D01*
X129205592Y-140257259D01*
X129284196Y-140411525D01*
X129288709Y-140417736D01*
X129288709Y-140417737D01*
X129742037Y-139964409D01*
X129759075Y-140027993D01*
X129824901Y-140142007D01*
X129917993Y-140235099D01*
X130032007Y-140300925D01*
X130095589Y-140317962D01*
X129642261Y-140771289D01*
X129642262Y-140771290D01*
X129648471Y-140775801D01*
X129802742Y-140854408D01*
X129967415Y-140907914D01*
X130138429Y-140935000D01*
X130311571Y-140935000D01*
X130482584Y-140907914D01*
X130647257Y-140854408D01*
X130801525Y-140775803D01*
X130807737Y-140771289D01*
X130354410Y-140317962D01*
X130417993Y-140300925D01*
X130532007Y-140235099D01*
X130625099Y-140142007D01*
X130690925Y-140027993D01*
X130707962Y-139964409D01*
X131161289Y-140417736D01*
X131165803Y-140411525D01*
X131244408Y-140257257D01*
X131297914Y-140092584D01*
X131325000Y-139921571D01*
X131325000Y-139748428D01*
X131665000Y-139748428D01*
X131665000Y-139921571D01*
X131692085Y-140092584D01*
X131745592Y-140257259D01*
X131824196Y-140411525D01*
X131828709Y-140417736D01*
X131828709Y-140417737D01*
X132282037Y-139964409D01*
X132299075Y-140027993D01*
X132364901Y-140142007D01*
X132457993Y-140235099D01*
X132572007Y-140300925D01*
X132635589Y-140317962D01*
X132182261Y-140771289D01*
X132182262Y-140771290D01*
X132188471Y-140775801D01*
X132342742Y-140854408D01*
X132507415Y-140907914D01*
X132678429Y-140935000D01*
X132851571Y-140935000D01*
X133022584Y-140907914D01*
X133187257Y-140854408D01*
X133341525Y-140775803D01*
X133347736Y-140771289D01*
X133347737Y-140771289D01*
X132894410Y-140317962D01*
X132957993Y-140300925D01*
X133072007Y-140235099D01*
X133165099Y-140142007D01*
X133230925Y-140027993D01*
X133247962Y-139964409D01*
X133701289Y-140417736D01*
X133705803Y-140411525D01*
X133784408Y-140257257D01*
X133837914Y-140092584D01*
X133865000Y-139921571D01*
X133865000Y-139748428D01*
X133837914Y-139577415D01*
X133784408Y-139412742D01*
X133705801Y-139258471D01*
X133701290Y-139252262D01*
X133701289Y-139252261D01*
X133247962Y-139705589D01*
X133230925Y-139642007D01*
X133165099Y-139527993D01*
X133072007Y-139434901D01*
X132957993Y-139369075D01*
X132894409Y-139352037D01*
X133347737Y-138898709D01*
X133341525Y-138894196D01*
X133187259Y-138815592D01*
X133022584Y-138762085D01*
X132851571Y-138735000D01*
X132678429Y-138735000D01*
X132507415Y-138762085D01*
X132342740Y-138815592D01*
X132188480Y-138894193D01*
X132188463Y-138894203D01*
X132182261Y-138898708D01*
X132182261Y-138898709D01*
X132635590Y-139352037D01*
X132572007Y-139369075D01*
X132457993Y-139434901D01*
X132364901Y-139527993D01*
X132299075Y-139642007D01*
X132282037Y-139705590D01*
X131828709Y-139252261D01*
X131828708Y-139252261D01*
X131824203Y-139258463D01*
X131824193Y-139258480D01*
X131745592Y-139412740D01*
X131692085Y-139577415D01*
X131665000Y-139748428D01*
X131325000Y-139748428D01*
X131297914Y-139577415D01*
X131244408Y-139412742D01*
X131165801Y-139258471D01*
X131161290Y-139252262D01*
X131161289Y-139252261D01*
X130707962Y-139705589D01*
X130690925Y-139642007D01*
X130625099Y-139527993D01*
X130532007Y-139434901D01*
X130417993Y-139369075D01*
X130354409Y-139352037D01*
X130807737Y-138898709D01*
X130801525Y-138894196D01*
X130647259Y-138815592D01*
X130482584Y-138762085D01*
X130311571Y-138735000D01*
X130138429Y-138735000D01*
X129967415Y-138762085D01*
X129802740Y-138815592D01*
X129648480Y-138894193D01*
X129648463Y-138894203D01*
X129642261Y-138898708D01*
X129642261Y-138898709D01*
X130095590Y-139352037D01*
X130032007Y-139369075D01*
X129917993Y-139434901D01*
X129824901Y-139527993D01*
X129759075Y-139642007D01*
X129742037Y-139705590D01*
X129288709Y-139252261D01*
X129288708Y-139252261D01*
X129284203Y-139258463D01*
X129284193Y-139258480D01*
X129205592Y-139412740D01*
X129152085Y-139577415D01*
X129125000Y-139748428D01*
X128785000Y-139748428D01*
X128757914Y-139577415D01*
X128704408Y-139412742D01*
X128625801Y-139258471D01*
X128621290Y-139252262D01*
X128621289Y-139252261D01*
X128167962Y-139705589D01*
X128150925Y-139642007D01*
X128085099Y-139527993D01*
X127992007Y-139434901D01*
X127877993Y-139369075D01*
X127814409Y-139352037D01*
X128267737Y-138898709D01*
X128261525Y-138894196D01*
X128107259Y-138815592D01*
X127942584Y-138762085D01*
X127771571Y-138735000D01*
X127598429Y-138735000D01*
X127427415Y-138762085D01*
X127262740Y-138815592D01*
X127108480Y-138894193D01*
X127108463Y-138894203D01*
X127102261Y-138898708D01*
X127102261Y-138898709D01*
X127555590Y-139352037D01*
X127492007Y-139369075D01*
X127377993Y-139434901D01*
X127284901Y-139527993D01*
X127219075Y-139642007D01*
X127202037Y-139705590D01*
X126748709Y-139252261D01*
X126748708Y-139252261D01*
X126744203Y-139258463D01*
X126744193Y-139258480D01*
X126665592Y-139412740D01*
X126612085Y-139577415D01*
X126585000Y-139748428D01*
X126245000Y-139748428D01*
X126217914Y-139577415D01*
X126164408Y-139412742D01*
X126085801Y-139258471D01*
X126081290Y-139252262D01*
X126081289Y-139252261D01*
X125627962Y-139705589D01*
X125610925Y-139642007D01*
X125545099Y-139527993D01*
X125452007Y-139434901D01*
X125337993Y-139369075D01*
X125274409Y-139352037D01*
X125727737Y-138898709D01*
X125721525Y-138894196D01*
X125567259Y-138815592D01*
X125402584Y-138762085D01*
X125231571Y-138735000D01*
X125058429Y-138735000D01*
X124887415Y-138762085D01*
X124722740Y-138815592D01*
X124568480Y-138894193D01*
X124568463Y-138894203D01*
X124562261Y-138898708D01*
X124562261Y-138898709D01*
X125015590Y-139352037D01*
X124952007Y-139369075D01*
X124837993Y-139434901D01*
X124744901Y-139527993D01*
X124679075Y-139642007D01*
X124662037Y-139705590D01*
X124208709Y-139252261D01*
X124208708Y-139252261D01*
X124204203Y-139258463D01*
X124204193Y-139258480D01*
X124125592Y-139412740D01*
X124072085Y-139577415D01*
X124045000Y-139748428D01*
X95616177Y-139748428D01*
X95411785Y-139693661D01*
X95171289Y-139662000D01*
X95171288Y-139662000D01*
X94928712Y-139662000D01*
X94928711Y-139662000D01*
X94688214Y-139693661D01*
X94453895Y-139756447D01*
X94229794Y-139849273D01*
X94229785Y-139849277D01*
X94019706Y-139970567D01*
X93827263Y-140118233D01*
X93827256Y-140118239D01*
X93655739Y-140289756D01*
X93655733Y-140289763D01*
X93508067Y-140482206D01*
X93386777Y-140692285D01*
X93386773Y-140692294D01*
X93293947Y-140916395D01*
X93231161Y-141150714D01*
X93199500Y-141391211D01*
X91350500Y-141391211D01*
X91350500Y-135959108D01*
X154449500Y-135959108D01*
X154449500Y-136090891D01*
X154483608Y-136218187D01*
X154516554Y-136275250D01*
X154549500Y-136332314D01*
X154642686Y-136425500D01*
X154756814Y-136491392D01*
X154884108Y-136525500D01*
X154884110Y-136525500D01*
X155015890Y-136525500D01*
X155015892Y-136525500D01*
X155143186Y-136491392D01*
X155257314Y-136425500D01*
X155350500Y-136332314D01*
X155416392Y-136218186D01*
X155450500Y-136090892D01*
X155450500Y-135959108D01*
X155416392Y-135831814D01*
X155350500Y-135717686D01*
X155257314Y-135624500D01*
X155200250Y-135591554D01*
X155143187Y-135558608D01*
X155079539Y-135541554D01*
X155015892Y-135524500D01*
X154884108Y-135524500D01*
X154756812Y-135558608D01*
X154642686Y-135624500D01*
X154642683Y-135624502D01*
X154549502Y-135717683D01*
X154549500Y-135717686D01*
X154483608Y-135831812D01*
X154449500Y-135959108D01*
X91350500Y-135959108D01*
X91350500Y-135334108D01*
X139949500Y-135334108D01*
X139949500Y-135465891D01*
X139983608Y-135593187D01*
X140001687Y-135624500D01*
X140049500Y-135707314D01*
X140142686Y-135800500D01*
X140217327Y-135843594D01*
X140256810Y-135866390D01*
X140256814Y-135866392D01*
X140384108Y-135900500D01*
X140384110Y-135900500D01*
X140515890Y-135900500D01*
X140515892Y-135900500D01*
X140643186Y-135866392D01*
X140757314Y-135800500D01*
X140850500Y-135707314D01*
X140916392Y-135593186D01*
X140950500Y-135465892D01*
X140950500Y-135334108D01*
X140916392Y-135206814D01*
X140850500Y-135092686D01*
X140757314Y-134999500D01*
X140700250Y-134966554D01*
X140643187Y-134933608D01*
X140579539Y-134916554D01*
X140515892Y-134899500D01*
X140384108Y-134899500D01*
X140256812Y-134933608D01*
X140142686Y-134999500D01*
X140142683Y-134999502D01*
X140049502Y-135092683D01*
X140049500Y-135092686D01*
X139983608Y-135206812D01*
X139949500Y-135334108D01*
X91350500Y-135334108D01*
X91350500Y-132952203D01*
X150611580Y-132952203D01*
X150611580Y-133083986D01*
X150645688Y-133211282D01*
X150678634Y-133268345D01*
X150711580Y-133325409D01*
X150804766Y-133418595D01*
X150918894Y-133484487D01*
X151046188Y-133518595D01*
X151046190Y-133518595D01*
X151177970Y-133518595D01*
X151177972Y-133518595D01*
X151305266Y-133484487D01*
X151419394Y-133418595D01*
X151512580Y-133325409D01*
X151578472Y-133211281D01*
X151612580Y-133083987D01*
X151612580Y-132952203D01*
X151578472Y-132824909D01*
X151512580Y-132710781D01*
X151419394Y-132617595D01*
X151362330Y-132584649D01*
X151305267Y-132551703D01*
X151241619Y-132534649D01*
X151177972Y-132517595D01*
X151046188Y-132517595D01*
X150918892Y-132551703D01*
X150804766Y-132617595D01*
X150804763Y-132617597D01*
X150711582Y-132710778D01*
X150711580Y-132710781D01*
X150645688Y-132824907D01*
X150611580Y-132952203D01*
X91350500Y-132952203D01*
X91350500Y-131284108D01*
X125299500Y-131284108D01*
X125299500Y-131415891D01*
X125333608Y-131543187D01*
X125356200Y-131582316D01*
X125399500Y-131657314D01*
X125492686Y-131750500D01*
X125606814Y-131816392D01*
X125734108Y-131850500D01*
X125734110Y-131850500D01*
X125865890Y-131850500D01*
X125865892Y-131850500D01*
X125993186Y-131816392D01*
X126107314Y-131750500D01*
X126200500Y-131657314D01*
X126266392Y-131543186D01*
X126300500Y-131415892D01*
X126300500Y-131284108D01*
X126280404Y-131209108D01*
X136999500Y-131209108D01*
X136999500Y-131340891D01*
X137033608Y-131468187D01*
X137062476Y-131518186D01*
X137099500Y-131582314D01*
X137192686Y-131675500D01*
X137306814Y-131741392D01*
X137434108Y-131775500D01*
X137434110Y-131775500D01*
X137565890Y-131775500D01*
X137565892Y-131775500D01*
X137693186Y-131741392D01*
X137807314Y-131675500D01*
X137900500Y-131582314D01*
X137966392Y-131468186D01*
X138000500Y-131340892D01*
X138000500Y-131259108D01*
X138649500Y-131259108D01*
X138649500Y-131390892D01*
X138656199Y-131415892D01*
X138683608Y-131518187D01*
X138698042Y-131543187D01*
X138749500Y-131632314D01*
X138842686Y-131725500D01*
X138956814Y-131791392D01*
X139084108Y-131825500D01*
X139084110Y-131825500D01*
X139215890Y-131825500D01*
X139215892Y-131825500D01*
X139343186Y-131791392D01*
X139457314Y-131725500D01*
X139550500Y-131632314D01*
X139616392Y-131518186D01*
X139650500Y-131390892D01*
X139650500Y-131259108D01*
X139616392Y-131131814D01*
X139550500Y-131017686D01*
X139457314Y-130924500D01*
X139386487Y-130883608D01*
X139343187Y-130858608D01*
X139279539Y-130841554D01*
X139215892Y-130824500D01*
X139084108Y-130824500D01*
X138956812Y-130858608D01*
X138842686Y-130924500D01*
X138842683Y-130924502D01*
X138749502Y-131017683D01*
X138749500Y-131017686D01*
X138683608Y-131131812D01*
X138676909Y-131156814D01*
X138649500Y-131259108D01*
X138000500Y-131259108D01*
X138000500Y-131209108D01*
X137966392Y-131081814D01*
X137900500Y-130967686D01*
X137807314Y-130874500D01*
X137720712Y-130824500D01*
X137693187Y-130808608D01*
X137629539Y-130791554D01*
X137565892Y-130774500D01*
X137434108Y-130774500D01*
X137306812Y-130808608D01*
X137192686Y-130874500D01*
X137192683Y-130874502D01*
X137099502Y-130967683D01*
X137099500Y-130967686D01*
X137033608Y-131081812D01*
X136999500Y-131209108D01*
X126280404Y-131209108D01*
X126266392Y-131156814D01*
X126200500Y-131042686D01*
X126107314Y-130949500D01*
X126050250Y-130916554D01*
X125993187Y-130883608D01*
X125929539Y-130866554D01*
X125865892Y-130849500D01*
X125734108Y-130849500D01*
X125606812Y-130883608D01*
X125492686Y-130949500D01*
X125492683Y-130949502D01*
X125399502Y-131042683D01*
X125399500Y-131042686D01*
X125333608Y-131156812D01*
X125299500Y-131284108D01*
X91350500Y-131284108D01*
X91350500Y-130109108D01*
X149874500Y-130109108D01*
X149874500Y-130240891D01*
X149908608Y-130368187D01*
X149941554Y-130425250D01*
X149974500Y-130482314D01*
X150067686Y-130575500D01*
X150181814Y-130641392D01*
X150309108Y-130675500D01*
X150309110Y-130675500D01*
X150440890Y-130675500D01*
X150440892Y-130675500D01*
X150568186Y-130641392D01*
X150682314Y-130575500D01*
X150775500Y-130482314D01*
X150841392Y-130368186D01*
X150875500Y-130240892D01*
X150875500Y-130109108D01*
X150841392Y-129981814D01*
X150775500Y-129867686D01*
X150682314Y-129774500D01*
X150625250Y-129741554D01*
X150568187Y-129708608D01*
X150504539Y-129691554D01*
X150440892Y-129674500D01*
X150309108Y-129674500D01*
X150181812Y-129708608D01*
X150067686Y-129774500D01*
X150067683Y-129774502D01*
X149974502Y-129867683D01*
X149974500Y-129867686D01*
X149908608Y-129981812D01*
X149874500Y-130109108D01*
X91350500Y-130109108D01*
X91350500Y-128509108D01*
X133599500Y-128509108D01*
X133599500Y-128640892D01*
X133613031Y-128691391D01*
X133633608Y-128768187D01*
X133666554Y-128825250D01*
X133699500Y-128882314D01*
X133792686Y-128975500D01*
X133906814Y-129041392D01*
X134034108Y-129075500D01*
X134034110Y-129075500D01*
X134165890Y-129075500D01*
X134165892Y-129075500D01*
X134293186Y-129041392D01*
X134407314Y-128975500D01*
X134500500Y-128882314D01*
X134566392Y-128768186D01*
X134600500Y-128640892D01*
X134600500Y-128509108D01*
X134566392Y-128381814D01*
X134500500Y-128267686D01*
X134407314Y-128174500D01*
X134380654Y-128159108D01*
X147499500Y-128159108D01*
X147499500Y-128290891D01*
X147533608Y-128418187D01*
X147556200Y-128457316D01*
X147599500Y-128532314D01*
X147692686Y-128625500D01*
X147806814Y-128691392D01*
X147934108Y-128725500D01*
X147934110Y-128725500D01*
X148065890Y-128725500D01*
X148065892Y-128725500D01*
X148193186Y-128691392D01*
X148307314Y-128625500D01*
X148400500Y-128532314D01*
X148466392Y-128418186D01*
X148500500Y-128290892D01*
X148500500Y-128159108D01*
X148480404Y-128084108D01*
X154449500Y-128084108D01*
X154449500Y-128215891D01*
X154483608Y-128343187D01*
X154505909Y-128381812D01*
X154549500Y-128457314D01*
X154642686Y-128550500D01*
X154756814Y-128616392D01*
X154884108Y-128650500D01*
X154884110Y-128650500D01*
X155015890Y-128650500D01*
X155015892Y-128650500D01*
X155143186Y-128616392D01*
X155257314Y-128550500D01*
X155350500Y-128457314D01*
X155416392Y-128343186D01*
X155450500Y-128215892D01*
X155450500Y-128084108D01*
X155416392Y-127956814D01*
X155350500Y-127842686D01*
X155257314Y-127749500D01*
X155200250Y-127716554D01*
X155143187Y-127683608D01*
X155079539Y-127666554D01*
X155015892Y-127649500D01*
X154884108Y-127649500D01*
X154756812Y-127683608D01*
X154642686Y-127749500D01*
X154642683Y-127749502D01*
X154549502Y-127842683D01*
X154549500Y-127842686D01*
X154483608Y-127956812D01*
X154449500Y-128084108D01*
X148480404Y-128084108D01*
X148466392Y-128031814D01*
X148400500Y-127917686D01*
X148307314Y-127824500D01*
X148250250Y-127791554D01*
X148193187Y-127758608D01*
X148129539Y-127741554D01*
X148065892Y-127724500D01*
X147934108Y-127724500D01*
X147806812Y-127758608D01*
X147692686Y-127824500D01*
X147692683Y-127824502D01*
X147599502Y-127917683D01*
X147599500Y-127917686D01*
X147533608Y-128031812D01*
X147499500Y-128159108D01*
X134380654Y-128159108D01*
X134350250Y-128141554D01*
X134293187Y-128108608D01*
X134201757Y-128084110D01*
X134165892Y-128074500D01*
X134034108Y-128074500D01*
X133906812Y-128108608D01*
X133792686Y-128174500D01*
X133792683Y-128174502D01*
X133699502Y-128267683D01*
X133699500Y-128267686D01*
X133633608Y-128381812D01*
X133623862Y-128418186D01*
X133599500Y-128509108D01*
X91350500Y-128509108D01*
X91350500Y-127059108D01*
X129399500Y-127059108D01*
X129399500Y-127190891D01*
X129433608Y-127318187D01*
X129441766Y-127332316D01*
X129499500Y-127432314D01*
X129592686Y-127525500D01*
X129706814Y-127591392D01*
X129834108Y-127625500D01*
X129834110Y-127625500D01*
X129965890Y-127625500D01*
X129965892Y-127625500D01*
X130093186Y-127591392D01*
X130207314Y-127525500D01*
X130300500Y-127432314D01*
X130366392Y-127318186D01*
X130400500Y-127190892D01*
X130400500Y-127059108D01*
X130366392Y-126931814D01*
X130309981Y-126834108D01*
X134224500Y-126834108D01*
X134224500Y-126965891D01*
X134258608Y-127093187D01*
X134291554Y-127150250D01*
X134324500Y-127207314D01*
X134417686Y-127300500D01*
X134531814Y-127366392D01*
X134659108Y-127400500D01*
X134659110Y-127400500D01*
X134790890Y-127400500D01*
X134790892Y-127400500D01*
X134918186Y-127366392D01*
X135032314Y-127300500D01*
X135125500Y-127207314D01*
X135191392Y-127093186D01*
X135225500Y-126965892D01*
X135225500Y-126959108D01*
X152099500Y-126959108D01*
X152099500Y-127090891D01*
X152133608Y-127218187D01*
X152166554Y-127275250D01*
X152199500Y-127332314D01*
X152292686Y-127425500D01*
X152406814Y-127491392D01*
X152534108Y-127525500D01*
X152534110Y-127525500D01*
X152665890Y-127525500D01*
X152665892Y-127525500D01*
X152793186Y-127491392D01*
X152907314Y-127425500D01*
X153000500Y-127332314D01*
X153066392Y-127218186D01*
X153100500Y-127090892D01*
X153100500Y-126959108D01*
X153066392Y-126831814D01*
X153000500Y-126717686D01*
X152907314Y-126624500D01*
X152841787Y-126586668D01*
X152793187Y-126558608D01*
X152729539Y-126541554D01*
X152665892Y-126524500D01*
X152534108Y-126524500D01*
X152406812Y-126558608D01*
X152292686Y-126624500D01*
X152292683Y-126624502D01*
X152199502Y-126717683D01*
X152199500Y-126717686D01*
X152133608Y-126831812D01*
X152099500Y-126959108D01*
X135225500Y-126959108D01*
X135225500Y-126834108D01*
X135191392Y-126706814D01*
X135125500Y-126592686D01*
X135032314Y-126499500D01*
X134947439Y-126450497D01*
X134918187Y-126433608D01*
X134853931Y-126416391D01*
X134790892Y-126399500D01*
X134659108Y-126399500D01*
X134531812Y-126433608D01*
X134417686Y-126499500D01*
X134417683Y-126499502D01*
X134324502Y-126592683D01*
X134324500Y-126592686D01*
X134258608Y-126706812D01*
X134224500Y-126834108D01*
X130309981Y-126834108D01*
X130300500Y-126817686D01*
X130228929Y-126746115D01*
X130224234Y-126740095D01*
X130214076Y-126714422D01*
X130200846Y-126690194D01*
X130201403Y-126682396D01*
X130198527Y-126675126D01*
X130203860Y-126648039D01*
X130205830Y-126620502D01*
X130210515Y-126614242D01*
X130212026Y-126606573D01*
X130231158Y-126586668D01*
X130247702Y-126564569D01*
X130256514Y-126560288D01*
X130260444Y-126556200D01*
X130269251Y-126554100D01*
X130289914Y-126544063D01*
X130393186Y-126516392D01*
X130507314Y-126450500D01*
X130600500Y-126357314D01*
X130666392Y-126243186D01*
X130700500Y-126115892D01*
X130700500Y-125984108D01*
X130666392Y-125856814D01*
X130653283Y-125834108D01*
X145774500Y-125834108D01*
X145774500Y-125965892D01*
X145787897Y-126015890D01*
X145808608Y-126093187D01*
X145821717Y-126115892D01*
X145874500Y-126207314D01*
X145967686Y-126300500D01*
X146081814Y-126366392D01*
X146209108Y-126400500D01*
X146209110Y-126400500D01*
X146340890Y-126400500D01*
X146340892Y-126400500D01*
X146468186Y-126366392D01*
X146582314Y-126300500D01*
X146675500Y-126207314D01*
X146741392Y-126093186D01*
X146775500Y-125965892D01*
X146775500Y-125884108D01*
X148399500Y-125884108D01*
X148399500Y-126015892D01*
X148406199Y-126040892D01*
X148433608Y-126143187D01*
X148448042Y-126168187D01*
X148499500Y-126257314D01*
X148592686Y-126350500D01*
X148706814Y-126416392D01*
X148834108Y-126450500D01*
X148834110Y-126450500D01*
X148965890Y-126450500D01*
X148965892Y-126450500D01*
X149093186Y-126416392D01*
X149207314Y-126350500D01*
X149300500Y-126257314D01*
X149366392Y-126143186D01*
X149400500Y-126015892D01*
X149400500Y-125909108D01*
X154924500Y-125909108D01*
X154924500Y-126040891D01*
X154958608Y-126168187D01*
X154981200Y-126207316D01*
X155024500Y-126282314D01*
X155117686Y-126375500D01*
X155231814Y-126441392D01*
X155359108Y-126475500D01*
X155359110Y-126475500D01*
X155490890Y-126475500D01*
X155490892Y-126475500D01*
X155618186Y-126441392D01*
X155732314Y-126375500D01*
X155825500Y-126282314D01*
X155891392Y-126168186D01*
X155925500Y-126040892D01*
X155925500Y-125909108D01*
X155891392Y-125781814D01*
X155825500Y-125667686D01*
X155732314Y-125574500D01*
X155675250Y-125541554D01*
X155618187Y-125508608D01*
X155554539Y-125491554D01*
X155490892Y-125474500D01*
X155359108Y-125474500D01*
X155231812Y-125508608D01*
X155117686Y-125574500D01*
X155117683Y-125574502D01*
X155024502Y-125667683D01*
X155024500Y-125667686D01*
X154958608Y-125781812D01*
X154924500Y-125909108D01*
X149400500Y-125909108D01*
X149400500Y-125884108D01*
X149366392Y-125756814D01*
X149300500Y-125642686D01*
X149207314Y-125549500D01*
X149136487Y-125508608D01*
X149093187Y-125483608D01*
X149029539Y-125466554D01*
X148965892Y-125449500D01*
X148834108Y-125449500D01*
X148706812Y-125483608D01*
X148592686Y-125549500D01*
X148592683Y-125549502D01*
X148499502Y-125642683D01*
X148499500Y-125642686D01*
X148433608Y-125756812D01*
X148406476Y-125858073D01*
X148399500Y-125884108D01*
X146775500Y-125884108D01*
X146775500Y-125834108D01*
X146741392Y-125706814D01*
X146675500Y-125592686D01*
X146582314Y-125499500D01*
X146495712Y-125449500D01*
X146468187Y-125433608D01*
X146404539Y-125416554D01*
X146340892Y-125399500D01*
X146209108Y-125399500D01*
X146081812Y-125433608D01*
X145967686Y-125499500D01*
X145967683Y-125499502D01*
X145874502Y-125592683D01*
X145874500Y-125592686D01*
X145808608Y-125706812D01*
X145788512Y-125781814D01*
X145774500Y-125834108D01*
X130653283Y-125834108D01*
X130600500Y-125742686D01*
X130507314Y-125649500D01*
X130408910Y-125592686D01*
X130393187Y-125583608D01*
X130329539Y-125566554D01*
X130265892Y-125549500D01*
X130134108Y-125549500D01*
X130006812Y-125583608D01*
X129892686Y-125649500D01*
X129892683Y-125649502D01*
X129799502Y-125742683D01*
X129799500Y-125742686D01*
X129733608Y-125856812D01*
X129699500Y-125984108D01*
X129699500Y-126115891D01*
X129733608Y-126243187D01*
X129756200Y-126282316D01*
X129799500Y-126357314D01*
X129799502Y-126357316D01*
X129865668Y-126423482D01*
X129899153Y-126484805D01*
X129894169Y-126554497D01*
X129852297Y-126610430D01*
X129810081Y-126630937D01*
X129706814Y-126658608D01*
X129706812Y-126658608D01*
X129706812Y-126658609D01*
X129592686Y-126724500D01*
X129592683Y-126724502D01*
X129499502Y-126817683D01*
X129499500Y-126817686D01*
X129433608Y-126931812D01*
X129399500Y-127059108D01*
X91350500Y-127059108D01*
X91350500Y-123713428D01*
X107070000Y-123713428D01*
X107070000Y-123886571D01*
X107097085Y-124057584D01*
X107150592Y-124222259D01*
X107229196Y-124376525D01*
X107233709Y-124382736D01*
X107233709Y-124382737D01*
X107687037Y-123929408D01*
X107704075Y-123992993D01*
X107769901Y-124107007D01*
X107862993Y-124200099D01*
X107977007Y-124265925D01*
X108040589Y-124282962D01*
X107587261Y-124736289D01*
X107587262Y-124736290D01*
X107593471Y-124740801D01*
X107747742Y-124819408D01*
X107912415Y-124872914D01*
X108083429Y-124900000D01*
X108256571Y-124900000D01*
X108427584Y-124872914D01*
X108592257Y-124819408D01*
X108746525Y-124740803D01*
X108752736Y-124736289D01*
X108752737Y-124736289D01*
X108299410Y-124282962D01*
X108362993Y-124265925D01*
X108477007Y-124200099D01*
X108570099Y-124107007D01*
X108635925Y-123992993D01*
X108652962Y-123929410D01*
X109106289Y-124382737D01*
X109106289Y-124382736D01*
X109110803Y-124376525D01*
X109145155Y-124309108D01*
X142324500Y-124309108D01*
X142324500Y-124440891D01*
X142358608Y-124568187D01*
X142391554Y-124625250D01*
X142424500Y-124682314D01*
X142517686Y-124775500D01*
X142631814Y-124841392D01*
X142759108Y-124875500D01*
X142759110Y-124875500D01*
X142890890Y-124875500D01*
X142890892Y-124875500D01*
X143018186Y-124841392D01*
X143132314Y-124775500D01*
X143225500Y-124682314D01*
X143291392Y-124568186D01*
X143325500Y-124440892D01*
X143325500Y-124434108D01*
X154274500Y-124434108D01*
X154274500Y-124565891D01*
X154308608Y-124693187D01*
X154333494Y-124736290D01*
X154374500Y-124807314D01*
X154467686Y-124900500D01*
X154581814Y-124966392D01*
X154709108Y-125000500D01*
X154709110Y-125000500D01*
X154840890Y-125000500D01*
X154840892Y-125000500D01*
X154968186Y-124966392D01*
X155082314Y-124900500D01*
X155175500Y-124807314D01*
X155241392Y-124693186D01*
X155275500Y-124565892D01*
X155275500Y-124434108D01*
X155241392Y-124306814D01*
X155175500Y-124192686D01*
X155082314Y-124099500D01*
X155009714Y-124057584D01*
X154968187Y-124033608D01*
X154904539Y-124016554D01*
X154840892Y-123999500D01*
X154709108Y-123999500D01*
X154581812Y-124033608D01*
X154467686Y-124099500D01*
X154467683Y-124099502D01*
X154374502Y-124192683D01*
X154374500Y-124192686D01*
X154308608Y-124306812D01*
X154274500Y-124434108D01*
X143325500Y-124434108D01*
X143325500Y-124309108D01*
X143291392Y-124181814D01*
X143225500Y-124067686D01*
X143132314Y-123974500D01*
X143075250Y-123941554D01*
X143018187Y-123908608D01*
X142935942Y-123886571D01*
X142890892Y-123874500D01*
X142759108Y-123874500D01*
X142631812Y-123908608D01*
X142517686Y-123974500D01*
X142517683Y-123974502D01*
X142424502Y-124067683D01*
X142424500Y-124067686D01*
X142358608Y-124181812D01*
X142324500Y-124309108D01*
X109145155Y-124309108D01*
X109177980Y-124244686D01*
X109189407Y-124222257D01*
X109242914Y-124057584D01*
X109270000Y-123886571D01*
X109270000Y-123713430D01*
X109267141Y-123695380D01*
X109267141Y-123695379D01*
X109265356Y-123684108D01*
X150674500Y-123684108D01*
X150674500Y-123815891D01*
X150708608Y-123943187D01*
X150726687Y-123974500D01*
X150774500Y-124057314D01*
X150867686Y-124150500D01*
X150981814Y-124216392D01*
X151109108Y-124250500D01*
X151109110Y-124250500D01*
X151240890Y-124250500D01*
X151240892Y-124250500D01*
X151368186Y-124216392D01*
X151482314Y-124150500D01*
X151575500Y-124057314D01*
X151641392Y-123943186D01*
X151675500Y-123815892D01*
X151675500Y-123684108D01*
X151641392Y-123556814D01*
X151575500Y-123442686D01*
X151482314Y-123349500D01*
X151396578Y-123300000D01*
X151368187Y-123283608D01*
X151304539Y-123266554D01*
X151240892Y-123249500D01*
X151109108Y-123249500D01*
X150981812Y-123283608D01*
X150867686Y-123349500D01*
X150867683Y-123349502D01*
X150774502Y-123442683D01*
X150774500Y-123442686D01*
X150708608Y-123556812D01*
X150674500Y-123684108D01*
X109265356Y-123684108D01*
X109242913Y-123542415D01*
X109189408Y-123377742D01*
X109110801Y-123223471D01*
X109106290Y-123217262D01*
X109106289Y-123217261D01*
X108652962Y-123670589D01*
X108635925Y-123607007D01*
X108570099Y-123492993D01*
X108477007Y-123399901D01*
X108362993Y-123334075D01*
X108299409Y-123317037D01*
X108707338Y-122909108D01*
X141199500Y-122909108D01*
X141199500Y-123040891D01*
X141233608Y-123168187D01*
X141261942Y-123217262D01*
X141299500Y-123282314D01*
X141392686Y-123375500D01*
X141506814Y-123441392D01*
X141634108Y-123475500D01*
X141634110Y-123475500D01*
X141765890Y-123475500D01*
X141765892Y-123475500D01*
X141893186Y-123441392D01*
X142007314Y-123375500D01*
X142100500Y-123282314D01*
X142166392Y-123168186D01*
X142200500Y-123040892D01*
X142200500Y-122909108D01*
X142166392Y-122781814D01*
X142165686Y-122780592D01*
X142134794Y-122727085D01*
X142100500Y-122667686D01*
X142007314Y-122574500D01*
X141950250Y-122541554D01*
X141893187Y-122508608D01*
X141829539Y-122491554D01*
X141765892Y-122474500D01*
X141634108Y-122474500D01*
X141506812Y-122508608D01*
X141392686Y-122574500D01*
X141392683Y-122574502D01*
X141299502Y-122667683D01*
X141299500Y-122667686D01*
X141233608Y-122781812D01*
X141199500Y-122909108D01*
X108707338Y-122909108D01*
X108752737Y-122863709D01*
X108746525Y-122859196D01*
X108592259Y-122780592D01*
X108427584Y-122727085D01*
X108256571Y-122700000D01*
X108083429Y-122700000D01*
X107912415Y-122727085D01*
X107747740Y-122780592D01*
X107593480Y-122859193D01*
X107593463Y-122859203D01*
X107587261Y-122863708D01*
X107587261Y-122863709D01*
X108040590Y-123317037D01*
X107977007Y-123334075D01*
X107862993Y-123399901D01*
X107769901Y-123492993D01*
X107704075Y-123607007D01*
X107687037Y-123670590D01*
X107233709Y-123217261D01*
X107233708Y-123217261D01*
X107229203Y-123223463D01*
X107229193Y-123223480D01*
X107150592Y-123377740D01*
X107097085Y-123542415D01*
X107070000Y-123713428D01*
X91350500Y-123713428D01*
X91350500Y-121156530D01*
X107119500Y-121156530D01*
X107119500Y-121363469D01*
X107159868Y-121566412D01*
X107159870Y-121566420D01*
X107239058Y-121757596D01*
X107354024Y-121929657D01*
X107500342Y-122075975D01*
X107500345Y-122075977D01*
X107672402Y-122190941D01*
X107863580Y-122270130D01*
X108066530Y-122310499D01*
X108066534Y-122310500D01*
X108066535Y-122310500D01*
X108273466Y-122310500D01*
X108273467Y-122310499D01*
X108476420Y-122270130D01*
X108667598Y-122190941D01*
X108839655Y-122075977D01*
X108985977Y-121929655D01*
X109100941Y-121757598D01*
X109180130Y-121566420D01*
X109220500Y-121363465D01*
X109220500Y-121156535D01*
X109180130Y-120953580D01*
X109100941Y-120762402D01*
X109072523Y-120719871D01*
X109072522Y-120719868D01*
X109031923Y-120659108D01*
X131474500Y-120659108D01*
X131474500Y-120790891D01*
X131508608Y-120918187D01*
X131529042Y-120953579D01*
X131574500Y-121032314D01*
X131667686Y-121125500D01*
X131781814Y-121191392D01*
X131909108Y-121225500D01*
X131909110Y-121225500D01*
X132040890Y-121225500D01*
X132040892Y-121225500D01*
X132168186Y-121191392D01*
X132282314Y-121125500D01*
X132375500Y-121032314D01*
X132441392Y-120918186D01*
X132475500Y-120790892D01*
X132475500Y-120659108D01*
X132441392Y-120531814D01*
X132375500Y-120417686D01*
X132282314Y-120324500D01*
X132225250Y-120291554D01*
X132168187Y-120258608D01*
X132104539Y-120241554D01*
X132040892Y-120224500D01*
X131909108Y-120224500D01*
X131781812Y-120258608D01*
X131667686Y-120324500D01*
X131667683Y-120324502D01*
X131574502Y-120417683D01*
X131574500Y-120417686D01*
X131508608Y-120531812D01*
X131474500Y-120659108D01*
X109031923Y-120659108D01*
X108985980Y-120590349D01*
X108985974Y-120590341D01*
X108839657Y-120444024D01*
X108753626Y-120386541D01*
X108667598Y-120329059D01*
X108656596Y-120324502D01*
X108476420Y-120249870D01*
X108476412Y-120249868D01*
X108273469Y-120209500D01*
X108273465Y-120209500D01*
X108066535Y-120209500D01*
X108066530Y-120209500D01*
X107863587Y-120249868D01*
X107863579Y-120249870D01*
X107672403Y-120329058D01*
X107500342Y-120444024D01*
X107354024Y-120590342D01*
X107239058Y-120762403D01*
X107159870Y-120953579D01*
X107159868Y-120953587D01*
X107119500Y-121156530D01*
X91350500Y-121156530D01*
X91350500Y-118616530D01*
X107119500Y-118616530D01*
X107119500Y-118823469D01*
X107159868Y-119026412D01*
X107159870Y-119026420D01*
X107211265Y-119150499D01*
X107239059Y-119217598D01*
X107288366Y-119291391D01*
X107354024Y-119389657D01*
X107500342Y-119535975D01*
X107500345Y-119535977D01*
X107672402Y-119650941D01*
X107863580Y-119730130D01*
X108054902Y-119768186D01*
X108066530Y-119770499D01*
X108066534Y-119770500D01*
X108066535Y-119770500D01*
X108273466Y-119770500D01*
X108273467Y-119770499D01*
X108476420Y-119730130D01*
X108667598Y-119650941D01*
X108839655Y-119535977D01*
X108866524Y-119509108D01*
X135374500Y-119509108D01*
X135374500Y-119640891D01*
X135408608Y-119768187D01*
X135441554Y-119825250D01*
X135474500Y-119882314D01*
X135567686Y-119975500D01*
X135681814Y-120041392D01*
X135809108Y-120075500D01*
X135809110Y-120075500D01*
X135940890Y-120075500D01*
X135940892Y-120075500D01*
X136068186Y-120041392D01*
X136182314Y-119975500D01*
X136275500Y-119882314D01*
X136341392Y-119768186D01*
X136375500Y-119640892D01*
X136375500Y-119509108D01*
X136341392Y-119381814D01*
X136275500Y-119267686D01*
X136182314Y-119174500D01*
X136120596Y-119138867D01*
X136068187Y-119108608D01*
X136004539Y-119091554D01*
X135940892Y-119074500D01*
X135809108Y-119074500D01*
X135681812Y-119108608D01*
X135567686Y-119174500D01*
X135567683Y-119174502D01*
X135474502Y-119267683D01*
X135474500Y-119267686D01*
X135408608Y-119381812D01*
X135374500Y-119509108D01*
X108866524Y-119509108D01*
X108962333Y-119413300D01*
X108985974Y-119389658D01*
X108985975Y-119389657D01*
X108985977Y-119389655D01*
X109100941Y-119217598D01*
X109180130Y-119026420D01*
X109220500Y-118823465D01*
X109220500Y-118759108D01*
X133299500Y-118759108D01*
X133299500Y-118890891D01*
X133333608Y-119018187D01*
X133339407Y-119028231D01*
X133399500Y-119132314D01*
X133492686Y-119225500D01*
X133606814Y-119291392D01*
X133734108Y-119325500D01*
X133734110Y-119325500D01*
X133865890Y-119325500D01*
X133865892Y-119325500D01*
X133993186Y-119291392D01*
X134107314Y-119225500D01*
X134200500Y-119132314D01*
X134266392Y-119018186D01*
X134300500Y-118890892D01*
X134300500Y-118759108D01*
X134266392Y-118631814D01*
X134200500Y-118517686D01*
X134107314Y-118424500D01*
X134031977Y-118381004D01*
X133993187Y-118358608D01*
X133929539Y-118341554D01*
X133865892Y-118324500D01*
X133734108Y-118324500D01*
X133606812Y-118358608D01*
X133492686Y-118424500D01*
X133492683Y-118424502D01*
X133399502Y-118517683D01*
X133399500Y-118517686D01*
X133333608Y-118631812D01*
X133299500Y-118759108D01*
X109220500Y-118759108D01*
X109220500Y-118616535D01*
X109180130Y-118413580D01*
X109100941Y-118222402D01*
X108985977Y-118050345D01*
X108985975Y-118050342D01*
X108839657Y-117904024D01*
X108727711Y-117829225D01*
X108667598Y-117789059D01*
X108666591Y-117788642D01*
X108476420Y-117709870D01*
X108476412Y-117709868D01*
X108273469Y-117669500D01*
X108273465Y-117669500D01*
X108066535Y-117669500D01*
X108066530Y-117669500D01*
X107863587Y-117709868D01*
X107863579Y-117709870D01*
X107672403Y-117789058D01*
X107500342Y-117904024D01*
X107354024Y-118050342D01*
X107239058Y-118222403D01*
X107159870Y-118413579D01*
X107159868Y-118413587D01*
X107119500Y-118616530D01*
X91350500Y-118616530D01*
X91350500Y-115310247D01*
X107119500Y-115310247D01*
X107119500Y-117049752D01*
X107131131Y-117108229D01*
X107131132Y-117108230D01*
X107175447Y-117174552D01*
X107241769Y-117218867D01*
X107241770Y-117218868D01*
X107300247Y-117230499D01*
X107300250Y-117230500D01*
X107300252Y-117230500D01*
X109039750Y-117230500D01*
X109039751Y-117230499D01*
X109054568Y-117227552D01*
X109098229Y-117218868D01*
X109098229Y-117218867D01*
X109098231Y-117218867D01*
X109164552Y-117174552D01*
X109208867Y-117108231D01*
X109208867Y-117108229D01*
X109208868Y-117108229D01*
X109220499Y-117049752D01*
X109220500Y-117049750D01*
X109220500Y-115809108D01*
X120549500Y-115809108D01*
X120549500Y-115940892D01*
X120565472Y-116000500D01*
X120583608Y-116068187D01*
X120607492Y-116109554D01*
X120649500Y-116182314D01*
X120742686Y-116275500D01*
X120856814Y-116341392D01*
X120984108Y-116375500D01*
X120984110Y-116375500D01*
X121115890Y-116375500D01*
X121115892Y-116375500D01*
X121157520Y-116364346D01*
X133302668Y-116364346D01*
X133302668Y-116496130D01*
X133308700Y-116518642D01*
X133336776Y-116623425D01*
X133343970Y-116635885D01*
X133402668Y-116737552D01*
X133495854Y-116830738D01*
X133573379Y-116875497D01*
X133596761Y-116888997D01*
X133644976Y-116939565D01*
X133658198Y-117008172D01*
X133632230Y-117073036D01*
X133596761Y-117103770D01*
X133536882Y-117138342D01*
X133536873Y-117138348D01*
X133443692Y-117231529D01*
X133443690Y-117231532D01*
X133377798Y-117345658D01*
X133343690Y-117472954D01*
X133343690Y-117604737D01*
X133377798Y-117732033D01*
X133401290Y-117772721D01*
X133443690Y-117846160D01*
X133536876Y-117939346D01*
X133651004Y-118005238D01*
X133778298Y-118039346D01*
X133778300Y-118039346D01*
X133910080Y-118039346D01*
X133910082Y-118039346D01*
X134037376Y-118005238D01*
X134151504Y-117939346D01*
X134244690Y-117846160D01*
X134310582Y-117732032D01*
X134344690Y-117604738D01*
X134344690Y-117472954D01*
X134310582Y-117345660D01*
X134244690Y-117231532D01*
X134151504Y-117138346D01*
X134091617Y-117103770D01*
X134050596Y-117080086D01*
X134002381Y-117029518D01*
X133989159Y-116960911D01*
X134015127Y-116896046D01*
X134050594Y-116865314D01*
X134110482Y-116830738D01*
X134203668Y-116737552D01*
X134269560Y-116623424D01*
X134303668Y-116496130D01*
X134303668Y-116409108D01*
X140949500Y-116409108D01*
X140949500Y-116540892D01*
X140957663Y-116571358D01*
X140983608Y-116668187D01*
X141016554Y-116725250D01*
X141049500Y-116782314D01*
X141142686Y-116875500D01*
X141238361Y-116930738D01*
X141253649Y-116939565D01*
X141256814Y-116941392D01*
X141384108Y-116975500D01*
X141384110Y-116975500D01*
X141515890Y-116975500D01*
X141515892Y-116975500D01*
X141643186Y-116941392D01*
X141757314Y-116875500D01*
X141850500Y-116782314D01*
X141916392Y-116668186D01*
X141950500Y-116540892D01*
X141950500Y-116409108D01*
X141916392Y-116281814D01*
X141850500Y-116167686D01*
X141757314Y-116074500D01*
X141679530Y-116029591D01*
X149926758Y-116029591D01*
X149926758Y-116161374D01*
X149960866Y-116288670D01*
X149991305Y-116341391D01*
X150026758Y-116402797D01*
X150119944Y-116495983D01*
X150201565Y-116543107D01*
X150229478Y-116559223D01*
X150234072Y-116561875D01*
X150361366Y-116595983D01*
X150361368Y-116595983D01*
X150493148Y-116595983D01*
X150493150Y-116595983D01*
X150620444Y-116561875D01*
X150734572Y-116495983D01*
X150827758Y-116402797D01*
X150893650Y-116288669D01*
X150927758Y-116161375D01*
X150927758Y-116029591D01*
X150893650Y-115902297D01*
X150892612Y-115900500D01*
X150855446Y-115836126D01*
X150827758Y-115788169D01*
X150734572Y-115694983D01*
X150656549Y-115649936D01*
X150620445Y-115629091D01*
X150556797Y-115612037D01*
X150493150Y-115594983D01*
X150361366Y-115594983D01*
X150234070Y-115629091D01*
X150119944Y-115694983D01*
X150119941Y-115694985D01*
X150026760Y-115788166D01*
X150026758Y-115788169D01*
X149960866Y-115902295D01*
X149926758Y-116029591D01*
X141679530Y-116029591D01*
X141643187Y-116008608D01*
X141579539Y-115991554D01*
X141515892Y-115974500D01*
X141384108Y-115974500D01*
X141256812Y-116008608D01*
X141142686Y-116074500D01*
X141142683Y-116074502D01*
X141049502Y-116167683D01*
X141049500Y-116167686D01*
X140983608Y-116281812D01*
X140967644Y-116341392D01*
X140949500Y-116409108D01*
X134303668Y-116409108D01*
X134303668Y-116364346D01*
X134269560Y-116237052D01*
X134203668Y-116122924D01*
X134110482Y-116029738D01*
X134031042Y-115983873D01*
X133996355Y-115963846D01*
X133919249Y-115943186D01*
X133869060Y-115929738D01*
X133737276Y-115929738D01*
X133609980Y-115963846D01*
X133495854Y-116029738D01*
X133495851Y-116029740D01*
X133402670Y-116122921D01*
X133402668Y-116122924D01*
X133336776Y-116237050D01*
X133324782Y-116281814D01*
X133302668Y-116364346D01*
X121157520Y-116364346D01*
X121243186Y-116341392D01*
X121357314Y-116275500D01*
X121450500Y-116182314D01*
X121516392Y-116068186D01*
X121550500Y-115940892D01*
X121550500Y-115809108D01*
X121516392Y-115681814D01*
X121450500Y-115567686D01*
X121357314Y-115474500D01*
X121287353Y-115434108D01*
X121243187Y-115408608D01*
X121177061Y-115390890D01*
X121115892Y-115374500D01*
X120984108Y-115374500D01*
X120856812Y-115408608D01*
X120742686Y-115474500D01*
X120742683Y-115474502D01*
X120649502Y-115567683D01*
X120649500Y-115567686D01*
X120583608Y-115681812D01*
X120554247Y-115791391D01*
X120549500Y-115809108D01*
X109220500Y-115809108D01*
X109220500Y-115310249D01*
X109220499Y-115310247D01*
X109210328Y-115259108D01*
X135374500Y-115259108D01*
X135374500Y-115390892D01*
X135381199Y-115415892D01*
X135408608Y-115518187D01*
X135436151Y-115565892D01*
X135474500Y-115632314D01*
X135567686Y-115725500D01*
X135666521Y-115782563D01*
X135676231Y-115788169D01*
X135681814Y-115791392D01*
X135809108Y-115825500D01*
X135809110Y-115825500D01*
X135940890Y-115825500D01*
X135940892Y-115825500D01*
X136068186Y-115791392D01*
X136182314Y-115725500D01*
X136275500Y-115632314D01*
X136341392Y-115518186D01*
X136375500Y-115390892D01*
X136375500Y-115259108D01*
X136341392Y-115131814D01*
X136275500Y-115017686D01*
X136182314Y-114924500D01*
X136083910Y-114867686D01*
X136068187Y-114858608D01*
X136004539Y-114841554D01*
X135940892Y-114824500D01*
X135809108Y-114824500D01*
X135681812Y-114858608D01*
X135567686Y-114924500D01*
X135567683Y-114924502D01*
X135474502Y-115017683D01*
X135474500Y-115017686D01*
X135408608Y-115131812D01*
X135386165Y-115215573D01*
X135374500Y-115259108D01*
X109210328Y-115259108D01*
X109208868Y-115251770D01*
X109208867Y-115251769D01*
X109164552Y-115185447D01*
X109098230Y-115141132D01*
X109098229Y-115141131D01*
X109039752Y-115129500D01*
X109039748Y-115129500D01*
X107300252Y-115129500D01*
X107300247Y-115129500D01*
X107241770Y-115141131D01*
X107241769Y-115141132D01*
X107175447Y-115185447D01*
X107131132Y-115251769D01*
X107131131Y-115251770D01*
X107119500Y-115310247D01*
X91350500Y-115310247D01*
X91350500Y-114471608D01*
X138112000Y-114471608D01*
X138112000Y-114603391D01*
X138146108Y-114730687D01*
X138171404Y-114774500D01*
X138212000Y-114844814D01*
X138305186Y-114938000D01*
X138419314Y-115003892D01*
X138546608Y-115038000D01*
X138546610Y-115038000D01*
X138550500Y-115038000D01*
X138553662Y-115038928D01*
X138554668Y-115039061D01*
X138554647Y-115039217D01*
X138617539Y-115057685D01*
X138663294Y-115110489D01*
X138674500Y-115162000D01*
X138674500Y-115240892D01*
X138683639Y-115275000D01*
X138708608Y-115368187D01*
X138736151Y-115415892D01*
X138774500Y-115482314D01*
X138867686Y-115575500D01*
X138981814Y-115641392D01*
X139109108Y-115675500D01*
X139109110Y-115675500D01*
X139150500Y-115675500D01*
X139217539Y-115695185D01*
X139263294Y-115747989D01*
X139274500Y-115799500D01*
X139274500Y-115815892D01*
X139283773Y-115850499D01*
X139308608Y-115943187D01*
X139332099Y-115983873D01*
X139374500Y-116057314D01*
X139467686Y-116150500D01*
X139581814Y-116216392D01*
X139709108Y-116250500D01*
X139709110Y-116250500D01*
X139840890Y-116250500D01*
X139840892Y-116250500D01*
X139968186Y-116216392D01*
X140082314Y-116150500D01*
X140175500Y-116057314D01*
X140241392Y-115943186D01*
X140275500Y-115815892D01*
X140275500Y-115684108D01*
X140241392Y-115556814D01*
X140175500Y-115442686D01*
X140082314Y-115349500D01*
X140014335Y-115310252D01*
X139969053Y-115284108D01*
X142949500Y-115284108D01*
X142949500Y-115415892D01*
X142962244Y-115463454D01*
X142983608Y-115543187D01*
X143007749Y-115585000D01*
X143049500Y-115657314D01*
X143142686Y-115750500D01*
X143241089Y-115807313D01*
X143255944Y-115815890D01*
X143256814Y-115816392D01*
X143384108Y-115850500D01*
X143384110Y-115850500D01*
X143515890Y-115850500D01*
X143515892Y-115850500D01*
X143643186Y-115816392D01*
X143757314Y-115750500D01*
X143850500Y-115657314D01*
X143916392Y-115543186D01*
X143945619Y-115434108D01*
X146024500Y-115434108D01*
X146024500Y-115565892D01*
X146027793Y-115578182D01*
X146058608Y-115693187D01*
X146090249Y-115747989D01*
X146124500Y-115807314D01*
X146217686Y-115900500D01*
X146331814Y-115966392D01*
X146459108Y-116000500D01*
X146459110Y-116000500D01*
X146590890Y-116000500D01*
X146590892Y-116000500D01*
X146718186Y-115966392D01*
X146832314Y-115900500D01*
X146925500Y-115807314D01*
X146991392Y-115693186D01*
X147025500Y-115565892D01*
X147025500Y-115434108D01*
X146991392Y-115306814D01*
X146925500Y-115192686D01*
X146832314Y-115099500D01*
X146775250Y-115066554D01*
X146718187Y-115033608D01*
X146607283Y-115003892D01*
X146590892Y-114999500D01*
X146459108Y-114999500D01*
X146331812Y-115033608D01*
X146217686Y-115099500D01*
X146217683Y-115099502D01*
X146124502Y-115192683D01*
X146124500Y-115192686D01*
X146058608Y-115306812D01*
X146031333Y-115408608D01*
X146024500Y-115434108D01*
X143945619Y-115434108D01*
X143950500Y-115415892D01*
X143950500Y-115284108D01*
X143916392Y-115156814D01*
X143850500Y-115042686D01*
X143757314Y-114949500D01*
X143700250Y-114916554D01*
X143643187Y-114883608D01*
X143579539Y-114866554D01*
X143515892Y-114849500D01*
X143384108Y-114849500D01*
X143256812Y-114883608D01*
X143142686Y-114949500D01*
X143142683Y-114949502D01*
X143049502Y-115042683D01*
X143049500Y-115042686D01*
X142983608Y-115156812D01*
X142959003Y-115248642D01*
X142949500Y-115284108D01*
X139969053Y-115284108D01*
X139968187Y-115283608D01*
X139882956Y-115260771D01*
X139840892Y-115249500D01*
X139799500Y-115249500D01*
X139732461Y-115229815D01*
X139686706Y-115177011D01*
X139675500Y-115125500D01*
X139675500Y-115109110D01*
X139675500Y-115109108D01*
X139641392Y-114981814D01*
X139575500Y-114867686D01*
X139482314Y-114774500D01*
X139406426Y-114730686D01*
X139368187Y-114708608D01*
X139304539Y-114691554D01*
X139240892Y-114674500D01*
X139237000Y-114674500D01*
X139233837Y-114673571D01*
X139232832Y-114673439D01*
X139232852Y-114673282D01*
X139169961Y-114654815D01*
X139124206Y-114602011D01*
X139113000Y-114550500D01*
X139113000Y-114471610D01*
X139113000Y-114471608D01*
X139078892Y-114344314D01*
X139013000Y-114230186D01*
X138919814Y-114137000D01*
X138826921Y-114083368D01*
X138826919Y-114083366D01*
X138805689Y-114071109D01*
X138805686Y-114071108D01*
X138678392Y-114037000D01*
X138546608Y-114037000D01*
X138419312Y-114071108D01*
X138305186Y-114137000D01*
X138305183Y-114137002D01*
X138212002Y-114230183D01*
X138212000Y-114230186D01*
X138146108Y-114344312D01*
X138112000Y-114471608D01*
X91350500Y-114471608D01*
X91350500Y-113984108D01*
X147949500Y-113984108D01*
X147949500Y-114115892D01*
X147966554Y-114179539D01*
X147983608Y-114243187D01*
X148016554Y-114300250D01*
X148049500Y-114357314D01*
X148142686Y-114450500D01*
X148256814Y-114516392D01*
X148384108Y-114550500D01*
X148384110Y-114550500D01*
X148515890Y-114550500D01*
X148515892Y-114550500D01*
X148643186Y-114516392D01*
X148757314Y-114450500D01*
X148850500Y-114357314D01*
X148916392Y-114243186D01*
X148950500Y-114115892D01*
X148950500Y-113984108D01*
X148916392Y-113856814D01*
X148850500Y-113742686D01*
X148757314Y-113649500D01*
X148700250Y-113616554D01*
X148643187Y-113583608D01*
X148559042Y-113561062D01*
X148515892Y-113549500D01*
X148384108Y-113549500D01*
X148256812Y-113583608D01*
X148142686Y-113649500D01*
X148142683Y-113649502D01*
X148049502Y-113742683D01*
X148049500Y-113742686D01*
X147983608Y-113856812D01*
X147967396Y-113917319D01*
X147949500Y-113984108D01*
X91350500Y-113984108D01*
X91350500Y-113301984D01*
X124419313Y-113301984D01*
X124419313Y-113433767D01*
X124453421Y-113561063D01*
X124461080Y-113574328D01*
X124519313Y-113675190D01*
X124612499Y-113768376D01*
X124726627Y-113834268D01*
X124853921Y-113868376D01*
X124853923Y-113868376D01*
X124985703Y-113868376D01*
X124985705Y-113868376D01*
X125112999Y-113834268D01*
X125227127Y-113768376D01*
X125320313Y-113675190D01*
X125386205Y-113561062D01*
X125420313Y-113433768D01*
X125420313Y-113301984D01*
X125386205Y-113174690D01*
X125382450Y-113168187D01*
X125377376Y-113159397D01*
X125320313Y-113060562D01*
X125227127Y-112967376D01*
X125211523Y-112958367D01*
X125211522Y-112958366D01*
X125113001Y-112901485D01*
X125113000Y-112901484D01*
X125112999Y-112901484D01*
X124985705Y-112867376D01*
X124853921Y-112867376D01*
X124726625Y-112901484D01*
X124612499Y-112967376D01*
X124612496Y-112967378D01*
X124519315Y-113060559D01*
X124519313Y-113060562D01*
X124453421Y-113174688D01*
X124419313Y-113301984D01*
X91350500Y-113301984D01*
X91350500Y-112859108D01*
X132774500Y-112859108D01*
X132774500Y-112990891D01*
X132808608Y-113118187D01*
X132836021Y-113165667D01*
X132874500Y-113232314D01*
X132967686Y-113325500D01*
X133081814Y-113391392D01*
X133209108Y-113425500D01*
X133209110Y-113425500D01*
X133340890Y-113425500D01*
X133340892Y-113425500D01*
X133468186Y-113391392D01*
X133582314Y-113325500D01*
X133675500Y-113232314D01*
X133741392Y-113118186D01*
X133775500Y-112990892D01*
X133775500Y-112909108D01*
X145474500Y-112909108D01*
X145474500Y-113040891D01*
X145508608Y-113168187D01*
X145512363Y-113174690D01*
X145574500Y-113282314D01*
X145667686Y-113375500D01*
X145781814Y-113441392D01*
X145909108Y-113475500D01*
X145909110Y-113475500D01*
X146040890Y-113475500D01*
X146040892Y-113475500D01*
X146168186Y-113441392D01*
X146172338Y-113438995D01*
X159004499Y-113438995D01*
X159031418Y-113574322D01*
X159031421Y-113574332D01*
X159084221Y-113701804D01*
X159084228Y-113701817D01*
X159160885Y-113816541D01*
X159160888Y-113816545D01*
X159261662Y-113917319D01*
X159295147Y-113978642D01*
X159290163Y-114048334D01*
X159261662Y-114092681D01*
X159160888Y-114193454D01*
X159160885Y-114193458D01*
X159084228Y-114308182D01*
X159084221Y-114308195D01*
X159031421Y-114435667D01*
X159031418Y-114435677D01*
X159004500Y-114571004D01*
X159004500Y-114571007D01*
X159004500Y-114708993D01*
X159004500Y-114708995D01*
X159004499Y-114708995D01*
X159031418Y-114844322D01*
X159031421Y-114844332D01*
X159084221Y-114971804D01*
X159084228Y-114971817D01*
X159160885Y-115086541D01*
X159160888Y-115086545D01*
X159261662Y-115187319D01*
X159295147Y-115248642D01*
X159290163Y-115318334D01*
X159261662Y-115362681D01*
X159160888Y-115463454D01*
X159160885Y-115463458D01*
X159084228Y-115578182D01*
X159084221Y-115578195D01*
X159031421Y-115705667D01*
X159031418Y-115705677D01*
X159004500Y-115841004D01*
X159004500Y-115841007D01*
X159004500Y-115978993D01*
X159004500Y-115978995D01*
X159004499Y-115978995D01*
X159031418Y-116114322D01*
X159031421Y-116114332D01*
X159084221Y-116241804D01*
X159084228Y-116241817D01*
X159160885Y-116356541D01*
X159160888Y-116356545D01*
X159261662Y-116457319D01*
X159295147Y-116518642D01*
X159290163Y-116588334D01*
X159261662Y-116632681D01*
X159160888Y-116733454D01*
X159160885Y-116733458D01*
X159084228Y-116848182D01*
X159084221Y-116848195D01*
X159031421Y-116975667D01*
X159031418Y-116975677D01*
X159004500Y-117111004D01*
X159004500Y-117111007D01*
X159004500Y-117248993D01*
X159004500Y-117248995D01*
X159004499Y-117248995D01*
X159031418Y-117384322D01*
X159031421Y-117384332D01*
X159084221Y-117511804D01*
X159084228Y-117511817D01*
X159160885Y-117626541D01*
X159160888Y-117626545D01*
X159261662Y-117727319D01*
X159295147Y-117788642D01*
X159290163Y-117858334D01*
X159261662Y-117902681D01*
X159160888Y-118003454D01*
X159160885Y-118003458D01*
X159084228Y-118118182D01*
X159084221Y-118118195D01*
X159031421Y-118245667D01*
X159031418Y-118245677D01*
X159004500Y-118381004D01*
X159004500Y-118381007D01*
X159004500Y-118518993D01*
X159004500Y-118518995D01*
X159004499Y-118518995D01*
X159031418Y-118654322D01*
X159031421Y-118654332D01*
X159084221Y-118781804D01*
X159084228Y-118781817D01*
X159160885Y-118896541D01*
X159160888Y-118896545D01*
X159258454Y-118994111D01*
X159258458Y-118994114D01*
X159373182Y-119070771D01*
X159373195Y-119070778D01*
X159464526Y-119108608D01*
X159500672Y-119123580D01*
X159500676Y-119123580D01*
X159500677Y-119123581D01*
X159636004Y-119150500D01*
X159636007Y-119150500D01*
X159773995Y-119150500D01*
X159865425Y-119132313D01*
X159909328Y-119123580D01*
X160036811Y-119070775D01*
X160125730Y-119011361D01*
X160192405Y-118990484D01*
X160259785Y-119008968D01*
X160297721Y-119045573D01*
X160330447Y-119094552D01*
X160396769Y-119138867D01*
X160396770Y-119138868D01*
X160455247Y-119150499D01*
X160455250Y-119150500D01*
X160455252Y-119150500D01*
X161494750Y-119150500D01*
X161494751Y-119150499D01*
X161509568Y-119147552D01*
X161553229Y-119138868D01*
X161553229Y-119138867D01*
X161553231Y-119138867D01*
X161619552Y-119094552D01*
X161663867Y-119028231D01*
X161663867Y-119028229D01*
X161663868Y-119028229D01*
X161675499Y-118969752D01*
X161675500Y-118969750D01*
X161675500Y-117930249D01*
X161675499Y-117930247D01*
X161663868Y-117871770D01*
X161663867Y-117871769D01*
X161619552Y-117805447D01*
X161570573Y-117772721D01*
X161525768Y-117719109D01*
X161517061Y-117649784D01*
X161536360Y-117600730D01*
X161595775Y-117511811D01*
X161648580Y-117384328D01*
X161675500Y-117248993D01*
X161675500Y-117111007D01*
X161675500Y-117111004D01*
X161648581Y-116975677D01*
X161648580Y-116975676D01*
X161648580Y-116975672D01*
X161634381Y-116941392D01*
X161595778Y-116848195D01*
X161595771Y-116848182D01*
X161519114Y-116733458D01*
X161519111Y-116733454D01*
X161421545Y-116635888D01*
X161421541Y-116635885D01*
X161306817Y-116559228D01*
X161306807Y-116559223D01*
X161267902Y-116543108D01*
X161227674Y-116516228D01*
X160975001Y-116263554D01*
X160722324Y-116516229D01*
X160682098Y-116543107D01*
X160643192Y-116559223D01*
X160643186Y-116559226D01*
X160528462Y-116635882D01*
X160528454Y-116635888D01*
X160427681Y-116736662D01*
X160419735Y-116741000D01*
X160414310Y-116748248D01*
X160389550Y-116757482D01*
X160366358Y-116770147D01*
X160357328Y-116769501D01*
X160348846Y-116772665D01*
X160323025Y-116767048D01*
X160296666Y-116765163D01*
X160287612Y-116759344D01*
X160280573Y-116757813D01*
X160252319Y-116736662D01*
X160148338Y-116632681D01*
X160114853Y-116571358D01*
X160119837Y-116501666D01*
X160148338Y-116457319D01*
X160249111Y-116356545D01*
X160249114Y-116356542D01*
X160259238Y-116341391D01*
X160325775Y-116241811D01*
X160329001Y-116234024D01*
X160336304Y-116216391D01*
X160341891Y-116202902D01*
X160368771Y-116162673D01*
X160621445Y-115909999D01*
X160578659Y-115867213D01*
X160650000Y-115867213D01*
X160650000Y-115952787D01*
X160672149Y-116035445D01*
X160714936Y-116109554D01*
X160775446Y-116170064D01*
X160849555Y-116212851D01*
X160932213Y-116235000D01*
X161017787Y-116235000D01*
X161100445Y-116212851D01*
X161174554Y-116170064D01*
X161235064Y-116109554D01*
X161277851Y-116035445D01*
X161300000Y-115952787D01*
X161300000Y-115909999D01*
X161328554Y-115909999D01*
X161328554Y-115910001D01*
X161652577Y-116234024D01*
X161652578Y-116234024D01*
X161696175Y-116128775D01*
X161696179Y-116128760D01*
X161724999Y-115983873D01*
X161725000Y-115983871D01*
X161725000Y-115836128D01*
X161724999Y-115836126D01*
X161696179Y-115691240D01*
X161696178Y-115691236D01*
X161652577Y-115585975D01*
X161328554Y-115909999D01*
X161300000Y-115909999D01*
X161300000Y-115867213D01*
X161277851Y-115784555D01*
X161235064Y-115710446D01*
X161174554Y-115649936D01*
X161100445Y-115607149D01*
X161017787Y-115585000D01*
X160932213Y-115585000D01*
X160849555Y-115607149D01*
X160775446Y-115649936D01*
X160714936Y-115710446D01*
X160672149Y-115784555D01*
X160650000Y-115867213D01*
X160578659Y-115867213D01*
X160368770Y-115657324D01*
X160341891Y-115617097D01*
X160325775Y-115578189D01*
X160325770Y-115578182D01*
X160249114Y-115463458D01*
X160249111Y-115463454D01*
X160148338Y-115362681D01*
X160143999Y-115354735D01*
X160136752Y-115349310D01*
X160127517Y-115324550D01*
X160114853Y-115301358D01*
X160115498Y-115292328D01*
X160112335Y-115283846D01*
X160117951Y-115258025D01*
X160119837Y-115231666D01*
X160125655Y-115222612D01*
X160127187Y-115215573D01*
X160148338Y-115187319D01*
X160252319Y-115083338D01*
X160313642Y-115049853D01*
X160383334Y-115054837D01*
X160427681Y-115083338D01*
X160528454Y-115184111D01*
X160528458Y-115184114D01*
X160643184Y-115260772D01*
X160643185Y-115260772D01*
X160643189Y-115260775D01*
X160682097Y-115276891D01*
X160722324Y-115303770D01*
X160974999Y-115556445D01*
X161227673Y-115303771D01*
X161267903Y-115276891D01*
X161272469Y-115275000D01*
X161306811Y-115260775D01*
X161421542Y-115184114D01*
X161519114Y-115086542D01*
X161595775Y-114971811D01*
X161605017Y-114949500D01*
X161642665Y-114858608D01*
X161648580Y-114844328D01*
X161675500Y-114708993D01*
X161675500Y-114571007D01*
X161675500Y-114571004D01*
X161648581Y-114435677D01*
X161648580Y-114435676D01*
X161648580Y-114435672D01*
X161616124Y-114357316D01*
X161595778Y-114308195D01*
X161595771Y-114308182D01*
X161519114Y-114193458D01*
X161519111Y-114193454D01*
X161418338Y-114092681D01*
X161384853Y-114031358D01*
X161389837Y-113961666D01*
X161418338Y-113917319D01*
X161519111Y-113816545D01*
X161519114Y-113816542D01*
X161595775Y-113701811D01*
X161648580Y-113574328D01*
X161668238Y-113475500D01*
X161675500Y-113438995D01*
X161675500Y-113301004D01*
X161648581Y-113165677D01*
X161648580Y-113165676D01*
X161648580Y-113165672D01*
X161610000Y-113072531D01*
X161595778Y-113038195D01*
X161595771Y-113038182D01*
X161519114Y-112923458D01*
X161519111Y-112923454D01*
X161421545Y-112825888D01*
X161421541Y-112825885D01*
X161306817Y-112749228D01*
X161306804Y-112749221D01*
X161179332Y-112696421D01*
X161179322Y-112696418D01*
X161043995Y-112669500D01*
X161043993Y-112669500D01*
X160906007Y-112669500D01*
X160906005Y-112669500D01*
X160770677Y-112696418D01*
X160770667Y-112696421D01*
X160643195Y-112749221D01*
X160643182Y-112749228D01*
X160528458Y-112825885D01*
X160528454Y-112825888D01*
X160427681Y-112926662D01*
X160366358Y-112960147D01*
X160296666Y-112955163D01*
X160252319Y-112926662D01*
X160151545Y-112825888D01*
X160151541Y-112825885D01*
X160036817Y-112749228D01*
X160036804Y-112749221D01*
X159909332Y-112696421D01*
X159909322Y-112696418D01*
X159773995Y-112669500D01*
X159773993Y-112669500D01*
X159636007Y-112669500D01*
X159636005Y-112669500D01*
X159500677Y-112696418D01*
X159500667Y-112696421D01*
X159373195Y-112749221D01*
X159373182Y-112749228D01*
X159258458Y-112825885D01*
X159258454Y-112825888D01*
X159160888Y-112923454D01*
X159160885Y-112923458D01*
X159084228Y-113038182D01*
X159084221Y-113038195D01*
X159031421Y-113165667D01*
X159031418Y-113165677D01*
X159004500Y-113301004D01*
X159004500Y-113301007D01*
X159004500Y-113438993D01*
X159004500Y-113438995D01*
X159004499Y-113438995D01*
X146172338Y-113438995D01*
X146282314Y-113375500D01*
X146375500Y-113282314D01*
X146441392Y-113168186D01*
X146475500Y-113040892D01*
X146475500Y-112909108D01*
X146441392Y-112781814D01*
X146375500Y-112667686D01*
X146282314Y-112574500D01*
X146225250Y-112541554D01*
X146168187Y-112508608D01*
X146104539Y-112491554D01*
X146040892Y-112474500D01*
X145909108Y-112474500D01*
X145781812Y-112508608D01*
X145667686Y-112574500D01*
X145667683Y-112574502D01*
X145574502Y-112667683D01*
X145574500Y-112667686D01*
X145508608Y-112781812D01*
X145474500Y-112909108D01*
X133775500Y-112909108D01*
X133775500Y-112859108D01*
X133741392Y-112731814D01*
X133675500Y-112617686D01*
X133582314Y-112524500D01*
X133495712Y-112474500D01*
X133468187Y-112458608D01*
X133404539Y-112441554D01*
X133340892Y-112424500D01*
X133209108Y-112424500D01*
X133081812Y-112458608D01*
X132967686Y-112524500D01*
X132967683Y-112524502D01*
X132874502Y-112617683D01*
X132874500Y-112617686D01*
X132808608Y-112731812D01*
X132774500Y-112859108D01*
X91350500Y-112859108D01*
X91350500Y-109846931D01*
X132818887Y-109846931D01*
X132818887Y-109978714D01*
X132852995Y-110106010D01*
X132885941Y-110163073D01*
X132918887Y-110220137D01*
X133012073Y-110313323D01*
X133126201Y-110379215D01*
X133253495Y-110413323D01*
X133253497Y-110413323D01*
X133385277Y-110413323D01*
X133385279Y-110413323D01*
X133512573Y-110379215D01*
X133626701Y-110313323D01*
X133719887Y-110220137D01*
X133785779Y-110106009D01*
X133819887Y-109978715D01*
X133819887Y-109846931D01*
X133785779Y-109719637D01*
X133719887Y-109605509D01*
X133626701Y-109512323D01*
X133569637Y-109479377D01*
X133512574Y-109446431D01*
X133448926Y-109429377D01*
X133385279Y-109412323D01*
X133253495Y-109412323D01*
X133126199Y-109446431D01*
X133012073Y-109512323D01*
X133012070Y-109512325D01*
X132918889Y-109605506D01*
X132918887Y-109605509D01*
X132852995Y-109719635D01*
X132818887Y-109846931D01*
X91350500Y-109846931D01*
X91350500Y-106709108D01*
X122674500Y-106709108D01*
X122674500Y-106840891D01*
X122708608Y-106968187D01*
X122726687Y-106999500D01*
X122774500Y-107082314D01*
X122867686Y-107175500D01*
X122981814Y-107241392D01*
X123109108Y-107275500D01*
X123109110Y-107275500D01*
X123240890Y-107275500D01*
X123240892Y-107275500D01*
X123302068Y-107259108D01*
X124624500Y-107259108D01*
X124624500Y-107390891D01*
X124658608Y-107518187D01*
X124686151Y-107565892D01*
X124724500Y-107632314D01*
X124817686Y-107725500D01*
X124931814Y-107791392D01*
X125059108Y-107825500D01*
X125059110Y-107825500D01*
X125190888Y-107825500D01*
X125190892Y-107825500D01*
X125193403Y-107824827D01*
X125195603Y-107824879D01*
X125198948Y-107824439D01*
X125199016Y-107824960D01*
X125263249Y-107826486D01*
X125321114Y-107865644D01*
X125348622Y-107929871D01*
X125349500Y-107944600D01*
X125349500Y-108040891D01*
X125383608Y-108168187D01*
X125416554Y-108225250D01*
X125449500Y-108282314D01*
X125542686Y-108375500D01*
X125656814Y-108441392D01*
X125784108Y-108475500D01*
X125784110Y-108475500D01*
X125915890Y-108475500D01*
X125915892Y-108475500D01*
X126043186Y-108441392D01*
X126157314Y-108375500D01*
X126250500Y-108282314D01*
X126316392Y-108168186D01*
X126350500Y-108040892D01*
X126350500Y-107909108D01*
X126316392Y-107781814D01*
X126250500Y-107667686D01*
X126157314Y-107574500D01*
X126157312Y-107574499D01*
X126157310Y-107574497D01*
X126086072Y-107533368D01*
X126086071Y-107533368D01*
X126043187Y-107508608D01*
X125979539Y-107491554D01*
X125915892Y-107474500D01*
X125784108Y-107474500D01*
X125781588Y-107475174D01*
X125779383Y-107475122D01*
X125776052Y-107475561D01*
X125775983Y-107475041D01*
X125711741Y-107473510D01*
X125653879Y-107434346D01*
X125653777Y-107434108D01*
X138899500Y-107434108D01*
X138899500Y-107565892D01*
X138901807Y-107574502D01*
X138933608Y-107693187D01*
X138960361Y-107739523D01*
X138999500Y-107807314D01*
X139092686Y-107900500D01*
X139206814Y-107966392D01*
X139334108Y-108000500D01*
X139334110Y-108000500D01*
X139465890Y-108000500D01*
X139465892Y-108000500D01*
X139593186Y-107966392D01*
X139707314Y-107900500D01*
X139800500Y-107807314D01*
X139866392Y-107693186D01*
X139900500Y-107565892D01*
X139900500Y-107434108D01*
X139866392Y-107306814D01*
X139800500Y-107192686D01*
X139707314Y-107099500D01*
X139650250Y-107066554D01*
X139593187Y-107033608D01*
X139529539Y-107016554D01*
X139465892Y-106999500D01*
X139334108Y-106999500D01*
X139206812Y-107033608D01*
X139092686Y-107099500D01*
X139092683Y-107099502D01*
X138999502Y-107192683D01*
X138999500Y-107192686D01*
X138933608Y-107306812D01*
X138899500Y-107434108D01*
X125653777Y-107434108D01*
X125626377Y-107370117D01*
X125625500Y-107355399D01*
X125625500Y-107259110D01*
X125625500Y-107259108D01*
X125591392Y-107131814D01*
X125525500Y-107017686D01*
X125432314Y-106924500D01*
X125375250Y-106891554D01*
X125318187Y-106858608D01*
X125252061Y-106840890D01*
X125190892Y-106824500D01*
X125059108Y-106824500D01*
X124931812Y-106858608D01*
X124817686Y-106924500D01*
X124817683Y-106924502D01*
X124724502Y-107017683D01*
X124724500Y-107017686D01*
X124658608Y-107131812D01*
X124624500Y-107259108D01*
X123302068Y-107259108D01*
X123368186Y-107241392D01*
X123482314Y-107175500D01*
X123575500Y-107082314D01*
X123641392Y-106968186D01*
X123675500Y-106840892D01*
X123675500Y-106709108D01*
X123641392Y-106581814D01*
X123575500Y-106467686D01*
X123482314Y-106374500D01*
X123425250Y-106341554D01*
X123368187Y-106308608D01*
X123304539Y-106291554D01*
X123240892Y-106274500D01*
X123109108Y-106274500D01*
X122981812Y-106308608D01*
X122867686Y-106374500D01*
X122867683Y-106374502D01*
X122774502Y-106467683D01*
X122774500Y-106467686D01*
X122708608Y-106581812D01*
X122674500Y-106709108D01*
X91350500Y-106709108D01*
X91350500Y-105784108D01*
X114499500Y-105784108D01*
X114499500Y-105915891D01*
X114533608Y-106043187D01*
X114566554Y-106100250D01*
X114599500Y-106157314D01*
X114692686Y-106250500D01*
X114806814Y-106316392D01*
X114934108Y-106350500D01*
X114934110Y-106350500D01*
X115065890Y-106350500D01*
X115065892Y-106350500D01*
X115193186Y-106316392D01*
X115307314Y-106250500D01*
X115400500Y-106157314D01*
X115466392Y-106043186D01*
X115500500Y-105915892D01*
X115500500Y-105885067D01*
X128800873Y-105885067D01*
X128800873Y-106016851D01*
X128807930Y-106043187D01*
X128834981Y-106144146D01*
X128867927Y-106201209D01*
X128900873Y-106258273D01*
X128994059Y-106351459D01*
X129108187Y-106417351D01*
X129235481Y-106451459D01*
X129235483Y-106451459D01*
X129367263Y-106451459D01*
X129367265Y-106451459D01*
X129494559Y-106417351D01*
X129608687Y-106351459D01*
X129701873Y-106258273D01*
X129767765Y-106144145D01*
X129801873Y-106016851D01*
X129801873Y-105909108D01*
X138974500Y-105909108D01*
X138974500Y-106040891D01*
X139008608Y-106168187D01*
X139041554Y-106225250D01*
X139074500Y-106282314D01*
X139167686Y-106375500D01*
X139281814Y-106441392D01*
X139409108Y-106475500D01*
X139409110Y-106475500D01*
X139540890Y-106475500D01*
X139540892Y-106475500D01*
X139668186Y-106441392D01*
X139782314Y-106375500D01*
X139875500Y-106282314D01*
X139941392Y-106168186D01*
X139975500Y-106040892D01*
X139975500Y-105909108D01*
X139941392Y-105781814D01*
X139875500Y-105667686D01*
X139782314Y-105574500D01*
X139725250Y-105541554D01*
X139668187Y-105508608D01*
X139578463Y-105484567D01*
X139540892Y-105474500D01*
X139409108Y-105474500D01*
X139281812Y-105508608D01*
X139167686Y-105574500D01*
X139167683Y-105574502D01*
X139074502Y-105667683D01*
X139074500Y-105667686D01*
X139008608Y-105781812D01*
X138974500Y-105909108D01*
X129801873Y-105909108D01*
X129801873Y-105885067D01*
X129767765Y-105757773D01*
X129701873Y-105643645D01*
X129608687Y-105550459D01*
X129536199Y-105508608D01*
X129494560Y-105484567D01*
X129430912Y-105467513D01*
X129367265Y-105450459D01*
X129235481Y-105450459D01*
X129108185Y-105484567D01*
X128994059Y-105550459D01*
X128994056Y-105550461D01*
X128900875Y-105643642D01*
X128900873Y-105643645D01*
X128834981Y-105757771D01*
X128827924Y-105784110D01*
X128800873Y-105885067D01*
X115500500Y-105885067D01*
X115500500Y-105784108D01*
X115466392Y-105656814D01*
X115400500Y-105542686D01*
X115307314Y-105449500D01*
X115250250Y-105416554D01*
X115193187Y-105383608D01*
X115129539Y-105366554D01*
X115065892Y-105349500D01*
X114934108Y-105349500D01*
X114806812Y-105383608D01*
X114692686Y-105449500D01*
X114692683Y-105449502D01*
X114599502Y-105542683D01*
X114599500Y-105542686D01*
X114533608Y-105656812D01*
X114499500Y-105784108D01*
X91350500Y-105784108D01*
X91350500Y-104859108D01*
X127724500Y-104859108D01*
X127724500Y-104990892D01*
X127741554Y-105054539D01*
X127758608Y-105118187D01*
X127772005Y-105141391D01*
X127824500Y-105232314D01*
X127917686Y-105325500D01*
X128031814Y-105391392D01*
X128159108Y-105425500D01*
X128159110Y-105425500D01*
X128290890Y-105425500D01*
X128290892Y-105425500D01*
X128418186Y-105391392D01*
X128532314Y-105325500D01*
X128625500Y-105232314D01*
X128691392Y-105118186D01*
X128725500Y-104990892D01*
X128725500Y-104859108D01*
X128691392Y-104731814D01*
X128625500Y-104617686D01*
X128616922Y-104609108D01*
X133949500Y-104609108D01*
X133949500Y-104740892D01*
X133963512Y-104793186D01*
X133983608Y-104868187D01*
X134006200Y-104907316D01*
X134049500Y-104982314D01*
X134142686Y-105075500D01*
X134256814Y-105141392D01*
X134384108Y-105175500D01*
X134384110Y-105175500D01*
X134515890Y-105175500D01*
X134515892Y-105175500D01*
X134643186Y-105141392D01*
X134757314Y-105075500D01*
X134850500Y-104982314D01*
X134916392Y-104868186D01*
X134950500Y-104740892D01*
X134950500Y-104609108D01*
X134930404Y-104534108D01*
X137899500Y-104534108D01*
X137899500Y-104665891D01*
X137933608Y-104793187D01*
X137966554Y-104850250D01*
X137999500Y-104907314D01*
X138092686Y-105000500D01*
X138206814Y-105066392D01*
X138334108Y-105100500D01*
X138334110Y-105100500D01*
X138465890Y-105100500D01*
X138465892Y-105100500D01*
X138593186Y-105066392D01*
X138707314Y-105000500D01*
X138800500Y-104907314D01*
X138866392Y-104793186D01*
X138900500Y-104665892D01*
X138900500Y-104534108D01*
X138867007Y-104409108D01*
X157124500Y-104409108D01*
X157124500Y-104540891D01*
X157158608Y-104668187D01*
X157191554Y-104725250D01*
X157224500Y-104782314D01*
X157317686Y-104875500D01*
X157431814Y-104941392D01*
X157559108Y-104975500D01*
X157559110Y-104975500D01*
X157690890Y-104975500D01*
X157690892Y-104975500D01*
X157818186Y-104941392D01*
X157932314Y-104875500D01*
X158025500Y-104782314D01*
X158091392Y-104668186D01*
X158125500Y-104540892D01*
X158125500Y-104409108D01*
X158091392Y-104281814D01*
X158025500Y-104167686D01*
X157932314Y-104074500D01*
X157835157Y-104018406D01*
X157818187Y-104008608D01*
X157754539Y-103991554D01*
X157690892Y-103974500D01*
X157559108Y-103974500D01*
X157431812Y-104008608D01*
X157317686Y-104074500D01*
X157317683Y-104074502D01*
X157224502Y-104167683D01*
X157224500Y-104167686D01*
X157158608Y-104281812D01*
X157124500Y-104409108D01*
X138867007Y-104409108D01*
X138866392Y-104406814D01*
X138800500Y-104292686D01*
X138707314Y-104199500D01*
X138614856Y-104146119D01*
X138593187Y-104133608D01*
X138529539Y-104116554D01*
X138465892Y-104099500D01*
X138334108Y-104099500D01*
X138206812Y-104133608D01*
X138092686Y-104199500D01*
X138092683Y-104199502D01*
X137999502Y-104292683D01*
X137999500Y-104292686D01*
X137933608Y-104406812D01*
X137899500Y-104534108D01*
X134930404Y-104534108D01*
X134916392Y-104481814D01*
X134916390Y-104481810D01*
X134916332Y-104481594D01*
X134917995Y-104411744D01*
X134957157Y-104353881D01*
X135021386Y-104326377D01*
X135036107Y-104325500D01*
X135140890Y-104325500D01*
X135140892Y-104325500D01*
X135268186Y-104291392D01*
X135382314Y-104225500D01*
X135475500Y-104132314D01*
X135541392Y-104018186D01*
X135569453Y-103913458D01*
X135605817Y-103853800D01*
X135668663Y-103823271D01*
X135738039Y-103831565D01*
X135751227Y-103838167D01*
X135756810Y-103841390D01*
X135756811Y-103841390D01*
X135756814Y-103841392D01*
X135884108Y-103875500D01*
X135884110Y-103875500D01*
X136015890Y-103875500D01*
X136015892Y-103875500D01*
X136143186Y-103841392D01*
X136257314Y-103775500D01*
X136350500Y-103682314D01*
X136416392Y-103568186D01*
X136450500Y-103440892D01*
X136450500Y-103409108D01*
X145124500Y-103409108D01*
X145124500Y-103540891D01*
X145158608Y-103668187D01*
X145191554Y-103725250D01*
X145224500Y-103782314D01*
X145317686Y-103875500D01*
X145431814Y-103941392D01*
X145559108Y-103975500D01*
X145559110Y-103975500D01*
X145690890Y-103975500D01*
X145690892Y-103975500D01*
X145818186Y-103941392D01*
X145932314Y-103875500D01*
X146025500Y-103782314D01*
X146091392Y-103668186D01*
X146125500Y-103540892D01*
X146125500Y-103409108D01*
X146091392Y-103281814D01*
X146025500Y-103167686D01*
X145932314Y-103074500D01*
X145875250Y-103041554D01*
X145818187Y-103008608D01*
X145754539Y-102991554D01*
X145690892Y-102974500D01*
X145559108Y-102974500D01*
X145431812Y-103008608D01*
X145317686Y-103074500D01*
X145317683Y-103074502D01*
X145224502Y-103167683D01*
X145224500Y-103167686D01*
X145158608Y-103281812D01*
X145124500Y-103409108D01*
X136450500Y-103409108D01*
X136450500Y-103309108D01*
X136416392Y-103181814D01*
X136350500Y-103067686D01*
X136257314Y-102974500D01*
X136200250Y-102941554D01*
X136143187Y-102908608D01*
X136079539Y-102891554D01*
X136015892Y-102874500D01*
X135884108Y-102874500D01*
X135756812Y-102908608D01*
X135642686Y-102974500D01*
X135642683Y-102974502D01*
X135549502Y-103067683D01*
X135549500Y-103067686D01*
X135483609Y-103181812D01*
X135455547Y-103286539D01*
X135419181Y-103346199D01*
X135356334Y-103376728D01*
X135286959Y-103368433D01*
X135273775Y-103361834D01*
X135268189Y-103358609D01*
X135268186Y-103358608D01*
X135140892Y-103324500D01*
X135009108Y-103324500D01*
X134881812Y-103358608D01*
X134767686Y-103424500D01*
X134767683Y-103424502D01*
X134674502Y-103517683D01*
X134674500Y-103517686D01*
X134608608Y-103631812D01*
X134574500Y-103759108D01*
X134574500Y-103890892D01*
X134608608Y-104018186D01*
X134608609Y-104018187D01*
X134608668Y-104018406D01*
X134607005Y-104088256D01*
X134567843Y-104146119D01*
X134503614Y-104173623D01*
X134488893Y-104174500D01*
X134384108Y-104174500D01*
X134256812Y-104208608D01*
X134142686Y-104274500D01*
X134142683Y-104274502D01*
X134049502Y-104367683D01*
X134049500Y-104367686D01*
X133983608Y-104481812D01*
X133967778Y-104540892D01*
X133949500Y-104609108D01*
X128616922Y-104609108D01*
X128532314Y-104524500D01*
X128458380Y-104481814D01*
X128418187Y-104458608D01*
X128354539Y-104441554D01*
X128290892Y-104424500D01*
X128159108Y-104424500D01*
X128031812Y-104458608D01*
X127917686Y-104524500D01*
X127917683Y-104524502D01*
X127824502Y-104617683D01*
X127824500Y-104617686D01*
X127758608Y-104731812D01*
X127742163Y-104793187D01*
X127724500Y-104859108D01*
X91350500Y-104859108D01*
X91350500Y-102709108D01*
X137999500Y-102709108D01*
X137999500Y-102840891D01*
X138033608Y-102968187D01*
X138056946Y-103008608D01*
X138099500Y-103082314D01*
X138192686Y-103175500D01*
X138306814Y-103241392D01*
X138434108Y-103275500D01*
X138434110Y-103275500D01*
X138565890Y-103275500D01*
X138565892Y-103275500D01*
X138693186Y-103241392D01*
X138807314Y-103175500D01*
X138900500Y-103082314D01*
X138966392Y-102968186D01*
X139000500Y-102840892D01*
X139000500Y-102709108D01*
X138966392Y-102581814D01*
X138900500Y-102467686D01*
X138807314Y-102374500D01*
X138750250Y-102341554D01*
X138693187Y-102308608D01*
X138629539Y-102291554D01*
X138565892Y-102274500D01*
X138434108Y-102274500D01*
X138306812Y-102308608D01*
X138192686Y-102374500D01*
X138192683Y-102374502D01*
X138099502Y-102467683D01*
X138099500Y-102467686D01*
X138033608Y-102581812D01*
X137999500Y-102709108D01*
X91350500Y-102709108D01*
X91350500Y-101942366D01*
X122583266Y-101942366D01*
X122583266Y-102074149D01*
X122617374Y-102201445D01*
X122650320Y-102258508D01*
X122683266Y-102315572D01*
X122776452Y-102408758D01*
X122890580Y-102474650D01*
X123017874Y-102508758D01*
X123017876Y-102508758D01*
X123149656Y-102508758D01*
X123149658Y-102508758D01*
X123276952Y-102474650D01*
X123391080Y-102408758D01*
X123484266Y-102315572D01*
X123550158Y-102201444D01*
X123584266Y-102074150D01*
X123584266Y-101942366D01*
X123550158Y-101815072D01*
X123532281Y-101784108D01*
X124324500Y-101784108D01*
X124324500Y-101915891D01*
X124358608Y-102043187D01*
X124376485Y-102074150D01*
X124424500Y-102157314D01*
X124517686Y-102250500D01*
X124616521Y-102307563D01*
X124630393Y-102315572D01*
X124631814Y-102316392D01*
X124759108Y-102350500D01*
X124759110Y-102350500D01*
X124890890Y-102350500D01*
X124890892Y-102350500D01*
X125018186Y-102316392D01*
X125132314Y-102250500D01*
X125225500Y-102157314D01*
X125291392Y-102043186D01*
X125325500Y-101915892D01*
X125325500Y-101784108D01*
X125291392Y-101656814D01*
X125225500Y-101542686D01*
X125132314Y-101449500D01*
X125075250Y-101416554D01*
X125018187Y-101383608D01*
X124954539Y-101366554D01*
X124890892Y-101349500D01*
X124759108Y-101349500D01*
X124631812Y-101383608D01*
X124517686Y-101449500D01*
X124517683Y-101449502D01*
X124424502Y-101542683D01*
X124424500Y-101542686D01*
X124358608Y-101656812D01*
X124324500Y-101784108D01*
X123532281Y-101784108D01*
X123484266Y-101700944D01*
X123391080Y-101607758D01*
X123334016Y-101574812D01*
X123276953Y-101541866D01*
X123213305Y-101524812D01*
X123149658Y-101507758D01*
X123017874Y-101507758D01*
X122890578Y-101541866D01*
X122776452Y-101607758D01*
X122776449Y-101607760D01*
X122683268Y-101700941D01*
X122683266Y-101700944D01*
X122617374Y-101815070D01*
X122583266Y-101942366D01*
X91350500Y-101942366D01*
X91350500Y-101084108D01*
X118899500Y-101084108D01*
X118899500Y-101215891D01*
X118933608Y-101343187D01*
X118937253Y-101349500D01*
X118999500Y-101457314D01*
X119092686Y-101550500D01*
X119206814Y-101616392D01*
X119334108Y-101650500D01*
X119334110Y-101650500D01*
X119465890Y-101650500D01*
X119465892Y-101650500D01*
X119593186Y-101616392D01*
X119707314Y-101550500D01*
X119800500Y-101457314D01*
X119866392Y-101343186D01*
X119900500Y-101215892D01*
X119900500Y-101084108D01*
X119866392Y-100956814D01*
X119800500Y-100842686D01*
X119707314Y-100749500D01*
X119679371Y-100733367D01*
X119679370Y-100733366D01*
X119593188Y-100683609D01*
X119593187Y-100683608D01*
X119593186Y-100683608D01*
X119465892Y-100649500D01*
X119334108Y-100649500D01*
X119206812Y-100683608D01*
X119092686Y-100749500D01*
X119092683Y-100749502D01*
X118999502Y-100842683D01*
X118999500Y-100842686D01*
X118933608Y-100956812D01*
X118899500Y-101084108D01*
X91350500Y-101084108D01*
X91350500Y-100634108D01*
X123674500Y-100634108D01*
X123674500Y-100765891D01*
X123708608Y-100893187D01*
X123741554Y-100950250D01*
X123774500Y-101007314D01*
X123867686Y-101100500D01*
X123981814Y-101166392D01*
X124109108Y-101200500D01*
X124109110Y-101200500D01*
X124240890Y-101200500D01*
X124240892Y-101200500D01*
X124368186Y-101166392D01*
X124424103Y-101134108D01*
X126099500Y-101134108D01*
X126099500Y-101265891D01*
X126133608Y-101393187D01*
X126166121Y-101449500D01*
X126199500Y-101507314D01*
X126292686Y-101600500D01*
X126406814Y-101666392D01*
X126534108Y-101700500D01*
X126534110Y-101700500D01*
X126665890Y-101700500D01*
X126665892Y-101700500D01*
X126793186Y-101666392D01*
X126907314Y-101600500D01*
X127000500Y-101507314D01*
X127066392Y-101393186D01*
X127100500Y-101265892D01*
X127100500Y-101134108D01*
X127066392Y-101006814D01*
X127000500Y-100892686D01*
X126907314Y-100799500D01*
X126849100Y-100765890D01*
X126793187Y-100733608D01*
X126729539Y-100716554D01*
X126665892Y-100699500D01*
X126534108Y-100699500D01*
X126406812Y-100733608D01*
X126292686Y-100799500D01*
X126292683Y-100799502D01*
X126199502Y-100892683D01*
X126199500Y-100892686D01*
X126133608Y-101006812D01*
X126099500Y-101134108D01*
X124424103Y-101134108D01*
X124482314Y-101100500D01*
X124575500Y-101007314D01*
X124641392Y-100893186D01*
X124675500Y-100765892D01*
X124675500Y-100634108D01*
X124641392Y-100506814D01*
X124575500Y-100392686D01*
X124482314Y-100299500D01*
X124425250Y-100266554D01*
X124368187Y-100233608D01*
X124304539Y-100216554D01*
X124240892Y-100199500D01*
X124109108Y-100199500D01*
X123981812Y-100233608D01*
X123867686Y-100299500D01*
X123867683Y-100299502D01*
X123774502Y-100392683D01*
X123774500Y-100392686D01*
X123708608Y-100506812D01*
X123674500Y-100634108D01*
X91350500Y-100634108D01*
X91350500Y-98484108D01*
X118349500Y-98484108D01*
X118349500Y-98615891D01*
X118383608Y-98743187D01*
X118416554Y-98800250D01*
X118449500Y-98857314D01*
X118542686Y-98950500D01*
X118656814Y-99016392D01*
X118784108Y-99050500D01*
X118784110Y-99050500D01*
X118915890Y-99050500D01*
X118915892Y-99050500D01*
X119043186Y-99016392D01*
X119157314Y-98950500D01*
X119173706Y-98934108D01*
X144599500Y-98934108D01*
X144599500Y-99065891D01*
X144633608Y-99193187D01*
X144666554Y-99250250D01*
X144699500Y-99307314D01*
X144792686Y-99400500D01*
X144906814Y-99466392D01*
X145034108Y-99500500D01*
X145034110Y-99500500D01*
X145165890Y-99500500D01*
X145165892Y-99500500D01*
X145293186Y-99466392D01*
X145407314Y-99400500D01*
X145500500Y-99307314D01*
X145566392Y-99193186D01*
X145600500Y-99065892D01*
X145600500Y-98934108D01*
X145566392Y-98806814D01*
X145500500Y-98692686D01*
X145407314Y-98599500D01*
X145350250Y-98566554D01*
X145293187Y-98533608D01*
X145229539Y-98516554D01*
X145165892Y-98499500D01*
X145034108Y-98499500D01*
X144906812Y-98533608D01*
X144792686Y-98599500D01*
X144792683Y-98599502D01*
X144699502Y-98692683D01*
X144699500Y-98692686D01*
X144633608Y-98806812D01*
X144599500Y-98934108D01*
X119173706Y-98934108D01*
X119250500Y-98857314D01*
X119316392Y-98743186D01*
X119350500Y-98615892D01*
X119350500Y-98484108D01*
X119316392Y-98356814D01*
X119250500Y-98242686D01*
X119157314Y-98149500D01*
X119100250Y-98116554D01*
X119043187Y-98083608D01*
X118979539Y-98066554D01*
X118915892Y-98049500D01*
X118784108Y-98049500D01*
X118656812Y-98083608D01*
X118542686Y-98149500D01*
X118542683Y-98149502D01*
X118449502Y-98242683D01*
X118449500Y-98242686D01*
X118383608Y-98356812D01*
X118349500Y-98484108D01*
X91350500Y-98484108D01*
X91350500Y-97309108D01*
X142474500Y-97309108D01*
X142474500Y-97440891D01*
X142508608Y-97568187D01*
X142541554Y-97625250D01*
X142574500Y-97682314D01*
X142667686Y-97775500D01*
X142781814Y-97841392D01*
X142909108Y-97875500D01*
X142909110Y-97875500D01*
X143040890Y-97875500D01*
X143040892Y-97875500D01*
X143168186Y-97841392D01*
X143282314Y-97775500D01*
X143375500Y-97682314D01*
X143441392Y-97568186D01*
X143475500Y-97440892D01*
X143475500Y-97309108D01*
X143441392Y-97181814D01*
X143375500Y-97067686D01*
X143282314Y-96974500D01*
X143225250Y-96941554D01*
X143168187Y-96908608D01*
X143104539Y-96891554D01*
X143040892Y-96874500D01*
X142909108Y-96874500D01*
X142781812Y-96908608D01*
X142667686Y-96974500D01*
X142667683Y-96974502D01*
X142574502Y-97067683D01*
X142574500Y-97067686D01*
X142508608Y-97181812D01*
X142474500Y-97309108D01*
X91350500Y-97309108D01*
X91350500Y-96659108D01*
X122724500Y-96659108D01*
X122724500Y-96790891D01*
X122758608Y-96918187D01*
X122791121Y-96974500D01*
X122824500Y-97032314D01*
X122917686Y-97125500D01*
X123015221Y-97181812D01*
X123031810Y-97191390D01*
X123031814Y-97191392D01*
X123159108Y-97225500D01*
X123159110Y-97225500D01*
X123290890Y-97225500D01*
X123290892Y-97225500D01*
X123418186Y-97191392D01*
X123532314Y-97125500D01*
X123625500Y-97032314D01*
X123691392Y-96918186D01*
X123725500Y-96790892D01*
X123725500Y-96659108D01*
X123691392Y-96531814D01*
X123625500Y-96417686D01*
X123532314Y-96324500D01*
X123467457Y-96287055D01*
X123418187Y-96258608D01*
X123354539Y-96241554D01*
X123290892Y-96224500D01*
X123159108Y-96224500D01*
X123031812Y-96258608D01*
X122917686Y-96324500D01*
X122917683Y-96324502D01*
X122824502Y-96417683D01*
X122824500Y-96417686D01*
X122758608Y-96531812D01*
X122724500Y-96659108D01*
X91350500Y-96659108D01*
X91350500Y-96218496D01*
X126690182Y-96218496D01*
X126690182Y-96350279D01*
X126724290Y-96477575D01*
X126755604Y-96531812D01*
X126790182Y-96591702D01*
X126883368Y-96684888D01*
X126997496Y-96750780D01*
X127124790Y-96784888D01*
X127124792Y-96784888D01*
X127256572Y-96784888D01*
X127256574Y-96784888D01*
X127383868Y-96750780D01*
X127497996Y-96684888D01*
X127591182Y-96591702D01*
X127657074Y-96477574D01*
X127691182Y-96350280D01*
X127691182Y-96218496D01*
X127657074Y-96091202D01*
X127591182Y-95977074D01*
X127497996Y-95883888D01*
X127440932Y-95850942D01*
X127411775Y-95834108D01*
X162924500Y-95834108D01*
X162924500Y-95965892D01*
X162927496Y-95977074D01*
X162958608Y-96093187D01*
X162991554Y-96150250D01*
X163024500Y-96207314D01*
X163117686Y-96300500D01*
X163231814Y-96366392D01*
X163359108Y-96400500D01*
X163359110Y-96400500D01*
X163490890Y-96400500D01*
X163490892Y-96400500D01*
X163618186Y-96366392D01*
X163732314Y-96300500D01*
X163825500Y-96207314D01*
X163891392Y-96093186D01*
X163925500Y-95965892D01*
X163925500Y-95834108D01*
X163891392Y-95706814D01*
X163825500Y-95592686D01*
X163732314Y-95499500D01*
X163675250Y-95466554D01*
X163618187Y-95433608D01*
X163518188Y-95406814D01*
X163490892Y-95399500D01*
X163359108Y-95399500D01*
X163231812Y-95433608D01*
X163117686Y-95499500D01*
X163117683Y-95499502D01*
X163024502Y-95592683D01*
X163024500Y-95592686D01*
X162958608Y-95706812D01*
X162928817Y-95817996D01*
X162924500Y-95834108D01*
X127411775Y-95834108D01*
X127383869Y-95817996D01*
X127320221Y-95800942D01*
X127256574Y-95783888D01*
X127124790Y-95783888D01*
X126997494Y-95817996D01*
X126883368Y-95883888D01*
X126883365Y-95883890D01*
X126790184Y-95977071D01*
X126790182Y-95977074D01*
X126724290Y-96091200D01*
X126690182Y-96218496D01*
X91350500Y-96218496D01*
X91350500Y-95534108D01*
X120199500Y-95534108D01*
X120199500Y-95665891D01*
X120233608Y-95793187D01*
X120266554Y-95850250D01*
X120299500Y-95907314D01*
X120392686Y-96000500D01*
X120506814Y-96066392D01*
X120634108Y-96100500D01*
X120634110Y-96100500D01*
X120765890Y-96100500D01*
X120765892Y-96100500D01*
X120893186Y-96066392D01*
X121007314Y-96000500D01*
X121100500Y-95907314D01*
X121166392Y-95793186D01*
X121200500Y-95665892D01*
X121200500Y-95534108D01*
X121166392Y-95406814D01*
X121100500Y-95292686D01*
X121007314Y-95199500D01*
X120950250Y-95166554D01*
X120893187Y-95133608D01*
X120829539Y-95116554D01*
X120765892Y-95099500D01*
X120634108Y-95099500D01*
X120506812Y-95133608D01*
X120392686Y-95199500D01*
X120392683Y-95199502D01*
X120299502Y-95292683D01*
X120299500Y-95292686D01*
X120233608Y-95406812D01*
X120199500Y-95534108D01*
X91350500Y-95534108D01*
X91350500Y-93934108D01*
X138449500Y-93934108D01*
X138449500Y-94065891D01*
X138483608Y-94193187D01*
X138516554Y-94250250D01*
X138549500Y-94307314D01*
X138642686Y-94400500D01*
X138756814Y-94466392D01*
X138884108Y-94500500D01*
X138884110Y-94500500D01*
X139015890Y-94500500D01*
X139015892Y-94500500D01*
X139143186Y-94466392D01*
X139257314Y-94400500D01*
X139350500Y-94307314D01*
X139416392Y-94193186D01*
X139418824Y-94184108D01*
X145849500Y-94184108D01*
X145849500Y-94315892D01*
X145850358Y-94319093D01*
X145883608Y-94443187D01*
X145897005Y-94466391D01*
X145949500Y-94557314D01*
X146042686Y-94650500D01*
X146156814Y-94716392D01*
X146284108Y-94750500D01*
X146284110Y-94750500D01*
X146415890Y-94750500D01*
X146415892Y-94750500D01*
X146543186Y-94716392D01*
X146657314Y-94650500D01*
X146750500Y-94557314D01*
X146816392Y-94443186D01*
X146850500Y-94315892D01*
X146850500Y-94184108D01*
X146817249Y-94060014D01*
X157236449Y-94060014D01*
X157236449Y-94191797D01*
X157270557Y-94319093D01*
X157303503Y-94376156D01*
X157336449Y-94433220D01*
X157429635Y-94526406D01*
X157543763Y-94592298D01*
X157671057Y-94626406D01*
X157671059Y-94626406D01*
X157802839Y-94626406D01*
X157802841Y-94626406D01*
X157930135Y-94592298D01*
X158044263Y-94526406D01*
X158137449Y-94433220D01*
X158203341Y-94319092D01*
X158237449Y-94191798D01*
X158237449Y-94060014D01*
X158203341Y-93932720D01*
X158137449Y-93818592D01*
X158044263Y-93725406D01*
X157987199Y-93692460D01*
X157930136Y-93659514D01*
X157866488Y-93642460D01*
X157802841Y-93625406D01*
X157671057Y-93625406D01*
X157543761Y-93659514D01*
X157429635Y-93725406D01*
X157429632Y-93725408D01*
X157336451Y-93818589D01*
X157336449Y-93818592D01*
X157270557Y-93932718D01*
X157236449Y-94060014D01*
X146817249Y-94060014D01*
X146816392Y-94056814D01*
X146750500Y-93942686D01*
X146657314Y-93849500D01*
X146583380Y-93806814D01*
X146543187Y-93783608D01*
X146479539Y-93766554D01*
X146415892Y-93749500D01*
X146284108Y-93749500D01*
X146156812Y-93783608D01*
X146042686Y-93849500D01*
X146042683Y-93849502D01*
X145949502Y-93942683D01*
X145949500Y-93942686D01*
X145883608Y-94056812D01*
X145860277Y-94143886D01*
X145849500Y-94184108D01*
X139418824Y-94184108D01*
X139450500Y-94065892D01*
X139450500Y-93934108D01*
X139416392Y-93806814D01*
X139350500Y-93692686D01*
X139257314Y-93599500D01*
X139229371Y-93583367D01*
X139229370Y-93583366D01*
X139143188Y-93533609D01*
X139143187Y-93533608D01*
X139143186Y-93533608D01*
X139015892Y-93499500D01*
X138884108Y-93499500D01*
X138756812Y-93533608D01*
X138642686Y-93599500D01*
X138642683Y-93599502D01*
X138549502Y-93692683D01*
X138549500Y-93692686D01*
X138483608Y-93806812D01*
X138449500Y-93934108D01*
X91350500Y-93934108D01*
X91350500Y-93484108D01*
X149024500Y-93484108D01*
X149024500Y-93615891D01*
X149058608Y-93743187D01*
X149062253Y-93749500D01*
X149124500Y-93857314D01*
X149217686Y-93950500D01*
X149331814Y-94016392D01*
X149459108Y-94050500D01*
X149459110Y-94050500D01*
X149590890Y-94050500D01*
X149590892Y-94050500D01*
X149718186Y-94016392D01*
X149832314Y-93950500D01*
X149925500Y-93857314D01*
X149991392Y-93743186D01*
X150025500Y-93615892D01*
X150025500Y-93484108D01*
X149991392Y-93356814D01*
X149925500Y-93242686D01*
X149832314Y-93149500D01*
X149775250Y-93116554D01*
X149718187Y-93083608D01*
X149654539Y-93066554D01*
X149590892Y-93049500D01*
X149459108Y-93049500D01*
X149331812Y-93083608D01*
X149217686Y-93149500D01*
X149217683Y-93149502D01*
X149124502Y-93242683D01*
X149124500Y-93242686D01*
X149058608Y-93356812D01*
X149024500Y-93484108D01*
X91350500Y-93484108D01*
X91350500Y-89934108D01*
X124099500Y-89934108D01*
X124099500Y-90065891D01*
X124133608Y-90193187D01*
X124166554Y-90250250D01*
X124199500Y-90307314D01*
X124292686Y-90400500D01*
X124406814Y-90466392D01*
X124534108Y-90500500D01*
X124534110Y-90500500D01*
X124665890Y-90500500D01*
X124665892Y-90500500D01*
X124793186Y-90466392D01*
X124907314Y-90400500D01*
X125000500Y-90307314D01*
X125066392Y-90193186D01*
X125100500Y-90065892D01*
X125100500Y-89934108D01*
X125066392Y-89806814D01*
X125000500Y-89692686D01*
X124907314Y-89599500D01*
X124850250Y-89566554D01*
X124793187Y-89533608D01*
X124729539Y-89516554D01*
X124665892Y-89499500D01*
X124534108Y-89499500D01*
X124406812Y-89533608D01*
X124292686Y-89599500D01*
X124292683Y-89599502D01*
X124199502Y-89692683D01*
X124199500Y-89692686D01*
X124133608Y-89806812D01*
X124099500Y-89934108D01*
X91350500Y-89934108D01*
X91350500Y-76443995D01*
X104399499Y-76443995D01*
X104426418Y-76579322D01*
X104426421Y-76579332D01*
X104479221Y-76706804D01*
X104479228Y-76706817D01*
X104555885Y-76821541D01*
X104555888Y-76821545D01*
X104653454Y-76919111D01*
X104653458Y-76919114D01*
X104768182Y-76995771D01*
X104768195Y-76995778D01*
X104895667Y-77048578D01*
X104895672Y-77048580D01*
X104895676Y-77048580D01*
X104895677Y-77048581D01*
X105031004Y-77075500D01*
X105031007Y-77075500D01*
X105168995Y-77075500D01*
X105260041Y-77057389D01*
X105304328Y-77048580D01*
X105431811Y-76995775D01*
X105546542Y-76919114D01*
X105644114Y-76821542D01*
X105720775Y-76706811D01*
X105773580Y-76579328D01*
X105800500Y-76443993D01*
X105800500Y-76306007D01*
X105800500Y-76306004D01*
X105773581Y-76170677D01*
X105773580Y-76170676D01*
X105773580Y-76170672D01*
X105773578Y-76170667D01*
X105720778Y-76043195D01*
X105720771Y-76043182D01*
X105644114Y-75928458D01*
X105644111Y-75928454D01*
X105546545Y-75830888D01*
X105546541Y-75830885D01*
X105431817Y-75754228D01*
X105431804Y-75754221D01*
X105304332Y-75701421D01*
X105304322Y-75701418D01*
X105168995Y-75674500D01*
X105168993Y-75674500D01*
X105031007Y-75674500D01*
X105031005Y-75674500D01*
X104895677Y-75701418D01*
X104895667Y-75701421D01*
X104768195Y-75754221D01*
X104768182Y-75754228D01*
X104653458Y-75830885D01*
X104653454Y-75830888D01*
X104555888Y-75928454D01*
X104555885Y-75928458D01*
X104479228Y-76043182D01*
X104479221Y-76043195D01*
X104426421Y-76170667D01*
X104426418Y-76170677D01*
X104399500Y-76306004D01*
X104399500Y-76306007D01*
X104399500Y-76443993D01*
X104399500Y-76443995D01*
X104399499Y-76443995D01*
X91350500Y-76443995D01*
X91350500Y-74830247D01*
X145224500Y-74830247D01*
X145224500Y-75769752D01*
X145236131Y-75828229D01*
X145236132Y-75828230D01*
X145280447Y-75894552D01*
X145346769Y-75938867D01*
X145346770Y-75938868D01*
X145405247Y-75950499D01*
X145405250Y-75950500D01*
X145405252Y-75950500D01*
X147444750Y-75950500D01*
X147444751Y-75950499D01*
X147459568Y-75947552D01*
X147503229Y-75938868D01*
X147503229Y-75938867D01*
X147503231Y-75938867D01*
X147569552Y-75894552D01*
X147613867Y-75828231D01*
X147613867Y-75828229D01*
X147613868Y-75828229D01*
X147625499Y-75769752D01*
X147625500Y-75769750D01*
X147625500Y-74830249D01*
X147625499Y-74830247D01*
X147613868Y-74771770D01*
X147613867Y-74771769D01*
X147569552Y-74705447D01*
X147503230Y-74661132D01*
X147503229Y-74661131D01*
X147444752Y-74649500D01*
X147444748Y-74649500D01*
X145405252Y-74649500D01*
X145405247Y-74649500D01*
X145346770Y-74661131D01*
X145346769Y-74661132D01*
X145280447Y-74705447D01*
X145236132Y-74771769D01*
X145236131Y-74771770D01*
X145224500Y-74830247D01*
X91350500Y-74830247D01*
X91350500Y-71062061D01*
X138174500Y-71062061D01*
X138174500Y-73237924D01*
X138174501Y-73237939D01*
X138184696Y-73367484D01*
X138238596Y-73581395D01*
X138329826Y-73782243D01*
X138455449Y-73963568D01*
X138611431Y-74119550D01*
X138792756Y-74245173D01*
X138792757Y-74245173D01*
X138792761Y-74245176D01*
X138926875Y-74306093D01*
X138993604Y-74336403D01*
X138993605Y-74336403D01*
X138993607Y-74336404D01*
X139207515Y-74390304D01*
X139337067Y-74400500D01*
X141512932Y-74400499D01*
X141642485Y-74390304D01*
X141856393Y-74336404D01*
X142057239Y-74245176D01*
X142238567Y-74119551D01*
X142394551Y-73963567D01*
X142520176Y-73782239D01*
X142611404Y-73581393D01*
X142665304Y-73367485D01*
X142675500Y-73237933D01*
X142675499Y-71062068D01*
X142665304Y-70932515D01*
X142611404Y-70718607D01*
X142520176Y-70517761D01*
X142394551Y-70336433D01*
X142394550Y-70336431D01*
X142238568Y-70180449D01*
X142057243Y-70054826D01*
X141856395Y-69963596D01*
X141713787Y-69927662D01*
X141642485Y-69909696D01*
X141512933Y-69899500D01*
X141512931Y-69899500D01*
X139337075Y-69899500D01*
X139337060Y-69899501D01*
X139207515Y-69909696D01*
X138993604Y-69963596D01*
X138792756Y-70054826D01*
X138611431Y-70180449D01*
X138455449Y-70336431D01*
X138329826Y-70517756D01*
X138238596Y-70718604D01*
X138184696Y-70932515D01*
X138174500Y-71062061D01*
X91350500Y-71062061D01*
X91350500Y-68448786D01*
X123379765Y-68448786D01*
X123477593Y-68475000D01*
X123622407Y-68475000D01*
X123720234Y-68448786D01*
X124579765Y-68448786D01*
X124677593Y-68475000D01*
X124822407Y-68475000D01*
X124920234Y-68448786D01*
X124750001Y-68278553D01*
X124579765Y-68448786D01*
X123720234Y-68448786D01*
X123550001Y-68278553D01*
X123379765Y-68448786D01*
X91350500Y-68448786D01*
X91350500Y-67852591D01*
X123000000Y-67852591D01*
X123000000Y-67997408D01*
X123026211Y-68095234D01*
X123196446Y-67925000D01*
X123166609Y-67895163D01*
X123400000Y-67895163D01*
X123400000Y-67954837D01*
X123422836Y-68009968D01*
X123465032Y-68052164D01*
X123520163Y-68075000D01*
X123579837Y-68075000D01*
X123634968Y-68052164D01*
X123677164Y-68009968D01*
X123700000Y-67954837D01*
X123700000Y-67925000D01*
X123903553Y-67925000D01*
X123903553Y-67925001D01*
X124073785Y-68095233D01*
X124117905Y-68083412D01*
X124182093Y-68083412D01*
X124226212Y-68095233D01*
X124396446Y-67925000D01*
X124366609Y-67895163D01*
X124600000Y-67895163D01*
X124600000Y-67954837D01*
X124622836Y-68009968D01*
X124665032Y-68052164D01*
X124720163Y-68075000D01*
X124779837Y-68075000D01*
X124834968Y-68052164D01*
X124877164Y-68009968D01*
X124900000Y-67954837D01*
X124900000Y-67925000D01*
X125103553Y-67925000D01*
X125103553Y-67925001D01*
X125273786Y-68095234D01*
X125300000Y-67997407D01*
X125300000Y-67852592D01*
X125273786Y-67754765D01*
X125103553Y-67925000D01*
X124900000Y-67925000D01*
X124900000Y-67895163D01*
X124877164Y-67840032D01*
X124834968Y-67797836D01*
X124779837Y-67775000D01*
X124720163Y-67775000D01*
X124665032Y-67797836D01*
X124622836Y-67840032D01*
X124600000Y-67895163D01*
X124366609Y-67895163D01*
X124226211Y-67754764D01*
X124182093Y-67766586D01*
X124117908Y-67766586D01*
X124073787Y-67754764D01*
X123903553Y-67925000D01*
X123700000Y-67925000D01*
X123700000Y-67895163D01*
X123677164Y-67840032D01*
X123634968Y-67797836D01*
X123579837Y-67775000D01*
X123520163Y-67775000D01*
X123465032Y-67797836D01*
X123422836Y-67840032D01*
X123400000Y-67895163D01*
X123166609Y-67895163D01*
X123026212Y-67754765D01*
X123000000Y-67852591D01*
X91350500Y-67852591D01*
X91350500Y-67350363D01*
X123378189Y-67350363D01*
X123378189Y-67399635D01*
X123550000Y-67571446D01*
X123721809Y-67399637D01*
X123721809Y-67391056D01*
X123717619Y-67377949D01*
X123720916Y-67350363D01*
X124578189Y-67350363D01*
X124578189Y-67399635D01*
X124750000Y-67571446D01*
X124921809Y-67399637D01*
X124921809Y-67350361D01*
X124750001Y-67178553D01*
X124578189Y-67350363D01*
X123720916Y-67350363D01*
X123721012Y-67349564D01*
X123550001Y-67178553D01*
X123378189Y-67350363D01*
X91350500Y-67350363D01*
X91350500Y-66752591D01*
X123000000Y-66752591D01*
X123000000Y-66897408D01*
X123026211Y-66995234D01*
X123196446Y-66825000D01*
X123166609Y-66795163D01*
X123400000Y-66795163D01*
X123400000Y-66854837D01*
X123422836Y-66909968D01*
X123465032Y-66952164D01*
X123520163Y-66975000D01*
X123579837Y-66975000D01*
X123634968Y-66952164D01*
X123677164Y-66909968D01*
X123700000Y-66854837D01*
X123700000Y-66825000D01*
X123903553Y-66825000D01*
X123903553Y-66825001D01*
X124073785Y-66995233D01*
X124117905Y-66983412D01*
X124182093Y-66983412D01*
X124226212Y-66995233D01*
X124396446Y-66825000D01*
X124366609Y-66795163D01*
X124600000Y-66795163D01*
X124600000Y-66854837D01*
X124622836Y-66909968D01*
X124665032Y-66952164D01*
X124720163Y-66975000D01*
X124779837Y-66975000D01*
X124834968Y-66952164D01*
X124877164Y-66909968D01*
X124900000Y-66854837D01*
X124900000Y-66825000D01*
X125103553Y-66825000D01*
X125103553Y-66825001D01*
X125273786Y-66995234D01*
X125300000Y-66897407D01*
X125300000Y-66752592D01*
X125299999Y-66752590D01*
X125293417Y-66728025D01*
X125293416Y-66728023D01*
X125273786Y-66654765D01*
X125103553Y-66825000D01*
X124900000Y-66825000D01*
X124900000Y-66795163D01*
X124877164Y-66740032D01*
X124834968Y-66697836D01*
X124779837Y-66675000D01*
X124720163Y-66675000D01*
X124665032Y-66697836D01*
X124622836Y-66740032D01*
X124600000Y-66795163D01*
X124366609Y-66795163D01*
X124226211Y-66654764D01*
X124182093Y-66666586D01*
X124117908Y-66666586D01*
X124073787Y-66654764D01*
X123903553Y-66825000D01*
X123700000Y-66825000D01*
X123700000Y-66795163D01*
X123677164Y-66740032D01*
X123634968Y-66697836D01*
X123579837Y-66675000D01*
X123520163Y-66675000D01*
X123465032Y-66697836D01*
X123422836Y-66740032D01*
X123400000Y-66795163D01*
X123166609Y-66795163D01*
X123026212Y-66654765D01*
X123000000Y-66752591D01*
X91350500Y-66752591D01*
X91350500Y-66301211D01*
X123379765Y-66301211D01*
X123379765Y-66301212D01*
X123550000Y-66471446D01*
X123720234Y-66301211D01*
X124579765Y-66301211D01*
X124579765Y-66301212D01*
X124750000Y-66471446D01*
X124920234Y-66301211D01*
X124896208Y-66294774D01*
X124836548Y-66258409D01*
X124806019Y-66195562D01*
X124814314Y-66126186D01*
X124858799Y-66072308D01*
X124896208Y-66055224D01*
X124920234Y-66048786D01*
X124750001Y-65878553D01*
X124607508Y-66021043D01*
X124668635Y-66097675D01*
X124680392Y-66126464D01*
X124693980Y-66154436D01*
X124693489Y-66158535D01*
X124695051Y-66162358D01*
X124689376Y-66192935D01*
X124685685Y-66223812D01*
X124683056Y-66226995D01*
X124682303Y-66231055D01*
X124661003Y-66253705D01*
X124641200Y-66277690D01*
X124636377Y-66279892D01*
X124634438Y-66281955D01*
X124628745Y-66283377D01*
X124603791Y-66294774D01*
X124579765Y-66301211D01*
X123720234Y-66301211D01*
X123696208Y-66294774D01*
X123636548Y-66258409D01*
X123606019Y-66195562D01*
X123614314Y-66126186D01*
X123631364Y-66097675D01*
X123692490Y-66021042D01*
X123550001Y-65878553D01*
X123407508Y-66021043D01*
X123468635Y-66097675D01*
X123480392Y-66126464D01*
X123493980Y-66154436D01*
X123493489Y-66158535D01*
X123495051Y-66162358D01*
X123489376Y-66192935D01*
X123485685Y-66223812D01*
X123483056Y-66226995D01*
X123482303Y-66231055D01*
X123461003Y-66253705D01*
X123441200Y-66277690D01*
X123436377Y-66279892D01*
X123434438Y-66281955D01*
X123428745Y-66283377D01*
X123403791Y-66294774D01*
X123379765Y-66301211D01*
X91350500Y-66301211D01*
X91350500Y-65452591D01*
X123000000Y-65452591D01*
X123000000Y-65597408D01*
X123026211Y-65695234D01*
X123196446Y-65525000D01*
X123166609Y-65495163D01*
X123400000Y-65495163D01*
X123400000Y-65554837D01*
X123422836Y-65609968D01*
X123465032Y-65652164D01*
X123520163Y-65675000D01*
X123579837Y-65675000D01*
X123634968Y-65652164D01*
X123677164Y-65609968D01*
X123700000Y-65554837D01*
X123700000Y-65525000D01*
X123903553Y-65525000D01*
X123903553Y-65525001D01*
X124073785Y-65695233D01*
X124117905Y-65683412D01*
X124182093Y-65683412D01*
X124226212Y-65695233D01*
X124396446Y-65525000D01*
X124366609Y-65495163D01*
X124600000Y-65495163D01*
X124600000Y-65554837D01*
X124622836Y-65609968D01*
X124665032Y-65652164D01*
X124720163Y-65675000D01*
X124779837Y-65675000D01*
X124834968Y-65652164D01*
X124877164Y-65609968D01*
X124900000Y-65554837D01*
X124900000Y-65525000D01*
X125103553Y-65525000D01*
X125103553Y-65525001D01*
X125273786Y-65695234D01*
X125300000Y-65597407D01*
X125300000Y-65452592D01*
X125273786Y-65354765D01*
X125103553Y-65525000D01*
X124900000Y-65525000D01*
X124900000Y-65495163D01*
X124877164Y-65440032D01*
X124834968Y-65397836D01*
X124779837Y-65375000D01*
X124720163Y-65375000D01*
X124665032Y-65397836D01*
X124622836Y-65440032D01*
X124600000Y-65495163D01*
X124366609Y-65495163D01*
X124226211Y-65354764D01*
X124182093Y-65366586D01*
X124117908Y-65366586D01*
X124073787Y-65354764D01*
X123903553Y-65525000D01*
X123700000Y-65525000D01*
X123700000Y-65495163D01*
X123677164Y-65440032D01*
X123634968Y-65397836D01*
X123579837Y-65375000D01*
X123520163Y-65375000D01*
X123465032Y-65397836D01*
X123422836Y-65440032D01*
X123400000Y-65495163D01*
X123166609Y-65495163D01*
X123026212Y-65354765D01*
X123000000Y-65452591D01*
X91350500Y-65452591D01*
X91350500Y-64848787D01*
X123379764Y-64848787D01*
X123391586Y-64892908D01*
X123391586Y-64957093D01*
X123379764Y-65001211D01*
X123550000Y-65171446D01*
X123720233Y-65001212D01*
X123708412Y-64957093D01*
X123708412Y-64941057D01*
X123704222Y-64927950D01*
X123708412Y-64892905D01*
X123720232Y-64848787D01*
X124579764Y-64848787D01*
X124591586Y-64892908D01*
X124591586Y-64957093D01*
X124579764Y-65001211D01*
X124750000Y-65171446D01*
X124920233Y-65001212D01*
X124908412Y-64957093D01*
X124904883Y-64911877D01*
X124912427Y-64840979D01*
X124870704Y-64799256D01*
X138125000Y-64799256D01*
X138125000Y-65100743D01*
X138125001Y-65100759D01*
X138164353Y-65399667D01*
X138242389Y-65690901D01*
X138357765Y-65969443D01*
X138357770Y-65969454D01*
X138508512Y-66230545D01*
X138508523Y-66230561D01*
X138631115Y-66390328D01*
X138631117Y-66390328D01*
X139309728Y-65711716D01*
X139395278Y-65829466D01*
X139545534Y-65979722D01*
X139663281Y-66065270D01*
X138984670Y-66743881D01*
X138984670Y-66743882D01*
X139144438Y-66866476D01*
X139144454Y-66866487D01*
X139405545Y-67017229D01*
X139405556Y-67017234D01*
X139684098Y-67132610D01*
X139975332Y-67210646D01*
X140274240Y-67249998D01*
X140274257Y-67250000D01*
X140575743Y-67250000D01*
X140575759Y-67249998D01*
X140874667Y-67210646D01*
X141165901Y-67132610D01*
X141444443Y-67017234D01*
X141444454Y-67017229D01*
X141705545Y-66866487D01*
X141705553Y-66866481D01*
X141865328Y-66743881D01*
X141186717Y-66065270D01*
X141304466Y-65979722D01*
X141454722Y-65829466D01*
X141540270Y-65711717D01*
X142218881Y-66390328D01*
X142341481Y-66230553D01*
X142341487Y-66230545D01*
X142492229Y-65969454D01*
X142492234Y-65969443D01*
X142607610Y-65690901D01*
X142685646Y-65399667D01*
X142724998Y-65100759D01*
X142725000Y-65100743D01*
X142725000Y-64799256D01*
X142724998Y-64799240D01*
X142685646Y-64500332D01*
X142607610Y-64209098D01*
X142492234Y-63930556D01*
X142492229Y-63930545D01*
X142341487Y-63669454D01*
X142341476Y-63669438D01*
X142218881Y-63509670D01*
X141540270Y-64188281D01*
X141454722Y-64070534D01*
X141304466Y-63920278D01*
X141186716Y-63834728D01*
X141865328Y-63156117D01*
X141865328Y-63156115D01*
X141705561Y-63033523D01*
X141705545Y-63033512D01*
X141444454Y-62882770D01*
X141444443Y-62882765D01*
X141165901Y-62767389D01*
X140874667Y-62689353D01*
X140575759Y-62650001D01*
X140575743Y-62650000D01*
X140274257Y-62650000D01*
X140274240Y-62650001D01*
X139975332Y-62689353D01*
X139684098Y-62767389D01*
X139405556Y-62882765D01*
X139405545Y-62882770D01*
X139144442Y-63033520D01*
X138984670Y-63156116D01*
X138984670Y-63156117D01*
X139663282Y-63834729D01*
X139545534Y-63920278D01*
X139395278Y-64070534D01*
X139309729Y-64188282D01*
X138631117Y-63509670D01*
X138631116Y-63509670D01*
X138508520Y-63669442D01*
X138357770Y-63930545D01*
X138357765Y-63930556D01*
X138242389Y-64209098D01*
X138164353Y-64500332D01*
X138125001Y-64799240D01*
X138125000Y-64799256D01*
X124870704Y-64799256D01*
X124750001Y-64678553D01*
X124579764Y-64848787D01*
X123720232Y-64848787D01*
X123720233Y-64848785D01*
X123550001Y-64678553D01*
X123379764Y-64848787D01*
X91350500Y-64848787D01*
X91350500Y-64252591D01*
X123000000Y-64252591D01*
X123000000Y-64397408D01*
X123026211Y-64495234D01*
X123196446Y-64325000D01*
X123166609Y-64295163D01*
X123400000Y-64295163D01*
X123400000Y-64354837D01*
X123422836Y-64409968D01*
X123465032Y-64452164D01*
X123520163Y-64475000D01*
X123579837Y-64475000D01*
X123634968Y-64452164D01*
X123677164Y-64409968D01*
X123700000Y-64354837D01*
X123700000Y-64325000D01*
X123903553Y-64325000D01*
X123903553Y-64325001D01*
X124073785Y-64495233D01*
X124117905Y-64483412D01*
X124182093Y-64483412D01*
X124226212Y-64495233D01*
X124396446Y-64325000D01*
X124366609Y-64295163D01*
X124600000Y-64295163D01*
X124600000Y-64354837D01*
X124622836Y-64409968D01*
X124665032Y-64452164D01*
X124720163Y-64475000D01*
X124779837Y-64475000D01*
X124834968Y-64452164D01*
X124877164Y-64409968D01*
X124900000Y-64354837D01*
X124900000Y-64325000D01*
X125103553Y-64325000D01*
X125103553Y-64325001D01*
X125273786Y-64495234D01*
X125300000Y-64397407D01*
X125300000Y-64252592D01*
X125273786Y-64154765D01*
X125103553Y-64325000D01*
X124900000Y-64325000D01*
X124900000Y-64295163D01*
X124877164Y-64240032D01*
X124834968Y-64197836D01*
X124779837Y-64175000D01*
X124720163Y-64175000D01*
X124665032Y-64197836D01*
X124622836Y-64240032D01*
X124600000Y-64295163D01*
X124366609Y-64295163D01*
X124226211Y-64154764D01*
X124182093Y-64166586D01*
X124117908Y-64166586D01*
X124073787Y-64154764D01*
X123903553Y-64325000D01*
X123700000Y-64325000D01*
X123700000Y-64295163D01*
X123677164Y-64240032D01*
X123634968Y-64197836D01*
X123579837Y-64175000D01*
X123520163Y-64175000D01*
X123465032Y-64197836D01*
X123422836Y-64240032D01*
X123400000Y-64295163D01*
X123166609Y-64295163D01*
X123026212Y-64154765D01*
X123000000Y-64252591D01*
X91350500Y-64252591D01*
X91350500Y-63801212D01*
X123379765Y-63801212D01*
X123550000Y-63971446D01*
X123720233Y-63801212D01*
X124579765Y-63801212D01*
X124750000Y-63971446D01*
X124920234Y-63801211D01*
X124822408Y-63775000D01*
X124677591Y-63775000D01*
X124579765Y-63801212D01*
X123720233Y-63801212D01*
X123720234Y-63801211D01*
X123622408Y-63775000D01*
X123477591Y-63775000D01*
X123379765Y-63801212D01*
X91350500Y-63801212D01*
X91350500Y-59515551D01*
X91350649Y-59509466D01*
X91356459Y-59391211D01*
X93199500Y-59391211D01*
X93199500Y-59633788D01*
X93231161Y-59874285D01*
X93293947Y-60108604D01*
X93386773Y-60332705D01*
X93386776Y-60332712D01*
X93508064Y-60542789D01*
X93508066Y-60542792D01*
X93508067Y-60542793D01*
X93655733Y-60735236D01*
X93655739Y-60735243D01*
X93827256Y-60906760D01*
X93827262Y-60906765D01*
X94019711Y-61054436D01*
X94229788Y-61175724D01*
X94453900Y-61268554D01*
X94688211Y-61331338D01*
X94868586Y-61355084D01*
X94928711Y-61363000D01*
X94928712Y-61363000D01*
X95171289Y-61363000D01*
X95219388Y-61356667D01*
X95411789Y-61331338D01*
X95415861Y-61330247D01*
X145224500Y-61330247D01*
X145224500Y-62269752D01*
X145236131Y-62328229D01*
X145236132Y-62328230D01*
X145280447Y-62394552D01*
X145346769Y-62438867D01*
X145346770Y-62438868D01*
X145405247Y-62450499D01*
X145405250Y-62450500D01*
X145405252Y-62450500D01*
X147444750Y-62450500D01*
X147444751Y-62450499D01*
X147459568Y-62447552D01*
X147503229Y-62438868D01*
X147503229Y-62438867D01*
X147503231Y-62438867D01*
X147569552Y-62394552D01*
X147613867Y-62328231D01*
X147613867Y-62328229D01*
X147613868Y-62328229D01*
X147625499Y-62269752D01*
X147625500Y-62269750D01*
X147625500Y-61330249D01*
X147625499Y-61330247D01*
X147613868Y-61271770D01*
X147613867Y-61271769D01*
X147569552Y-61205447D01*
X147503230Y-61161132D01*
X147503229Y-61161131D01*
X147444752Y-61149500D01*
X147444748Y-61149500D01*
X145405252Y-61149500D01*
X145405247Y-61149500D01*
X145346770Y-61161131D01*
X145346769Y-61161132D01*
X145280447Y-61205447D01*
X145236132Y-61271769D01*
X145236131Y-61271770D01*
X145224500Y-61330247D01*
X95415861Y-61330247D01*
X95646100Y-61268554D01*
X95723911Y-61236323D01*
X95788431Y-61209599D01*
X95808082Y-61201458D01*
X95870212Y-61175724D01*
X96080289Y-61054436D01*
X96272738Y-60906765D01*
X96444265Y-60735238D01*
X96591936Y-60542789D01*
X96713224Y-60332712D01*
X96806054Y-60108600D01*
X96868838Y-59874289D01*
X96900500Y-59633788D01*
X96900500Y-59391212D01*
X96900500Y-59391211D01*
X175199500Y-59391211D01*
X175199500Y-59633788D01*
X175231161Y-59874285D01*
X175293947Y-60108604D01*
X175386773Y-60332705D01*
X175386776Y-60332712D01*
X175508064Y-60542789D01*
X175508066Y-60542792D01*
X175508067Y-60542793D01*
X175655733Y-60735236D01*
X175655739Y-60735243D01*
X175827256Y-60906760D01*
X175827262Y-60906765D01*
X176019711Y-61054436D01*
X176229788Y-61175724D01*
X176453900Y-61268554D01*
X176688211Y-61331338D01*
X176868586Y-61355084D01*
X176928711Y-61363000D01*
X176928712Y-61363000D01*
X177171289Y-61363000D01*
X177219388Y-61356667D01*
X177411789Y-61331338D01*
X177646100Y-61268554D01*
X177870212Y-61175724D01*
X178080289Y-61054436D01*
X178272738Y-60906765D01*
X178444265Y-60735238D01*
X178591936Y-60542789D01*
X178713224Y-60332712D01*
X178806054Y-60108600D01*
X178868838Y-59874289D01*
X178900500Y-59633788D01*
X178900500Y-59391212D01*
X178899164Y-59381067D01*
X178868838Y-59150714D01*
X178868838Y-59150711D01*
X178806054Y-58916400D01*
X178713224Y-58692288D01*
X178591936Y-58482211D01*
X178444265Y-58289762D01*
X178444260Y-58289756D01*
X178272743Y-58118239D01*
X178272736Y-58118233D01*
X178080293Y-57970567D01*
X178080292Y-57970566D01*
X178080289Y-57970564D01*
X177870212Y-57849276D01*
X177870205Y-57849273D01*
X177646104Y-57756447D01*
X177411785Y-57693661D01*
X177171289Y-57662000D01*
X177171288Y-57662000D01*
X176928712Y-57662000D01*
X176928711Y-57662000D01*
X176688214Y-57693661D01*
X176453895Y-57756447D01*
X176229794Y-57849273D01*
X176229785Y-57849277D01*
X176019706Y-57970567D01*
X175827263Y-58118233D01*
X175827256Y-58118239D01*
X175655739Y-58289756D01*
X175655733Y-58289763D01*
X175508067Y-58482206D01*
X175386777Y-58692285D01*
X175386773Y-58692294D01*
X175293947Y-58916395D01*
X175231161Y-59150714D01*
X175199500Y-59391211D01*
X96900500Y-59391211D01*
X96899164Y-59381067D01*
X96868838Y-59150714D01*
X96868838Y-59150711D01*
X96806054Y-58916400D01*
X96713224Y-58692288D01*
X96591936Y-58482211D01*
X96444265Y-58289762D01*
X96444260Y-58289756D01*
X96272743Y-58118239D01*
X96272736Y-58118233D01*
X96080293Y-57970567D01*
X96080292Y-57970566D01*
X96080289Y-57970564D01*
X95870212Y-57849276D01*
X95870205Y-57849273D01*
X95646104Y-57756447D01*
X95411785Y-57693661D01*
X95171289Y-57662000D01*
X95171288Y-57662000D01*
X94928712Y-57662000D01*
X94928711Y-57662000D01*
X94688214Y-57693661D01*
X94453895Y-57756447D01*
X94229794Y-57849273D01*
X94229785Y-57849277D01*
X94019706Y-57970567D01*
X93827263Y-58118233D01*
X93827256Y-58118239D01*
X93655739Y-58289756D01*
X93655733Y-58289763D01*
X93508067Y-58482206D01*
X93386777Y-58692285D01*
X93386773Y-58692294D01*
X93293947Y-58916395D01*
X93231161Y-59150714D01*
X93199500Y-59391211D01*
X91356459Y-59391211D01*
X91356957Y-59381068D01*
X91356957Y-59381067D01*
X91368015Y-59155969D01*
X91369208Y-59143859D01*
X91420691Y-58796787D01*
X91423061Y-58784867D01*
X91508322Y-58444486D01*
X91511852Y-58432853D01*
X91563054Y-58289756D01*
X91630055Y-58102499D01*
X91634710Y-58091262D01*
X91691795Y-57970564D01*
X91784735Y-57774057D01*
X91790454Y-57763357D01*
X91970851Y-57462384D01*
X91977594Y-57452291D01*
X92186630Y-57170439D01*
X92194333Y-57161054D01*
X92429983Y-56901053D01*
X92438553Y-56892483D01*
X92698554Y-56656833D01*
X92707939Y-56649130D01*
X92989791Y-56440094D01*
X92999884Y-56433351D01*
X93300857Y-56252954D01*
X93311557Y-56247235D01*
X93628762Y-56097210D01*
X93639999Y-56092555D01*
X93970361Y-55974349D01*
X93981986Y-55970822D01*
X94322367Y-55885561D01*
X94334278Y-55883192D01*
X94681359Y-55831707D01*
X94693465Y-55830515D01*
X95046967Y-55813148D01*
X95053051Y-55813000D01*
X95097595Y-55813000D01*
X177002405Y-55813000D01*
X177046949Y-55813000D01*
X177053032Y-55813148D01*
G37*
G04 #@! TD.AperFunction*
G04 #@! TD*
M02*
